<?xml version="1.0" encoding="utf-8" standalone="no"?>
<!DOCTYPE svg PUBLIC "-//W3C//DTD SVG 1.1//EN"
  "http://www.w3.org/Graphics/SVG/1.1/DTD/svg11.dtd">
<svg xmlns:xlink="http://www.w3.org/1999/xlink" width="270.4608pt" height="81.72pt" viewBox="0 0 270.4608 81.72" xmlns="http://www.w3.org/2000/svg" version="1.1">
 <metadata>
  <rdf:RDF xmlns:dc="http://purl.org/dc/elements/1.1/" xmlns:cc="http://creativecommons.org/ns#" xmlns:rdf="http://www.w3.org/1999/02/22-rdf-syntax-ns#">
   <cc:Work>
    <dc:type rdf:resource="http://purl.org/dc/dcmitype/StillImage"/>
    <dc:date>2022-08-18T11:51:30.962462</dc:date>
    <dc:format>image/svg+xml</dc:format>
    <dc:creator>
     <cc:Agent>
      <dc:title>Matplotlib v3.5.3, https://matplotlib.org/</dc:title>
     </cc:Agent>
    </dc:creator>
   </cc:Work>
  </rdf:RDF>
 </metadata>
 <defs>
  <style type="text/css">*{stroke-linejoin: round; stroke-linecap: butt}</style>
 </defs>
 <g id="figure_1">
  <g id="patch_1">
   <path d="M 0 81.72 
L 270.4608 81.72 
L 270.4608 0 
L 0 0 
L 0 81.72 
z
" style="fill: none"/>
  </g>
  <g id="axes_1">
   <g id="line2d_1">
    <path d="M 28.8648 40.86 
L 44.1648 40.86 
L 59.4648 40.86 
" clip-path="url(#p95cad1ce4a)" style="fill: none; stroke: #000000; stroke-width: 2; stroke-linecap: round"/>
   </g>
   <g id="line2d_2">
    <path d="M 59.4648 40.86 
L 74.7648 40.86 
L 82.4148 40.86 
" clip-path="url(#p95cad1ce4a)" style="fill: none; stroke: #000000; stroke-width: 2; stroke-linecap: round"/>
   </g>
   <g id="patch_2">
    <path d="M 82.4148 38.565 
L 90.0648 40.86 
L 82.4148 43.155 
z
" clip-path="url(#p95cad1ce4a)"/>
   </g>
   <g id="line2d_3">
    <path d="M 90.0648 40.86 
L 90.0648 10.26 
L 181.8648 10.26 
L 181.8648 71.46 
L 90.0648 71.46 
L 90.0648 40.86 
" clip-path="url(#p95cad1ce4a)" style="fill: none; stroke: #000000; stroke-width: 2; stroke-linecap: round"/>
   </g>
   <g id="line2d_4">
    <path d="M 181.8648 40.86 
L 204.8148 40.86 
L 220.1148 40.86 
" clip-path="url(#p95cad1ce4a)" style="fill: none; stroke: #000000; stroke-width: 2; stroke-linecap: round"/>
   </g>
   <g id="patch_3">
    <path d="M 220.1148 38.565 
L 227.7648 40.86 
L 220.1148 43.155 
z
" clip-path="url(#p95cad1ce4a)"/>
   </g>
   <g id="text_1">
    <g clip-path="url(#p95cad1ce4a)">
     <!-- in -->
     <g transform="translate(15.275503 44.64125)scale(0.125 -0.125)">
      <defs>
       <path id="YuGothic-Regular-69" d="M 1038 3341 
L 1038 141 
L 641 141 
L 641 3341 
L 1038 3341 
z
M 1131 4628 
L 1131 4031 
L 544 4031 
L 544 4628 
L 1131 4628 
z
" transform="scale(0.015625)"/>
       <path id="YuGothic-Regular-6e" d="M 1025 3341 
L 1025 2747 
Q 1563 3419 2194 3419 
Q 2628 3419 2872 3147 
Q 3091 2906 3091 2516 
L 3091 141 
L 2688 141 
L 2688 2350 
Q 2688 3059 2094 3059 
Q 1538 3059 1038 2394 
L 1038 141 
L 641 141 
L 641 3341 
L 1025 3341 
z
" transform="scale(0.015625)"/>
      </defs>
      <use xlink:href="#YuGothic-Regular-69"/>
      <use xlink:href="#YuGothic-Regular-6e" x="26.220703"/>
     </g>
    </g>
   </g>
   <g id="text_2">
    <g clip-path="url(#p95cad1ce4a)">
     <!-- $G(s)$ -->
     <g transform="translate(122.9648 44.64125)scale(0.125 -0.125)">
      <defs>
       <path id="DejaVuSans-Oblique-47" d="M 3494 697 
L 3738 1919 
L 2700 1919 
L 2797 2438 
L 4453 2438 
L 4050 384 
Q 3634 156 3143 32 
Q 2653 -91 2156 -91 
Q 1278 -91 783 396 
Q 288 884 288 1753 
Q 288 2475 589 3126 
Q 891 3778 1422 4213 
Q 1756 4484 2153 4617 
Q 2550 4750 3034 4750 
Q 3472 4750 3873 4639 
Q 4275 4528 4641 4306 
L 4513 3634 
Q 4231 3928 3853 4083 
Q 3475 4238 3047 4238 
Q 2550 4238 2172 4048 
Q 1794 3859 1497 3463 
Q 1244 3125 1098 2667 
Q 953 2209 953 1734 
Q 953 1081 1287 751 
Q 1622 422 2284 422 
Q 2616 422 2925 492 
Q 3234 563 3494 697 
z
" transform="scale(0.015625)"/>
       <path id="DejaVuSans-28" d="M 1984 4856 
Q 1566 4138 1362 3434 
Q 1159 2731 1159 2009 
Q 1159 1288 1364 580 
Q 1569 -128 1984 -844 
L 1484 -844 
Q 1016 -109 783 600 
Q 550 1309 550 2009 
Q 550 2706 781 3412 
Q 1013 4119 1484 4856 
L 1984 4856 
z
" transform="scale(0.015625)"/>
       <path id="DejaVuSans-Oblique-73" d="M 3200 3397 
L 3091 2853 
Q 2863 2978 2609 3040 
Q 2356 3103 2088 3103 
Q 1634 3103 1373 2948 
Q 1113 2794 1113 2528 
Q 1113 2219 1719 2053 
Q 1766 2041 1788 2034 
L 1972 1978 
Q 2547 1819 2739 1644 
Q 2931 1469 2931 1166 
Q 2931 609 2489 259 
Q 2047 -91 1331 -91 
Q 1053 -91 747 -37 
Q 441 16 72 128 
L 184 722 
Q 500 559 806 475 
Q 1113 391 1394 391 
Q 1816 391 2080 572 
Q 2344 753 2344 1031 
Q 2344 1331 1650 1516 
L 1591 1531 
L 1394 1581 
Q 956 1697 753 1886 
Q 550 2075 550 2369 
Q 550 2928 970 3256 
Q 1391 3584 2113 3584 
Q 2397 3584 2667 3537 
Q 2938 3491 3200 3397 
z
" transform="scale(0.015625)"/>
       <path id="DejaVuSans-29" d="M 513 4856 
L 1013 4856 
Q 1481 4119 1714 3412 
Q 1947 2706 1947 2009 
Q 1947 1309 1714 600 
Q 1481 -109 1013 -844 
L 513 -844 
Q 928 -128 1133 580 
Q 1338 1288 1338 2009 
Q 1338 2731 1133 3434 
Q 928 4138 513 4856 
z
" transform="scale(0.015625)"/>
      </defs>
      <use xlink:href="#DejaVuSans-Oblique-47" transform="translate(0 0.125)"/>
      <use xlink:href="#DejaVuSans-28" transform="translate(77.490234 0.125)"/>
      <use xlink:href="#DejaVuSans-Oblique-73" transform="translate(116.503906 0.125)"/>
      <use xlink:href="#DejaVuSans-29" transform="translate(168.603516 0.125)"/>
     </g>
    </g>
   </g>
   <g id="text_3">
    <g clip-path="url(#p95cad1ce4a)">
     <!-- out -->
     <g transform="translate(230.8248 44.64125)scale(0.125 -0.125)">
      <defs>
       <path id="YuGothic-Regular-6f" d="M 1797 3419 
Q 2438 3419 2816 2913 
Q 3153 2459 3153 1753 
Q 3153 934 2719 466 
Q 2350 63 1791 63 
Q 1141 63 766 575 
Q 434 1025 434 1734 
Q 434 2553 866 3019 
Q 1234 3419 1797 3419 
z
M 1797 3094 
Q 1322 3094 1069 2694 
Q 844 2341 844 1747 
Q 844 1059 1131 697 
Q 1381 388 1791 388 
Q 2263 388 2519 791 
Q 2744 1147 2744 1747 
Q 2744 2425 2456 2784 
Q 2206 3094 1797 3094 
z
" transform="scale(0.015625)"/>
       <path id="YuGothic-Regular-75" d="M 3078 3341 
L 3078 141 
L 2694 141 
L 2694 750 
Q 2478 409 2138 225 
Q 1844 63 1531 63 
Q 1100 63 853 322 
Q 622 559 622 959 
L 622 3341 
L 1025 3341 
L 1025 1081 
Q 1025 416 1638 416 
Q 1934 416 2241 631 
Q 2506 819 2681 1100 
L 2681 3341 
L 3078 3341 
z
" transform="scale(0.015625)"/>
       <path id="YuGothic-Regular-74" d="M 1197 4488 
L 1197 3341 
L 2003 3341 
L 2003 3022 
L 1197 3022 
L 1197 941 
Q 1197 375 1672 375 
Q 1878 375 2088 422 
L 2059 97 
Q 1859 63 1606 63 
Q 800 63 800 863 
L 800 3022 
L 250 3022 
L 250 3341 
L 800 3341 
L 800 4397 
L 1197 4488 
z
" transform="scale(0.015625)"/>
      </defs>
      <use xlink:href="#YuGothic-Regular-6f"/>
      <use xlink:href="#YuGothic-Regular-75" x="56.103516"/>
      <use xlink:href="#YuGothic-Regular-74" x="114.208984"/>
     </g>
    </g>
   </g>
  </g>
 </g>
 <defs>
  <clipPath id="p95cad1ce4a">
   <rect x="7.2" y="7.2" width="256.0608" height="67.32"/>
  </clipPath>
 </defs>
</svg>
