<?xml version="1.0" encoding="utf-8" standalone="no"?>
<!DOCTYPE svg PUBLIC "-//W3C//DTD SVG 1.1//EN"
  "http://www.w3.org/Graphics/SVG/1.1/DTD/svg11.dtd">
<svg xmlns:xlink="http://www.w3.org/1999/xlink" width="206.721pt" height="109.77pt" viewBox="0 0 206.721 109.77" xmlns="http://www.w3.org/2000/svg" version="1.1">
 <metadata>
  <rdf:RDF xmlns:dc="http://purl.org/dc/elements/1.1/" xmlns:cc="http://creativecommons.org/ns#" xmlns:rdf="http://www.w3.org/1999/02/22-rdf-syntax-ns#">
   <cc:Work>
    <dc:type rdf:resource="http://purl.org/dc/dcmitype/StillImage"/>
    <dc:date>2022-08-18T11:51:33.911787</dc:date>
    <dc:format>image/svg+xml</dc:format>
    <dc:creator>
     <cc:Agent>
      <dc:title>Matplotlib v3.5.3, https://matplotlib.org/</dc:title>
     </cc:Agent>
    </dc:creator>
   </cc:Work>
  </rdf:RDF>
 </metadata>
 <defs>
  <style type="text/css">*{stroke-linejoin: round; stroke-linecap: butt}</style>
 </defs>
 <g id="figure_1">
  <g id="patch_1">
   <path d="M 0 109.77 
L 206.721 109.77 
L 206.721 0 
L 0 0 
L 0 109.77 
z
" style="fill: none"/>
  </g>
  <g id="axes_1">
   <g id="patch_2">
    <path d="M 99.8364 34.91 
C 101.865204 34.91 103.811186 34.103948 105.245767 32.669367 
C 106.680348 31.234786 107.4864 29.288804 107.4864 27.26 
C 107.4864 25.231196 106.680348 23.285214 105.245767 21.850633 
C 103.811186 20.416052 101.865204 19.61 99.8364 19.61 
C 97.807596 19.61 95.861614 20.416052 94.427033 21.850633 
C 92.992452 23.285214 92.1864 25.231196 92.1864 27.26 
C 92.1864 29.288804 92.992452 31.234786 94.427033 32.669367 
C 95.861614 34.103948 97.807596 34.91 99.8364 34.91 
L 99.8364 34.91 
z
" clip-path="url(#pfcb0691536)" style="fill: none; stroke: #000000; stroke-width: 2; stroke-linejoin: miter"/>
   </g>
   <g id="patch_3">
    <path d="M 99.8364 34.91 
C 101.865204 34.91 103.811186 34.103948 105.245767 32.669367 
C 106.680348 31.234786 107.4864 29.288804 107.4864 27.26 
C 107.4864 25.231196 106.680348 23.285214 105.245767 21.850633 
C 103.811186 20.416052 101.865204 19.61 99.8364 19.61 
C 97.807596 19.61 95.861614 20.416052 94.427033 21.850633 
C 92.992452 23.285214 92.1864 25.231196 92.1864 27.26 
C 92.1864 29.288804 92.992452 31.234786 94.427033 32.669367 
C 95.861614 34.103948 97.807596 34.91 99.8364 34.91 
L 99.8364 34.91 
z
" clip-path="url(#pfcb0691536)" style="fill: none; stroke: #000000; stroke-width: 2; stroke-linejoin: miter"/>
   </g>
   <g id="line2d_1">
    <path d="M 46.2864 27.26 
L 69.2364 27.26 
L 84.5364 27.26 
" clip-path="url(#pfcb0691536)" style="fill: none; stroke: #000000; stroke-width: 2; stroke-linecap: round"/>
   </g>
   <g id="patch_4">
    <path d="M 84.5364 24.965 
L 92.1864 27.26 
L 84.5364 29.555 
z
" clip-path="url(#pfcb0691536)"/>
   </g>
   <g id="line2d_2">
    <path d="M 107.4864 27.26 
L 130.4364 27.26 
L 145.7364 27.26 
" clip-path="url(#pfcb0691536)" style="fill: none; stroke: #000000; stroke-width: 2; stroke-linecap: round"/>
   </g>
   <g id="patch_5">
    <path d="M 145.7364 24.965 
L 153.3864 27.26 
L 145.7364 29.555 
z
" clip-path="url(#pfcb0691536)"/>
   </g>
   <g id="line2d_3">
    <path d="M 99.8364 80.81 
L 99.8364 57.86 
L 99.8364 42.56 
" clip-path="url(#pfcb0691536)" style="fill: none; stroke: #000000; stroke-width: 2; stroke-linecap: round"/>
   </g>
   <g id="patch_6">
    <path d="M 97.5414 42.56 
L 99.8364 34.91 
L 102.1314 42.56 
z
" clip-path="url(#pfcb0691536)"/>
   </g>
   <g id="line2d_4">
    <path d="M 46.2864 27.26 
L 69.2364 27.26 
L 84.5364 27.26 
" clip-path="url(#pfcb0691536)" style="fill: none; stroke: #000000; stroke-width: 2; stroke-linecap: round"/>
   </g>
   <g id="patch_7">
    <path d="M 84.5364 24.965 
L 92.1864 27.26 
L 84.5364 29.555 
z
" clip-path="url(#pfcb0691536)"/>
   </g>
   <g id="line2d_5">
    <path d="M 107.4864 27.26 
L 130.4364 27.26 
L 145.7364 27.26 
" clip-path="url(#pfcb0691536)" style="fill: none; stroke: #000000; stroke-width: 2; stroke-linecap: round"/>
   </g>
   <g id="patch_8">
    <path d="M 145.7364 24.965 
L 153.3864 27.26 
L 145.7364 29.555 
z
" clip-path="url(#pfcb0691536)"/>
   </g>
   <g id="line2d_6">
    <path d="M 99.8364 80.81 
L 99.8364 57.86 
L 99.8364 42.56 
" clip-path="url(#pfcb0691536)" style="fill: none; stroke: #000000; stroke-width: 2; stroke-linecap: round"/>
   </g>
   <g id="patch_9">
    <path d="M 97.5414 42.56 
L 99.8364 34.91 
L 102.1314 42.56 
z
" clip-path="url(#pfcb0691536)"/>
   </g>
   <g id="text_1">
    <g clip-path="url(#pfcb0691536)">
     <!-- $V_{in1}$ -->
     <g transform="translate(20.7264 30.906484)scale(0.125 -0.125)">
      <defs>
       <path id="DejaVuSans-Oblique-56" d="M 1319 0 
L 500 4666 
L 1119 4666 
L 1797 653 
L 4063 4666 
L 4750 4666 
L 2053 0 
L 1319 0 
z
" transform="scale(0.015625)"/>
       <path id="DejaVuSans-Oblique-69" d="M 1172 4863 
L 1747 4863 
L 1606 4134 
L 1031 4134 
L 1172 4863 
z
M 909 3500 
L 1484 3500 
L 800 0 
L 225 0 
L 909 3500 
z
" transform="scale(0.015625)"/>
       <path id="DejaVuSans-Oblique-6e" d="M 3566 2113 
L 3156 0 
L 2578 0 
L 2988 2091 
Q 3016 2238 3031 2350 
Q 3047 2463 3047 2528 
Q 3047 2791 2881 2937 
Q 2716 3084 2419 3084 
Q 1956 3084 1622 2776 
Q 1288 2469 1184 1941 
L 800 0 
L 225 0 
L 903 3500 
L 1478 3500 
L 1363 2950 
Q 1603 3253 1940 3418 
Q 2278 3584 2650 3584 
Q 3113 3584 3367 3334 
Q 3622 3084 3622 2631 
Q 3622 2519 3608 2391 
Q 3594 2263 3566 2113 
z
" transform="scale(0.015625)"/>
       <path id="DejaVuSans-31" d="M 794 531 
L 1825 531 
L 1825 4091 
L 703 3866 
L 703 4441 
L 1819 4666 
L 2450 4666 
L 2450 531 
L 3481 531 
L 3481 0 
L 794 0 
L 794 531 
z
" transform="scale(0.015625)"/>
      </defs>
      <use xlink:href="#DejaVuSans-Oblique-56" transform="translate(0 0.09375)"/>
      <use xlink:href="#DejaVuSans-Oblique-69" transform="translate(68.408203 -16.3125)scale(0.7)"/>
      <use xlink:href="#DejaVuSans-Oblique-6e" transform="translate(87.856445 -16.3125)scale(0.7)"/>
      <use xlink:href="#DejaVuSans-31" transform="translate(132.22168 -16.3125)scale(0.7)"/>
     </g>
    </g>
   </g>
   <g id="text_2">
    <g clip-path="url(#pfcb0691536)">
     <!-- $V_{out}$ -->
     <g transform="translate(156.4464 30.781484)scale(0.125 -0.125)">
      <defs>
       <path id="DejaVuSans-Oblique-6f" d="M 1625 -91 
Q 1009 -91 651 289 
Q 294 669 294 1325 
Q 294 1706 417 2101 
Q 541 2497 738 2766 
Q 1047 3184 1428 3384 
Q 1809 3584 2291 3584 
Q 2888 3584 3255 3212 
Q 3622 2841 3622 2241 
Q 3622 1825 3500 1412 
Q 3378 1000 3181 728 
Q 2875 309 2494 109 
Q 2113 -91 1625 -91 
z
M 891 1344 
Q 891 869 1089 633 
Q 1288 397 1691 397 
Q 2269 397 2648 901 
Q 3028 1406 3028 2181 
Q 3028 2634 2825 2865 
Q 2622 3097 2228 3097 
Q 1903 3097 1650 2945 
Q 1397 2794 1197 2484 
Q 1050 2253 970 1956 
Q 891 1659 891 1344 
z
" transform="scale(0.015625)"/>
       <path id="DejaVuSans-Oblique-75" d="M 428 1388 
L 838 3500 
L 1416 3500 
L 1006 1409 
Q 975 1256 961 1147 
Q 947 1038 947 966 
Q 947 700 1109 554 
Q 1272 409 1569 409 
Q 2031 409 2368 721 
Q 2706 1034 2809 1563 
L 3194 3500 
L 3769 3500 
L 3091 0 
L 2516 0 
L 2631 550 
Q 2388 244 2052 76 
Q 1716 -91 1338 -91 
Q 878 -91 622 161 
Q 366 413 366 863 
Q 366 956 381 1097 
Q 397 1238 428 1388 
z
" transform="scale(0.015625)"/>
       <path id="DejaVuSans-Oblique-74" d="M 2706 3500 
L 2619 3053 
L 1472 3053 
L 1100 1153 
Q 1081 1047 1072 975 
Q 1063 903 1063 863 
Q 1063 663 1183 572 
Q 1303 481 1569 481 
L 2150 481 
L 2053 0 
L 1503 0 
Q 991 0 739 200 
Q 488 400 488 806 
Q 488 878 497 964 
Q 506 1050 525 1153 
L 897 3053 
L 409 3053 
L 500 3500 
L 978 3500 
L 1172 4494 
L 1747 4494 
L 1556 3500 
L 2706 3500 
z
" transform="scale(0.015625)"/>
      </defs>
      <use xlink:href="#DejaVuSans-Oblique-56" transform="translate(0 0.09375)"/>
      <use xlink:href="#DejaVuSans-Oblique-6f" transform="translate(68.408203 -16.3125)scale(0.7)"/>
      <use xlink:href="#DejaVuSans-Oblique-75" transform="translate(111.235352 -16.3125)scale(0.7)"/>
      <use xlink:href="#DejaVuSans-Oblique-74" transform="translate(155.600586 -16.3125)scale(0.7)"/>
     </g>
    </g>
   </g>
   <g id="text_3">
    <g clip-path="url(#pfcb0691536)">
     <!-- $V_{in2}$ -->
     <g transform="translate(88.5864 93.287969)scale(0.125 -0.125)">
      <defs>
       <path id="DejaVuSans-32" d="M 1228 531 
L 3431 531 
L 3431 0 
L 469 0 
L 469 531 
Q 828 903 1448 1529 
Q 2069 2156 2228 2338 
Q 2531 2678 2651 2914 
Q 2772 3150 2772 3378 
Q 2772 3750 2511 3984 
Q 2250 4219 1831 4219 
Q 1534 4219 1204 4116 
Q 875 4013 500 3803 
L 500 4441 
Q 881 4594 1212 4672 
Q 1544 4750 1819 4750 
Q 2544 4750 2975 4387 
Q 3406 4025 3406 3419 
Q 3406 3131 3298 2873 
Q 3191 2616 2906 2266 
Q 2828 2175 2409 1742 
Q 1991 1309 1228 531 
z
" transform="scale(0.015625)"/>
      </defs>
      <use xlink:href="#DejaVuSans-Oblique-56" transform="translate(0 0.09375)"/>
      <use xlink:href="#DejaVuSans-Oblique-69" transform="translate(68.408203 -16.3125)scale(0.7)"/>
      <use xlink:href="#DejaVuSans-Oblique-6e" transform="translate(87.856445 -16.3125)scale(0.7)"/>
      <use xlink:href="#DejaVuSans-32" transform="translate(132.22168 -16.3125)scale(0.7)"/>
     </g>
    </g>
   </g>
   <g id="text_4">
    <g clip-path="url(#pfcb0691536)">
     <!-- $V_{in1}$ -->
     <g transform="translate(20.7264 30.906484)scale(0.125 -0.125)">
      <use xlink:href="#DejaVuSans-Oblique-56" transform="translate(0 0.09375)"/>
      <use xlink:href="#DejaVuSans-Oblique-69" transform="translate(68.408203 -16.3125)scale(0.7)"/>
      <use xlink:href="#DejaVuSans-Oblique-6e" transform="translate(87.856445 -16.3125)scale(0.7)"/>
      <use xlink:href="#DejaVuSans-31" transform="translate(132.22168 -16.3125)scale(0.7)"/>
     </g>
    </g>
   </g>
   <g id="text_5">
    <g clip-path="url(#pfcb0691536)">
     <!-- $V_{out}$ -->
     <g transform="translate(156.4464 30.781484)scale(0.125 -0.125)">
      <use xlink:href="#DejaVuSans-Oblique-56" transform="translate(0 0.09375)"/>
      <use xlink:href="#DejaVuSans-Oblique-6f" transform="translate(68.408203 -16.3125)scale(0.7)"/>
      <use xlink:href="#DejaVuSans-Oblique-75" transform="translate(111.235352 -16.3125)scale(0.7)"/>
      <use xlink:href="#DejaVuSans-Oblique-74" transform="translate(155.600586 -16.3125)scale(0.7)"/>
     </g>
    </g>
   </g>
   <g id="text_6">
    <g clip-path="url(#pfcb0691536)">
     <!-- $V_{in2}$ -->
     <g transform="translate(88.5864 93.287969)scale(0.125 -0.125)">
      <use xlink:href="#DejaVuSans-Oblique-56" transform="translate(0 0.09375)"/>
      <use xlink:href="#DejaVuSans-Oblique-69" transform="translate(68.408203 -16.3125)scale(0.7)"/>
      <use xlink:href="#DejaVuSans-Oblique-6e" transform="translate(87.856445 -16.3125)scale(0.7)"/>
      <use xlink:href="#DejaVuSans-32" transform="translate(132.22168 -16.3125)scale(0.7)"/>
     </g>
    </g>
   </g>
  </g>
 </g>
 <defs>
  <clipPath id="pfcb0691536">
   <rect x="7.2" y="7.2" width="192.321" height="95.37"/>
  </clipPath>
 </defs>
</svg>
