<?xml version="1.0" encoding="utf-8" standalone="no"?>
<!DOCTYPE svg PUBLIC "-//W3C//DTD SVG 1.1//EN"
  "http://www.w3.org/Graphics/SVG/1.1/DTD/svg11.dtd">
<svg xmlns:xlink="http://www.w3.org/1999/xlink" width="339.3108pt" height="158.22pt" viewBox="0 0 339.3108 158.22" xmlns="http://www.w3.org/2000/svg" version="1.1">
 <metadata>
  <rdf:RDF xmlns:dc="http://purl.org/dc/elements/1.1/" xmlns:cc="http://creativecommons.org/ns#" xmlns:rdf="http://www.w3.org/1999/02/22-rdf-syntax-ns#">
   <cc:Work>
    <dc:type rdf:resource="http://purl.org/dc/dcmitype/StillImage"/>
    <dc:date>2022-08-18T11:51:46.219719</dc:date>
    <dc:format>image/svg+xml</dc:format>
    <dc:creator>
     <cc:Agent>
      <dc:title>Matplotlib v3.5.3, https://matplotlib.org/</dc:title>
     </cc:Agent>
    </dc:creator>
   </cc:Work>
  </rdf:RDF>
 </metadata>
 <defs>
  <style type="text/css">*{stroke-linejoin: round; stroke-linecap: butt}</style>
 </defs>
 <g id="figure_1">
  <g id="patch_1">
   <path d="M 0 158.22 
L 339.3108 158.22 
L 339.3108 0 
L 0 0 
L 0 158.22 
z
" style="fill: none"/>
  </g>
  <g id="axes_1">
   <g id="patch_2">
    <path d="M 243.0648 86.76 
C 245.093604 86.76 247.039586 85.953948 248.474167 84.519367 
C 249.908748 83.084786 250.7148 81.138804 250.7148 79.11 
C 250.7148 77.081196 249.908748 75.135214 248.474167 73.700633 
C 247.039586 72.266052 245.093604 71.46 243.0648 71.46 
C 241.035996 71.46 239.090014 72.266052 237.655433 73.700633 
C 236.220852 75.135214 235.4148 77.081196 235.4148 79.11 
C 235.4148 81.138804 236.220852 83.084786 237.655433 84.519367 
C 239.090014 85.953948 241.035996 86.76 243.0648 86.76 
L 243.0648 86.76 
z
" clip-path="url(#p1cef9885e5)" style="fill: none; stroke: #000000; stroke-width: 2; stroke-linejoin: miter"/>
   </g>
   <g id="patch_3">
    <path d="M 243.0648 86.76 
C 245.093604 86.76 247.039586 85.953948 248.474167 84.519367 
C 249.908748 83.084786 250.7148 81.138804 250.7148 79.11 
C 250.7148 77.081196 249.908748 75.135214 248.474167 73.700633 
C 247.039586 72.266052 245.093604 71.46 243.0648 71.46 
C 241.035996 71.46 239.090014 72.266052 237.655433 73.700633 
C 236.220852 75.135214 235.4148 77.081196 235.4148 79.11 
C 235.4148 81.138804 236.220852 83.084786 237.655433 84.519367 
C 239.090014 85.953948 241.035996 86.76 243.0648 86.76 
L 243.0648 86.76 
z
" clip-path="url(#p1cef9885e5)" style="fill: none; stroke: #000000; stroke-width: 2; stroke-linejoin: miter"/>
   </g>
   <g id="line2d_1">
    <path d="M 105.3648 40.86 
L 105.3648 10.26 
L 197.1648 10.26 
L 197.1648 71.46 
L 105.3648 71.46 
L 105.3648 40.86 
" clip-path="url(#p1cef9885e5)" style="fill: none; stroke: #000000; stroke-width: 2; stroke-linecap: round"/>
   </g>
   <g id="line2d_2">
    <path d="M 197.1648 40.86 
L 220.1148 40.86 
L 243.0648 40.86 
" clip-path="url(#p1cef9885e5)" style="fill: none; stroke: #000000; stroke-width: 2; stroke-linecap: round"/>
   </g>
   <g id="line2d_3">
    <path d="M 243.0648 40.86 
L 243.0648 56.16 
L 243.0648 63.81 
" clip-path="url(#p1cef9885e5)" style="fill: none; stroke: #000000; stroke-width: 2; stroke-linecap: round"/>
   </g>
   <g id="patch_4">
    <path d="M 245.3598 63.81 
L 243.0648 71.46 
L 240.7698 63.81 
z
" clip-path="url(#p1cef9885e5)"/>
   </g>
   <g id="line2d_4">
    <path d="M 105.3648 117.36 
L 105.3648 86.76 
L 197.1648 86.76 
L 197.1648 147.96 
L 105.3648 147.96 
L 105.3648 117.36 
" clip-path="url(#p1cef9885e5)" style="fill: none; stroke: #000000; stroke-width: 2; stroke-linecap: round"/>
   </g>
   <g id="line2d_5">
    <path d="M 197.1648 117.36 
L 220.1148 117.36 
L 243.0648 117.36 
" clip-path="url(#p1cef9885e5)" style="fill: none; stroke: #000000; stroke-width: 2; stroke-linecap: round"/>
   </g>
   <g id="line2d_6">
    <path d="M 243.0648 117.36 
L 243.0648 102.06 
L 243.0648 94.41 
" clip-path="url(#p1cef9885e5)" style="fill: none; stroke: #000000; stroke-width: 2; stroke-linecap: round"/>
   </g>
   <g id="patch_5">
    <path d="M 240.7698 94.41 
L 243.0648 86.76 
L 245.3598 94.41 
z
" clip-path="url(#p1cef9885e5)"/>
   </g>
   <g id="line2d_7">
    <path d="M 250.7148 79.11 
L 273.6648 79.11 
L 288.9648 79.11 
" clip-path="url(#p1cef9885e5)" style="fill: none; stroke: #000000; stroke-width: 2; stroke-linecap: round"/>
   </g>
   <g id="patch_6">
    <path d="M 288.9648 76.815 
L 296.6148 79.11 
L 288.9648 81.405 
z
" clip-path="url(#p1cef9885e5)"/>
   </g>
   <g id="line2d_8">
    <path d="M 28.8648 79.11 
L 44.1648 79.11 
L 59.4648 79.11 
" clip-path="url(#p1cef9885e5)" style="fill: none; stroke: #000000; stroke-width: 2; stroke-linecap: round"/>
   </g>
   <g id="line2d_9">
    <path d="M 59.4648 79.11 
L 59.4648 40.86 
L 97.7148 40.86 
" clip-path="url(#p1cef9885e5)" style="fill: none; stroke: #000000; stroke-width: 2; stroke-linecap: round"/>
   </g>
   <g id="patch_7">
    <path d="M 97.7148 38.565 
L 105.3648 40.86 
L 97.7148 43.155 
z
" clip-path="url(#p1cef9885e5)"/>
   </g>
   <g id="line2d_10">
    <path d="M 59.4648 79.11 
L 59.4648 117.36 
L 97.7148 117.36 
" clip-path="url(#p1cef9885e5)" style="fill: none; stroke: #000000; stroke-width: 2; stroke-linecap: round"/>
   </g>
   <g id="patch_8">
    <path d="M 97.7148 115.065 
L 105.3648 117.36 
L 97.7148 119.655 
z
" clip-path="url(#p1cef9885e5)"/>
   </g>
   <g id="line2d_11">
    <path d="M 105.3648 40.86 
L 105.3648 10.26 
L 197.1648 10.26 
L 197.1648 71.46 
L 105.3648 71.46 
L 105.3648 40.86 
" clip-path="url(#p1cef9885e5)" style="fill: none; stroke: #000000; stroke-width: 2; stroke-linecap: round"/>
   </g>
   <g id="line2d_12">
    <path d="M 197.1648 40.86 
L 220.1148 40.86 
L 243.0648 40.86 
" clip-path="url(#p1cef9885e5)" style="fill: none; stroke: #000000; stroke-width: 2; stroke-linecap: round"/>
   </g>
   <g id="line2d_13">
    <path d="M 243.0648 40.86 
L 243.0648 56.16 
L 243.0648 63.81 
" clip-path="url(#p1cef9885e5)" style="fill: none; stroke: #000000; stroke-width: 2; stroke-linecap: round"/>
   </g>
   <g id="patch_9">
    <path d="M 245.3598 63.81 
L 243.0648 71.46 
L 240.7698 63.81 
z
" clip-path="url(#p1cef9885e5)"/>
   </g>
   <g id="line2d_14">
    <path d="M 105.3648 117.36 
L 105.3648 86.76 
L 197.1648 86.76 
L 197.1648 147.96 
L 105.3648 147.96 
L 105.3648 117.36 
" clip-path="url(#p1cef9885e5)" style="fill: none; stroke: #000000; stroke-width: 2; stroke-linecap: round"/>
   </g>
   <g id="line2d_15">
    <path d="M 197.1648 117.36 
L 220.1148 117.36 
L 243.0648 117.36 
" clip-path="url(#p1cef9885e5)" style="fill: none; stroke: #000000; stroke-width: 2; stroke-linecap: round"/>
   </g>
   <g id="line2d_16">
    <path d="M 243.0648 117.36 
L 243.0648 102.06 
L 243.0648 94.41 
" clip-path="url(#p1cef9885e5)" style="fill: none; stroke: #000000; stroke-width: 2; stroke-linecap: round"/>
   </g>
   <g id="patch_10">
    <path d="M 240.7698 94.41 
L 243.0648 86.76 
L 245.3598 94.41 
z
" clip-path="url(#p1cef9885e5)"/>
   </g>
   <g id="line2d_17">
    <path d="M 250.7148 79.11 
L 273.6648 79.11 
L 288.9648 79.11 
" clip-path="url(#p1cef9885e5)" style="fill: none; stroke: #000000; stroke-width: 2; stroke-linecap: round"/>
   </g>
   <g id="patch_11">
    <path d="M 288.9648 76.815 
L 296.6148 79.11 
L 288.9648 81.405 
z
" clip-path="url(#p1cef9885e5)"/>
   </g>
   <g id="line2d_18">
    <path d="M 28.8648 79.11 
L 44.1648 79.11 
L 59.4648 79.11 
" clip-path="url(#p1cef9885e5)" style="fill: none; stroke: #000000; stroke-width: 2; stroke-linecap: round"/>
   </g>
   <g id="line2d_19">
    <path d="M 59.4648 79.11 
L 59.4648 40.86 
L 97.7148 40.86 
" clip-path="url(#p1cef9885e5)" style="fill: none; stroke: #000000; stroke-width: 2; stroke-linecap: round"/>
   </g>
   <g id="patch_12">
    <path d="M 97.7148 38.565 
L 105.3648 40.86 
L 97.7148 43.155 
z
" clip-path="url(#p1cef9885e5)"/>
   </g>
   <g id="line2d_20">
    <path d="M 59.4648 79.11 
L 59.4648 117.36 
L 97.7148 117.36 
" clip-path="url(#p1cef9885e5)" style="fill: none; stroke: #000000; stroke-width: 2; stroke-linecap: round"/>
   </g>
   <g id="patch_13">
    <path d="M 97.7148 115.065 
L 105.3648 117.36 
L 97.7148 119.655 
z
" clip-path="url(#p1cef9885e5)"/>
   </g>
   <g id="text_1">
    <g clip-path="url(#p1cef9885e5)">
     <!-- $G_1(s)$ -->
     <g transform="translate(135.3273 44.5475)scale(0.125 -0.125)">
      <defs>
       <path id="DejaVuSans-Oblique-47" d="M 3494 697 
L 3738 1919 
L 2700 1919 
L 2797 2438 
L 4453 2438 
L 4050 384 
Q 3634 156 3143 32 
Q 2653 -91 2156 -91 
Q 1278 -91 783 396 
Q 288 884 288 1753 
Q 288 2475 589 3126 
Q 891 3778 1422 4213 
Q 1756 4484 2153 4617 
Q 2550 4750 3034 4750 
Q 3472 4750 3873 4639 
Q 4275 4528 4641 4306 
L 4513 3634 
Q 4231 3928 3853 4083 
Q 3475 4238 3047 4238 
Q 2550 4238 2172 4048 
Q 1794 3859 1497 3463 
Q 1244 3125 1098 2667 
Q 953 2209 953 1734 
Q 953 1081 1287 751 
Q 1622 422 2284 422 
Q 2616 422 2925 492 
Q 3234 563 3494 697 
z
" transform="scale(0.015625)"/>
       <path id="DejaVuSans-31" d="M 794 531 
L 1825 531 
L 1825 4091 
L 703 3866 
L 703 4441 
L 1819 4666 
L 2450 4666 
L 2450 531 
L 3481 531 
L 3481 0 
L 794 0 
L 794 531 
z
" transform="scale(0.015625)"/>
       <path id="DejaVuSans-28" d="M 1984 4856 
Q 1566 4138 1362 3434 
Q 1159 2731 1159 2009 
Q 1159 1288 1364 580 
Q 1569 -128 1984 -844 
L 1484 -844 
Q 1016 -109 783 600 
Q 550 1309 550 2009 
Q 550 2706 781 3412 
Q 1013 4119 1484 4856 
L 1984 4856 
z
" transform="scale(0.015625)"/>
       <path id="DejaVuSans-Oblique-73" d="M 3200 3397 
L 3091 2853 
Q 2863 2978 2609 3040 
Q 2356 3103 2088 3103 
Q 1634 3103 1373 2948 
Q 1113 2794 1113 2528 
Q 1113 2219 1719 2053 
Q 1766 2041 1788 2034 
L 1972 1978 
Q 2547 1819 2739 1644 
Q 2931 1469 2931 1166 
Q 2931 609 2489 259 
Q 2047 -91 1331 -91 
Q 1053 -91 747 -37 
Q 441 16 72 128 
L 184 722 
Q 500 559 806 475 
Q 1113 391 1394 391 
Q 1816 391 2080 572 
Q 2344 753 2344 1031 
Q 2344 1331 1650 1516 
L 1591 1531 
L 1394 1581 
Q 956 1697 753 1886 
Q 550 2075 550 2369 
Q 550 2928 970 3256 
Q 1391 3584 2113 3584 
Q 2397 3584 2667 3537 
Q 2938 3491 3200 3397 
z
" transform="scale(0.015625)"/>
       <path id="DejaVuSans-29" d="M 513 4856 
L 1013 4856 
Q 1481 4119 1714 3412 
Q 1947 2706 1947 2009 
Q 1947 1309 1714 600 
Q 1481 -109 1013 -844 
L 513 -844 
Q 928 -128 1133 580 
Q 1338 1288 1338 2009 
Q 1338 2731 1133 3434 
Q 928 4138 513 4856 
z
" transform="scale(0.015625)"/>
      </defs>
      <use xlink:href="#DejaVuSans-Oblique-47" transform="translate(0 0.125)"/>
      <use xlink:href="#DejaVuSans-31" transform="translate(77.490234 -16.28125)scale(0.7)"/>
      <use xlink:href="#DejaVuSans-28" transform="translate(124.760742 0.125)"/>
      <use xlink:href="#DejaVuSans-Oblique-73" transform="translate(163.774414 0.125)"/>
      <use xlink:href="#DejaVuSans-29" transform="translate(215.874023 0.125)"/>
     </g>
    </g>
   </g>
   <g id="text_2">
    <g clip-path="url(#p1cef9885e5)">
     <!-- $G_2(s)$ -->
     <g transform="translate(135.3273 121.0475)scale(0.125 -0.125)">
      <defs>
       <path id="DejaVuSans-32" d="M 1228 531 
L 3431 531 
L 3431 0 
L 469 0 
L 469 531 
Q 828 903 1448 1529 
Q 2069 2156 2228 2338 
Q 2531 2678 2651 2914 
Q 2772 3150 2772 3378 
Q 2772 3750 2511 3984 
Q 2250 4219 1831 4219 
Q 1534 4219 1204 4116 
Q 875 4013 500 3803 
L 500 4441 
Q 881 4594 1212 4672 
Q 1544 4750 1819 4750 
Q 2544 4750 2975 4387 
Q 3406 4025 3406 3419 
Q 3406 3131 3298 2873 
Q 3191 2616 2906 2266 
Q 2828 2175 2409 1742 
Q 1991 1309 1228 531 
z
" transform="scale(0.015625)"/>
      </defs>
      <use xlink:href="#DejaVuSans-Oblique-47" transform="translate(0 0.125)"/>
      <use xlink:href="#DejaVuSans-32" transform="translate(77.490234 -16.28125)scale(0.7)"/>
      <use xlink:href="#DejaVuSans-28" transform="translate(124.760742 0.125)"/>
      <use xlink:href="#DejaVuSans-Oblique-73" transform="translate(163.774414 0.125)"/>
      <use xlink:href="#DejaVuSans-29" transform="translate(215.874023 0.125)"/>
     </g>
    </g>
   </g>
   <g id="text_3">
    <g clip-path="url(#p1cef9885e5)">
     <!-- out -->
     <g transform="translate(299.6748 82.89125)scale(0.125 -0.125)">
      <defs>
       <path id="YuGothic-Regular-6f" d="M 1797 3419 
Q 2438 3419 2816 2913 
Q 3153 2459 3153 1753 
Q 3153 934 2719 466 
Q 2350 63 1791 63 
Q 1141 63 766 575 
Q 434 1025 434 1734 
Q 434 2553 866 3019 
Q 1234 3419 1797 3419 
z
M 1797 3094 
Q 1322 3094 1069 2694 
Q 844 2341 844 1747 
Q 844 1059 1131 697 
Q 1381 388 1791 388 
Q 2263 388 2519 791 
Q 2744 1147 2744 1747 
Q 2744 2425 2456 2784 
Q 2206 3094 1797 3094 
z
" transform="scale(0.015625)"/>
       <path id="YuGothic-Regular-75" d="M 3078 3341 
L 3078 141 
L 2694 141 
L 2694 750 
Q 2478 409 2138 225 
Q 1844 63 1531 63 
Q 1100 63 853 322 
Q 622 559 622 959 
L 622 3341 
L 1025 3341 
L 1025 1081 
Q 1025 416 1638 416 
Q 1934 416 2241 631 
Q 2506 819 2681 1100 
L 2681 3341 
L 3078 3341 
z
" transform="scale(0.015625)"/>
       <path id="YuGothic-Regular-74" d="M 1197 4488 
L 1197 3341 
L 2003 3341 
L 2003 3022 
L 1197 3022 
L 1197 941 
Q 1197 375 1672 375 
Q 1878 375 2088 422 
L 2059 97 
Q 1859 63 1606 63 
Q 800 63 800 863 
L 800 3022 
L 250 3022 
L 250 3341 
L 800 3341 
L 800 4397 
L 1197 4488 
z
" transform="scale(0.015625)"/>
      </defs>
      <use xlink:href="#YuGothic-Regular-6f"/>
      <use xlink:href="#YuGothic-Regular-75" x="56.103516"/>
      <use xlink:href="#YuGothic-Regular-74" x="114.208984"/>
     </g>
    </g>
   </g>
   <g id="patch_14">
    <path d="M 59.4648 81.405 
C 60.073441 81.405 60.657236 81.163184 61.08761 80.73281 
C 61.517984 80.302436 61.7598 79.718641 61.7598 79.11 
C 61.7598 78.501359 61.517984 77.917564 61.08761 77.48719 
C 60.657236 77.056816 60.073441 76.815 59.4648 76.815 
C 58.856159 76.815 58.272364 77.056816 57.84199 77.48719 
C 57.411616 77.917564 57.1698 78.501359 57.1698 79.11 
C 57.1698 79.718641 57.411616 80.302436 57.84199 80.73281 
C 58.272364 81.163184 58.856159 81.405 59.4648 81.405 
z
" clip-path="url(#p1cef9885e5)" style="stroke: #000000; stroke-width: 2; stroke-linejoin: miter"/>
   </g>
   <g id="text_4">
    <g clip-path="url(#p1cef9885e5)">
     <!-- in -->
     <g transform="translate(15.275503 82.89125)scale(0.125 -0.125)">
      <defs>
       <path id="YuGothic-Regular-69" d="M 1038 3341 
L 1038 141 
L 641 141 
L 641 3341 
L 1038 3341 
z
M 1131 4628 
L 1131 4031 
L 544 4031 
L 544 4628 
L 1131 4628 
z
" transform="scale(0.015625)"/>
       <path id="YuGothic-Regular-6e" d="M 1025 3341 
L 1025 2747 
Q 1563 3419 2194 3419 
Q 2628 3419 2872 3147 
Q 3091 2906 3091 2516 
L 3091 141 
L 2688 141 
L 2688 2350 
Q 2688 3059 2094 3059 
Q 1538 3059 1038 2394 
L 1038 141 
L 641 141 
L 641 3341 
L 1025 3341 
z
" transform="scale(0.015625)"/>
      </defs>
      <use xlink:href="#YuGothic-Regular-69"/>
      <use xlink:href="#YuGothic-Regular-6e" x="26.220703"/>
     </g>
    </g>
   </g>
   <g id="text_5">
    <g clip-path="url(#p1cef9885e5)">
     <!-- $G_1(s)$ -->
     <g transform="translate(135.3273 44.5475)scale(0.125 -0.125)">
      <use xlink:href="#DejaVuSans-Oblique-47" transform="translate(0 0.125)"/>
      <use xlink:href="#DejaVuSans-31" transform="translate(77.490234 -16.28125)scale(0.7)"/>
      <use xlink:href="#DejaVuSans-28" transform="translate(124.760742 0.125)"/>
      <use xlink:href="#DejaVuSans-Oblique-73" transform="translate(163.774414 0.125)"/>
      <use xlink:href="#DejaVuSans-29" transform="translate(215.874023 0.125)"/>
     </g>
    </g>
   </g>
   <g id="text_6">
    <g clip-path="url(#p1cef9885e5)">
     <!-- $G_2(s)$ -->
     <g transform="translate(135.3273 121.0475)scale(0.125 -0.125)">
      <use xlink:href="#DejaVuSans-Oblique-47" transform="translate(0 0.125)"/>
      <use xlink:href="#DejaVuSans-32" transform="translate(77.490234 -16.28125)scale(0.7)"/>
      <use xlink:href="#DejaVuSans-28" transform="translate(124.760742 0.125)"/>
      <use xlink:href="#DejaVuSans-Oblique-73" transform="translate(163.774414 0.125)"/>
      <use xlink:href="#DejaVuSans-29" transform="translate(215.874023 0.125)"/>
     </g>
    </g>
   </g>
   <g id="text_7">
    <g clip-path="url(#p1cef9885e5)">
     <!-- out -->
     <g transform="translate(299.6748 82.89125)scale(0.125 -0.125)">
      <use xlink:href="#YuGothic-Regular-6f"/>
      <use xlink:href="#YuGothic-Regular-75" x="56.103516"/>
      <use xlink:href="#YuGothic-Regular-74" x="114.208984"/>
     </g>
    </g>
   </g>
   <g id="patch_15">
    <path d="M 59.4648 81.405 
C 60.073441 81.405 60.657236 81.163184 61.08761 80.73281 
C 61.517984 80.302436 61.7598 79.718641 61.7598 79.11 
C 61.7598 78.501359 61.517984 77.917564 61.08761 77.48719 
C 60.657236 77.056816 60.073441 76.815 59.4648 76.815 
C 58.856159 76.815 58.272364 77.056816 57.84199 77.48719 
C 57.411616 77.917564 57.1698 78.501359 57.1698 79.11 
C 57.1698 79.718641 57.411616 80.302436 57.84199 80.73281 
C 58.272364 81.163184 58.856159 81.405 59.4648 81.405 
z
" clip-path="url(#p1cef9885e5)" style="stroke: #000000; stroke-width: 2; stroke-linejoin: miter"/>
   </g>
   <g id="text_8">
    <g clip-path="url(#p1cef9885e5)">
     <!-- in -->
     <g transform="translate(15.275503 82.89125)scale(0.125 -0.125)">
      <use xlink:href="#YuGothic-Regular-69"/>
      <use xlink:href="#YuGothic-Regular-6e" x="26.220703"/>
     </g>
    </g>
   </g>
  </g>
 </g>
 <defs>
  <clipPath id="p1cef9885e5">
   <rect x="7.2" y="7.2" width="324.9108" height="143.82"/>
  </clipPath>
 </defs>
</svg>
