<?xml version="1.0" encoding="utf-8" standalone="no"?>
<!DOCTYPE svg PUBLIC "-//W3C//DTD SVG 1.1//EN"
  "http://www.w3.org/Graphics/SVG/1.1/DTD/svg11.dtd">
<svg xmlns:xlink="http://www.w3.org/1999/xlink" width="272.1489pt" height="164.374pt" viewBox="0 0 272.1489 164.374" xmlns="http://www.w3.org/2000/svg" version="1.1">
 <metadata>
  <rdf:RDF xmlns:dc="http://purl.org/dc/elements/1.1/" xmlns:cc="http://creativecommons.org/ns#" xmlns:rdf="http://www.w3.org/1999/02/22-rdf-syntax-ns#">
   <cc:Work>
    <dc:type rdf:resource="http://purl.org/dc/dcmitype/StillImage"/>
    <dc:date>2022-08-18T11:51:20.695347</dc:date>
    <dc:format>image/svg+xml</dc:format>
    <dc:creator>
     <cc:Agent>
      <dc:title>Matplotlib v3.5.3, https://matplotlib.org/</dc:title>
     </cc:Agent>
    </dc:creator>
   </cc:Work>
  </rdf:RDF>
 </metadata>
 <defs>
  <style type="text/css">*{stroke-linejoin: round; stroke-linecap: butt}</style>
 </defs>
 <g id="figure_1">
  <g id="patch_1">
   <path d="M 0 164.374 
L 272.1489 164.374 
L 272.1489 0 
L 0 0 
L 0 164.374 
z
" style="fill: none"/>
  </g>
  <g id="axes_1">
   <g id="patch_2">
    <path d="M 52.1616 103.93 
C 56.219207 103.93 60.111172 102.317895 62.980334 99.448734 
C 65.849495 96.579572 67.4616 92.687607 67.4616 88.63 
C 67.4616 84.572393 65.849495 80.680428 62.980334 77.811266 
C 60.111172 74.942105 56.219207 73.33 52.1616 73.33 
C 48.103993 73.33 44.212028 74.942105 41.342866 77.811266 
C 38.473705 80.680428 36.8616 84.572393 36.8616 88.63 
C 36.8616 92.687607 38.473705 96.579572 41.342866 99.448734 
C 44.212028 102.317895 48.103993 103.93 52.1616 103.93 
L 52.1616 103.93 
z
" clip-path="url(#p1ca3bdcb7b)" style="fill: none; stroke: #000000; stroke-width: 2; stroke-linejoin: miter"/>
   </g>
   <g id="line2d_1">
    <path d="M 52.1616 42.73 
L 95.3076 42.73 
M 95.3076 35.08 
L 95.3076 50.38 
M 100.8156 35.08 
L 100.8156 50.38 
M 100.8156 42.73 
L 143.9616 42.73 
" clip-path="url(#p1ca3bdcb7b)" style="fill: none; stroke: #000000; stroke-width: 2; stroke-linecap: round"/>
   </g>
   <g id="line2d_2">
    <path d="M 143.9616 42.73 
L 143.9616 73.33 
L 151.6116 75.88 
L 136.3116 80.98 
L 151.6116 86.08 
L 136.3116 91.18 
L 151.6116 96.28 
L 136.3116 101.38 
L 143.9616 103.93 
L 143.9616 134.53 
" clip-path="url(#p1ca3bdcb7b)" style="fill: none; stroke: #000000; stroke-width: 2; stroke-linecap: round"/>
   </g>
   <g id="line2d_3">
    <path d="M 143.9616 134.53 
L 98.0616 134.53 
L 52.1616 134.53 
" clip-path="url(#p1ca3bdcb7b)" style="fill: none; stroke: #000000; stroke-width: 2; stroke-linecap: round"/>
   </g>
   <g id="line2d_4">
    <path d="M 52.1616 134.53 
L 52.1616 146.77 
L 44.5116 146.77 
L 59.8116 146.77 
M 46.8066 150.442 
L 57.5166 150.442 
M 50.6316 154.114 
L 53.6916 154.114 
" clip-path="url(#p1ca3bdcb7b)" style="fill: none; stroke: #000000; stroke-width: 2; stroke-linecap: round"/>
   </g>
   <g id="line2d_5">
    <path d="M 52.1616 134.53 
L 52.1616 103.93 
L 52.1616 103.93 
M 52.1616 73.33 
L 52.1616 73.33 
L 52.1616 42.73 
" clip-path="url(#p1ca3bdcb7b)" style="fill: none; stroke: #000000; stroke-width: 2; stroke-linecap: round"/>
   </g>
   <g id="line2d_6">
    <path d="M 55.2216 96.28 
L 49.1016 96.28 
" clip-path="url(#p1ca3bdcb7b)" style="fill: none; stroke: #000000; stroke-width: 2; stroke-linecap: round"/>
   </g>
   <g id="line2d_7">
    <path d="M 52.1616 84.04 
L 52.1616 77.92 
" clip-path="url(#p1ca3bdcb7b)" style="fill: none; stroke: #000000; stroke-width: 2; stroke-linecap: round"/>
   </g>
   <g id="line2d_8">
    <path d="M 55.2216 80.98 
L 49.1016 80.98 
" clip-path="url(#p1ca3bdcb7b)" style="fill: none; stroke: #000000; stroke-width: 2; stroke-linecap: round"/>
   </g>
   <g id="line2d_9">
    <path d="M 143.9616 42.73 
L 189.8616 42.73 
L 235.7616 42.73 
" clip-path="url(#p1ca3bdcb7b)" style="fill: none; stroke: #000000; stroke-width: 2; stroke-linecap: round"/>
   </g>
   <g id="line2d_10">
    <path d="M 235.7616 134.53 
L 189.8616 134.53 
L 143.9616 134.53 
" clip-path="url(#p1ca3bdcb7b)" style="fill: none; stroke: #000000; stroke-width: 2; stroke-linecap: round"/>
   </g>
   <g id="text_1">
    <g clip-path="url(#p1ca3bdcb7b)">
     <!-- C -->
     <g transform="translate(93.797928 30.029766)scale(0.125 -0.125)">
      <defs>
       <path id="YuGothic-Regular-43" d="M 4006 3597 
L 3591 3469 
Q 3322 4525 2366 4525 
Q 1669 4525 1266 3922 
Q 894 3372 894 2472 
Q 894 1444 1372 881 
Q 1769 416 2366 416 
Q 3372 416 3634 1491 
L 4044 1338 
Q 3644 50 2359 50 
Q 1469 50 934 769 
Q 447 1422 447 2463 
Q 447 3663 1075 4334 
Q 1594 4891 2359 4891 
Q 3022 4891 3466 4500 
Q 3847 4166 4006 3597 
z
" transform="scale(0.015625)"/>
      </defs>
      <use xlink:href="#YuGothic-Regular-43"/>
     </g>
    </g>
   </g>
   <g id="text_2">
    <g clip-path="url(#p1ca3bdcb7b)">
     <!-- R -->
     <g transform="translate(154.6716 92.41125)scale(0.125 -0.125)">
      <defs>
       <path id="YuGothic-Regular-52" d="M 722 4806 
L 2250 4806 
Q 3825 4806 3825 3609 
Q 3825 3138 3531 2825 
Q 3269 2541 2800 2438 
L 3941 141 
L 3475 141 
L 2403 2372 
Q 2328 2366 2156 2366 
L 1138 2366 
L 1138 141 
L 722 141 
L 722 4806 
z
M 1138 4453 
L 1138 2713 
L 2181 2713 
Q 3384 2713 3384 3603 
Q 3384 4059 3081 4263 
Q 2797 4453 2219 4453 
L 1138 4453 
z
" transform="scale(0.015625)"/>
      </defs>
      <use xlink:href="#YuGothic-Regular-52"/>
     </g>
    </g>
   </g>
   <g id="text_3">
    <g clip-path="url(#p1ca3bdcb7b)">
     <!-- Vin -->
     <g transform="translate(15.160975 92.41125)scale(0.125 -0.125)">
      <defs>
       <path id="YuGothic-Regular-56" d="M 3891 4806 
L 2338 141 
L 1791 141 
L 263 4806 
L 722 4806 
L 1631 1913 
Q 1722 1631 1856 1175 
Q 2013 653 2053 513 
L 2119 513 
Q 2319 1228 2528 1900 
L 3463 4806 
L 3891 4806 
z
" transform="scale(0.015625)"/>
       <path id="YuGothic-Regular-69" d="M 1038 3341 
L 1038 141 
L 641 141 
L 641 3341 
L 1038 3341 
z
M 1131 4628 
L 1131 4031 
L 544 4031 
L 544 4628 
L 1131 4628 
z
" transform="scale(0.015625)"/>
       <path id="YuGothic-Regular-6e" d="M 1025 3341 
L 1025 2747 
Q 1563 3419 2194 3419 
Q 2628 3419 2872 3147 
Q 3091 2906 3091 2516 
L 3091 141 
L 2688 141 
L 2688 2350 
Q 2688 3059 2094 3059 
Q 1538 3059 1038 2394 
L 1038 141 
L 641 141 
L 641 3341 
L 1025 3341 
z
" transform="scale(0.015625)"/>
      </defs>
      <use xlink:href="#YuGothic-Regular-56"/>
      <use xlink:href="#YuGothic-Regular-69" x="64.892578"/>
      <use xlink:href="#YuGothic-Regular-6e" x="91.113281"/>
     </g>
    </g>
   </g>
   <g id="text_4">
    <g clip-path="url(#p1ca3bdcb7b)">
     <!-- + -->
     <g transform="translate(231.236209 69.46125)scale(0.125 -0.125)">
      <defs>
       <path id="YuGothic-Regular-2b" d="M 519 2081 
L 2163 2081 
L 2163 3725 
L 2456 3725 
L 2456 2081 
L 4113 2081 
L 4113 1794 
L 2456 1794 
L 2456 141 
L 2163 141 
L 2163 1794 
L 519 1794 
L 519 2081 
z
" transform="scale(0.015625)"/>
      </defs>
      <use xlink:href="#YuGothic-Regular-2b"/>
     </g>
    </g>
   </g>
   <g id="text_5">
    <g clip-path="url(#p1ca3bdcb7b)">
     <!-- $V_{out}$ -->
     <g transform="translate(224.1366 92.151484)scale(0.125 -0.125)">
      <defs>
       <path id="DejaVuSans-Oblique-56" d="M 1319 0 
L 500 4666 
L 1119 4666 
L 1797 653 
L 4063 4666 
L 4750 4666 
L 2053 0 
L 1319 0 
z
" transform="scale(0.015625)"/>
       <path id="DejaVuSans-Oblique-6f" d="M 1625 -91 
Q 1009 -91 651 289 
Q 294 669 294 1325 
Q 294 1706 417 2101 
Q 541 2497 738 2766 
Q 1047 3184 1428 3384 
Q 1809 3584 2291 3584 
Q 2888 3584 3255 3212 
Q 3622 2841 3622 2241 
Q 3622 1825 3500 1412 
Q 3378 1000 3181 728 
Q 2875 309 2494 109 
Q 2113 -91 1625 -91 
z
M 891 1344 
Q 891 869 1089 633 
Q 1288 397 1691 397 
Q 2269 397 2648 901 
Q 3028 1406 3028 2181 
Q 3028 2634 2825 2865 
Q 2622 3097 2228 3097 
Q 1903 3097 1650 2945 
Q 1397 2794 1197 2484 
Q 1050 2253 970 1956 
Q 891 1659 891 1344 
z
" transform="scale(0.015625)"/>
       <path id="DejaVuSans-Oblique-75" d="M 428 1388 
L 838 3500 
L 1416 3500 
L 1006 1409 
Q 975 1256 961 1147 
Q 947 1038 947 966 
Q 947 700 1109 554 
Q 1272 409 1569 409 
Q 2031 409 2368 721 
Q 2706 1034 2809 1563 
L 3194 3500 
L 3769 3500 
L 3091 0 
L 2516 0 
L 2631 550 
Q 2388 244 2052 76 
Q 1716 -91 1338 -91 
Q 878 -91 622 161 
Q 366 413 366 863 
Q 366 956 381 1097 
Q 397 1238 428 1388 
z
" transform="scale(0.015625)"/>
       <path id="DejaVuSans-Oblique-74" d="M 2706 3500 
L 2619 3053 
L 1472 3053 
L 1100 1153 
Q 1081 1047 1072 975 
Q 1063 903 1063 863 
Q 1063 663 1183 572 
Q 1303 481 1569 481 
L 2150 481 
L 2053 0 
L 1503 0 
Q 991 0 739 200 
Q 488 400 488 806 
Q 488 878 497 964 
Q 506 1050 525 1153 
L 897 3053 
L 409 3053 
L 500 3500 
L 978 3500 
L 1172 4494 
L 1747 4494 
L 1556 3500 
L 2706 3500 
z
" transform="scale(0.015625)"/>
      </defs>
      <use xlink:href="#DejaVuSans-Oblique-56" transform="translate(0 0.09375)"/>
      <use xlink:href="#DejaVuSans-Oblique-6f" transform="translate(68.408203 -16.3125)scale(0.7)"/>
      <use xlink:href="#DejaVuSans-Oblique-75" transform="translate(111.235352 -16.3125)scale(0.7)"/>
      <use xlink:href="#DejaVuSans-Oblique-74" transform="translate(155.600586 -16.3125)scale(0.7)"/>
     </g>
    </g>
   </g>
   <g id="text_6">
    <g clip-path="url(#p1ca3bdcb7b)">
     <!-- – -->
     <g transform="translate(232.6366 115.36125)scale(0.125 -0.125)">
      <defs>
       <path id="YuGothic-Regular-2013" d="M 3200 2059 
L 3200 1803 
L 0 1803 
L 0 2059 
L 3200 2059 
z
" transform="scale(0.015625)"/>
      </defs>
      <use xlink:href="#YuGothic-Regular-2013"/>
     </g>
    </g>
   </g>
   <g id="patch_3">
    <path d="M 143.9616 45.025 
C 144.570241 45.025 145.154036 44.783184 145.58441 44.35281 
C 146.014784 43.922436 146.2566 43.338641 146.2566 42.73 
C 146.2566 42.121359 146.014784 41.537564 145.58441 41.10719 
C 145.154036 40.676816 144.570241 40.435 143.9616 40.435 
C 143.352959 40.435 142.769164 40.676816 142.33879 41.10719 
C 141.908416 41.537564 141.6666 42.121359 141.6666 42.73 
C 141.6666 43.338641 141.908416 43.922436 142.33879 44.35281 
C 142.769164 44.783184 143.352959 45.025 143.9616 45.025 
z
" clip-path="url(#p1ca3bdcb7b)" style="stroke: #000000; stroke-width: 2; stroke-linejoin: miter"/>
   </g>
   <g id="patch_4">
    <path d="M 143.9616 136.825 
C 144.570241 136.825 145.154036 136.583184 145.58441 136.15281 
C 146.014784 135.722436 146.2566 135.138641 146.2566 134.53 
C 146.2566 133.921359 146.014784 133.337564 145.58441 132.90719 
C 145.154036 132.476816 144.570241 132.235 143.9616 132.235 
C 143.352959 132.235 142.769164 132.476816 142.33879 132.90719 
C 141.908416 133.337564 141.6666 133.921359 141.6666 134.53 
C 141.6666 135.138641 141.908416 135.722436 142.33879 136.15281 
C 142.769164 136.583184 143.352959 136.825 143.9616 136.825 
z
" clip-path="url(#p1ca3bdcb7b)" style="stroke: #000000; stroke-width: 2; stroke-linejoin: miter"/>
   </g>
  </g>
 </g>
 <defs>
  <clipPath id="p1ca3bdcb7b">
   <rect x="7.2" y="7.2" width="257.7489" height="149.974"/>
  </clipPath>
 </defs>
</svg>
