<?xml version="1.0" encoding="utf-8" standalone="no"?>
<!DOCTYPE svg PUBLIC "-//W3C//DTD SVG 1.1//EN"
  "http://www.w3.org/Graphics/SVG/1.1/DTD/svg11.dtd">
<svg xmlns:xlink="http://www.w3.org/1999/xlink" width="288pt" height="288pt" viewBox="0 0 288 288" xmlns="http://www.w3.org/2000/svg" version="1.1">
 <metadata>
  <rdf:RDF xmlns:dc="http://purl.org/dc/elements/1.1/" xmlns:cc="http://creativecommons.org/ns#" xmlns:rdf="http://www.w3.org/1999/02/22-rdf-syntax-ns#">
   <cc:Work>
    <dc:type rdf:resource="http://purl.org/dc/dcmitype/StillImage"/>
    <dc:date>2022-08-18T11:50:28.230417</dc:date>
    <dc:format>image/svg+xml</dc:format>
    <dc:creator>
     <cc:Agent>
      <dc:title>Matplotlib v3.5.3, https://matplotlib.org/</dc:title>
     </cc:Agent>
    </dc:creator>
   </cc:Work>
  </rdf:RDF>
 </metadata>
 <defs>
  <style type="text/css">*{stroke-linejoin: round; stroke-linecap: butt}</style>
 </defs>
 <g id="figure_1">
  <g id="patch_1">
   <path d="M 0 288 
L 288 288 
L 288 0 
L 0 0 
z
" style="fill: #ffffff"/>
  </g>
  <g id="axes_1">
   <g id="patch_2">
    <path d="M 43.77 65.55 
L 267.615 65.55 
L 267.615 10.986738 
L 43.77 10.986738 
z
" style="fill: #ffffff"/>
   </g>
   <g id="matplotlib.axis_1">
    <g id="xtick_1">
     <g id="line2d_1">
      <path d="M 49.229634 65.55 
L 49.229634 10.986738 
" clip-path="url(#p13639b0b50)" style="fill: none; stroke: #b0b0b0; stroke-width: 0.8; stroke-linecap: square"/>
     </g>
     <g id="line2d_2"/>
     <g id="text_1">
      <!-- 0 -->
      <g transform="translate(46.449165 76.692188)scale(0.1 -0.1)">
       <defs>
        <path id="YuGothic-Regular-30" d="M 1788 4806 
Q 3150 4806 3150 2456 
Q 3150 56 1772 56 
Q 409 56 409 2444 
Q 409 4806 1788 4806 
z
M 1788 4453 
Q 1269 4453 1047 3938 
Q 838 3456 838 2456 
Q 838 1303 1100 819 
Q 1322 409 1772 409 
Q 2291 409 2516 950 
Q 2722 1444 2722 2450 
Q 2722 3591 2456 4059 
Q 2234 4453 1788 4453 
z
" transform="scale(0.015625)"/>
       </defs>
       <use xlink:href="#YuGothic-Regular-30"/>
      </g>
     </g>
    </g>
    <g id="xtick_2">
     <g id="line2d_3">
      <path d="M 103.825976 65.55 
L 103.825976 10.986738 
" clip-path="url(#p13639b0b50)" style="fill: none; stroke: #b0b0b0; stroke-width: 0.8; stroke-linecap: square"/>
     </g>
     <g id="line2d_4"/>
     <g id="text_2">
      <!-- 50 -->
      <g transform="translate(98.265038 76.692188)scale(0.1 -0.1)">
       <defs>
        <path id="YuGothic-Regular-35" d="M 2906 4728 
L 2906 4375 
L 1016 4375 
L 959 3159 
Q 953 3022 922 2622 
Q 1066 2856 1325 2988 
Q 1556 3103 1819 3103 
Q 2397 3103 2753 2653 
Q 3072 2247 3072 1625 
Q 3072 850 2622 416 
Q 2253 56 1716 56 
Q 772 56 434 909 
L 825 1075 
Q 1059 403 1716 403 
Q 2172 403 2425 766 
Q 2650 1088 2650 1606 
Q 2650 2188 2381 2494 
Q 2147 2756 1759 2756 
Q 1447 2756 1209 2566 
Q 1003 2397 903 2116 
L 569 2169 
L 678 4728 
L 2906 4728 
z
" transform="scale(0.015625)"/>
       </defs>
       <use xlink:href="#YuGothic-Regular-35"/>
       <use xlink:href="#YuGothic-Regular-30" x="55.615234"/>
      </g>
     </g>
    </g>
    <g id="xtick_3">
     <g id="line2d_5">
      <path d="M 158.422317 65.55 
L 158.422317 10.986738 
" clip-path="url(#p13639b0b50)" style="fill: none; stroke: #b0b0b0; stroke-width: 0.8; stroke-linecap: square"/>
     </g>
     <g id="line2d_6"/>
     <g id="text_3">
      <!-- 100 -->
      <g transform="translate(150.080911 76.692188)scale(0.1 -0.1)">
       <defs>
        <path id="YuGothic-Regular-31" d="M 2063 4794 
L 2063 481 
L 2925 481 
L 2925 141 
L 744 141 
L 744 481 
L 1666 481 
L 1666 4359 
Q 1259 4081 725 3878 
L 653 4250 
Q 1184 4428 1734 4794 
L 2063 4794 
z
" transform="scale(0.015625)"/>
       </defs>
       <use xlink:href="#YuGothic-Regular-31"/>
       <use xlink:href="#YuGothic-Regular-30" x="55.615234"/>
       <use xlink:href="#YuGothic-Regular-30" x="111.230469"/>
      </g>
     </g>
    </g>
    <g id="xtick_4">
     <g id="line2d_7">
      <path d="M 213.018659 65.55 
L 213.018659 10.986738 
" clip-path="url(#p13639b0b50)" style="fill: none; stroke: #b0b0b0; stroke-width: 0.8; stroke-linecap: square"/>
     </g>
     <g id="line2d_8"/>
     <g id="text_4">
      <!-- 150 -->
      <g transform="translate(204.677252 76.692188)scale(0.1 -0.1)">
       <use xlink:href="#YuGothic-Regular-31"/>
       <use xlink:href="#YuGothic-Regular-35" x="55.615234"/>
       <use xlink:href="#YuGothic-Regular-30" x="111.230469"/>
      </g>
     </g>
    </g>
    <g id="xtick_5">
     <g id="line2d_9">
      <path d="M 267.615 65.55 
L 267.615 10.986738 
" clip-path="url(#p13639b0b50)" style="fill: none; stroke: #b0b0b0; stroke-width: 0.8; stroke-linecap: square"/>
     </g>
     <g id="line2d_10"/>
     <g id="text_5">
      <!-- 200 -->
      <g transform="translate(259.273594 76.692188)scale(0.1 -0.1)">
       <defs>
        <path id="YuGothic-Regular-32" d="M 459 3597 
Q 588 4228 988 4541 
Q 1325 4806 1819 4806 
Q 2406 4806 2750 4453 
Q 3059 4138 3059 3628 
Q 3059 3219 2838 2875 
Q 2628 2556 2094 2075 
Q 1191 1284 825 494 
L 3066 494 
L 3066 141 
L 422 141 
L 422 456 
Q 819 1406 1806 2309 
Q 2331 2800 2497 3088 
Q 2638 3331 2638 3628 
Q 2638 4038 2378 4263 
Q 2156 4453 1813 4453 
Q 1025 4453 863 3494 
L 459 3597 
z
" transform="scale(0.015625)"/>
       </defs>
       <use xlink:href="#YuGothic-Regular-32"/>
       <use xlink:href="#YuGothic-Regular-30" x="55.615234"/>
       <use xlink:href="#YuGothic-Regular-30" x="111.230469"/>
      </g>
     </g>
    </g>
    <g id="text_6">
     <!-- 時間t[ms] -->
     <g transform="translate(133.222187 90.140625)scale(0.1 -0.1)">
      <defs>
       <path id="YuGothic-Regular-6642" d="M 4850 1863 
L 3341 1863 
L 2463 1850 
Q 2419 1850 2419 1894 
L 2419 2094 
Q 2419 2131 2463 2131 
L 3341 2125 
L 4850 2125 
L 4850 2169 
Q 4850 2647 4806 2853 
Q 5006 2844 5131 2816 
Q 5209 2806 5209 2772 
Q 5209 2741 5169 2663 
Q 5138 2581 5138 2181 
L 5138 2125 
L 5944 2131 
Q 5988 2131 5988 2094 
L 5988 1894 
Q 5988 1850 5944 1850 
L 5138 1863 
L 5138 909 
L 5144 84 
Q 5144 -197 4978 -313 
Q 4838 -409 4375 -409 
Q 4344 -409 4269 -409 
Q 4188 -409 4172 -394 
Q 4156 -378 4134 -306 
Q 4094 -172 4025 -84 
Q 4231 -109 4472 -109 
Q 4538 -109 4619 -106 
Q 4850 -106 4850 141 
L 4850 1863 
z
M 972 738 
L 972 194 
Q 972 156 928 156 
L 722 156 
Q 678 156 678 194 
L 691 2163 
L 691 3384 
L 678 4872 
Q 678 4916 722 4916 
L 1222 4903 
L 1631 4903 
L 2131 4916 
Q 2175 4916 2175 4872 
L 2163 3578 
L 2163 2284 
L 2175 406 
Q 2175 359 2131 359 
L 1931 359 
Q 1888 359 1888 406 
L 1888 738 
L 972 738 
z
M 972 2994 
L 1888 2994 
L 1888 4641 
L 972 4641 
L 972 2994 
z
M 972 2738 
L 972 994 
L 1888 994 
L 1888 2738 
L 972 2738 
z
M 3950 3238 
L 3950 4159 
L 3522 4159 
L 2697 4147 
Q 2644 4147 2644 4191 
L 2644 4384 
Q 2644 4428 2697 4428 
L 3522 4416 
L 3950 4416 
L 3950 4447 
Q 3950 5019 3906 5272 
Q 4025 5269 4238 5241 
Q 4300 5231 4300 5191 
Q 4300 5172 4275 5081 
Q 4238 4975 4238 4459 
L 4238 4416 
L 4866 4416 
L 5691 4428 
Q 5734 4428 5734 4384 
L 5734 4191 
Q 5734 4147 5691 4147 
L 4866 4159 
L 4238 4159 
L 4238 3238 
L 5134 3238 
L 6022 3250 
Q 6069 3250 6069 3206 
L 6069 3013 
Q 6069 2969 6022 2969 
L 5134 2981 
L 3309 2981 
L 2428 2969 
Q 2381 2969 2381 3013 
L 2381 3206 
Q 2381 3250 2428 3250 
L 3309 3238 
L 3950 3238 
z
M 3225 1434 
Q 3609 1097 3878 647 
Q 3888 631 3888 616 
Q 3888 594 3847 563 
L 3738 488 
Q 3678 447 3666 447 
Q 3650 447 3634 475 
Q 3378 925 3009 1275 
Q 2988 1291 2988 1303 
Q 2988 1322 3047 1363 
L 3134 1428 
Q 3175 1453 3191 1453 
Q 3203 1453 3225 1434 
z
" transform="scale(0.015625)"/>
       <path id="YuGothic-Regular-9593" d="M 2388 525 
L 2388 159 
Q 2388 116 2344 116 
L 2150 116 
Q 2106 116 2106 159 
L 2119 1281 
L 2119 1813 
L 2106 2534 
Q 2106 2578 2150 2578 
L 2809 2566 
L 3513 2566 
L 4172 2578 
Q 4209 2578 4209 2534 
L 4197 1900 
L 4197 1325 
L 4209 231 
Q 4209 184 4172 184 
L 3972 184 
Q 3928 184 3928 231 
L 3928 525 
L 2388 525 
z
M 2388 1684 
L 3928 1684 
L 3928 2322 
L 2388 2322 
L 2388 1684 
z
M 2388 1441 
L 2388 763 
L 3928 763 
L 3928 1441 
L 2388 1441 
z
M 5416 3141 
L 4213 3141 
L 3525 3128 
Q 3481 3128 3481 3172 
L 3488 3725 
L 3488 4444 
L 3481 4994 
Q 3481 5038 3525 5038 
L 4213 5025 
L 4988 5025 
L 5672 5038 
Q 5716 5038 5716 4994 
L 5703 4078 
L 5703 1100 
L 5722 263 
Q 5722 50 5681 -50 
Q 5647 -128 5563 -194 
Q 5422 -303 4938 -303 
Q 4897 -303 4800 -303 
Q 4725 -303 4709 -288 
Q 4697 -275 4678 -206 
Q 4644 -84 4575 13 
Q 4791 -16 5050 -16 
Q 5294 -16 5359 56 
Q 5416 119 5416 319 
L 5416 3141 
z
M 5416 3378 
L 5416 3981 
L 3769 3981 
L 3769 3378 
L 5416 3378 
z
M 5416 4219 
L 5416 4781 
L 3769 4781 
L 3769 4219 
L 5416 4219 
z
M 1428 5025 
L 2138 5025 
L 2778 5038 
Q 2822 5038 2822 4994 
L 2809 4416 
L 2809 3756 
L 2822 3172 
Q 2822 3128 2778 3128 
L 2138 3141 
L 972 3141 
L 972 953 
L 984 -347 
Q 984 -391 941 -391 
L 716 -391 
Q 672 -391 672 -347 
L 684 953 
L 684 3678 
L 672 4994 
Q 672 5038 716 5038 
L 1428 5025 
z
M 972 3981 
L 972 3378 
L 2528 3378 
L 2528 3981 
L 972 3981 
z
M 972 4219 
L 2528 4219 
L 2528 4781 
L 972 4781 
L 972 4219 
z
" transform="scale(0.015625)"/>
       <path id="YuGothic-Regular-74" d="M 1197 4488 
L 1197 3341 
L 2003 3341 
L 2003 3022 
L 1197 3022 
L 1197 941 
Q 1197 375 1672 375 
Q 1878 375 2088 422 
L 2059 97 
Q 1859 63 1606 63 
Q 800 63 800 863 
L 800 3022 
L 250 3022 
L 250 3341 
L 800 3341 
L 800 4397 
L 1197 4488 
z
" transform="scale(0.015625)"/>
       <path id="YuGothic-Regular-5b" d="M 2200 5459 
L 2200 5222 
L 1209 5222 
L 1209 -356 
L 2200 -356 
L 2200 -588 
L 856 -588 
L 856 5459 
L 2200 5459 
z
" transform="scale(0.015625)"/>
       <path id="YuGothic-Regular-6d" d="M 1019 3341 
L 1019 2747 
Q 1519 3419 2100 3419 
Q 2450 3419 2688 3206 
Q 2894 3025 2931 2753 
Q 3419 3419 4019 3419 
Q 4441 3419 4678 3147 
Q 4891 2906 4891 2516 
L 4891 141 
L 4494 141 
L 4494 2350 
Q 4494 3059 3909 3059 
Q 3644 3059 3369 2853 
Q 3138 2678 2956 2394 
L 2956 141 
L 2559 141 
L 2559 2350 
Q 2559 3059 1997 3059 
Q 1731 3059 1463 2863 
Q 1222 2691 1031 2394 
L 1031 141 
L 641 141 
L 641 3341 
L 1019 3341 
z
" transform="scale(0.015625)"/>
       <path id="YuGothic-Regular-73" d="M 2759 2663 
L 2375 2528 
Q 2194 3106 1594 3106 
Q 1231 3106 1034 2947 
Q 866 2809 866 2594 
Q 866 2325 1034 2197 
Q 1184 2081 1569 1997 
L 1825 1941 
Q 2419 1803 2641 1578 
Q 2844 1375 2844 1003 
Q 2844 563 2503 306 
Q 2181 63 1628 63 
Q 663 63 366 838 
L 750 984 
Q 963 375 1634 375 
Q 2078 375 2291 578 
Q 2453 734 2453 966 
Q 2453 1263 2284 1394 
Q 2125 1516 1691 1613 
L 1434 1672 
Q 869 1800 659 2034 
Q 488 2225 488 2559 
Q 488 2963 803 3197 
Q 1097 3419 1600 3419 
Q 2466 3419 2759 2663 
z
" transform="scale(0.015625)"/>
       <path id="YuGothic-Regular-5d" d="M 1613 5453 
L 1613 -588 
L 269 -588 
L 269 -356 
L 1259 -356 
L 1259 5222 
L 269 5222 
L 269 5453 
L 1613 5453 
z
" transform="scale(0.015625)"/>
      </defs>
      <use xlink:href="#YuGothic-Regular-6642"/>
      <use xlink:href="#YuGothic-Regular-9593" x="100"/>
      <use xlink:href="#YuGothic-Regular-74" x="200"/>
      <use xlink:href="#YuGothic-Regular-5b" x="235.205078"/>
      <use xlink:href="#YuGothic-Regular-6d" x="273.828125"/>
      <use xlink:href="#YuGothic-Regular-73" x="359.912109"/>
      <use xlink:href="#YuGothic-Regular-5d" x="410.791016"/>
     </g>
    </g>
   </g>
   <g id="matplotlib.axis_2">
    <g id="ytick_1">
     <g id="line2d_11">
      <path d="M 43.77 63.069852 
L 267.615 63.069852 
" clip-path="url(#p13639b0b50)" style="fill: none; stroke: #b0b0b0; stroke-width: 0.8; stroke-linecap: square"/>
     </g>
     <g id="line2d_12"/>
     <g id="text_7">
      <!-- −1 -->
      <g transform="translate(24.709062 66.890945)scale(0.1 -0.1)">
       <defs>
        <path id="YuGothic-Regular-2212" d="M 5000 2578 
L 5000 2291 
L 1403 2291 
L 1403 2578 
L 5000 2578 
z
" transform="scale(0.015625)"/>
       </defs>
       <use xlink:href="#YuGothic-Regular-2212"/>
       <use xlink:href="#YuGothic-Regular-31" x="100"/>
      </g>
     </g>
    </g>
    <g id="ytick_2">
     <g id="line2d_13">
      <path d="M 43.77 38.268369 
L 267.615 38.268369 
" clip-path="url(#p13639b0b50)" style="fill: none; stroke: #b0b0b0; stroke-width: 0.8; stroke-linecap: square"/>
     </g>
     <g id="line2d_14"/>
     <g id="text_8">
      <!-- 0 -->
      <g transform="translate(34.709062 42.089463)scale(0.1 -0.1)">
       <use xlink:href="#YuGothic-Regular-30"/>
      </g>
     </g>
    </g>
    <g id="ytick_3">
     <g id="line2d_15">
      <path d="M 43.77 13.466886 
L 267.615 13.466886 
" clip-path="url(#p13639b0b50)" style="fill: none; stroke: #b0b0b0; stroke-width: 0.8; stroke-linecap: square"/>
     </g>
     <g id="line2d_16"/>
     <g id="text_9">
      <!-- 1 -->
      <g transform="translate(34.709062 17.28798)scale(0.1 -0.1)">
       <use xlink:href="#YuGothic-Regular-31"/>
      </g>
     </g>
    </g>
    <g id="text_10">
     <!-- 電圧[V] -->
     <g transform="translate(19.116875 55.3754)rotate(-90)scale(0.1 -0.1)">
      <defs>
       <path id="YuGothic-Regular-96fb" d="M 2975 641 
L 1472 641 
L 1472 313 
Q 1472 269 1428 269 
L 1222 269 
Q 1184 269 1184 313 
L 1197 903 
L 1197 1784 
L 1184 2381 
Q 1184 2431 1222 2431 
L 2181 2419 
L 4178 2419 
L 5109 2431 
Q 5153 2431 5153 2381 
L 5141 1822 
L 5141 1228 
L 5153 672 
Q 5153 628 5109 628 
L 4178 641 
L 3256 641 
L 3256 391 
Q 3256 188 3338 100 
Q 3400 31 3541 6 
Q 3769 -31 4441 -31 
Q 5269 -31 5522 141 
Q 5634 216 5681 391 
Q 5728 559 5741 903 
Q 5841 825 5947 781 
Q 6028 747 6028 703 
Q 6028 688 6022 641 
Q 5984 278 5888 103 
Q 5816 -25 5684 -109 
Q 5397 -294 4453 -294 
Q 3700 -294 3353 -231 
Q 2975 -163 2975 300 
L 2975 641 
z
M 2975 1444 
L 1472 1444 
L 1472 872 
L 2975 872 
L 2975 1444 
z
M 3256 1444 
L 3256 872 
L 4856 872 
L 4856 1444 
L 3256 1444 
z
M 2975 1663 
L 2975 2188 
L 1472 2188 
L 1472 1663 
L 2975 1663 
z
M 3256 1663 
L 4856 1663 
L 4856 2188 
L 3256 2188 
L 3256 1663 
z
M 3009 4288 
L 3009 4747 
L 1906 4747 
L 991 4734 
Q 947 4734 947 4781 
L 947 4966 
Q 947 5009 991 5009 
L 1906 4997 
L 4519 4997 
L 5434 5009 
Q 5478 5009 5478 4966 
L 5478 4781 
Q 5478 4734 5434 4734 
L 4519 4747 
L 3297 4747 
L 3297 4288 
L 4947 4288 
L 5831 4300 
Q 5881 4300 5881 4256 
L 5869 3972 
L 5869 3738 
L 5881 3097 
Q 5881 3050 5831 3050 
L 5625 3050 
Q 5581 3050 5581 3097 
L 5581 4050 
L 3297 4050 
L 3297 3347 
L 3309 2713 
Q 3309 2669 3266 2669 
L 3041 2669 
Q 2997 2669 2997 2713 
L 3009 3347 
L 3009 4050 
L 831 4050 
L 831 3097 
Q 831 3050 788 3050 
L 575 3050 
Q 531 3050 531 3097 
L 544 3738 
L 544 3941 
L 531 4256 
Q 531 4300 575 4300 
L 1459 4288 
L 3009 4288 
z
M 1766 3681 
L 2088 3681 
L 2516 3694 
Q 2559 3694 2559 3647 
L 2559 3500 
Q 2559 3456 2516 3456 
L 2088 3469 
L 1766 3469 
L 1338 3456 
Q 1294 3456 1294 3500 
L 1294 3647 
Q 1294 3694 1338 3694 
L 1766 3681 
z
M 1766 3103 
L 2088 3103 
L 2516 3116 
Q 2559 3116 2559 3072 
L 2559 2925 
Q 2559 2881 2516 2881 
L 2088 2894 
L 1766 2894 
L 1338 2881 
Q 1294 2881 1294 2925 
L 1294 3072 
Q 1294 3116 1338 3116 
L 1766 3103 
z
M 4250 3681 
L 4603 3681 
L 5056 3694 
Q 5100 3694 5100 3647 
L 5100 3500 
Q 5100 3456 5056 3456 
L 4603 3469 
L 4250 3469 
L 3803 3456 
Q 3756 3456 3756 3500 
L 3756 3647 
Q 3756 3694 3803 3694 
L 4250 3681 
z
M 4250 3103 
L 4603 3103 
L 5056 3116 
Q 5100 3116 5100 3072 
L 5100 2925 
Q 5100 2881 5056 2881 
L 4603 2894 
L 4250 2894 
L 3803 2881 
Q 3756 2881 3756 2925 
L 3756 3072 
Q 3756 3116 3803 3116 
L 4250 3103 
z
" transform="scale(0.015625)"/>
       <path id="YuGothic-Regular-5727" d="M 3425 269 
L 3425 2297 
L 2759 2297 
L 1875 2284 
Q 1831 2284 1831 2328 
L 1831 2547 
Q 1831 2591 1875 2591 
L 2759 2578 
L 3425 2578 
L 3425 3334 
Q 3425 3906 3381 4159 
Q 3578 4150 3722 4122 
Q 3788 4109 3788 4069 
Q 3788 4028 3763 3959 
Q 3725 3831 3725 3353 
L 3725 2578 
L 4519 2578 
L 5400 2591 
Q 5447 2591 5447 2547 
L 5447 2328 
Q 5447 2284 5400 2284 
L 4519 2297 
L 3725 2297 
L 3725 269 
L 4959 269 
L 5875 281 
Q 5919 281 5919 238 
L 5919 13 
Q 5919 -25 5875 -25 
L 4959 -13 
L 2291 -13 
L 1384 -25 
Q 1338 -25 1338 13 
L 1338 238 
Q 1338 281 1384 281 
L 2291 269 
L 3425 269 
z
M 1325 4519 
L 1325 3481 
Q 1325 2188 1191 1466 
Q 1028 506 616 -216 
Q 578 -281 559 -281 
Q 544 -281 494 -231 
Q 400 -138 275 -97 
Q 741 588 903 1575 
Q 1025 2244 1025 3481 
L 1013 4769 
Q 1013 4813 1056 4813 
L 1972 4800 
L 4878 4800 
L 5778 4813 
Q 5825 4813 5825 4769 
L 5825 4550 
Q 5825 4506 5778 4506 
L 4878 4519 
L 1325 4519 
z
" transform="scale(0.015625)"/>
       <path id="YuGothic-Regular-56" d="M 3891 4806 
L 2338 141 
L 1791 141 
L 263 4806 
L 722 4806 
L 1631 1913 
Q 1722 1631 1856 1175 
Q 2013 653 2053 513 
L 2119 513 
Q 2319 1228 2528 1900 
L 3463 4806 
L 3891 4806 
z
" transform="scale(0.015625)"/>
      </defs>
      <use xlink:href="#YuGothic-Regular-96fb"/>
      <use xlink:href="#YuGothic-Regular-5727" x="100"/>
      <use xlink:href="#YuGothic-Regular-5b" x="200"/>
      <use xlink:href="#YuGothic-Regular-56" x="238.623047"/>
      <use xlink:href="#YuGothic-Regular-5d" x="303.515625"/>
     </g>
    </g>
   </g>
   <g id="line2d_17">
    <path d="M 43.77 45.932449 
L 48.268739 39.638995 
L 55.661083 29.297929 
L 58.936864 25.124117 
L 61.655761 22.007589 
L 64.058 19.582295 
L 66.241854 17.685731 
L 68.261919 16.219822 
L 70.150952 15.117915 
L 71.941712 14.325473 
L 73.666957 13.802183 
L 75.337605 13.525028 
L 76.986414 13.475522 
L 78.635224 13.64902 
L 80.305872 14.050665 
L 82.020197 14.695246 
L 83.800038 15.606864 
L 85.667232 16.818281 
L 87.654539 18.379006 
L 89.794716 20.349679 
L 92.142359 22.822309 
L 94.784821 25.939673 
L 97.896813 29.969881 
L 102.100731 35.810261 
L 110.650518 47.759486 
L 113.849864 51.793645 
L 116.525085 54.821294 
L 118.894566 57.178074 
L 121.056581 59.023261 
L 123.054807 60.443945 
L 124.932921 61.512541 
L 126.712762 62.27509 
L 128.427087 62.771774 
L 130.097735 63.026607 
L 131.746545 63.053948 
L 133.395354 62.858349 
L 135.066002 62.434581 
L 136.780327 61.767795 
L 138.560168 60.833885 
L 140.438282 59.592212 
L 142.436508 57.99834 
L 144.598523 55.981081 
L 146.968005 53.457057 
L 149.643225 50.271159 
L 152.820732 46.124858 
L 157.221198 39.98116 
L 164.95204 29.167319 
L 168.205981 25.031741 
L 170.91396 21.937105 
L 173.30528 19.531154 
L 175.478214 17.65102 
L 177.48736 16.198454 
L 179.376393 15.101184 
L 181.167153 14.313321 
L 182.892397 13.794565 
L 184.563045 13.521873 
L 186.211855 13.476799 
L 187.860664 13.654719 
L 189.531312 14.060792 
L 191.245638 14.709818 
L 193.025478 15.625901 
L 194.892673 16.841787 
L 196.87998 18.40697 
L 199.020157 20.382033 
L 201.367799 22.858913 
L 204.010262 25.980259 
L 207.133173 30.028647 
L 211.35893 35.903317 
L 219.799524 47.701867 
L 222.99887 51.741354 
L 225.68501 54.786451 
L 228.06541 57.157892 
L 230.227425 59.006182 
L 232.225651 60.42997 
L 234.103766 61.501653 
L 235.894526 62.271172 
L 237.608851 62.76936 
L 239.279499 63.025682 
L 240.928308 63.054501 
L 242.577118 62.860375 
L 244.247766 62.43808 
L 245.962091 61.772774 
L 247.741932 60.840347 
L 249.620046 59.600166 
L 251.618272 58.007778 
L 253.769368 56.002882 
L 256.138849 53.481683 
L 258.81407 50.298423 
L 261.980658 46.169186 
L 266.359284 40.058882 
L 267.625919 38.252786 
L 267.625919 38.252786 
" clip-path="url(#p13639b0b50)" style="fill: none; stroke: #1f77b4; stroke-width: 1.5; stroke-linecap: square"/>
   </g>
   <g id="line2d_18">
    <path d="M 43.77 48.068477 
L 47.449793 43.086437 
L 59.417311 26.598635 
L 62.310918 23.153541 
L 64.822349 20.499234 
L 67.082638 18.425667 
L 69.157299 16.816673 
L 71.090009 15.592099 
L 72.924446 14.688762 
L 74.671529 14.072362 
L 76.364016 13.708178 
L 78.023745 13.577079 
L 79.672554 13.669667 
L 81.332283 13.986325 
L 83.02477 14.537108 
L 84.771852 15.341487 
L 86.60629 16.435074 
L 88.549919 17.858628 
L 90.6355 19.669245 
L 92.906707 21.944359 
L 95.429058 24.795507 
L 98.344503 28.439788 
L 102.013377 33.404661 
L 114.05733 49.992756 
L 116.940017 53.419974 
L 119.440529 56.059036 
L 121.700818 58.129523 
L 123.775479 59.735414 
L 125.708189 60.9569 
L 127.531707 61.852575 
L 129.27879 62.467465 
L 130.971277 62.830156 
L 132.631005 62.959777 
L 134.279815 62.865718 
L 135.939544 62.547593 
L 137.63203 61.995339 
L 139.390032 61.183712 
L 141.22447 60.087154 
L 143.168099 58.66063 
L 145.25368 56.84707 
L 147.524887 54.569085 
L 150.047238 51.715217 
L 152.962683 48.068477 
L 156.642476 43.086437 
L 168.609994 26.598635 
L 171.5036 23.153541 
L 174.015032 20.499234 
L 176.275321 18.425667 
L 178.349982 16.816673 
L 180.282692 15.592099 
L 182.117129 14.688762 
L 183.864212 14.072362 
L 185.556699 13.708178 
L 187.216428 13.577079 
L 188.865237 13.669667 
L 190.524966 13.986325 
L 192.217452 14.537108 
L 193.964535 15.341487 
L 195.798972 16.435074 
L 197.742602 17.858628 
L 199.828182 19.669245 
L 202.09939 21.944359 
L 204.621741 24.795507 
L 207.537186 28.439788 
L 211.20606 33.404661 
L 223.250013 49.992756 
L 226.1327 53.419974 
L 228.633212 56.059036 
L 230.893501 58.129523 
L 232.968162 59.735414 
L 234.900872 60.9569 
L 236.72439 61.852575 
L 238.471473 62.467465 
L 240.16396 62.830156 
L 241.823688 62.959777 
L 243.472498 62.865718 
L 245.132227 62.547593 
L 246.824713 61.995339 
L 248.582715 61.183712 
L 250.417152 60.087154 
L 252.360782 58.66063 
L 254.446362 56.84707 
L 256.71757 54.569085 
L 259.239921 51.715217 
L 262.155366 48.068477 
L 265.835159 43.086437 
L 267.625919 40.569827 
L 267.625919 40.569827 
" clip-path="url(#p13639b0b50)" style="fill: none; stroke: #ff7f0e; stroke-width: 1.5; stroke-linecap: square"/>
   </g>
   <g id="patch_3">
    <path d="M 43.77 65.55 
L 43.77 10.986738 
" style="fill: none; stroke: #000000; stroke-width: 0.8; stroke-linejoin: miter; stroke-linecap: square"/>
   </g>
   <g id="patch_4">
    <path d="M 267.615 65.55 
L 267.615 10.986738 
" style="fill: none; stroke: #000000; stroke-width: 0.8; stroke-linejoin: miter; stroke-linecap: square"/>
   </g>
   <g id="patch_5">
    <path d="M 43.77 65.55 
L 267.615 65.55 
" style="fill: none; stroke: #000000; stroke-width: 0.8; stroke-linejoin: miter; stroke-linecap: square"/>
   </g>
   <g id="patch_6">
    <path d="M 43.77 10.986738 
L 267.615 10.986738 
" style="fill: none; stroke: #000000; stroke-width: 0.8; stroke-linejoin: miter; stroke-linecap: square"/>
   </g>
   <g id="legend_1">
    <g id="patch_7">
     <path d="M 199.738437 60.55 
L 260.615 60.55 
Q 262.615 60.55 262.615 58.55 
L 262.615 45.315625 
Q 262.615 43.315625 260.615 43.315625 
L 199.738437 43.315625 
Q 197.738437 43.315625 197.738437 45.315625 
L 197.738437 58.55 
Q 197.738437 60.55 199.738437 60.55 
z
" style="fill: #ffffff; opacity: 0.8; stroke: #cccccc; stroke-linejoin: miter"/>
    </g>
    <g id="line2d_19">
     <path d="M 201.738437 51.457813 
L 211.738437 51.457813 
L 221.738437 51.457813 
" style="fill: none; stroke: #ff7f0e; stroke-width: 1.5; stroke-linecap: square"/>
    </g>
    <g id="text_11">
     <!--   10Hz -->
     <g transform="translate(229.738437 54.957813)scale(0.1 -0.1)">
      <defs>
       <path id="YuGothic-Regular-20" d="M 0 0 
Q 0 0 0 0 
z
" transform="scale(0.015625)"/>
       <path id="YuGothic-Regular-48" d="M 4044 4806 
L 4044 141 
L 3622 141 
L 3622 2419 
L 1144 2419 
L 1144 141 
L 722 141 
L 722 4806 
L 1144 4806 
L 1144 2784 
L 3622 2784 
L 3622 4806 
L 4044 4806 
z
" transform="scale(0.015625)"/>
       <path id="YuGothic-Regular-7a" d="M 2584 3341 
L 2584 3072 
L 741 453 
L 2631 453 
L 2631 141 
L 294 141 
L 294 422 
L 2131 3028 
L 391 3028 
L 391 3341 
L 2584 3341 
z
" transform="scale(0.015625)"/>
      </defs>
      <use xlink:href="#YuGothic-Regular-20"/>
      <use xlink:href="#YuGothic-Regular-20" x="28.515625"/>
      <use xlink:href="#YuGothic-Regular-31" x="57.03125"/>
      <use xlink:href="#YuGothic-Regular-30" x="112.646484"/>
      <use xlink:href="#YuGothic-Regular-48" x="168.261719"/>
      <use xlink:href="#YuGothic-Regular-7a" x="242.773438"/>
     </g>
    </g>
   </g>
  </g>
  <g id="axes_2">
   <g id="patch_8">
    <path d="M 43.77 157.95 
L 267.615 157.95 
L 267.615 103.386738 
L 43.77 103.386738 
z
" style="fill: #ffffff"/>
   </g>
   <g id="matplotlib.axis_3">
    <g id="xtick_6">
     <g id="line2d_20">
      <path d="M 49.229634 157.95 
L 49.229634 103.386738 
" clip-path="url(#p21861f2fef)" style="fill: none; stroke: #b0b0b0; stroke-width: 0.8; stroke-linecap: square"/>
     </g>
     <g id="line2d_21"/>
     <g id="text_12">
      <!-- 0 -->
      <g transform="translate(46.449165 169.092187)scale(0.1 -0.1)">
       <use xlink:href="#YuGothic-Regular-30"/>
      </g>
     </g>
    </g>
    <g id="xtick_7">
     <g id="line2d_22">
      <path d="M 103.825976 157.95 
L 103.825976 103.386738 
" clip-path="url(#p21861f2fef)" style="fill: none; stroke: #b0b0b0; stroke-width: 0.8; stroke-linecap: square"/>
     </g>
     <g id="line2d_23"/>
     <g id="text_13">
      <!-- 5 -->
      <g transform="translate(101.045507 169.092187)scale(0.1 -0.1)">
       <use xlink:href="#YuGothic-Regular-35"/>
      </g>
     </g>
    </g>
    <g id="xtick_8">
     <g id="line2d_24">
      <path d="M 158.422317 157.95 
L 158.422317 103.386738 
" clip-path="url(#p21861f2fef)" style="fill: none; stroke: #b0b0b0; stroke-width: 0.8; stroke-linecap: square"/>
     </g>
     <g id="line2d_25"/>
     <g id="text_14">
      <!-- 10 -->
      <g transform="translate(152.86138 169.092187)scale(0.1 -0.1)">
       <use xlink:href="#YuGothic-Regular-31"/>
       <use xlink:href="#YuGothic-Regular-30" x="55.615234"/>
      </g>
     </g>
    </g>
    <g id="xtick_9">
     <g id="line2d_26">
      <path d="M 213.018659 157.95 
L 213.018659 103.386738 
" clip-path="url(#p21861f2fef)" style="fill: none; stroke: #b0b0b0; stroke-width: 0.8; stroke-linecap: square"/>
     </g>
     <g id="line2d_27"/>
     <g id="text_15">
      <!-- 15 -->
      <g transform="translate(207.457721 169.092187)scale(0.1 -0.1)">
       <use xlink:href="#YuGothic-Regular-31"/>
       <use xlink:href="#YuGothic-Regular-35" x="55.615234"/>
      </g>
     </g>
    </g>
    <g id="xtick_10">
     <g id="line2d_28">
      <path d="M 267.615 157.95 
L 267.615 103.386738 
" clip-path="url(#p21861f2fef)" style="fill: none; stroke: #b0b0b0; stroke-width: 0.8; stroke-linecap: square"/>
     </g>
     <g id="line2d_29"/>
     <g id="text_16">
      <!-- 20 -->
      <g transform="translate(262.054062 169.092187)scale(0.1 -0.1)">
       <use xlink:href="#YuGothic-Regular-32"/>
       <use xlink:href="#YuGothic-Regular-30" x="55.615234"/>
      </g>
     </g>
    </g>
    <g id="text_17">
     <!-- 時間t[ms] -->
     <g transform="translate(133.222187 182.540625)scale(0.1 -0.1)">
      <use xlink:href="#YuGothic-Regular-6642"/>
      <use xlink:href="#YuGothic-Regular-9593" x="100"/>
      <use xlink:href="#YuGothic-Regular-74" x="200"/>
      <use xlink:href="#YuGothic-Regular-5b" x="235.205078"/>
      <use xlink:href="#YuGothic-Regular-6d" x="273.828125"/>
      <use xlink:href="#YuGothic-Regular-73" x="359.912109"/>
      <use xlink:href="#YuGothic-Regular-5d" x="410.791016"/>
     </g>
    </g>
   </g>
   <g id="matplotlib.axis_4">
    <g id="ytick_4">
     <g id="line2d_30">
      <path d="M 43.77 155.469852 
L 267.615 155.469852 
" clip-path="url(#p21861f2fef)" style="fill: none; stroke: #b0b0b0; stroke-width: 0.8; stroke-linecap: square"/>
     </g>
     <g id="line2d_31"/>
     <g id="text_18">
      <!-- −1 -->
      <g transform="translate(24.709062 159.290945)scale(0.1 -0.1)">
       <use xlink:href="#YuGothic-Regular-2212"/>
       <use xlink:href="#YuGothic-Regular-31" x="100"/>
      </g>
     </g>
    </g>
    <g id="ytick_5">
     <g id="line2d_32">
      <path d="M 43.77 130.668369 
L 267.615 130.668369 
" clip-path="url(#p21861f2fef)" style="fill: none; stroke: #b0b0b0; stroke-width: 0.8; stroke-linecap: square"/>
     </g>
     <g id="line2d_33"/>
     <g id="text_19">
      <!-- 0 -->
      <g transform="translate(34.709062 134.489463)scale(0.1 -0.1)">
       <use xlink:href="#YuGothic-Regular-30"/>
      </g>
     </g>
    </g>
    <g id="ytick_6">
     <g id="line2d_34">
      <path d="M 43.77 105.866886 
L 267.615 105.866886 
" clip-path="url(#p21861f2fef)" style="fill: none; stroke: #b0b0b0; stroke-width: 0.8; stroke-linecap: square"/>
     </g>
     <g id="line2d_35"/>
     <g id="text_20">
      <!-- 1 -->
      <g transform="translate(34.709062 109.68798)scale(0.1 -0.1)">
       <use xlink:href="#YuGothic-Regular-31"/>
      </g>
     </g>
    </g>
    <g id="text_21">
     <!-- 電圧[V] -->
     <g transform="translate(19.116875 147.7754)rotate(-90)scale(0.1 -0.1)">
      <use xlink:href="#YuGothic-Regular-96fb"/>
      <use xlink:href="#YuGothic-Regular-5727" x="100"/>
      <use xlink:href="#YuGothic-Regular-5b" x="200"/>
      <use xlink:href="#YuGothic-Regular-56" x="238.623047"/>
      <use xlink:href="#YuGothic-Regular-5d" x="303.515625"/>
     </g>
    </g>
   </g>
   <g id="line2d_36">
    <path d="M 43.77 138.332449 
L 48.356093 131.914503 
L 55.56281 121.828826 
L 58.83859 117.643259 
L 61.568407 114.501926 
L 63.970646 112.064502 
L 66.1545 110.155544 
L 68.119968 108.71332 
L 69.976244 107.608534 
L 71.723327 106.808656 
L 73.47041 106.249714 
L 75.1083 105.949576 
L 76.74619 105.868844 
L 78.38408 106.008235 
L 80.021971 106.366511 
L 81.769054 106.986312 
L 83.516137 107.845255 
L 85.372412 109.010165 
L 87.33788 110.512349 
L 89.412541 112.37695 
L 91.705588 114.739551 
L 94.326212 117.776128 
L 97.383607 121.683403 
L 101.314544 127.096688 
L 111.251078 140.945498 
L 114.308473 144.73748 
L 116.929098 147.646152 
L 119.222144 149.877193 
L 121.405998 151.692039 
L 123.371466 153.042629 
L 125.227741 154.055932 
L 126.974824 154.766277 
L 128.721907 155.233281 
L 130.359798 155.445867 
L 131.997688 155.438526 
L 133.635578 155.211324 
L 135.273468 154.766277 
L 137.020551 154.055932 
L 138.767634 153.109422 
L 140.62391 151.855716 
L 142.589378 150.265385 
L 144.773232 148.205666 
L 147.175471 145.621916 
L 149.905288 142.342524 
L 153.181068 138.035441 
L 157.876354 131.447402 
L 164.6463 121.974598 
L 167.92208 117.776128 
L 170.651898 114.620422 
L 173.054137 112.167923 
L 175.23799 110.243539 
L 177.312651 108.71332 
L 179.168927 107.608534 
L 180.91601 106.808656 
L 182.663093 106.249714 
L 184.300983 105.949576 
L 185.938873 105.868844 
L 187.576763 106.008235 
L 189.214654 106.366511 
L 190.961737 106.986312 
L 192.70882 107.845255 
L 194.565095 109.010165 
L 196.530563 110.512349 
L 198.605224 112.37695 
L 200.898271 114.739551 
L 203.518895 117.776128 
L 206.57629 121.683403 
L 210.507227 127.096688 
L 220.443761 140.945498 
L 223.501156 144.73748 
L 226.12178 147.646152 
L 228.414827 149.877193 
L 230.59868 151.692039 
L 232.564149 153.042629 
L 234.420424 154.055932 
L 236.167507 154.766277 
L 237.91459 155.233281 
L 239.55248 155.445867 
L 241.190371 155.438526 
L 242.828261 155.211324 
L 244.466151 154.766277 
L 246.213234 154.055932 
L 247.960317 153.109422 
L 249.816593 151.855716 
L 251.782061 150.265385 
L 253.965915 148.205666 
L 256.368154 145.621916 
L 259.097971 142.342524 
L 262.373751 138.035441 
L 267.069037 131.447402 
L 267.724193 130.512538 
L 267.724193 130.512538 
" clip-path="url(#p21861f2fef)" style="fill: none; stroke: #1f77b4; stroke-width: 1.5; stroke-linecap: square"/>
   </g>
   <g id="line2d_37">
    <path d="M 43.77 146.500252 
L 45.953854 145.289233 
L 48.356093 143.691638 
L 50.976717 141.666638 
L 53.92492 139.092653 
L 57.419085 135.735176 
L 62.87872 130.134132 
L 68.884317 124.054631 
L 72.378483 120.83409 
L 75.217493 118.503658 
L 77.838117 116.638721 
L 80.131163 115.266835 
L 82.315017 114.208904 
L 84.389678 113.444091 
L 86.355146 112.945563 
L 88.320615 112.673486 
L 90.286083 112.631336 
L 92.251551 112.819653 
L 94.21702 113.236029 
L 96.182488 113.875145 
L 98.257149 114.782346 
L 100.441002 115.981303 
L 102.843241 117.566843 
L 105.463866 119.580402 
L 108.412068 122.14396 
L 111.906234 125.49282 
L 117.256676 130.975863 
L 123.480659 137.282107 
L 126.974824 140.502648 
L 129.813834 142.83308 
L 132.434459 144.698017 
L 134.727505 146.069903 
L 136.911359 147.127834 
L 138.98602 147.892647 
L 140.951488 148.391175 
L 142.916956 148.663252 
L 144.882424 148.705402 
L 146.847893 148.517085 
L 148.813361 148.100709 
L 150.778829 147.461593 
L 152.85349 146.554392 
L 155.037344 145.355435 
L 157.439583 143.769895 
L 160.060207 141.756336 
L 163.00841 139.192778 
L 166.502576 135.843918 
L 171.853017 130.360875 
L 178.077 124.054631 
L 181.571166 120.83409 
L 184.410176 118.503658 
L 187.0308 116.638721 
L 189.323846 115.266835 
L 191.5077 114.208904 
L 193.582361 113.444091 
L 195.547829 112.945563 
L 197.513298 112.673486 
L 199.478766 112.631336 
L 201.444234 112.819653 
L 203.409702 113.236029 
L 205.375171 113.875145 
L 207.449832 114.782346 
L 209.633685 115.981303 
L 212.035924 117.566843 
L 214.656549 119.580402 
L 217.604751 122.14396 
L 221.098917 125.49282 
L 226.449359 130.975863 
L 232.673341 137.282107 
L 236.167507 140.502648 
L 239.006517 142.83308 
L 241.627141 144.698017 
L 243.920188 146.069903 
L 246.104041 147.127834 
L 248.178702 147.892647 
L 250.144171 148.391175 
L 252.109639 148.663252 
L 254.075107 148.705402 
L 256.040576 148.517085 
L 258.006044 148.100709 
L 259.971512 147.461593 
L 262.046173 146.554392 
L 264.230027 145.355435 
L 266.632266 143.769895 
L 267.724193 142.96457 
L 267.724193 142.96457 
" clip-path="url(#p21861f2fef)" style="fill: none; stroke: #ff7f0e; stroke-width: 1.5; stroke-linecap: square"/>
   </g>
   <g id="patch_9">
    <path d="M 43.77 157.95 
L 43.77 103.386738 
" style="fill: none; stroke: #000000; stroke-width: 0.8; stroke-linejoin: miter; stroke-linecap: square"/>
   </g>
   <g id="patch_10">
    <path d="M 267.615 157.95 
L 267.615 103.386738 
" style="fill: none; stroke: #000000; stroke-width: 0.8; stroke-linejoin: miter; stroke-linecap: square"/>
   </g>
   <g id="patch_11">
    <path d="M 43.77 157.95 
L 267.615 157.95 
" style="fill: none; stroke: #000000; stroke-width: 0.8; stroke-linejoin: miter; stroke-linecap: square"/>
   </g>
   <g id="patch_12">
    <path d="M 43.77 103.386738 
L 267.615 103.386738 
" style="fill: none; stroke: #000000; stroke-width: 0.8; stroke-linejoin: miter; stroke-linecap: square"/>
   </g>
   <g id="legend_2">
    <g id="patch_13">
     <path d="M 197.029062 152.95 
L 260.615 152.95 
Q 262.615 152.95 262.615 150.95 
L 262.615 137.715625 
Q 262.615 135.715625 260.615 135.715625 
L 197.029062 135.715625 
Q 195.029062 135.715625 195.029062 137.715625 
L 195.029062 150.95 
Q 195.029062 152.95 197.029062 152.95 
z
" style="fill: #ffffff; opacity: 0.8; stroke: #cccccc; stroke-linejoin: miter"/>
    </g>
    <g id="line2d_38">
     <path d="M 199.029062 143.857812 
L 209.029062 143.857812 
L 219.029062 143.857812 
" style="fill: none; stroke: #ff7f0e; stroke-width: 1.5; stroke-linecap: square"/>
    </g>
    <g id="text_22">
     <!--  100Hz -->
     <g transform="translate(227.029062 147.357812)scale(0.1 -0.1)">
      <use xlink:href="#YuGothic-Regular-20"/>
      <use xlink:href="#YuGothic-Regular-31" x="28.515625"/>
      <use xlink:href="#YuGothic-Regular-30" x="84.130859"/>
      <use xlink:href="#YuGothic-Regular-30" x="139.746094"/>
      <use xlink:href="#YuGothic-Regular-48" x="195.361328"/>
      <use xlink:href="#YuGothic-Regular-7a" x="269.873047"/>
     </g>
    </g>
   </g>
  </g>
  <g id="axes_3">
   <g id="patch_14">
    <path d="M 43.77 250.35 
L 267.615 250.35 
L 267.615 195.786738 
L 43.77 195.786738 
z
" style="fill: #ffffff"/>
   </g>
   <g id="matplotlib.axis_5">
    <g id="xtick_11">
     <g id="line2d_39">
      <path d="M 49.229634 250.35 
L 49.229634 195.786738 
" clip-path="url(#pdabbb19f00)" style="fill: none; stroke: #b0b0b0; stroke-width: 0.8; stroke-linecap: square"/>
     </g>
     <g id="line2d_40"/>
     <g id="text_23">
      <!-- 0.0 -->
      <g transform="translate(42.379634 261.492187)scale(0.1 -0.1)">
       <defs>
        <path id="YuGothic-Regular-2e" d="M 1147 794 
L 1147 141 
L 506 141 
L 506 794 
L 1147 794 
z
" transform="scale(0.015625)"/>
       </defs>
       <use xlink:href="#YuGothic-Regular-30"/>
       <use xlink:href="#YuGothic-Regular-2e" x="55.615234"/>
       <use xlink:href="#YuGothic-Regular-30" x="81.396484"/>
      </g>
     </g>
    </g>
    <g id="xtick_12">
     <g id="line2d_41">
      <path d="M 103.825976 250.35 
L 103.825976 195.786738 
" clip-path="url(#pdabbb19f00)" style="fill: none; stroke: #b0b0b0; stroke-width: 0.8; stroke-linecap: square"/>
     </g>
     <g id="line2d_42"/>
     <g id="text_24">
      <!-- 0.5 -->
      <g transform="translate(96.975976 261.492187)scale(0.1 -0.1)">
       <use xlink:href="#YuGothic-Regular-30"/>
       <use xlink:href="#YuGothic-Regular-2e" x="55.615234"/>
       <use xlink:href="#YuGothic-Regular-35" x="81.396484"/>
      </g>
     </g>
    </g>
    <g id="xtick_13">
     <g id="line2d_43">
      <path d="M 158.422317 250.35 
L 158.422317 195.786738 
" clip-path="url(#pdabbb19f00)" style="fill: none; stroke: #b0b0b0; stroke-width: 0.8; stroke-linecap: square"/>
     </g>
     <g id="line2d_44"/>
     <g id="text_25">
      <!-- 1.0 -->
      <g transform="translate(151.572317 261.492187)scale(0.1 -0.1)">
       <use xlink:href="#YuGothic-Regular-31"/>
       <use xlink:href="#YuGothic-Regular-2e" x="55.615234"/>
       <use xlink:href="#YuGothic-Regular-30" x="81.396484"/>
      </g>
     </g>
    </g>
    <g id="xtick_14">
     <g id="line2d_45">
      <path d="M 213.018659 250.35 
L 213.018659 195.786738 
" clip-path="url(#pdabbb19f00)" style="fill: none; stroke: #b0b0b0; stroke-width: 0.8; stroke-linecap: square"/>
     </g>
     <g id="line2d_46"/>
     <g id="text_26">
      <!-- 1.5 -->
      <g transform="translate(206.168659 261.492187)scale(0.1 -0.1)">
       <use xlink:href="#YuGothic-Regular-31"/>
       <use xlink:href="#YuGothic-Regular-2e" x="55.615234"/>
       <use xlink:href="#YuGothic-Regular-35" x="81.396484"/>
      </g>
     </g>
    </g>
    <g id="xtick_15">
     <g id="line2d_47">
      <path d="M 267.615 250.35 
L 267.615 195.786738 
" clip-path="url(#pdabbb19f00)" style="fill: none; stroke: #b0b0b0; stroke-width: 0.8; stroke-linecap: square"/>
     </g>
     <g id="line2d_48"/>
     <g id="text_27">
      <!-- 2.0 -->
      <g transform="translate(260.765 261.492187)scale(0.1 -0.1)">
       <use xlink:href="#YuGothic-Regular-32"/>
       <use xlink:href="#YuGothic-Regular-2e" x="55.615234"/>
       <use xlink:href="#YuGothic-Regular-30" x="81.396484"/>
      </g>
     </g>
    </g>
    <g id="text_28">
     <!-- 時間t[ms] -->
     <g transform="translate(133.222187 274.940625)scale(0.1 -0.1)">
      <use xlink:href="#YuGothic-Regular-6642"/>
      <use xlink:href="#YuGothic-Regular-9593" x="100"/>
      <use xlink:href="#YuGothic-Regular-74" x="200"/>
      <use xlink:href="#YuGothic-Regular-5b" x="235.205078"/>
      <use xlink:href="#YuGothic-Regular-6d" x="273.828125"/>
      <use xlink:href="#YuGothic-Regular-73" x="359.912109"/>
      <use xlink:href="#YuGothic-Regular-5d" x="410.791016"/>
     </g>
    </g>
   </g>
   <g id="matplotlib.axis_6">
    <g id="ytick_7">
     <g id="line2d_49">
      <path d="M 43.77 247.869852 
L 267.615 247.869852 
" clip-path="url(#pdabbb19f00)" style="fill: none; stroke: #b0b0b0; stroke-width: 0.8; stroke-linecap: square"/>
     </g>
     <g id="line2d_50"/>
     <g id="text_29">
      <!-- −1 -->
      <g transform="translate(24.709062 251.690945)scale(0.1 -0.1)">
       <use xlink:href="#YuGothic-Regular-2212"/>
       <use xlink:href="#YuGothic-Regular-31" x="100"/>
      </g>
     </g>
    </g>
    <g id="ytick_8">
     <g id="line2d_51">
      <path d="M 43.77 223.068369 
L 267.615 223.068369 
" clip-path="url(#pdabbb19f00)" style="fill: none; stroke: #b0b0b0; stroke-width: 0.8; stroke-linecap: square"/>
     </g>
     <g id="line2d_52"/>
     <g id="text_30">
      <!-- 0 -->
      <g transform="translate(34.709062 226.889463)scale(0.1 -0.1)">
       <use xlink:href="#YuGothic-Regular-30"/>
      </g>
     </g>
    </g>
    <g id="ytick_9">
     <g id="line2d_53">
      <path d="M 43.77 198.266886 
L 267.615 198.266886 
" clip-path="url(#pdabbb19f00)" style="fill: none; stroke: #b0b0b0; stroke-width: 0.8; stroke-linecap: square"/>
     </g>
     <g id="line2d_54"/>
     <g id="text_31">
      <!-- 1 -->
      <g transform="translate(34.709062 202.08798)scale(0.1 -0.1)">
       <use xlink:href="#YuGothic-Regular-31"/>
      </g>
     </g>
    </g>
    <g id="text_32">
     <!-- 電圧[V] -->
     <g transform="translate(19.116875 240.1754)rotate(-90)scale(0.1 -0.1)">
      <use xlink:href="#YuGothic-Regular-96fb"/>
      <use xlink:href="#YuGothic-Regular-5727" x="100"/>
      <use xlink:href="#YuGothic-Regular-5b" x="200"/>
      <use xlink:href="#YuGothic-Regular-56" x="238.623047"/>
      <use xlink:href="#YuGothic-Regular-5d" x="303.515625"/>
     </g>
    </g>
   </g>
   <g id="line2d_55">
    <path d="M 43.77 230.732449 
L 49.229634 223.068369 
L 54.689268 215.404289 
L 57.965049 211.120164 
L 61.240829 207.259309 
L 63.424683 204.988866 
L 65.608537 203.003548 
L 67.79239 201.334664 
L 69.976244 200.008534 
L 72.160098 199.04607 
L 74.343951 198.462453 
L 76.527805 198.266886 
L 78.711659 198.462453 
L 80.895512 199.04607 
L 83.079366 200.008534 
L 85.26322 201.334664 
L 87.447073 203.003548 
L 89.630927 204.988866 
L 91.81478 207.259309 
L 93.998634 209.77907 
L 97.274415 213.938334 
L 101.642122 219.959919 
L 110.377537 232.198404 
L 113.653317 236.357668 
L 115.837171 238.877429 
L 118.021024 241.147872 
L 120.204878 243.13319 
L 122.388732 244.802074 
L 124.572585 246.128204 
L 126.756439 247.090668 
L 128.940293 247.674285 
L 131.124146 247.869852 
L 133.308 247.674285 
L 135.491854 247.090668 
L 137.675707 246.128204 
L 139.859561 244.802074 
L 142.043415 243.13319 
L 144.227268 241.147872 
L 146.411122 238.877429 
L 148.594976 236.357668 
L 151.870756 232.198404 
L 156.238463 226.176819 
L 164.973878 213.938334 
L 168.249659 209.77907 
L 170.433512 207.259309 
L 172.617366 204.988866 
L 174.80122 203.003548 
L 176.985073 201.334664 
L 179.168927 200.008534 
L 181.35278 199.04607 
L 183.536634 198.462453 
L 185.720488 198.266886 
L 187.904341 198.462453 
L 190.088195 199.04607 
L 192.272049 200.008534 
L 194.455902 201.334664 
L 196.639756 203.003548 
L 198.82361 204.988866 
L 201.007463 207.259309 
L 203.191317 209.77907 
L 206.467098 213.938334 
L 210.834805 219.959919 
L 219.57022 232.198404 
L 222.846 236.357668 
L 225.029854 238.877429 
L 227.213707 241.147872 
L 229.397561 243.13319 
L 231.581415 244.802074 
L 233.765268 246.128204 
L 235.949122 247.090668 
L 238.132976 247.674285 
L 240.316829 247.869852 
L 242.500683 247.674285 
L 244.684537 247.090668 
L 246.86839 246.128204 
L 249.052244 244.802074 
L 251.236098 243.13319 
L 253.419951 241.147872 
L 255.603805 238.877429 
L 257.787659 236.357668 
L 261.063439 232.198404 
L 265.431146 226.176819 
L 268.706927 221.511071 
L 268.706927 221.511071 
" clip-path="url(#pdabbb19f00)" style="fill: none; stroke: #1f77b4; stroke-width: 1.5; stroke-linecap: square"/>
   </g>
   <g id="line2d_56">
    <path d="M 43.77 225.627709 
L 49.229634 225.669736 
L 54.689268 225.457123 
L 60.148902 225.010683 
L 66.700463 224.229205 
L 77.619732 222.629559 
L 86.355146 221.441441 
L 91.81478 220.888043 
L 97.274415 220.548071 
L 102.734049 220.454804 
L 108.193683 220.61737 
L 113.653317 221.019857 
L 120.204878 221.762623 
L 128.940293 223.016168 
L 139.859561 224.56346 
L 146.411122 225.248695 
L 151.870756 225.588667 
L 157.33039 225.681934 
L 162.790024 225.519368 
L 168.249659 225.116881 
L 174.80122 224.374115 
L 183.536634 223.12057 
L 194.455902 221.573278 
L 201.007463 220.888043 
L 206.467098 220.548071 
L 211.926732 220.454804 
L 217.386366 220.61737 
L 222.846 221.019857 
L 229.397561 221.762623 
L 238.132976 223.016168 
L 249.052244 224.56346 
L 255.603805 225.248695 
L 261.063439 225.588667 
L 266.523073 225.681934 
L 268.706927 225.647272 
L 268.706927 225.647272 
" clip-path="url(#pdabbb19f00)" style="fill: none; stroke: #ff7f0e; stroke-width: 1.5; stroke-linecap: square"/>
   </g>
   <g id="patch_15">
    <path d="M 43.77 250.35 
L 43.77 195.786738 
" style="fill: none; stroke: #000000; stroke-width: 0.8; stroke-linejoin: miter; stroke-linecap: square"/>
   </g>
   <g id="patch_16">
    <path d="M 267.615 250.35 
L 267.615 195.786738 
" style="fill: none; stroke: #000000; stroke-width: 0.8; stroke-linejoin: miter; stroke-linecap: square"/>
   </g>
   <g id="patch_17">
    <path d="M 43.77 250.35 
L 267.615 250.35 
" style="fill: none; stroke: #000000; stroke-width: 0.8; stroke-linejoin: miter; stroke-linecap: square"/>
   </g>
   <g id="patch_18">
    <path d="M 43.77 195.786738 
L 267.615 195.786738 
" style="fill: none; stroke: #000000; stroke-width: 0.8; stroke-linejoin: miter; stroke-linecap: square"/>
   </g>
   <g id="legend_3">
    <g id="patch_19">
     <path d="M 194.319687 245.35 
L 260.615 245.35 
Q 262.615 245.35 262.615 243.35 
L 262.615 230.115625 
Q 262.615 228.115625 260.615 228.115625 
L 194.319687 228.115625 
Q 192.319687 228.115625 192.319687 230.115625 
L 192.319687 243.35 
Q 192.319687 245.35 194.319687 245.35 
z
" style="fill: #ffffff; opacity: 0.8; stroke: #cccccc; stroke-linejoin: miter"/>
    </g>
    <g id="line2d_57">
     <path d="M 196.319687 236.257812 
L 206.319687 236.257812 
L 216.319687 236.257812 
" style="fill: none; stroke: #ff7f0e; stroke-width: 1.5; stroke-linecap: square"/>
    </g>
    <g id="text_33">
     <!-- 1000Hz -->
     <g transform="translate(224.319687 239.757812)scale(0.1 -0.1)">
      <use xlink:href="#YuGothic-Regular-31"/>
      <use xlink:href="#YuGothic-Regular-30" x="55.615234"/>
      <use xlink:href="#YuGothic-Regular-30" x="111.230469"/>
      <use xlink:href="#YuGothic-Regular-30" x="166.845703"/>
      <use xlink:href="#YuGothic-Regular-48" x="222.460938"/>
      <use xlink:href="#YuGothic-Regular-7a" x="296.972656"/>
     </g>
    </g>
   </g>
  </g>
 </g>
 <defs>
  <clipPath id="p13639b0b50">
   <rect x="43.77" y="10.986738" width="223.845" height="54.563262"/>
  </clipPath>
  <clipPath id="p21861f2fef">
   <rect x="43.77" y="103.386738" width="223.845" height="54.563262"/>
  </clipPath>
  <clipPath id="pdabbb19f00">
   <rect x="43.77" y="195.786738" width="223.845" height="54.563262"/>
  </clipPath>
 </defs>
</svg>
