<?xml version="1.0" encoding="utf-8" standalone="no"?>
<!DOCTYPE svg PUBLIC "-//W3C//DTD SVG 1.1//EN"
  "http://www.w3.org/Graphics/SVG/1.1/DTD/svg11.dtd">
<svg xmlns:xlink="http://www.w3.org/1999/xlink" width="288pt" height="288pt" viewBox="0 0 288 288" xmlns="http://www.w3.org/2000/svg" version="1.1">
 <metadata>
  <rdf:RDF xmlns:dc="http://purl.org/dc/elements/1.1/" xmlns:cc="http://creativecommons.org/ns#" xmlns:rdf="http://www.w3.org/1999/02/22-rdf-syntax-ns#">
   <cc:Work>
    <dc:type rdf:resource="http://purl.org/dc/dcmitype/StillImage"/>
    <dc:date>2022-08-18T11:50:33.277524</dc:date>
    <dc:format>image/svg+xml</dc:format>
    <dc:creator>
     <cc:Agent>
      <dc:title>Matplotlib v3.5.3, https://matplotlib.org/</dc:title>
     </cc:Agent>
    </dc:creator>
   </cc:Work>
  </rdf:RDF>
 </metadata>
 <defs>
  <style type="text/css">*{stroke-linejoin: round; stroke-linecap: butt}</style>
 </defs>
 <g id="figure_1">
  <g id="patch_1">
   <path d="M 0 288 
L 288 288 
L 288 0 
L 0 0 
z
" style="fill: #ffffff"/>
  </g>
  <g id="axes_1">
   <g id="patch_2">
    <path d="M 51.87 250.0575 
L 268.875 250.0575 
L 268.875 10.8 
L 51.87 10.8 
z
" style="fill: #ffffff"/>
   </g>
   <g id="matplotlib.axis_1">
    <g id="xtick_1">
     <g id="line2d_1">
      <path d="M 51.87 250.0575 
L 51.87 10.8 
" clip-path="url(#p078ac850ea)" style="fill: none; stroke: #b0b0b0; stroke-width: 0.8; stroke-linecap: square"/>
     </g>
     <g id="line2d_2"/>
     <g id="text_1">
      <!-- −90 -->
      <g transform="translate(41.309063 261.199687)scale(0.1 -0.1)">
       <defs>
        <path id="YuGothic-Regular-2212" d="M 5000 2578 
L 5000 2291 
L 1403 2291 
L 1403 2578 
L 5000 2578 
z
" transform="scale(0.015625)"/>
        <path id="YuGothic-Regular-39" d="M 934 825 
Q 1153 403 1594 403 
Q 2144 403 2409 938 
Q 2663 1444 2694 2491 
Q 2319 1803 1638 1803 
Q 1078 1803 731 2250 
Q 422 2647 422 3244 
Q 422 3994 831 4431 
Q 1178 4806 1703 4806 
Q 2394 4806 2753 4216 
Q 3084 3669 3084 2669 
Q 3084 56 1594 56 
Q 866 56 556 628 
L 934 825 
z
M 2675 2894 
Q 2659 3700 2381 4103 
Q 2138 4459 1716 4459 
Q 1278 4459 1044 4091 
Q 838 3772 838 3244 
Q 838 2713 1106 2409 
Q 1338 2150 1691 2150 
Q 2294 2150 2675 2894 
z
" transform="scale(0.015625)"/>
        <path id="YuGothic-Regular-30" d="M 1788 4806 
Q 3150 4806 3150 2456 
Q 3150 56 1772 56 
Q 409 56 409 2444 
Q 409 4806 1788 4806 
z
M 1788 4453 
Q 1269 4453 1047 3938 
Q 838 3456 838 2456 
Q 838 1303 1100 819 
Q 1322 409 1772 409 
Q 2291 409 2516 950 
Q 2722 1444 2722 2450 
Q 2722 3591 2456 4059 
Q 2234 4453 1788 4453 
z
" transform="scale(0.015625)"/>
       </defs>
       <use xlink:href="#YuGothic-Regular-2212"/>
       <use xlink:href="#YuGothic-Regular-39" x="100"/>
       <use xlink:href="#YuGothic-Regular-30" x="155.615234"/>
      </g>
     </g>
    </g>
    <g id="xtick_2">
     <g id="line2d_3">
      <path d="M 75.981667 250.0575 
L 75.981667 10.8 
" clip-path="url(#p078ac850ea)" style="fill: none; stroke: #b0b0b0; stroke-width: 0.8; stroke-linecap: square"/>
     </g>
     <g id="line2d_4"/>
     <g id="text_2">
      <!-- 0 -->
      <g transform="translate(73.201198 261.199687)scale(0.1 -0.1)">
       <use xlink:href="#YuGothic-Regular-30"/>
      </g>
     </g>
    </g>
    <g id="xtick_3">
     <g id="line2d_5">
      <path d="M 100.093333 250.0575 
L 100.093333 10.8 
" clip-path="url(#p078ac850ea)" style="fill: none; stroke: #b0b0b0; stroke-width: 0.8; stroke-linecap: square"/>
     </g>
     <g id="line2d_6"/>
     <g id="text_3">
      <!-- 90 -->
      <g transform="translate(94.532396 261.199687)scale(0.1 -0.1)">
       <use xlink:href="#YuGothic-Regular-39"/>
       <use xlink:href="#YuGothic-Regular-30" x="55.615234"/>
      </g>
     </g>
    </g>
    <g id="xtick_4">
     <g id="line2d_7">
      <path d="M 124.205 250.0575 
L 124.205 10.8 
" clip-path="url(#p078ac850ea)" style="fill: none; stroke: #b0b0b0; stroke-width: 0.8; stroke-linecap: square"/>
     </g>
     <g id="line2d_8"/>
     <g id="text_4">
      <!-- 180 -->
      <g transform="translate(115.863594 261.199687)scale(0.1 -0.1)">
       <defs>
        <path id="YuGothic-Regular-31" d="M 2063 4794 
L 2063 481 
L 2925 481 
L 2925 141 
L 744 141 
L 744 481 
L 1666 481 
L 1666 4359 
Q 1259 4081 725 3878 
L 653 4250 
Q 1184 4428 1734 4794 
L 2063 4794 
z
" transform="scale(0.015625)"/>
        <path id="YuGothic-Regular-38" d="M 2144 2578 
Q 2753 2309 2988 1978 
Q 3181 1706 3181 1306 
Q 3181 684 2738 344 
Q 2363 56 1775 56 
Q 1103 56 719 425 
Q 372 756 372 1291 
Q 372 1728 650 2028 
Q 891 2288 1409 2528 
Q 891 2775 688 3072 
Q 513 3322 513 3688 
Q 513 4209 906 4528 
Q 1253 4806 1772 4806 
Q 2378 4806 2741 4456 
Q 3053 4153 3053 3706 
Q 3053 3288 2825 3022 
Q 2616 2784 2144 2578 
z
M 1831 2725 
Q 2328 2938 2509 3191 
Q 2656 3391 2656 3700 
Q 2656 4072 2381 4288 
Q 2144 4475 1772 4475 
Q 1353 4475 1116 4231 
Q 909 4019 909 3688 
Q 909 3366 1103 3159 
Q 1288 2966 1722 2778 
L 1831 2725 
z
M 1734 2375 
Q 1178 2125 963 1859 
Q 775 1628 775 1306 
Q 775 856 1078 613 
Q 1341 397 1775 397 
Q 2281 397 2550 672 
Q 2778 906 2778 1300 
Q 2778 1663 2550 1897 
Q 2341 2109 1844 2322 
L 1734 2375 
z
" transform="scale(0.015625)"/>
       </defs>
       <use xlink:href="#YuGothic-Regular-31"/>
       <use xlink:href="#YuGothic-Regular-38" x="55.615234"/>
       <use xlink:href="#YuGothic-Regular-30" x="111.230469"/>
      </g>
     </g>
    </g>
    <g id="xtick_5">
     <g id="line2d_9">
      <path d="M 148.316667 250.0575 
L 148.316667 10.8 
" clip-path="url(#p078ac850ea)" style="fill: none; stroke: #b0b0b0; stroke-width: 0.8; stroke-linecap: square"/>
     </g>
     <g id="line2d_10"/>
     <g id="text_5">
      <!-- 270 -->
      <g transform="translate(139.97526 261.199687)scale(0.1 -0.1)">
       <defs>
        <path id="YuGothic-Regular-32" d="M 459 3597 
Q 588 4228 988 4541 
Q 1325 4806 1819 4806 
Q 2406 4806 2750 4453 
Q 3059 4138 3059 3628 
Q 3059 3219 2838 2875 
Q 2628 2556 2094 2075 
Q 1191 1284 825 494 
L 3066 494 
L 3066 141 
L 422 141 
L 422 456 
Q 819 1406 1806 2309 
Q 2331 2800 2497 3088 
Q 2638 3331 2638 3628 
Q 2638 4038 2378 4263 
Q 2156 4453 1813 4453 
Q 1025 4453 863 3494 
L 459 3597 
z
" transform="scale(0.015625)"/>
        <path id="YuGothic-Regular-37" d="M 3091 4728 
L 3091 4406 
Q 2434 3356 2106 2284 
Q 1809 1325 1709 141 
L 1253 141 
Q 1381 1450 1778 2538 
Q 2100 3428 2675 4363 
L 434 4363 
L 434 4728 
L 3091 4728 
z
" transform="scale(0.015625)"/>
       </defs>
       <use xlink:href="#YuGothic-Regular-32"/>
       <use xlink:href="#YuGothic-Regular-37" x="55.615234"/>
       <use xlink:href="#YuGothic-Regular-30" x="111.230469"/>
      </g>
     </g>
    </g>
    <g id="xtick_6">
     <g id="line2d_11">
      <path d="M 172.428333 250.0575 
L 172.428333 10.8 
" clip-path="url(#p078ac850ea)" style="fill: none; stroke: #b0b0b0; stroke-width: 0.8; stroke-linecap: square"/>
     </g>
     <g id="line2d_12"/>
     <g id="text_6">
      <!-- 360 -->
      <g transform="translate(164.086927 261.199687)scale(0.1 -0.1)">
       <defs>
        <path id="YuGothic-Regular-33" d="M 463 3922 
Q 641 4378 1013 4606 
Q 1331 4806 1756 4806 
Q 2331 4806 2688 4456 
Q 3003 4150 3003 3694 
Q 3003 3241 2738 2950 
Q 2509 2703 2125 2613 
L 2125 2572 
Q 2625 2459 2884 2116 
Q 3113 1813 3113 1388 
Q 3113 750 2688 378 
Q 2322 56 1769 56 
Q 759 56 372 928 
L 756 1094 
Q 922 700 1191 541 
Q 1419 403 1769 403 
Q 2216 403 2469 703 
Q 2691 966 2691 1375 
Q 2691 1888 2369 2147 
Q 2078 2381 1563 2381 
L 1203 2381 
L 1203 2747 
L 1525 2747 
Q 2072 2747 2350 3025 
Q 2588 3263 2588 3659 
Q 2588 4059 2319 4278 
Q 2094 4459 1747 4459 
Q 1409 4459 1169 4266 
Q 947 4088 847 3769 
L 463 3922 
z
" transform="scale(0.015625)"/>
        <path id="YuGothic-Regular-36" d="M 3041 4206 
L 2656 4019 
Q 2459 4459 1984 4459 
Q 909 4459 872 2369 
Q 1306 3066 1959 3066 
Q 2516 3066 2847 2622 
Q 3138 2231 3138 1625 
Q 3138 856 2722 422 
Q 2375 56 1850 56 
Q 1184 56 819 653 
Q 475 1209 475 2200 
Q 475 3606 941 4266 
Q 1325 4806 1997 4806 
Q 2716 4806 3041 4206 
z
M 884 1966 
Q 891 1138 1200 731 
Q 1450 403 1850 403 
Q 2284 403 2516 759 
Q 2722 1075 2722 1619 
Q 2722 2166 2469 2459 
Q 2250 2713 1897 2713 
Q 1297 2713 884 1966 
z
" transform="scale(0.015625)"/>
       </defs>
       <use xlink:href="#YuGothic-Regular-33"/>
       <use xlink:href="#YuGothic-Regular-36" x="55.615234"/>
       <use xlink:href="#YuGothic-Regular-30" x="111.230469"/>
      </g>
     </g>
    </g>
    <g id="xtick_7">
     <g id="line2d_13">
      <path d="M 196.54 250.0575 
L 196.54 10.8 
" clip-path="url(#p078ac850ea)" style="fill: none; stroke: #b0b0b0; stroke-width: 0.8; stroke-linecap: square"/>
     </g>
     <g id="line2d_14"/>
     <g id="text_7">
      <!-- 450 -->
      <g transform="translate(188.198594 261.199687)scale(0.1 -0.1)">
       <defs>
        <path id="YuGothic-Regular-34" d="M 2553 4788 
L 2553 1572 
L 3231 1572 
L 3231 1241 
L 2553 1241 
L 2553 141 
L 2188 141 
L 2188 1241 
L 306 1241 
L 306 1553 
L 1997 4788 
L 2553 4788 
z
M 2188 1572 
L 2188 3488 
Q 2188 3678 2200 4459 
L 2138 4459 
Q 1944 3988 1719 3563 
L 697 1572 
L 2188 1572 
z
" transform="scale(0.015625)"/>
        <path id="YuGothic-Regular-35" d="M 2906 4728 
L 2906 4375 
L 1016 4375 
L 959 3159 
Q 953 3022 922 2622 
Q 1066 2856 1325 2988 
Q 1556 3103 1819 3103 
Q 2397 3103 2753 2653 
Q 3072 2247 3072 1625 
Q 3072 850 2622 416 
Q 2253 56 1716 56 
Q 772 56 434 909 
L 825 1075 
Q 1059 403 1716 403 
Q 2172 403 2425 766 
Q 2650 1088 2650 1606 
Q 2650 2188 2381 2494 
Q 2147 2756 1759 2756 
Q 1447 2756 1209 2566 
Q 1003 2397 903 2116 
L 569 2169 
L 678 4728 
L 2906 4728 
z
" transform="scale(0.015625)"/>
       </defs>
       <use xlink:href="#YuGothic-Regular-34"/>
       <use xlink:href="#YuGothic-Regular-35" x="55.615234"/>
       <use xlink:href="#YuGothic-Regular-30" x="111.230469"/>
      </g>
     </g>
    </g>
    <g id="xtick_8">
     <g id="line2d_15">
      <path d="M 220.651667 250.0575 
L 220.651667 10.8 
" clip-path="url(#p078ac850ea)" style="fill: none; stroke: #b0b0b0; stroke-width: 0.8; stroke-linecap: square"/>
     </g>
     <g id="line2d_16"/>
     <g id="text_8">
      <!-- 540 -->
      <g transform="translate(212.31026 261.199687)scale(0.1 -0.1)">
       <use xlink:href="#YuGothic-Regular-35"/>
       <use xlink:href="#YuGothic-Regular-34" x="55.615234"/>
       <use xlink:href="#YuGothic-Regular-30" x="111.230469"/>
      </g>
     </g>
    </g>
    <g id="xtick_9">
     <g id="line2d_17">
      <path d="M 244.763333 250.0575 
L 244.763333 10.8 
" clip-path="url(#p078ac850ea)" style="fill: none; stroke: #b0b0b0; stroke-width: 0.8; stroke-linecap: square"/>
     </g>
     <g id="line2d_18"/>
     <g id="text_9">
      <!-- 630 -->
      <g transform="translate(236.421927 261.199687)scale(0.1 -0.1)">
       <use xlink:href="#YuGothic-Regular-36"/>
       <use xlink:href="#YuGothic-Regular-33" x="55.615234"/>
       <use xlink:href="#YuGothic-Regular-30" x="111.230469"/>
      </g>
     </g>
    </g>
    <g id="xtick_10">
     <g id="line2d_19">
      <path d="M 268.875 250.0575 
L 268.875 10.8 
" clip-path="url(#p078ac850ea)" style="fill: none; stroke: #b0b0b0; stroke-width: 0.8; stroke-linecap: square"/>
     </g>
     <g id="line2d_20"/>
     <g id="text_10">
      <!-- 720 -->
      <g transform="translate(260.533594 261.199687)scale(0.1 -0.1)">
       <use xlink:href="#YuGothic-Regular-37"/>
       <use xlink:href="#YuGothic-Regular-32" x="55.615234"/>
       <use xlink:href="#YuGothic-Regular-30" x="111.230469"/>
      </g>
     </g>
    </g>
    <g id="text_11">
     <!-- 位相[deg] -->
     <g transform="translate(138.089687 275.321563)scale(0.1 -0.1)">
      <defs>
       <path id="YuGothic-Regular-4f4d" d="M 1409 3803 
L 1409 628 
L 1422 -384 
Q 1422 -428 1378 -428 
L 1147 -428 
Q 1103 -428 1103 -384 
L 1116 628 
L 1116 2309 
Q 1116 2822 1134 3303 
Q 825 2791 469 2363 
Q 425 2306 403 2306 
Q 378 2306 347 2363 
Q 284 2466 206 2509 
Q 1141 3581 1556 4844 
Q 1653 5131 1653 5281 
Q 1847 5222 1966 5159 
Q 2031 5125 2031 5094 
Q 2031 5059 1978 5019 
Q 1931 4978 1850 4781 
Q 1641 4259 1409 3803 
z
M 3706 3841 
L 3706 4506 
Q 3706 4994 3663 5153 
Q 3859 5144 4000 5122 
Q 4072 5109 4072 5069 
Q 4072 5050 4044 4972 
Q 4000 4866 4000 4556 
L 4000 3841 
L 4941 3841 
L 5838 3853 
Q 5888 3853 5888 3809 
L 5888 3597 
Q 5888 3553 5838 3553 
L 4941 3566 
L 3009 3566 
L 2119 3553 
Q 2075 3553 2075 3597 
L 2075 3809 
Q 2075 3853 2119 3853 
L 3009 3841 
L 3706 3841 
z
M 4134 225 
Q 4547 1384 4763 2375 
Q 4866 2828 4872 3059 
Q 5050 3022 5216 2956 
Q 5275 2934 5275 2894 
Q 5275 2884 5231 2809 
Q 5166 2713 5116 2503 
Q 4813 1269 4444 225 
L 5141 225 
L 6050 238 
Q 6094 238 6094 194 
L 6094 -19 
Q 6094 -63 6050 -63 
L 5141 -50 
L 2831 -50 
L 1916 -63 
Q 1869 -63 1869 -19 
L 1869 194 
Q 1869 238 1916 238 
L 2831 225 
L 4134 225 
z
M 2716 3003 
Q 2759 3016 2769 3016 
Q 2791 3016 2803 2981 
Q 3125 2056 3366 813 
Q 3369 800 3369 791 
Q 3369 756 3303 722 
L 3181 672 
Q 3125 647 3106 647 
Q 3084 647 3072 697 
Q 2831 2016 2525 2894 
Q 2519 2909 2519 2916 
Q 2519 2938 2600 2963 
L 2716 3003 
z
" transform="scale(0.015625)"/>
       <path id="YuGothic-Regular-76f8" d="M 1475 3866 
L 1475 4556 
Q 1475 5075 1428 5294 
Q 1616 5284 1763 5253 
Q 1841 5244 1841 5209 
Q 1841 5178 1800 5088 
Q 1763 5003 1763 4563 
L 1763 3866 
L 1897 3866 
L 2594 3878 
Q 2638 3878 2638 3834 
L 2638 3641 
Q 2638 3597 2594 3597 
L 1897 3609 
L 1806 3609 
Q 2213 2703 2703 2163 
Q 2609 2072 2569 1953 
Q 2544 1891 2528 1891 
Q 2513 1891 2472 1944 
Q 1972 2678 1734 3366 
Q 1741 2044 1766 631 
Q 1772 284 1781 -156 
Q 1784 -372 1784 -391 
Q 1784 -434 1734 -434 
L 1500 -434 
Q 1456 -434 1456 -391 
Q 1456 -381 1466 178 
Q 1497 1859 1506 3347 
Q 1194 2144 456 1097 
Q 422 1044 403 1044 
Q 381 1044 347 1103 
Q 291 1206 200 1275 
Q 634 1838 916 2388 
Q 1188 2922 1403 3609 
L 1141 3609 
L 438 3597 
Q 391 3597 391 3641 
L 391 3834 
Q 391 3878 438 3878 
L 1141 3866 
L 1475 3866 
z
M 3316 63 
L 3316 -372 
Q 3316 -413 3269 -413 
L 3059 -413 
Q 3016 -413 3016 -372 
L 3028 1938 
L 3028 3222 
L 3016 4878 
Q 3016 4922 3059 4922 
L 3838 4909 
L 4903 4909 
L 5675 4922 
Q 5722 4922 5722 4878 
L 5709 3394 
L 5709 1950 
L 5722 -347 
Q 5722 -391 5675 -391 
L 5472 -391 
Q 5428 -391 5428 -347 
L 5428 63 
L 3316 63 
z
M 3316 3413 
L 5428 3413 
L 5428 4641 
L 3316 4641 
L 3316 3413 
z
M 3316 3156 
L 3316 1913 
L 5428 1913 
L 5428 3156 
L 3316 3156 
z
M 3316 1656 
L 3316 325 
L 5428 325 
L 5428 1656 
L 3316 1656 
z
" transform="scale(0.015625)"/>
       <path id="YuGothic-Regular-5b" d="M 2200 5459 
L 2200 5222 
L 1209 5222 
L 1209 -356 
L 2200 -356 
L 2200 -588 
L 856 -588 
L 856 5459 
L 2200 5459 
z
" transform="scale(0.015625)"/>
       <path id="YuGothic-Regular-64" d="M 3072 4891 
L 3072 141 
L 2688 141 
L 2688 634 
Q 2331 63 1722 63 
Q 1119 63 759 572 
Q 434 1031 434 1753 
Q 434 2575 844 3034 
Q 1184 3419 1703 3419 
Q 2303 3419 2675 2859 
L 2675 4891 
L 3072 4891 
z
M 2675 2431 
Q 2338 3072 1766 3072 
Q 1322 3072 1072 2684 
Q 844 2334 844 1747 
Q 844 1069 1153 706 
Q 1406 403 1797 403 
Q 2322 403 2675 1025 
L 2675 2431 
z
" transform="scale(0.015625)"/>
       <path id="YuGothic-Regular-65" d="M 3147 1709 
L 825 1709 
Q 825 1038 1150 675 
Q 1422 375 1844 375 
Q 2534 375 2750 1063 
L 3122 922 
Q 2791 63 1838 63 
Q 1166 63 778 572 
Q 434 1022 434 1734 
Q 434 2547 875 3019 
Q 1247 3419 1803 3419 
Q 2438 3419 2813 2928 
Q 3147 2491 3147 1813 
L 3147 1709 
z
M 2750 2009 
Q 2706 2566 2425 2853 
Q 2184 3100 1809 3100 
Q 1378 3100 1109 2766 
Q 872 2475 838 2009 
L 2750 2009 
z
" transform="scale(0.015625)"/>
       <path id="YuGothic-Regular-67" d="M 3231 3731 
L 3200 3366 
Q 2944 3366 2784 3297 
Q 2656 3241 2522 3109 
Q 2859 2838 2859 2363 
Q 2859 1847 2484 1553 
Q 2169 1306 1688 1306 
Q 1400 1306 1156 1406 
Q 838 1228 838 1025 
Q 838 853 975 791 
Q 1109 731 1516 691 
L 2144 628 
Q 2794 559 3044 338 
Q 3231 172 3231 -128 
Q 3231 -550 2806 -794 
Q 2406 -1019 1734 -1019 
Q 1019 -1019 641 -775 
Q 319 -566 319 -231 
Q 319 9 516 200 
Q 684 366 972 459 
Q 484 566 484 928 
Q 484 1244 928 1547 
Q 525 1838 525 2356 
Q 525 2863 913 3166 
Q 1234 3419 1694 3419 
Q 2053 3419 2309 3272 
Q 2494 3531 2725 3638 
Q 2931 3731 3231 3731 
z
M 1694 3138 
Q 1334 3138 1109 2906 
Q 903 2694 903 2356 
Q 903 1978 1163 1763 
Q 1375 1588 1691 1588 
Q 2053 1588 2275 1816 
Q 2481 2025 2481 2356 
Q 2481 2744 2219 2959 
Q 2006 3138 1694 3138 
z
M 1309 384 
Q 684 213 684 -181 
Q 684 -472 1019 -619 
Q 1294 -738 1747 -738 
Q 2316 -738 2619 -553 
Q 2866 -400 2866 -169 
Q 2866 44 2684 150 
Q 2497 259 2047 306 
L 1309 384 
z
" transform="scale(0.015625)"/>
       <path id="YuGothic-Regular-5d" d="M 1613 5453 
L 1613 -588 
L 269 -588 
L 269 -356 
L 1259 -356 
L 1259 5222 
L 269 5222 
L 269 5453 
L 1613 5453 
z
" transform="scale(0.015625)"/>
      </defs>
      <use xlink:href="#YuGothic-Regular-4f4d"/>
      <use xlink:href="#YuGothic-Regular-76f8" x="100"/>
      <use xlink:href="#YuGothic-Regular-5b" x="200"/>
      <use xlink:href="#YuGothic-Regular-64" x="238.623047"/>
      <use xlink:href="#YuGothic-Regular-65" x="296.435547"/>
      <use xlink:href="#YuGothic-Regular-67" x="352.246094"/>
      <use xlink:href="#YuGothic-Regular-5d" x="407.03125"/>
     </g>
    </g>
   </g>
   <g id="matplotlib.axis_2">
    <g id="ytick_1">
     <g id="line2d_21">
      <path d="M 51.87 230.119375 
L 268.875 230.119375 
" clip-path="url(#p078ac850ea)" style="fill: none; stroke: #b0b0b0; stroke-width: 0.8; stroke-linecap: square"/>
     </g>
     <g id="line2d_22"/>
     <g id="text_12">
      <!-- −1.0 -->
      <g transform="translate(24.67 233.940469)scale(0.1 -0.1)">
       <defs>
        <path id="YuGothic-Regular-2e" d="M 1147 794 
L 1147 141 
L 506 141 
L 506 794 
L 1147 794 
z
" transform="scale(0.015625)"/>
       </defs>
       <use xlink:href="#YuGothic-Regular-2212"/>
       <use xlink:href="#YuGothic-Regular-31" x="100"/>
       <use xlink:href="#YuGothic-Regular-2e" x="155.615234"/>
       <use xlink:href="#YuGothic-Regular-30" x="181.396484"/>
      </g>
     </g>
    </g>
    <g id="ytick_2">
     <g id="line2d_23">
      <path d="M 51.87 180.274063 
L 268.875 180.274063 
" clip-path="url(#p078ac850ea)" style="fill: none; stroke: #b0b0b0; stroke-width: 0.8; stroke-linecap: square"/>
     </g>
     <g id="line2d_24"/>
     <g id="text_13">
      <!-- −0.5 -->
      <g transform="translate(24.67 184.095156)scale(0.1 -0.1)">
       <use xlink:href="#YuGothic-Regular-2212"/>
       <use xlink:href="#YuGothic-Regular-30" x="100"/>
       <use xlink:href="#YuGothic-Regular-2e" x="155.615234"/>
       <use xlink:href="#YuGothic-Regular-35" x="181.396484"/>
      </g>
     </g>
    </g>
    <g id="ytick_3">
     <g id="line2d_25">
      <path d="M 51.87 130.42875 
L 268.875 130.42875 
" clip-path="url(#p078ac850ea)" style="fill: none; stroke: #b0b0b0; stroke-width: 0.8; stroke-linecap: square"/>
     </g>
     <g id="line2d_26"/>
     <g id="text_14">
      <!-- 0.0 -->
      <g transform="translate(34.67 134.249844)scale(0.1 -0.1)">
       <use xlink:href="#YuGothic-Regular-30"/>
       <use xlink:href="#YuGothic-Regular-2e" x="55.615234"/>
       <use xlink:href="#YuGothic-Regular-30" x="81.396484"/>
      </g>
     </g>
    </g>
    <g id="ytick_4">
     <g id="line2d_27">
      <path d="M 51.87 80.583438 
L 268.875 80.583438 
" clip-path="url(#p078ac850ea)" style="fill: none; stroke: #b0b0b0; stroke-width: 0.8; stroke-linecap: square"/>
     </g>
     <g id="line2d_28"/>
     <g id="text_15">
      <!-- 0.5 -->
      <g transform="translate(34.67 84.404531)scale(0.1 -0.1)">
       <use xlink:href="#YuGothic-Regular-30"/>
       <use xlink:href="#YuGothic-Regular-2e" x="55.615234"/>
       <use xlink:href="#YuGothic-Regular-35" x="81.396484"/>
      </g>
     </g>
    </g>
    <g id="ytick_5">
     <g id="line2d_29">
      <path d="M 51.87 30.738125 
L 268.875 30.738125 
" clip-path="url(#p078ac850ea)" style="fill: none; stroke: #b0b0b0; stroke-width: 0.8; stroke-linecap: square"/>
     </g>
     <g id="line2d_30"/>
     <g id="text_16">
      <!-- 1.0 -->
      <g transform="translate(34.67 34.559219)scale(0.1 -0.1)">
       <use xlink:href="#YuGothic-Regular-31"/>
       <use xlink:href="#YuGothic-Regular-2e" x="55.615234"/>
       <use xlink:href="#YuGothic-Regular-30" x="81.396484"/>
      </g>
     </g>
    </g>
    <g id="text_17">
     <!-- 電圧[V] -->
     <g transform="translate(19.077813 147.535781)rotate(-90)scale(0.1 -0.1)">
      <defs>
       <path id="YuGothic-Regular-96fb" d="M 2975 641 
L 1472 641 
L 1472 313 
Q 1472 269 1428 269 
L 1222 269 
Q 1184 269 1184 313 
L 1197 903 
L 1197 1784 
L 1184 2381 
Q 1184 2431 1222 2431 
L 2181 2419 
L 4178 2419 
L 5109 2431 
Q 5153 2431 5153 2381 
L 5141 1822 
L 5141 1228 
L 5153 672 
Q 5153 628 5109 628 
L 4178 641 
L 3256 641 
L 3256 391 
Q 3256 188 3338 100 
Q 3400 31 3541 6 
Q 3769 -31 4441 -31 
Q 5269 -31 5522 141 
Q 5634 216 5681 391 
Q 5728 559 5741 903 
Q 5841 825 5947 781 
Q 6028 747 6028 703 
Q 6028 688 6022 641 
Q 5984 278 5888 103 
Q 5816 -25 5684 -109 
Q 5397 -294 4453 -294 
Q 3700 -294 3353 -231 
Q 2975 -163 2975 300 
L 2975 641 
z
M 2975 1444 
L 1472 1444 
L 1472 872 
L 2975 872 
L 2975 1444 
z
M 3256 1444 
L 3256 872 
L 4856 872 
L 4856 1444 
L 3256 1444 
z
M 2975 1663 
L 2975 2188 
L 1472 2188 
L 1472 1663 
L 2975 1663 
z
M 3256 1663 
L 4856 1663 
L 4856 2188 
L 3256 2188 
L 3256 1663 
z
M 3009 4288 
L 3009 4747 
L 1906 4747 
L 991 4734 
Q 947 4734 947 4781 
L 947 4966 
Q 947 5009 991 5009 
L 1906 4997 
L 4519 4997 
L 5434 5009 
Q 5478 5009 5478 4966 
L 5478 4781 
Q 5478 4734 5434 4734 
L 4519 4747 
L 3297 4747 
L 3297 4288 
L 4947 4288 
L 5831 4300 
Q 5881 4300 5881 4256 
L 5869 3972 
L 5869 3738 
L 5881 3097 
Q 5881 3050 5831 3050 
L 5625 3050 
Q 5581 3050 5581 3097 
L 5581 4050 
L 3297 4050 
L 3297 3347 
L 3309 2713 
Q 3309 2669 3266 2669 
L 3041 2669 
Q 2997 2669 2997 2713 
L 3009 3347 
L 3009 4050 
L 831 4050 
L 831 3097 
Q 831 3050 788 3050 
L 575 3050 
Q 531 3050 531 3097 
L 544 3738 
L 544 3941 
L 531 4256 
Q 531 4300 575 4300 
L 1459 4288 
L 3009 4288 
z
M 1766 3681 
L 2088 3681 
L 2516 3694 
Q 2559 3694 2559 3647 
L 2559 3500 
Q 2559 3456 2516 3456 
L 2088 3469 
L 1766 3469 
L 1338 3456 
Q 1294 3456 1294 3500 
L 1294 3647 
Q 1294 3694 1338 3694 
L 1766 3681 
z
M 1766 3103 
L 2088 3103 
L 2516 3116 
Q 2559 3116 2559 3072 
L 2559 2925 
Q 2559 2881 2516 2881 
L 2088 2894 
L 1766 2894 
L 1338 2881 
Q 1294 2881 1294 2925 
L 1294 3072 
Q 1294 3116 1338 3116 
L 1766 3103 
z
M 4250 3681 
L 4603 3681 
L 5056 3694 
Q 5100 3694 5100 3647 
L 5100 3500 
Q 5100 3456 5056 3456 
L 4603 3469 
L 4250 3469 
L 3803 3456 
Q 3756 3456 3756 3500 
L 3756 3647 
Q 3756 3694 3803 3694 
L 4250 3681 
z
M 4250 3103 
L 4603 3103 
L 5056 3116 
Q 5100 3116 5100 3072 
L 5100 2925 
Q 5100 2881 5056 2881 
L 4603 2894 
L 4250 2894 
L 3803 2881 
Q 3756 2881 3756 2925 
L 3756 3072 
Q 3756 3116 3803 3116 
L 4250 3103 
z
" transform="scale(0.015625)"/>
       <path id="YuGothic-Regular-5727" d="M 3425 269 
L 3425 2297 
L 2759 2297 
L 1875 2284 
Q 1831 2284 1831 2328 
L 1831 2547 
Q 1831 2591 1875 2591 
L 2759 2578 
L 3425 2578 
L 3425 3334 
Q 3425 3906 3381 4159 
Q 3578 4150 3722 4122 
Q 3788 4109 3788 4069 
Q 3788 4028 3763 3959 
Q 3725 3831 3725 3353 
L 3725 2578 
L 4519 2578 
L 5400 2591 
Q 5447 2591 5447 2547 
L 5447 2328 
Q 5447 2284 5400 2284 
L 4519 2297 
L 3725 2297 
L 3725 269 
L 4959 269 
L 5875 281 
Q 5919 281 5919 238 
L 5919 13 
Q 5919 -25 5875 -25 
L 4959 -13 
L 2291 -13 
L 1384 -25 
Q 1338 -25 1338 13 
L 1338 238 
Q 1338 281 1384 281 
L 2291 269 
L 3425 269 
z
M 1325 4519 
L 1325 3481 
Q 1325 2188 1191 1466 
Q 1028 506 616 -216 
Q 578 -281 559 -281 
Q 544 -281 494 -231 
Q 400 -138 275 -97 
Q 741 588 903 1575 
Q 1025 2244 1025 3481 
L 1013 4769 
Q 1013 4813 1056 4813 
L 1972 4800 
L 4878 4800 
L 5778 4813 
Q 5825 4813 5825 4769 
L 5825 4550 
Q 5825 4506 5778 4506 
L 4878 4519 
L 1325 4519 
z
" transform="scale(0.015625)"/>
       <path id="YuGothic-Regular-56" d="M 3891 4806 
L 2338 141 
L 1791 141 
L 263 4806 
L 722 4806 
L 1631 1913 
Q 1722 1631 1856 1175 
Q 2013 653 2053 513 
L 2119 513 
Q 2319 1228 2528 1900 
L 3463 4806 
L 3891 4806 
z
" transform="scale(0.015625)"/>
      </defs>
      <use xlink:href="#YuGothic-Regular-96fb"/>
      <use xlink:href="#YuGothic-Regular-5727" x="100"/>
      <use xlink:href="#YuGothic-Regular-5b" x="200"/>
      <use xlink:href="#YuGothic-Regular-56" x="238.623047"/>
      <use xlink:href="#YuGothic-Regular-5d" x="303.515625"/>
     </g>
    </g>
   </g>
   <g id="patch_3">
    <path d="M 55.888611 210.18125 
Q 65.935139 210.18125 74.863633 210.18125 
" clip-path="url(#p078ac850ea)" style="fill: none; stroke: #808080; stroke-linecap: round"/>
    <path d="M 66.863633 206.18125 
L 74.863633 210.18125 
L 66.863633 214.18125 
" clip-path="url(#p078ac850ea)" style="fill: none; stroke: #808080; stroke-linecap: round"/>
   </g>
   <g id="patch_4">
    <path d="M 89.155534 210.18125 
Q 98.084028 210.18125 108.130556 210.18125 
" clip-path="url(#p078ac850ea)" style="fill: none; stroke: #808080; stroke-linecap: round"/>
    <path d="M 97.155534 214.18125 
L 89.155534 210.18125 
L 97.155534 206.18125 
" clip-path="url(#p078ac850ea)" style="fill: none; stroke: #808080; stroke-linecap: round"/>
   </g>
   <g id="line2d_31">
    <path d="M 51.87 230.119375 
L 52.641573 229.993461 
L 53.413147 229.616039 
L 54.18472 228.98806 
L 55.05274 227.984092 
L 56.017207 226.502966 
L 57.07812 224.436066 
L 58.23548 221.669715 
L 59.489287 218.088343 
L 60.935987 213.231374 
L 62.479133 207.241697 
L 64.215173 199.579482 
L 66.144107 190.034271 
L 68.36238 177.905234 
L 71.062887 161.829953 
L 74.824307 137.938126 
L 81.575573 94.897827 
L 84.372527 78.607834 
L 86.687247 66.402182 
L 88.712627 56.905606 
L 90.448667 49.77734 
L 91.991813 44.303685 
L 93.438513 39.961061 
L 94.69232 36.845785 
L 95.84968 34.52361 
L 96.910593 32.873408 
L 97.87506 31.777288 
L 98.74308 31.123568 
L 99.514653 30.808958 
L 100.286227 30.745996 
L 101.0578 30.934842 
L 101.829373 31.375017 
L 102.600947 32.065412 
L 103.468967 33.138998 
L 104.433433 34.696472 
L 105.494347 36.845785 
L 106.651707 39.699717 
L 107.905513 43.37267 
L 109.352213 48.330271 
L 110.89536 54.42038 
L 112.6314 62.185821 
L 114.65678 72.339972 
L 116.9715 85.170153 
L 119.768453 102.015002 
L 123.91566 128.549737 
L 129.606013 164.786418 
L 132.402967 181.175407 
L 134.717687 193.490065 
L 136.743067 203.100088 
L 138.479107 210.337464 
L 140.1187 216.236661 
L 141.5654 220.631524 
L 142.819207 223.793994 
L 143.976567 226.161028 
L 145.03748 227.85322 
L 146.001947 228.98806 
L 146.869967 229.676944 
L 147.64154 230.022968 
L 148.413113 230.117407 
L 149.184687 229.960025 
L 149.95626 229.551217 
L 150.727833 228.892018 
L 151.595853 227.85322 
L 152.56032 226.33389 
L 153.621233 224.225742 
L 154.778593 221.415545 
L 156.0324 217.788311 
L 157.4791 212.880929 
L 159.022247 206.840917 
L 160.758287 199.126936 
L 162.68722 189.531017 
L 164.905493 177.353519 
L 167.606 161.234847 
L 171.463867 136.688376 
L 178.02224 94.897827 
L 180.819193 78.607834 
L 183.133913 66.402182 
L 185.159293 56.905606 
L 186.895333 49.77734 
L 188.43848 44.303685 
L 189.88518 39.961061 
L 191.138987 36.845785 
L 192.296347 34.52361 
L 193.35726 32.873408 
L 194.321727 31.777288 
L 195.189747 31.123568 
L 195.96132 30.808958 
L 196.732893 30.745996 
L 197.504467 30.934842 
L 198.27604 31.375017 
L 199.047613 32.065412 
L 199.915633 33.138998 
L 200.8801 34.696472 
L 201.941013 36.845785 
L 203.098373 39.699717 
L 204.35218 43.37267 
L 205.79888 48.330271 
L 207.342027 54.42038 
L 209.078067 62.185821 
L 211.103447 72.339972 
L 213.418167 85.170153 
L 216.21512 102.015002 
L 220.362327 128.549737 
L 226.05268 164.786418 
L 228.849633 181.175407 
L 231.164353 193.490065 
L 233.189733 203.100088 
L 234.925773 210.337464 
L 236.565367 216.236661 
L 238.012067 220.631524 
L 239.265873 223.793994 
L 240.423233 226.161028 
L 241.484147 227.85322 
L 242.448613 228.98806 
L 243.316633 229.676944 
L 244.088207 230.022968 
L 244.85978 230.117407 
L 245.631353 229.960025 
L 246.402927 229.551217 
L 247.1745 228.892018 
L 248.04252 227.85322 
L 249.006987 226.33389 
L 250.0679 224.225742 
L 251.22526 221.415545 
L 252.479067 217.788311 
L 253.925767 212.880929 
L 255.468913 206.840917 
L 257.204953 199.126936 
L 259.133887 189.531017 
L 261.35216 177.353519 
L 264.052667 161.234847 
L 267.910533 136.688376 
L 268.971447 129.802379 
L 268.971447 129.802379 
" clip-path="url(#p078ac850ea)" style="fill: none; stroke: #1f77b4; stroke-width: 1.5; stroke-linecap: square"/>
   </g>
   <g id="line2d_32">
    <path d="M 51.87 183.223421 
L 53.702487 188.773673 
L 55.34208 193.037796 
L 56.78878 196.209006 
L 58.139033 198.642511 
L 59.296393 200.309142 
L 60.357307 201.48826 
L 61.321773 202.265862 
L 62.28624 202.759955 
L 63.15426 202.960605 
L 64.02228 202.929377 
L 64.8903 202.666372 
L 65.75832 202.172431 
L 66.722787 201.354702 
L 67.7837 200.132058 
L 68.94106 198.418915 
L 70.194867 196.127402 
L 71.54512 193.170188 
L 72.99182 189.464041 
L 74.631413 184.632247 
L 76.4639 178.503682 
L 78.48928 170.937701 
L 80.900447 161.024081 
L 83.890293 147.713806 
L 89.19486 122.825098 
L 93.342067 103.844547 
L 96.13902 92.053057 
L 98.45374 83.239704 
L 100.47912 76.400334 
L 102.21516 71.281523 
L 103.758307 67.364102 
L 105.205007 64.269225 
L 106.55526 61.910017 
L 107.71262 60.308967 
L 108.773533 59.19117 
L 109.738 58.47006 
L 110.702467 58.032939 
L 111.570487 57.883788 
L 112.438507 57.966556 
L 113.306527 58.280979 
L 114.174547 58.826051 
L 115.139013 59.700056 
L 116.199927 60.983697 
L 117.357287 62.761965 
L 118.611093 65.121945 
L 119.961347 68.149957 
L 121.504493 72.198705 
L 123.144087 77.14374 
L 124.976573 83.386424 
L 127.0984 91.445027 
L 129.606013 101.914723 
L 132.788753 116.25832 
L 143.204993 164.057813 
L 145.712607 174.06475 
L 147.834433 181.634439 
L 149.66692 187.390579 
L 151.306513 191.855697 
L 152.84966 195.419369 
L 154.199913 198.000301 
L 155.45372 199.929378 
L 156.61108 201.298969 
L 157.671993 202.200818 
L 158.63646 202.723368 
L 159.50448 202.949756 
L 160.3725 202.944301 
L 161.24052 202.707021 
L 162.10854 202.238675 
L 163.073007 201.449133 
L 164.13392 200.25706 
L 165.29128 198.576581 
L 166.545087 196.319438 
L 167.89534 193.3978 
L 169.34204 189.727809 
L 170.981633 184.934145 
L 172.81412 178.844106 
L 174.8395 171.315048 
L 177.250667 161.436784 
L 180.240513 148.156163 
L 185.25574 124.640579 
L 189.692287 104.26919 
L 192.48924 92.440645 
L 194.80396 83.586854 
L 196.82934 76.705601 
L 198.56538 71.546636 
L 200.204973 67.364102 
L 201.651673 64.269225 
L 203.001927 61.910017 
L 204.159287 60.308967 
L 205.2202 59.19117 
L 206.184667 58.47006 
L 207.149133 58.032939 
L 208.017153 57.883788 
L 208.885173 57.966556 
L 209.753193 58.280979 
L 210.621213 58.826051 
L 211.58568 59.700056 
L 212.646593 60.983697 
L 213.803953 62.761965 
L 215.05776 65.121945 
L 216.408013 68.149957 
L 217.95116 72.198705 
L 219.590753 77.14374 
L 221.42324 83.386424 
L 223.545067 91.445027 
L 226.05268 101.914723 
L 229.23542 116.25832 
L 239.65166 164.057813 
L 242.159273 174.06475 
L 244.2811 181.634439 
L 246.113587 187.390579 
L 247.75318 191.855697 
L 249.296327 195.419369 
L 250.64658 198.000301 
L 251.900387 199.929378 
L 253.057747 201.298969 
L 254.11866 202.200818 
L 255.083127 202.723368 
L 255.951147 202.949756 
L 256.819167 202.944301 
L 257.687187 202.707021 
L 258.555207 202.238675 
L 259.519673 201.449133 
L 260.580587 200.25706 
L 261.737947 198.576581 
L 262.991753 196.319438 
L 264.342007 193.3978 
L 265.788707 189.727809 
L 267.4283 184.934145 
L 268.971447 179.853856 
L 268.971447 179.853856 
" clip-path="url(#p078ac850ea)" style="fill: none; stroke: #ff7f0e; stroke-width: 1.5; stroke-linecap: square"/>
   </g>
   <g id="LineCollection_1">
    <path d="M 75.981667 289 
L 75.981667 -1 
" clip-path="url(#p078ac850ea)" style="fill: none; stroke-dasharray: 5.55,2.4; stroke-dashoffset: 0; stroke: #000000; stroke-width: 1.5"/>
    <path d="M 88.0375 289 
L 88.0375 -1 
" clip-path="url(#p078ac850ea)" style="fill: none; stroke-dasharray: 5.55,2.4; stroke-dashoffset: 0; stroke: #000000; stroke-width: 1.5"/>
   </g>
   <g id="patch_5">
    <path d="M 51.87 250.0575 
L 51.87 10.8 
" style="fill: none; stroke: #000000; stroke-width: 0.8; stroke-linejoin: miter; stroke-linecap: square"/>
   </g>
   <g id="patch_6">
    <path d="M 268.875 250.0575 
L 268.875 10.8 
" style="fill: none; stroke: #000000; stroke-width: 0.8; stroke-linejoin: miter; stroke-linecap: square"/>
   </g>
   <g id="patch_7">
    <path d="M 51.87 250.0575 
L 268.875 250.0575 
" style="fill: none; stroke: #000000; stroke-width: 0.8; stroke-linejoin: miter; stroke-linecap: square"/>
   </g>
   <g id="patch_8">
    <path d="M 51.87 10.8 
L 268.875 10.8 
" style="fill: none; stroke: #000000; stroke-width: 0.8; stroke-linejoin: miter; stroke-linecap: square"/>
   </g>
   <g id="text_18">
    <g id="patch_9">
     <path d="M 106.80963 217.29875 
L 146.80963 217.29875 
L 146.80963 193.57125 
L 106.80963 193.57125 
z
" style="fill: #00ffff; stroke: #000000; stroke-linejoin: miter"/>
    </g>
    <!-- 位相 -->
    <g transform="translate(110.80963 210.18125)scale(0.16 -0.16)">
     <defs>
      <path id="YuGothic-Bold-4f4d" d="M 2856 -206 
L 1972 -219 
Q 1922 -219 1913 -206 
Q 1903 -194 1903 -150 
L 1903 353 
Q 1903 400 1914 411 
Q 1925 422 1972 422 
L 2856 409 
L 4047 409 
Q 4434 1591 4628 2603 
Q 4688 2853 4713 3200 
Q 5109 3122 5416 3022 
Q 5506 2994 5506 2931 
Q 5506 2894 5441 2803 
Q 5378 2719 5347 2547 
Q 5088 1447 4738 409 
L 5197 409 
L 6081 422 
Q 6131 422 6141 409 
Q 6150 397 6150 353 
L 6150 -150 
Q 6150 -197 6139 -208 
Q 6128 -219 6081 -219 
L 5197 -206 
L 2856 -206 
z
M 156 2859 
Q 922 3709 1328 4872 
Q 1419 5128 1450 5369 
Q 1844 5263 2063 5172 
Q 2166 5131 2166 5081 
Q 2166 5019 2094 4966 
Q 2038 4925 1959 4709 
Q 1797 4256 1578 3828 
L 1578 544 
L 1591 -428 
Q 1591 -500 1525 -500 
L 975 -500 
Q 913 -500 913 -428 
L 925 544 
L 925 1991 
Q 925 2497 931 2766 
Q 716 2469 553 2284 
Q 472 2194 438 2194 
Q 391 2194 363 2309 
Q 269 2678 156 2859 
z
M 3009 3525 
L 2144 3513 
Q 2091 3513 2078 3525 
Q 2069 3538 2069 3581 
L 2069 4078 
Q 2069 4128 2081 4138 
Q 2094 4147 2144 4147 
L 3009 4134 
L 3609 4134 
L 3609 4628 
Q 3609 5047 3566 5288 
Q 3869 5278 4266 5241 
Q 4375 5231 4375 5159 
Q 4375 5109 4341 5038 
Q 4288 4934 4288 4653 
L 4288 4134 
L 5025 4134 
L 5897 4147 
Q 5950 4147 5963 4134 
Q 5972 4122 5972 4078 
L 5972 3581 
Q 5972 3531 5959 3522 
Q 5944 3513 5897 3513 
L 5025 3525 
L 3009 3525 
z
M 3034 3097 
Q 3381 2175 3597 1025 
Q 3603 1000 3603 988 
Q 3603 950 3522 916 
L 3059 738 
Q 3000 709 2981 709 
Q 2950 709 2938 772 
Q 2734 1972 2397 2888 
Q 2384 2916 2384 2931 
Q 2384 2963 2466 2988 
L 2925 3144 
Q 2969 3156 2981 3156 
Q 3013 3156 3034 3097 
z
" transform="scale(0.015625)"/>
      <path id="YuGothic-Bold-76f8" d="M 3494 -475 
L 2975 -475 
Q 2906 -475 2906 -409 
L 2919 2009 
L 2919 3272 
L 2906 5003 
Q 2906 5056 2919 5066 
Q 2931 5075 2975 5075 
L 3763 5063 
L 4991 5063 
L 5772 5075 
Q 5822 5075 5831 5063 
Q 5841 5050 5841 5003 
L 5828 3484 
L 5828 2016 
L 5841 -391 
Q 5841 -456 5772 -456 
L 5244 -456 
Q 5181 -456 5181 -391 
L 5181 -97 
L 3572 -97 
L 3572 -409 
Q 3572 -456 3556 -466 
Q 3544 -475 3494 -475 
z
M 3572 519 
L 5181 519 
L 5181 1444 
L 3572 1444 
L 3572 519 
z
M 3572 4447 
L 3572 3541 
L 5181 3541 
L 5181 4447 
L 3572 4447 
z
M 3572 2047 
L 5181 2047 
L 5181 2938 
L 3572 2938 
L 3572 2047 
z
M 563 1003 
Q 494 909 459 909 
Q 425 909 397 1013 
Q 303 1338 166 1553 
Q 850 2356 1209 3500 
L 1063 3500 
L 403 3488 
Q 353 3488 341 3500 
Q 331 3513 331 3556 
L 331 4025 
Q 331 4075 344 4084 
Q 356 4094 403 4094 
L 1063 4081 
L 1266 4081 
L 1266 4478 
Q 1266 5044 1216 5350 
Q 1578 5341 1853 5306 
Q 1956 5294 1956 5241 
Q 1956 5194 1919 5106 
Q 1875 4997 1875 4484 
L 1875 4081 
L 2541 4094 
Q 2591 4094 2600 4081 
Q 2609 4069 2609 4025 
L 2609 3556 
Q 2609 3506 2597 3497 
Q 2584 3488 2541 3488 
L 1913 3500 
Q 2150 2947 2756 2278 
Q 2631 2091 2516 1784 
Q 2469 1681 2444 1681 
Q 2416 1681 2353 1772 
Q 2022 2247 1856 2725 
Q 1859 1634 1881 441 
Q 1888 188 1897 -225 
Q 1900 -409 1900 -438 
Q 1900 -488 1888 -497 
Q 1875 -506 1828 -506 
L 1313 -506 
Q 1259 -506 1250 -494 
Q 1241 -481 1241 -438 
Q 1241 -409 1250 31 
Q 1275 1372 1284 2469 
Q 1034 1697 563 1003 
z
" transform="scale(0.015625)"/>
     </defs>
     <use xlink:href="#YuGothic-Bold-4f4d"/>
     <use xlink:href="#YuGothic-Bold-76f8" x="100"/>
    </g>
   </g>
   <g id="legend_1">
    <g id="patch_10">
     <path d="M 209.875 245.0575 
L 261.875 245.0575 
Q 263.875 245.0575 263.875 243.0575 
L 263.875 215.58875 
Q 263.875 213.58875 261.875 213.58875 
L 209.875 213.58875 
Q 207.875 213.58875 207.875 215.58875 
L 207.875 243.0575 
Q 207.875 245.0575 209.875 245.0575 
z
" style="fill: #ffffff; opacity: 0.8; stroke: #cccccc; stroke-linejoin: miter"/>
    </g>
    <g id="line2d_33">
     <path d="M 211.875 221.730938 
L 221.875 221.730938 
L 231.875 221.730938 
" style="fill: none; stroke: #1f77b4; stroke-width: 1.5; stroke-linecap: square"/>
    </g>
    <g id="text_19">
     <!-- 入力 -->
     <g transform="translate(239.875 225.230938)scale(0.1 -0.1)">
      <defs>
       <path id="YuGothic-Regular-5165" d="M 428 -56 
Q 1766 622 2475 1953 
Q 3081 3088 3122 4513 
L 2188 4513 
L 1606 4500 
Q 1559 4500 1559 4544 
L 1559 4763 
Q 1559 4806 1606 4806 
L 2188 4794 
L 2778 4794 
L 3366 4806 
Q 3416 4806 3416 4756 
L 3416 4666 
Q 3416 4406 3481 3956 
Q 3831 1334 6041 -31 
Q 5941 -81 5863 -209 
Q 5816 -281 5791 -281 
Q 5772 -281 5716 -241 
Q 4616 506 4016 1513 
Q 3475 2419 3288 3616 
Q 3153 2309 2397 1238 
Q 1756 334 788 -244 
Q 725 -278 706 -278 
Q 684 -278 625 -213 
Q 541 -103 428 -56 
z
" transform="scale(0.015625)"/>
       <path id="YuGothic-Regular-529b" d="M 2816 3516 
L 1688 3516 
L 788 3503 
Q 741 3503 741 3547 
L 741 3772 
Q 741 3816 788 3816 
L 1688 3803 
L 2834 3803 
Q 2841 4047 2841 4553 
Q 2841 5000 2797 5288 
Q 3019 5275 3159 5250 
Q 3244 5241 3244 5191 
Q 3244 5169 3200 5066 
Q 3159 4959 3159 4553 
Q 3159 4059 3147 3803 
L 4484 3803 
L 5394 3816 
Q 5444 3816 5444 3766 
Q 5431 3578 5431 3216 
Q 5406 1384 5206 456 
Q 5109 9 4931 -141 
Q 4772 -275 4447 -275 
Q 3978 -275 3647 -225 
Q 3566 -213 3553 -197 
Q 3538 -181 3525 -103 
Q 3494 50 3441 128 
Q 3956 31 4447 31 
Q 4647 31 4750 144 
Q 4856 259 4906 538 
Q 5125 1647 5125 3516 
L 3134 3516 
Q 3078 2494 2797 1794 
Q 2509 1075 1975 556 
Q 1525 116 813 -266 
Q 753 -303 731 -303 
Q 703 -303 653 -241 
Q 553 -125 447 -78 
Q 2025 628 2516 1916 
Q 2759 2563 2816 3516 
z
" transform="scale(0.015625)"/>
      </defs>
      <use xlink:href="#YuGothic-Regular-5165"/>
      <use xlink:href="#YuGothic-Regular-529b" x="100"/>
     </g>
    </g>
    <g id="line2d_34">
     <path d="M 211.875 235.965313 
L 221.875 235.965313 
L 231.875 235.965313 
" style="fill: none; stroke: #ff7f0e; stroke-width: 1.5; stroke-linecap: square"/>
    </g>
    <g id="text_20">
     <!-- 出力 -->
     <g transform="translate(239.875 239.465313)scale(0.1 -0.1)">
      <defs>
       <path id="YuGothic-Regular-51fa" d="M 2988 325 
L 2988 2572 
L 1375 2572 
L 1375 2231 
Q 1375 2188 1331 2188 
L 1113 2188 
Q 1069 2188 1069 2231 
L 1081 2791 
L 1081 3634 
Q 1081 4175 1034 4428 
Q 1238 4419 1375 4391 
Q 1438 4378 1438 4338 
Q 1438 4313 1413 4234 
Q 1375 4131 1375 3641 
L 1375 2847 
L 2988 2847 
L 2988 4453 
Q 2988 5025 2944 5272 
Q 3103 5266 3288 5241 
Q 3359 5228 3359 5191 
Q 3359 5175 3334 5075 
Q 3288 4909 3288 4466 
L 3288 2847 
L 5022 2847 
L 5022 3678 
Q 5022 4219 4978 4472 
Q 5169 4463 5316 4434 
Q 5388 4422 5388 4381 
Q 5388 4359 5363 4281 
Q 5316 4103 5316 3678 
L 5316 2828 
L 5328 2247 
Q 5328 2200 5284 2200 
L 5069 2200 
Q 5022 2200 5022 2247 
L 5022 2572 
L 3288 2572 
L 3288 325 
L 5197 325 
L 5197 966 
Q 5197 1500 5150 1753 
Q 5356 1744 5491 1713 
Q 5563 1703 5563 1669 
Q 5563 1650 5538 1559 
Q 5491 1397 5491 966 
L 5491 216 
L 5503 -322 
Q 5503 -366 5466 -366 
L 5241 -366 
Q 5197 -366 5197 -322 
L 5197 50 
L 1194 50 
L 1194 -341 
Q 1194 -384 1150 -384 
L 931 -384 
Q 888 -384 888 -341 
L 900 178 
L 900 922 
Q 900 1459 856 1706 
Q 1063 1697 1194 1669 
Q 1266 1656 1266 1619 
Q 1266 1603 1241 1516 
Q 1194 1391 1194 934 
L 1194 325 
L 2988 325 
z
" transform="scale(0.015625)"/>
      </defs>
      <use xlink:href="#YuGothic-Regular-51fa"/>
      <use xlink:href="#YuGothic-Regular-529b" x="100"/>
     </g>
    </g>
   </g>
  </g>
 </g>
 <defs>
  <clipPath id="p078ac850ea">
   <rect x="51.87" y="10.8" width="217.005" height="239.2575"/>
  </clipPath>
 </defs>
</svg>
