<?xml version="1.0" encoding="utf-8" standalone="no"?>
<!DOCTYPE svg PUBLIC "-//W3C//DTD SVG 1.1//EN"
  "http://www.w3.org/Graphics/SVG/1.1/DTD/svg11.dtd">
<svg xmlns:xlink="http://www.w3.org/1999/xlink" width="504pt" height="252pt" viewBox="0 0 504 252" xmlns="http://www.w3.org/2000/svg" version="1.1">
 <metadata>
  <rdf:RDF xmlns:dc="http://purl.org/dc/elements/1.1/" xmlns:cc="http://creativecommons.org/ns#" xmlns:rdf="http://www.w3.org/1999/02/22-rdf-syntax-ns#">
   <cc:Work>
    <dc:type rdf:resource="http://purl.org/dc/dcmitype/StillImage"/>
    <dc:date>2022-08-18T11:50:05.346533</dc:date>
    <dc:format>image/svg+xml</dc:format>
    <dc:creator>
     <cc:Agent>
      <dc:title>Matplotlib v3.5.3, https://matplotlib.org/</dc:title>
     </cc:Agent>
    </dc:creator>
   </cc:Work>
  </rdf:RDF>
 </metadata>
 <defs>
  <style type="text/css">*{stroke-linejoin: round; stroke-linecap: butt}</style>
 </defs>
 <g id="figure_1">
  <g id="patch_1">
   <path d="M 0 252 
L 504 252 
L 504 0 
L 0 0 
z
" style="fill: #ffffff"/>
  </g>
  <g id="axes_1">
   <g id="patch_2">
    <path d="M 45.0275 189.245 
L 494.55 189.245 
L 494.55 12.6 
L 45.0275 12.6 
z
" style="fill: #ffffff"/>
   </g>
   <g id="matplotlib.axis_1">
    <g id="xtick_1">
     <g id="line2d_1">
      <path d="M 45.0275 189.245 
L 45.0275 12.6 
" clip-path="url(#p2f706b643b)" style="fill: none; stroke: #b0b0b0; stroke-width: 0.8; stroke-linecap: square"/>
     </g>
     <g id="line2d_2">
      <defs>
       <path id="m388e648dd6" d="M 0 0 
L 0 4 
" style="stroke: #000000; stroke-width: 0.8"/>
      </defs>
      <g>
       <use xlink:href="#m388e648dd6" x="45.0275" y="189.245" style="stroke: #000000; stroke-width: 0.8"/>
      </g>
     </g>
    </g>
    <g id="xtick_2">
     <g id="line2d_3">
      <path d="M 94.974444 189.245 
L 94.974444 12.6 
" clip-path="url(#p2f706b643b)" style="fill: none; stroke: #b0b0b0; stroke-width: 0.8; stroke-linecap: square"/>
     </g>
     <g id="line2d_4">
      <g>
       <use xlink:href="#m388e648dd6" x="94.974444" y="189.245" style="stroke: #000000; stroke-width: 0.8"/>
      </g>
     </g>
     <g id="text_1">
      <!-- 0 -->
      <g transform="translate(92.193976 204.387187)scale(0.1 -0.1)">
       <defs>
        <path id="YuGothic-Regular-30" d="M 1788 4806 
Q 3150 4806 3150 2456 
Q 3150 56 1772 56 
Q 409 56 409 2444 
Q 409 4806 1788 4806 
z
M 1788 4453 
Q 1269 4453 1047 3938 
Q 838 3456 838 2456 
Q 838 1303 1100 819 
Q 1322 409 1772 409 
Q 2291 409 2516 950 
Q 2722 1444 2722 2450 
Q 2722 3591 2456 4059 
Q 2234 4453 1788 4453 
z
" transform="scale(0.015625)"/>
       </defs>
       <use xlink:href="#YuGothic-Regular-30"/>
      </g>
     </g>
    </g>
    <g id="xtick_3">
     <g id="line2d_5">
      <path d="M 144.921389 189.245 
L 144.921389 12.6 
" clip-path="url(#p2f706b643b)" style="fill: none; stroke: #b0b0b0; stroke-width: 0.8; stroke-linecap: square"/>
     </g>
     <g id="line2d_6">
      <g>
       <use xlink:href="#m388e648dd6" x="144.921389" y="189.245" style="stroke: #000000; stroke-width: 0.8"/>
      </g>
     </g>
    </g>
    <g id="xtick_4">
     <g id="line2d_7">
      <path d="M 194.868333 189.245 
L 194.868333 12.6 
" clip-path="url(#p2f706b643b)" style="fill: none; stroke: #b0b0b0; stroke-width: 0.8; stroke-linecap: square"/>
     </g>
     <g id="line2d_8">
      <g>
       <use xlink:href="#m388e648dd6" x="194.868333" y="189.245" style="stroke: #000000; stroke-width: 0.8"/>
      </g>
     </g>
    </g>
    <g id="xtick_5">
     <g id="line2d_9">
      <path d="M 244.815278 189.245 
L 244.815278 12.6 
" clip-path="url(#p2f706b643b)" style="fill: none; stroke: #b0b0b0; stroke-width: 0.8; stroke-linecap: square"/>
     </g>
     <g id="line2d_10">
      <g>
       <use xlink:href="#m388e648dd6" x="244.815278" y="189.245" style="stroke: #000000; stroke-width: 0.8"/>
      </g>
     </g>
    </g>
    <g id="xtick_6">
     <g id="line2d_11">
      <path d="M 294.762222 189.245 
L 294.762222 12.6 
" clip-path="url(#p2f706b643b)" style="fill: none; stroke: #b0b0b0; stroke-width: 0.8; stroke-linecap: square"/>
     </g>
     <g id="line2d_12">
      <g>
       <use xlink:href="#m388e648dd6" x="294.762222" y="189.245" style="stroke: #000000; stroke-width: 0.8"/>
      </g>
     </g>
    </g>
    <g id="xtick_7">
     <g id="line2d_13">
      <path d="M 344.709167 189.245 
L 344.709167 12.6 
" clip-path="url(#p2f706b643b)" style="fill: none; stroke: #b0b0b0; stroke-width: 0.8; stroke-linecap: square"/>
     </g>
     <g id="line2d_14">
      <g>
       <use xlink:href="#m388e648dd6" x="344.709167" y="189.245" style="stroke: #000000; stroke-width: 0.8"/>
      </g>
     </g>
    </g>
    <g id="xtick_8">
     <g id="line2d_15">
      <path d="M 394.656111 189.245 
L 394.656111 12.6 
" clip-path="url(#p2f706b643b)" style="fill: none; stroke: #b0b0b0; stroke-width: 0.8; stroke-linecap: square"/>
     </g>
     <g id="line2d_16">
      <g>
       <use xlink:href="#m388e648dd6" x="394.656111" y="189.245" style="stroke: #000000; stroke-width: 0.8"/>
      </g>
     </g>
    </g>
    <g id="xtick_9">
     <g id="line2d_17">
      <path d="M 444.603056 189.245 
L 444.603056 12.6 
" clip-path="url(#p2f706b643b)" style="fill: none; stroke: #b0b0b0; stroke-width: 0.8; stroke-linecap: square"/>
     </g>
     <g id="line2d_18">
      <g>
       <use xlink:href="#m388e648dd6" x="444.603056" y="189.245" style="stroke: #000000; stroke-width: 0.8"/>
      </g>
     </g>
    </g>
    <g id="xtick_10">
     <g id="line2d_19">
      <path d="M 494.55 189.245 
L 494.55 12.6 
" clip-path="url(#p2f706b643b)" style="fill: none; stroke: #b0b0b0; stroke-width: 0.8; stroke-linecap: square"/>
     </g>
     <g id="line2d_20">
      <g>
       <use xlink:href="#m388e648dd6" x="494.55" y="189.245" style="stroke: #000000; stroke-width: 0.8"/>
      </g>
     </g>
    </g>
    <g id="xtick_11">
     <g id="line2d_21">
      <defs>
       <path id="mb58a30da86" d="M 0 0 
L 0 4 
" style="stroke: #000000; stroke-width: 0.6"/>
      </defs>
      <g>
       <use xlink:href="#mb58a30da86" x="102.868098" y="189.245" style="stroke: #000000; stroke-width: 0.6"/>
      </g>
     </g>
    </g>
    <g id="xtick_12">
     <g id="line2d_22">
      <g>
       <use xlink:href="#mb58a30da86" x="169.894861" y="189.245" style="stroke: #000000; stroke-width: 0.6"/>
      </g>
     </g>
     <g id="text_2">
      <!-- $\tau$ -->
      <g transform="translate(166.844861 204.287187)scale(0.1 -0.1)">
       <defs>
        <path id="DejaVuSans-Oblique-3c4" d="M 2103 638 
Q 2188 488 2525 488 
L 2800 488 
L 2706 0 
L 2363 0 
Q 1800 0 1600 300 
Q 1403 606 1534 1269 
L 1856 2925 
L 541 2925 
L 653 3500 
L 3881 3500 
L 3769 2925 
L 2444 2925 
L 2113 1234 
Q 2025 781 2103 638 
z
" transform="scale(0.015625)"/>
       </defs>
       <use xlink:href="#DejaVuSans-Oblique-3c4" transform="translate(0 0.3125)"/>
      </g>
      <!-- (時定数) -->
      <g transform="translate(151.032361 215.59375)scale(0.1 -0.1)">
       <defs>
        <path id="YuGothic-Regular-28" d="M 2234 5400 
Q 1603 4616 1347 3872 
Q 1122 3222 1122 2431 
Q 1122 1531 1419 797 
Q 1681 147 2234 -538 
L 2069 -672 
Q 1341 91 1034 859 
Q 750 1569 750 2431 
Q 750 3409 1122 4200 
Q 1434 4866 2069 5528 
L 2234 5400 
z
" transform="scale(0.015625)"/>
        <path id="YuGothic-Regular-6642" d="M 4850 1863 
L 3341 1863 
L 2463 1850 
Q 2419 1850 2419 1894 
L 2419 2094 
Q 2419 2131 2463 2131 
L 3341 2125 
L 4850 2125 
L 4850 2169 
Q 4850 2647 4806 2853 
Q 5006 2844 5131 2816 
Q 5209 2806 5209 2772 
Q 5209 2741 5169 2663 
Q 5138 2581 5138 2181 
L 5138 2125 
L 5944 2131 
Q 5988 2131 5988 2094 
L 5988 1894 
Q 5988 1850 5944 1850 
L 5138 1863 
L 5138 909 
L 5144 84 
Q 5144 -197 4978 -313 
Q 4838 -409 4375 -409 
Q 4344 -409 4269 -409 
Q 4188 -409 4172 -394 
Q 4156 -378 4134 -306 
Q 4094 -172 4025 -84 
Q 4231 -109 4472 -109 
Q 4538 -109 4619 -106 
Q 4850 -106 4850 141 
L 4850 1863 
z
M 972 738 
L 972 194 
Q 972 156 928 156 
L 722 156 
Q 678 156 678 194 
L 691 2163 
L 691 3384 
L 678 4872 
Q 678 4916 722 4916 
L 1222 4903 
L 1631 4903 
L 2131 4916 
Q 2175 4916 2175 4872 
L 2163 3578 
L 2163 2284 
L 2175 406 
Q 2175 359 2131 359 
L 1931 359 
Q 1888 359 1888 406 
L 1888 738 
L 972 738 
z
M 972 2994 
L 1888 2994 
L 1888 4641 
L 972 4641 
L 972 2994 
z
M 972 2738 
L 972 994 
L 1888 994 
L 1888 2738 
L 972 2738 
z
M 3950 3238 
L 3950 4159 
L 3522 4159 
L 2697 4147 
Q 2644 4147 2644 4191 
L 2644 4384 
Q 2644 4428 2697 4428 
L 3522 4416 
L 3950 4416 
L 3950 4447 
Q 3950 5019 3906 5272 
Q 4025 5269 4238 5241 
Q 4300 5231 4300 5191 
Q 4300 5172 4275 5081 
Q 4238 4975 4238 4459 
L 4238 4416 
L 4866 4416 
L 5691 4428 
Q 5734 4428 5734 4384 
L 5734 4191 
Q 5734 4147 5691 4147 
L 4866 4159 
L 4238 4159 
L 4238 3238 
L 5134 3238 
L 6022 3250 
Q 6069 3250 6069 3206 
L 6069 3013 
Q 6069 2969 6022 2969 
L 5134 2981 
L 3309 2981 
L 2428 2969 
Q 2381 2969 2381 3013 
L 2381 3206 
Q 2381 3250 2428 3250 
L 3309 3238 
L 3950 3238 
z
M 3225 1434 
Q 3609 1097 3878 647 
Q 3888 631 3888 616 
Q 3888 594 3847 563 
L 3738 488 
Q 3678 447 3666 447 
Q 3650 447 3634 475 
Q 3378 925 3009 1275 
Q 2988 1291 2988 1303 
Q 2988 1322 3047 1363 
L 3134 1428 
Q 3175 1453 3191 1453 
Q 3203 1453 3225 1434 
z
" transform="scale(0.015625)"/>
        <path id="YuGothic-Regular-5b9a" d="M 3359 213 
Q 3919 109 4875 109 
Q 5394 109 5875 134 
Q 5816 38 5797 -69 
Q 5781 -150 5763 -166 
Q 5741 -181 5669 -184 
Q 5478 -191 5119 -191 
Q 3197 -188 2497 178 
Q 2181 344 1972 634 
Q 1853 800 1716 1094 
Q 1431 316 728 -269 
Q 672 -319 650 -319 
Q 628 -319 575 -256 
Q 500 -172 409 -134 
Q 1519 663 1675 2156 
Q 1688 2316 1688 2378 
Q 1688 2441 1684 2503 
Q 1803 2484 1969 2444 
Q 2059 2422 2059 2381 
Q 2059 2350 2022 2284 
Q 1978 2216 1963 2138 
Q 1903 1738 1825 1441 
Q 2053 888 2319 647 
Q 2584 406 3066 275 
L 3066 3103 
L 2350 3103 
L 1466 3091 
Q 1422 3091 1422 3134 
L 1422 3334 
Q 1422 3378 1466 3378 
L 2350 3366 
L 4122 3366 
L 5003 3378 
Q 5050 3378 5050 3334 
L 5050 3134 
Q 5050 3091 5003 3091 
L 4122 3103 
L 3359 3103 
L 3359 1947 
L 4363 1947 
L 4959 1959 
Q 5003 1959 5003 1916 
L 5003 1716 
Q 5003 1672 4959 1672 
L 4363 1684 
L 3359 1684 
L 3359 213 
z
M 3006 4525 
L 3006 4628 
Q 3006 5113 2963 5294 
Q 3194 5281 3294 5259 
Q 3366 5250 3366 5216 
Q 3366 5191 3328 5100 
Q 3300 5038 3300 4628 
L 3300 4525 
L 4825 4525 
L 5728 4538 
Q 5772 4538 5772 4500 
L 5759 4219 
L 5759 3988 
L 5772 3341 
Q 5772 3297 5728 3297 
L 5509 3297 
Q 5466 3297 5466 3341 
L 5466 4263 
L 991 4263 
L 991 3341 
Q 991 3297 947 3297 
L 728 3297 
Q 684 3297 684 3341 
L 697 3988 
L 697 4178 
L 684 4500 
Q 684 4538 728 4538 
L 1625 4525 
L 3006 4525 
z
" transform="scale(0.015625)"/>
        <path id="YuGothic-Regular-6570" d="M 2206 3694 
Q 2588 3266 3097 2981 
Q 3009 2928 2950 2841 
Q 2909 2788 2891 2788 
Q 2869 2788 2809 2834 
Q 2350 3194 2047 3622 
Q 2050 3266 2069 2897 
Q 2084 2609 2084 2591 
Q 2084 2547 2041 2547 
L 1822 2547 
Q 1778 2547 1778 2591 
Q 1778 2625 1788 2772 
Q 1813 3216 1816 3603 
Q 1416 2941 600 2369 
Q 541 2322 519 2322 
Q 497 2322 453 2375 
Q 388 2459 313 2497 
Q 1053 2956 1438 3438 
Q 1531 3538 1631 3694 
L 1266 3694 
L 466 3681 
Q 422 3681 422 3725 
L 422 3897 
Q 422 3950 466 3950 
L 1266 3938 
L 1803 3938 
L 1803 4794 
Q 1803 5094 1759 5275 
Q 1922 5266 2066 5241 
Q 2128 5231 2128 5184 
Q 2128 5163 2097 5088 
Q 2066 5025 2066 4788 
L 2066 3938 
L 2456 3938 
L 3256 3950 
Q 3300 3950 3300 3897 
L 3300 3725 
Q 3300 3681 3256 3681 
L 2456 3694 
L 2206 3694 
z
M 1700 1863 
L 2553 1863 
L 3366 1875 
Q 3409 1875 3409 1831 
L 3409 1656 
Q 3409 1613 3366 1613 
Q 3359 1613 3294 1616 
Q 3078 1622 2791 1625 
Q 2556 972 2259 622 
Q 2600 428 2828 263 
Q 2853 247 2853 231 
Q 2853 216 2816 172 
L 2750 91 
Q 2703 19 2678 19 
Q 2666 19 2641 38 
Q 2313 291 2078 428 
Q 1613 -28 672 -353 
Q 616 -372 597 -372 
Q 559 -372 509 -294 
Q 459 -213 375 -159 
Q 1313 100 1841 569 
Q 1378 813 1138 903 
Q 1022 731 984 678 
Q 941 622 903 622 
Q 881 622 844 634 
L 741 672 
Q 678 694 678 719 
Q 678 734 697 756 
Q 831 900 984 1131 
Q 1144 1369 1278 1625 
L 1259 1625 
L 447 1613 
Q 403 1613 403 1656 
L 403 1831 
Q 403 1875 447 1875 
L 1259 1863 
L 1406 1863 
L 1541 2131 
Q 1619 2306 1644 2472 
Q 1806 2428 1919 2381 
Q 1975 2359 1975 2316 
Q 1975 2281 1925 2241 
Q 1884 2206 1778 2009 
Q 1756 1972 1700 1863 
z
M 1572 1625 
Q 1538 1553 1253 1088 
Q 1684 931 2022 747 
Q 2325 1084 2506 1625 
L 1572 1625 
z
M 4100 3944 
L 5309 3944 
L 5997 3956 
Q 6041 3956 6041 3913 
L 6041 3719 
Q 6041 3675 5997 3675 
L 5431 3688 
Q 5306 2163 4759 1256 
Q 5175 656 6169 -94 
Q 6088 -150 6016 -275 
Q 5969 -341 5947 -341 
Q 5928 -341 5875 -300 
Q 5050 381 4600 1013 
Q 4009 163 2981 -381 
Q 2922 -413 2900 -413 
Q 2875 -413 2822 -344 
Q 2759 -253 2663 -203 
Q 3853 366 4441 1269 
Q 3963 2113 3763 3113 
Q 3559 2703 3328 2369 
Q 3291 2313 3269 2313 
Q 3253 2313 3194 2363 
Q 3125 2422 3031 2453 
Q 3706 3313 4050 4700 
Q 4134 5000 4147 5288 
Q 4334 5244 4425 5203 
Q 4503 5175 4503 5128 
Q 4503 5122 4441 5025 
Q 4400 4978 4338 4725 
Q 4228 4328 4100 3944 
z
M 4013 3688 
L 3928 3484 
Q 4156 2334 4588 1531 
Q 5034 2328 5150 3688 
L 4013 3688 
z
M 922 4997 
Q 1159 4709 1322 4331 
Q 1328 4319 1328 4309 
Q 1328 4288 1272 4256 
L 1191 4213 
Q 1138 4181 1119 4181 
Q 1103 4181 1088 4219 
Q 959 4550 716 4863 
Q 700 4888 700 4900 
Q 700 4922 759 4953 
L 844 4997 
Q 878 5019 891 5019 
Q 906 5019 922 4997 
z
M 2431 4206 
Q 2666 4488 2828 4800 
Q 2891 4925 2909 5031 
Q 3069 4972 3150 4922 
Q 3200 4891 3200 4856 
Q 3200 4828 3163 4800 
Q 3103 4756 3059 4691 
Q 2900 4419 2706 4178 
Q 2659 4119 2634 4119 
Q 2613 4119 2553 4153 
Q 2488 4197 2431 4206 
z
" transform="scale(0.015625)"/>
        <path id="YuGothic-Regular-29" d="M 403 5528 
Q 1128 4772 1438 4000 
Q 1722 3291 1722 2431 
Q 1722 1450 1350 659 
Q 1041 -3 403 -672 
L 238 -538 
Q 869 241 1125 988 
Q 1350 1641 1350 2431 
Q 1350 3331 1053 4066 
Q 794 4709 238 5400 
L 403 5528 
z
" transform="scale(0.015625)"/>
       </defs>
       <use xlink:href="#YuGothic-Regular-28"/>
       <use xlink:href="#YuGothic-Regular-6642" x="38.623047"/>
       <use xlink:href="#YuGothic-Regular-5b9a" x="138.623047"/>
       <use xlink:href="#YuGothic-Regular-6570" x="238.623047"/>
       <use xlink:href="#YuGothic-Regular-29" x="338.623047"/>
      </g>
     </g>
    </g>
    <g id="xtick_13">
     <g id="line2d_23">
      <g>
       <use xlink:href="#mb58a30da86" x="267.291403" y="189.245" style="stroke: #000000; stroke-width: 0.6"/>
      </g>
     </g>
     <g id="text_3">
      <!-- 2.3$\tau$ -->
      <g transform="translate(257.391403 204.287187)scale(0.1 -0.1)">
       <defs>
        <path id="YuGothic-Regular-32" d="M 459 3597 
Q 588 4228 988 4541 
Q 1325 4806 1819 4806 
Q 2406 4806 2750 4453 
Q 3059 4138 3059 3628 
Q 3059 3219 2838 2875 
Q 2628 2556 2094 2075 
Q 1191 1284 825 494 
L 3066 494 
L 3066 141 
L 422 141 
L 422 456 
Q 819 1406 1806 2309 
Q 2331 2800 2497 3088 
Q 2638 3331 2638 3628 
Q 2638 4038 2378 4263 
Q 2156 4453 1813 4453 
Q 1025 4453 863 3494 
L 459 3597 
z
" transform="scale(0.015625)"/>
        <path id="YuGothic-Regular-2e" d="M 1147 794 
L 1147 141 
L 506 141 
L 506 794 
L 1147 794 
z
" transform="scale(0.015625)"/>
        <path id="YuGothic-Regular-33" d="M 463 3922 
Q 641 4378 1013 4606 
Q 1331 4806 1756 4806 
Q 2331 4806 2688 4456 
Q 3003 4150 3003 3694 
Q 3003 3241 2738 2950 
Q 2509 2703 2125 2613 
L 2125 2572 
Q 2625 2459 2884 2116 
Q 3113 1813 3113 1388 
Q 3113 750 2688 378 
Q 2322 56 1769 56 
Q 759 56 372 928 
L 756 1094 
Q 922 700 1191 541 
Q 1419 403 1769 403 
Q 2216 403 2469 703 
Q 2691 966 2691 1375 
Q 2691 1888 2369 2147 
Q 2078 2381 1563 2381 
L 1203 2381 
L 1203 2747 
L 1525 2747 
Q 2072 2747 2350 3025 
Q 2588 3263 2588 3659 
Q 2588 4059 2319 4278 
Q 2094 4459 1747 4459 
Q 1409 4459 1169 4266 
Q 947 4088 847 3769 
L 463 3922 
z
" transform="scale(0.015625)"/>
       </defs>
       <use xlink:href="#YuGothic-Regular-32" transform="translate(0 0.90625)"/>
       <use xlink:href="#YuGothic-Regular-2e" transform="translate(55.615234 0.90625)"/>
       <use xlink:href="#YuGothic-Regular-33" transform="translate(81.396484 0.90625)"/>
       <use xlink:href="#DejaVuSans-Oblique-3c4" transform="translate(137.011719 0.90625)"/>
      </g>
     </g>
    </g>
    <g id="text_4">
     <!-- 時間t[ms] -->
     <g transform="translate(247.318437 229.042187)scale(0.1 -0.1)">
      <defs>
       <path id="YuGothic-Regular-9593" d="M 2388 525 
L 2388 159 
Q 2388 116 2344 116 
L 2150 116 
Q 2106 116 2106 159 
L 2119 1281 
L 2119 1813 
L 2106 2534 
Q 2106 2578 2150 2578 
L 2809 2566 
L 3513 2566 
L 4172 2578 
Q 4209 2578 4209 2534 
L 4197 1900 
L 4197 1325 
L 4209 231 
Q 4209 184 4172 184 
L 3972 184 
Q 3928 184 3928 231 
L 3928 525 
L 2388 525 
z
M 2388 1684 
L 3928 1684 
L 3928 2322 
L 2388 2322 
L 2388 1684 
z
M 2388 1441 
L 2388 763 
L 3928 763 
L 3928 1441 
L 2388 1441 
z
M 5416 3141 
L 4213 3141 
L 3525 3128 
Q 3481 3128 3481 3172 
L 3488 3725 
L 3488 4444 
L 3481 4994 
Q 3481 5038 3525 5038 
L 4213 5025 
L 4988 5025 
L 5672 5038 
Q 5716 5038 5716 4994 
L 5703 4078 
L 5703 1100 
L 5722 263 
Q 5722 50 5681 -50 
Q 5647 -128 5563 -194 
Q 5422 -303 4938 -303 
Q 4897 -303 4800 -303 
Q 4725 -303 4709 -288 
Q 4697 -275 4678 -206 
Q 4644 -84 4575 13 
Q 4791 -16 5050 -16 
Q 5294 -16 5359 56 
Q 5416 119 5416 319 
L 5416 3141 
z
M 5416 3378 
L 5416 3981 
L 3769 3981 
L 3769 3378 
L 5416 3378 
z
M 5416 4219 
L 5416 4781 
L 3769 4781 
L 3769 4219 
L 5416 4219 
z
M 1428 5025 
L 2138 5025 
L 2778 5038 
Q 2822 5038 2822 4994 
L 2809 4416 
L 2809 3756 
L 2822 3172 
Q 2822 3128 2778 3128 
L 2138 3141 
L 972 3141 
L 972 953 
L 984 -347 
Q 984 -391 941 -391 
L 716 -391 
Q 672 -391 672 -347 
L 684 953 
L 684 3678 
L 672 4994 
Q 672 5038 716 5038 
L 1428 5025 
z
M 972 3981 
L 972 3378 
L 2528 3378 
L 2528 3981 
L 972 3981 
z
M 972 4219 
L 2528 4219 
L 2528 4781 
L 972 4781 
L 972 4219 
z
" transform="scale(0.015625)"/>
       <path id="YuGothic-Regular-74" d="M 1197 4488 
L 1197 3341 
L 2003 3341 
L 2003 3022 
L 1197 3022 
L 1197 941 
Q 1197 375 1672 375 
Q 1878 375 2088 422 
L 2059 97 
Q 1859 63 1606 63 
Q 800 63 800 863 
L 800 3022 
L 250 3022 
L 250 3341 
L 800 3341 
L 800 4397 
L 1197 4488 
z
" transform="scale(0.015625)"/>
       <path id="YuGothic-Regular-5b" d="M 2200 5459 
L 2200 5222 
L 1209 5222 
L 1209 -356 
L 2200 -356 
L 2200 -588 
L 856 -588 
L 856 5459 
L 2200 5459 
z
" transform="scale(0.015625)"/>
       <path id="YuGothic-Regular-6d" d="M 1019 3341 
L 1019 2747 
Q 1519 3419 2100 3419 
Q 2450 3419 2688 3206 
Q 2894 3025 2931 2753 
Q 3419 3419 4019 3419 
Q 4441 3419 4678 3147 
Q 4891 2906 4891 2516 
L 4891 141 
L 4494 141 
L 4494 2350 
Q 4494 3059 3909 3059 
Q 3644 3059 3369 2853 
Q 3138 2678 2956 2394 
L 2956 141 
L 2559 141 
L 2559 2350 
Q 2559 3059 1997 3059 
Q 1731 3059 1463 2863 
Q 1222 2691 1031 2394 
L 1031 141 
L 641 141 
L 641 3341 
L 1019 3341 
z
" transform="scale(0.015625)"/>
       <path id="YuGothic-Regular-73" d="M 2759 2663 
L 2375 2528 
Q 2194 3106 1594 3106 
Q 1231 3106 1034 2947 
Q 866 2809 866 2594 
Q 866 2325 1034 2197 
Q 1184 2081 1569 1997 
L 1825 1941 
Q 2419 1803 2641 1578 
Q 2844 1375 2844 1003 
Q 2844 563 2503 306 
Q 2181 63 1628 63 
Q 663 63 366 838 
L 750 984 
Q 963 375 1634 375 
Q 2078 375 2291 578 
Q 2453 734 2453 966 
Q 2453 1263 2284 1394 
Q 2125 1516 1691 1613 
L 1434 1672 
Q 869 1800 659 2034 
Q 488 2225 488 2559 
Q 488 2963 803 3197 
Q 1097 3419 1600 3419 
Q 2466 3419 2759 2663 
z
" transform="scale(0.015625)"/>
       <path id="YuGothic-Regular-5d" d="M 1613 5453 
L 1613 -588 
L 269 -588 
L 269 -356 
L 1259 -356 
L 1259 5222 
L 269 5222 
L 269 5453 
L 1613 5453 
z
" transform="scale(0.015625)"/>
      </defs>
      <use xlink:href="#YuGothic-Regular-6642"/>
      <use xlink:href="#YuGothic-Regular-9593" x="100"/>
      <use xlink:href="#YuGothic-Regular-74" x="200"/>
      <use xlink:href="#YuGothic-Regular-5b" x="235.205078"/>
      <use xlink:href="#YuGothic-Regular-6d" x="273.828125"/>
      <use xlink:href="#YuGothic-Regular-73" x="359.912109"/>
      <use xlink:href="#YuGothic-Regular-5d" x="410.791016"/>
     </g>
    </g>
   </g>
   <g id="matplotlib.axis_2">
    <g id="ytick_1">
     <g id="line2d_24">
      <path d="M 45.0275 175.656923 
L 494.55 175.656923 
" clip-path="url(#p2f706b643b)" style="fill: none; stroke: #b0b0b0; stroke-width: 0.8; stroke-linecap: square"/>
     </g>
     <g id="line2d_25">
      <defs>
       <path id="m72bd99f585" d="M 0 0 
L -4 0 
" style="stroke: #000000; stroke-width: 0.8"/>
      </defs>
      <g>
       <use xlink:href="#m72bd99f585" x="45.0275" y="175.656923" style="stroke: #000000; stroke-width: 0.8"/>
      </g>
     </g>
     <g id="text_5">
      <!-- 0.00 -->
      <g transform="translate(18.266563 179.478017)scale(0.1 -0.1)">
       <use xlink:href="#YuGothic-Regular-30"/>
       <use xlink:href="#YuGothic-Regular-2e" x="55.615234"/>
       <use xlink:href="#YuGothic-Regular-30" x="81.396484"/>
       <use xlink:href="#YuGothic-Regular-30" x="137.011719"/>
      </g>
     </g>
    </g>
    <g id="ytick_2">
     <g id="line2d_26">
      <path d="M 45.0275 141.686731 
L 494.55 141.686731 
" clip-path="url(#p2f706b643b)" style="fill: none; stroke: #b0b0b0; stroke-width: 0.8; stroke-linecap: square"/>
     </g>
     <g id="line2d_27">
      <g>
       <use xlink:href="#m72bd99f585" x="45.0275" y="141.686731" style="stroke: #000000; stroke-width: 0.8"/>
      </g>
     </g>
     <g id="text_6">
      <!-- 0.25 -->
      <g transform="translate(18.266563 145.507825)scale(0.1 -0.1)">
       <defs>
        <path id="YuGothic-Regular-35" d="M 2906 4728 
L 2906 4375 
L 1016 4375 
L 959 3159 
Q 953 3022 922 2622 
Q 1066 2856 1325 2988 
Q 1556 3103 1819 3103 
Q 2397 3103 2753 2653 
Q 3072 2247 3072 1625 
Q 3072 850 2622 416 
Q 2253 56 1716 56 
Q 772 56 434 909 
L 825 1075 
Q 1059 403 1716 403 
Q 2172 403 2425 766 
Q 2650 1088 2650 1606 
Q 2650 2188 2381 2494 
Q 2147 2756 1759 2756 
Q 1447 2756 1209 2566 
Q 1003 2397 903 2116 
L 569 2169 
L 678 4728 
L 2906 4728 
z
" transform="scale(0.015625)"/>
       </defs>
       <use xlink:href="#YuGothic-Regular-30"/>
       <use xlink:href="#YuGothic-Regular-2e" x="55.615234"/>
       <use xlink:href="#YuGothic-Regular-32" x="81.396484"/>
       <use xlink:href="#YuGothic-Regular-35" x="137.011719"/>
      </g>
     </g>
    </g>
    <g id="ytick_3">
     <g id="line2d_28">
      <path d="M 45.0275 107.716538 
L 494.55 107.716538 
" clip-path="url(#p2f706b643b)" style="fill: none; stroke: #b0b0b0; stroke-width: 0.8; stroke-linecap: square"/>
     </g>
     <g id="line2d_29">
      <g>
       <use xlink:href="#m72bd99f585" x="45.0275" y="107.716538" style="stroke: #000000; stroke-width: 0.8"/>
      </g>
     </g>
     <g id="text_7">
      <!-- 0.50 -->
      <g transform="translate(18.266563 111.537632)scale(0.1 -0.1)">
       <use xlink:href="#YuGothic-Regular-30"/>
       <use xlink:href="#YuGothic-Regular-2e" x="55.615234"/>
       <use xlink:href="#YuGothic-Regular-35" x="81.396484"/>
       <use xlink:href="#YuGothic-Regular-30" x="137.011719"/>
      </g>
     </g>
    </g>
    <g id="ytick_4">
     <g id="line2d_30">
      <path d="M 45.0275 73.746346 
L 494.55 73.746346 
" clip-path="url(#p2f706b643b)" style="fill: none; stroke: #b0b0b0; stroke-width: 0.8; stroke-linecap: square"/>
     </g>
     <g id="line2d_31">
      <g>
       <use xlink:href="#m72bd99f585" x="45.0275" y="73.746346" style="stroke: #000000; stroke-width: 0.8"/>
      </g>
     </g>
     <g id="text_8">
      <!-- 0.75 -->
      <g transform="translate(18.266563 77.56744)scale(0.1 -0.1)">
       <defs>
        <path id="YuGothic-Regular-37" d="M 3091 4728 
L 3091 4406 
Q 2434 3356 2106 2284 
Q 1809 1325 1709 141 
L 1253 141 
Q 1381 1450 1778 2538 
Q 2100 3428 2675 4363 
L 434 4363 
L 434 4728 
L 3091 4728 
z
" transform="scale(0.015625)"/>
       </defs>
       <use xlink:href="#YuGothic-Regular-30"/>
       <use xlink:href="#YuGothic-Regular-2e" x="55.615234"/>
       <use xlink:href="#YuGothic-Regular-37" x="81.396484"/>
       <use xlink:href="#YuGothic-Regular-35" x="137.011719"/>
      </g>
     </g>
    </g>
    <g id="ytick_5">
     <g id="line2d_32">
      <path d="M 45.0275 39.776154 
L 494.55 39.776154 
" clip-path="url(#p2f706b643b)" style="fill: none; stroke: #b0b0b0; stroke-width: 0.8; stroke-linecap: square"/>
     </g>
     <g id="line2d_33">
      <g>
       <use xlink:href="#m72bd99f585" x="45.0275" y="39.776154" style="stroke: #000000; stroke-width: 0.8"/>
      </g>
     </g>
     <g id="text_9">
      <!-- 1.00 -->
      <g transform="translate(18.266563 43.597248)scale(0.1 -0.1)">
       <defs>
        <path id="YuGothic-Regular-31" d="M 2063 4794 
L 2063 481 
L 2925 481 
L 2925 141 
L 744 141 
L 744 481 
L 1666 481 
L 1666 4359 
Q 1259 4081 725 3878 
L 653 4250 
Q 1184 4428 1734 4794 
L 2063 4794 
z
" transform="scale(0.015625)"/>
       </defs>
       <use xlink:href="#YuGothic-Regular-31"/>
       <use xlink:href="#YuGothic-Regular-2e" x="55.615234"/>
       <use xlink:href="#YuGothic-Regular-30" x="81.396484"/>
       <use xlink:href="#YuGothic-Regular-30" x="137.011719"/>
      </g>
     </g>
    </g>
    <g id="ytick_6">
     <g id="line2d_34">
      <defs>
       <path id="m95c26d26f2" d="M 0 0 
L -4 0 
" style="stroke: #000000; stroke-width: 0.6"/>
      </defs>
      <g>
       <use xlink:href="#m95c26d26f2" x="45.0275" y="162.068846" style="stroke: #000000; stroke-width: 0.6"/>
      </g>
     </g>
     <g id="text_10">
      <!-- 0.10 -->
      <g transform="translate(18.366563 165.88994)scale(0.1 -0.1)">
       <use xlink:href="#YuGothic-Regular-30"/>
       <use xlink:href="#YuGothic-Regular-2e" x="55.615234"/>
       <use xlink:href="#YuGothic-Regular-31" x="81.396484"/>
       <use xlink:href="#YuGothic-Regular-30" x="137.011719"/>
      </g>
     </g>
    </g>
    <g id="ytick_7">
     <g id="line2d_35">
      <g>
       <use xlink:href="#m95c26d26f2" x="45.0275" y="89.763895" style="stroke: #000000; stroke-width: 0.6"/>
      </g>
     </g>
     <g id="text_11">
      <!-- 0.63 -->
      <g transform="translate(18.366563 93.584989)scale(0.1 -0.1)">
       <defs>
        <path id="YuGothic-Regular-36" d="M 3041 4206 
L 2656 4019 
Q 2459 4459 1984 4459 
Q 909 4459 872 2369 
Q 1306 3066 1959 3066 
Q 2516 3066 2847 2622 
Q 3138 2231 3138 1625 
Q 3138 856 2722 422 
Q 2375 56 1850 56 
Q 1184 56 819 653 
Q 475 1209 475 2200 
Q 475 3606 941 4266 
Q 1325 4806 1997 4806 
Q 2716 4806 3041 4206 
z
M 884 1966 
Q 891 1138 1200 731 
Q 1450 403 1850 403 
Q 2284 403 2516 759 
Q 2722 1075 2722 1619 
Q 2722 2166 2469 2459 
Q 2250 2713 1897 2713 
Q 1297 2713 884 1966 
z
" transform="scale(0.015625)"/>
       </defs>
       <use xlink:href="#YuGothic-Regular-30"/>
       <use xlink:href="#YuGothic-Regular-2e" x="55.615234"/>
       <use xlink:href="#YuGothic-Regular-36" x="81.396484"/>
       <use xlink:href="#YuGothic-Regular-33" x="137.011719"/>
      </g>
     </g>
    </g>
    <g id="ytick_8">
     <g id="line2d_36">
      <g>
       <use xlink:href="#m95c26d26f2" x="45.0275" y="53.399403" style="stroke: #000000; stroke-width: 0.6"/>
      </g>
     </g>
     <g id="text_12">
      <!-- 0.90 -->
      <g transform="translate(18.366563 57.220496)scale(0.1 -0.1)">
       <defs>
        <path id="YuGothic-Regular-39" d="M 934 825 
Q 1153 403 1594 403 
Q 2144 403 2409 938 
Q 2663 1444 2694 2491 
Q 2319 1803 1638 1803 
Q 1078 1803 731 2250 
Q 422 2647 422 3244 
Q 422 3994 831 4431 
Q 1178 4806 1703 4806 
Q 2394 4806 2753 4216 
Q 3084 3669 3084 2669 
Q 3084 56 1594 56 
Q 866 56 556 628 
L 934 825 
z
M 2675 2894 
Q 2659 3700 2381 4103 
Q 2138 4459 1716 4459 
Q 1278 4459 1044 4091 
Q 838 3772 838 3244 
Q 838 2713 1106 2409 
Q 1338 2150 1691 2150 
Q 2294 2150 2675 2894 
z
" transform="scale(0.015625)"/>
       </defs>
       <use xlink:href="#YuGothic-Regular-30"/>
       <use xlink:href="#YuGothic-Regular-2e" x="55.615234"/>
       <use xlink:href="#YuGothic-Regular-39" x="81.396484"/>
       <use xlink:href="#YuGothic-Regular-30" x="137.011719"/>
      </g>
     </g>
    </g>
    <g id="text_13">
     <!-- 電圧[V] -->
     <g transform="translate(12.674375 118.029531)rotate(-90)scale(0.1 -0.1)">
      <defs>
       <path id="YuGothic-Regular-96fb" d="M 2975 641 
L 1472 641 
L 1472 313 
Q 1472 269 1428 269 
L 1222 269 
Q 1184 269 1184 313 
L 1197 903 
L 1197 1784 
L 1184 2381 
Q 1184 2431 1222 2431 
L 2181 2419 
L 4178 2419 
L 5109 2431 
Q 5153 2431 5153 2381 
L 5141 1822 
L 5141 1228 
L 5153 672 
Q 5153 628 5109 628 
L 4178 641 
L 3256 641 
L 3256 391 
Q 3256 188 3338 100 
Q 3400 31 3541 6 
Q 3769 -31 4441 -31 
Q 5269 -31 5522 141 
Q 5634 216 5681 391 
Q 5728 559 5741 903 
Q 5841 825 5947 781 
Q 6028 747 6028 703 
Q 6028 688 6022 641 
Q 5984 278 5888 103 
Q 5816 -25 5684 -109 
Q 5397 -294 4453 -294 
Q 3700 -294 3353 -231 
Q 2975 -163 2975 300 
L 2975 641 
z
M 2975 1444 
L 1472 1444 
L 1472 872 
L 2975 872 
L 2975 1444 
z
M 3256 1444 
L 3256 872 
L 4856 872 
L 4856 1444 
L 3256 1444 
z
M 2975 1663 
L 2975 2188 
L 1472 2188 
L 1472 1663 
L 2975 1663 
z
M 3256 1663 
L 4856 1663 
L 4856 2188 
L 3256 2188 
L 3256 1663 
z
M 3009 4288 
L 3009 4747 
L 1906 4747 
L 991 4734 
Q 947 4734 947 4781 
L 947 4966 
Q 947 5009 991 5009 
L 1906 4997 
L 4519 4997 
L 5434 5009 
Q 5478 5009 5478 4966 
L 5478 4781 
Q 5478 4734 5434 4734 
L 4519 4747 
L 3297 4747 
L 3297 4288 
L 4947 4288 
L 5831 4300 
Q 5881 4300 5881 4256 
L 5869 3972 
L 5869 3738 
L 5881 3097 
Q 5881 3050 5831 3050 
L 5625 3050 
Q 5581 3050 5581 3097 
L 5581 4050 
L 3297 4050 
L 3297 3347 
L 3309 2713 
Q 3309 2669 3266 2669 
L 3041 2669 
Q 2997 2669 2997 2713 
L 3009 3347 
L 3009 4050 
L 831 4050 
L 831 3097 
Q 831 3050 788 3050 
L 575 3050 
Q 531 3050 531 3097 
L 544 3738 
L 544 3941 
L 531 4256 
Q 531 4300 575 4300 
L 1459 4288 
L 3009 4288 
z
M 1766 3681 
L 2088 3681 
L 2516 3694 
Q 2559 3694 2559 3647 
L 2559 3500 
Q 2559 3456 2516 3456 
L 2088 3469 
L 1766 3469 
L 1338 3456 
Q 1294 3456 1294 3500 
L 1294 3647 
Q 1294 3694 1338 3694 
L 1766 3681 
z
M 1766 3103 
L 2088 3103 
L 2516 3116 
Q 2559 3116 2559 3072 
L 2559 2925 
Q 2559 2881 2516 2881 
L 2088 2894 
L 1766 2894 
L 1338 2881 
Q 1294 2881 1294 2925 
L 1294 3072 
Q 1294 3116 1338 3116 
L 1766 3103 
z
M 4250 3681 
L 4603 3681 
L 5056 3694 
Q 5100 3694 5100 3647 
L 5100 3500 
Q 5100 3456 5056 3456 
L 4603 3469 
L 4250 3469 
L 3803 3456 
Q 3756 3456 3756 3500 
L 3756 3647 
Q 3756 3694 3803 3694 
L 4250 3681 
z
M 4250 3103 
L 4603 3103 
L 5056 3116 
Q 5100 3116 5100 3072 
L 5100 2925 
Q 5100 2881 5056 2881 
L 4603 2894 
L 4250 2894 
L 3803 2881 
Q 3756 2881 3756 2925 
L 3756 3072 
Q 3756 3116 3803 3116 
L 4250 3103 
z
" transform="scale(0.015625)"/>
       <path id="YuGothic-Regular-5727" d="M 3425 269 
L 3425 2297 
L 2759 2297 
L 1875 2284 
Q 1831 2284 1831 2328 
L 1831 2547 
Q 1831 2591 1875 2591 
L 2759 2578 
L 3425 2578 
L 3425 3334 
Q 3425 3906 3381 4159 
Q 3578 4150 3722 4122 
Q 3788 4109 3788 4069 
Q 3788 4028 3763 3959 
Q 3725 3831 3725 3353 
L 3725 2578 
L 4519 2578 
L 5400 2591 
Q 5447 2591 5447 2547 
L 5447 2328 
Q 5447 2284 5400 2284 
L 4519 2297 
L 3725 2297 
L 3725 269 
L 4959 269 
L 5875 281 
Q 5919 281 5919 238 
L 5919 13 
Q 5919 -25 5875 -25 
L 4959 -13 
L 2291 -13 
L 1384 -25 
Q 1338 -25 1338 13 
L 1338 238 
Q 1338 281 1384 281 
L 2291 269 
L 3425 269 
z
M 1325 4519 
L 1325 3481 
Q 1325 2188 1191 1466 
Q 1028 506 616 -216 
Q 578 -281 559 -281 
Q 544 -281 494 -231 
Q 400 -138 275 -97 
Q 741 588 903 1575 
Q 1025 2244 1025 3481 
L 1013 4769 
Q 1013 4813 1056 4813 
L 1972 4800 
L 4878 4800 
L 5778 4813 
Q 5825 4813 5825 4769 
L 5825 4550 
Q 5825 4506 5778 4506 
L 4878 4519 
L 1325 4519 
z
" transform="scale(0.015625)"/>
       <path id="YuGothic-Regular-56" d="M 3891 4806 
L 2338 141 
L 1791 141 
L 263 4806 
L 722 4806 
L 1631 1913 
Q 1722 1631 1856 1175 
Q 2013 653 2053 513 
L 2119 513 
Q 2319 1228 2528 1900 
L 3463 4806 
L 3891 4806 
z
" transform="scale(0.015625)"/>
      </defs>
      <use xlink:href="#YuGothic-Regular-96fb"/>
      <use xlink:href="#YuGothic-Regular-5727" x="100"/>
      <use xlink:href="#YuGothic-Regular-5b" x="200"/>
      <use xlink:href="#YuGothic-Regular-56" x="238.623047"/>
      <use xlink:href="#YuGothic-Regular-5d" x="303.515625"/>
     </g>
    </g>
   </g>
   <g id="patch_3">
    <path d="M 103.986132 162.068846 
Q 185.07975 162.068846 266.173369 162.068846 
" clip-path="url(#p2f706b643b)" style="fill: none; stroke: #808080; stroke-linecap: round"/>
    <path d="M 111.986132 166.068846 
L 103.986132 162.068846 
L 111.986132 158.068846 
" clip-path="url(#p2f706b643b)" style="fill: none; stroke: #808080; stroke-linecap: round"/>
    <path d="M 258.173369 158.068846 
L 266.173369 162.068846 
L 258.173369 166.068846 
" clip-path="url(#p2f706b643b)" style="fill: none; stroke: #808080; stroke-linecap: round"/>
   </g>
   <g id="line2d_37">
    <path d="M 45.0275 175.656923 
L 94.974444 175.656923 
L 95.473914 39.776154 
L 495.049469 39.776154 
L 495.049469 39.776154 
" clip-path="url(#p2f706b643b)" style="fill: none; stroke: #1f77b4; stroke-width: 1.5; stroke-linecap: square"/>
   </g>
   <g id="line2d_38">
    <path d="M 45.0275 175.656923 
L 94.974444 175.656923 
L 95.473914 175.204992 
L 99.969139 167.31823 
L 104.464364 159.890758 
L 108.959589 152.895828 
L 113.454814 146.308251 
L 117.950039 140.104305 
L 122.445264 134.261648 
L 126.940489 128.759241 
L 131.435714 123.57727 
L 136.430408 118.172683 
L 141.425103 113.116655 
L 146.419797 108.386705 
L 151.414492 103.961803 
L 156.409186 99.822277 
L 161.403881 95.949722 
L 166.898044 91.977746 
L 172.392208 88.286624 
L 177.886372 84.856498 
L 183.880006 81.390556 
L 189.873639 78.191089 
L 195.867272 75.237609 
L 202.360375 72.293695 
L 208.853478 69.594176 
L 215.84605 66.937087 
L 222.838622 64.516771 
L 230.330664 62.16239 
L 238.322175 59.897468 
L 246.313686 57.861699 
L 254.804667 55.923887 
L 263.795117 54.097908 
L 273.285036 52.39401 
L 283.773894 50.745591 
L 294.762222 49.24916 
L 306.749489 47.848517 
L 319.735694 46.56386 
L 333.720839 45.408051 
L 349.204392 44.356523 
L 366.186353 43.427562 
L 385.665661 42.591578 
L 407.642317 41.875823 
L 433.614728 41.260706 
L 464.581833 40.758098 
L 495.049469 40.429998 
L 495.049469 40.429998 
" clip-path="url(#p2f706b643b)" style="fill: none; stroke: #ff7f0e; stroke-width: 1.5; stroke-linecap: square"/>
   </g>
   <g id="line2d_39">
    <path d="M 52.329885 253 
L 192.37756 -1 
L 192.37756 -1 
" clip-path="url(#p2f706b643b)" style="fill: none; stroke: #2ca02c; stroke-width: 1.5; stroke-linecap: square"/>
   </g>
   <g id="LineCollection_1">
    <path d="M -1 89.763895 
L 169.894861 89.763895 
" clip-path="url(#p2f706b643b)" style="fill: none; stroke-dasharray: 1.5,2.475; stroke-dashoffset: 0; stroke: #000000; stroke-width: 1.5"/>
   </g>
   <g id="LineCollection_2">
    <path d="M 169.894861 189.245 
L 169.894861 89.763895 
" clip-path="url(#p2f706b643b)" style="fill: none; stroke-dasharray: 1.5,2.475; stroke-dashoffset: 0; stroke: #000000; stroke-width: 1.5"/>
   </g>
   <g id="LineCollection_3">
    <path d="M -1 53.399403 
L 267.291403 53.399403 
" clip-path="url(#p2f706b643b)" style="fill: none; stroke-dasharray: 1.5,2.475; stroke-dashoffset: 0; stroke: #000000; stroke-width: 1.5"/>
   </g>
   <g id="LineCollection_4">
    <path d="M 267.291403 189.245 
L 267.291403 53.399403 
" clip-path="url(#p2f706b643b)" style="fill: none; stroke-dasharray: 1.5,2.475; stroke-dashoffset: 0; stroke: #000000; stroke-width: 1.5"/>
   </g>
   <g id="LineCollection_5">
    <path d="M -1 162.068846 
L 102.868098 162.068846 
" clip-path="url(#p2f706b643b)" style="fill: none; stroke-dasharray: 1.5,2.475; stroke-dashoffset: 0; stroke: #000000; stroke-width: 1.5"/>
   </g>
   <g id="LineCollection_6">
    <path d="M 102.868098 189.245 
L 102.868098 162.068846 
" clip-path="url(#p2f706b643b)" style="fill: none; stroke-dasharray: 1.5,2.475; stroke-dashoffset: 0; stroke: #000000; stroke-width: 1.5"/>
   </g>
   <g id="LineCollection_7">
    <path d="M 169.894861 189.245 
L 169.894861 39.776154 
" clip-path="url(#p2f706b643b)" style="fill: none; stroke-dasharray: 1.5,2.475; stroke-dashoffset: 0; stroke: #000000; stroke-width: 1.5"/>
   </g>
   <g id="patch_4">
    <path d="M 45.0275 189.245 
L 45.0275 12.6 
" style="fill: none; stroke: #000000; stroke-width: 0.8; stroke-linejoin: miter; stroke-linecap: square"/>
   </g>
   <g id="patch_5">
    <path d="M 494.55 189.245 
L 494.55 12.6 
" style="fill: none; stroke: #000000; stroke-width: 0.8; stroke-linejoin: miter; stroke-linecap: square"/>
   </g>
   <g id="patch_6">
    <path d="M 45.0275 189.245 
L 494.55 189.245 
" style="fill: none; stroke: #000000; stroke-width: 0.8; stroke-linejoin: miter; stroke-linecap: square"/>
   </g>
   <g id="patch_7">
    <path d="M 45.0275 12.6 
L 494.55 12.6 
" style="fill: none; stroke: #000000; stroke-width: 0.8; stroke-linejoin: miter; stroke-linecap: square"/>
   </g>
   <g id="text_14">
    <g id="patch_8">
     <path d="M 273.280792 169.186346 
L 393.280792 169.186346 
L 393.280792 145.458846 
L 273.280792 145.458846 
z
" style="fill: #00ffff; stroke: #000000; stroke-linejoin: miter"/>
    </g>
    <!-- 立ち上がり時間 -->
    <g transform="translate(277.280792 162.068846)scale(0.16 -0.16)">
     <defs>
      <path id="YuGothic-Bold-7acb" d="M 1181 -184 
L 388 -197 
Q 325 -197 325 -128 
L 325 413 
Q 325 481 388 481 
L 1181 469 
L 3428 469 
Q 3800 1406 4147 2703 
Q 4225 3034 4247 3316 
Q 4753 3188 4975 3100 
Q 5053 3075 5053 3009 
Q 5053 2947 4991 2881 
Q 4925 2809 4869 2625 
Q 4550 1528 4134 469 
L 5216 469 
L 6009 481 
Q 6059 481 6069 469 
Q 6078 456 6078 413 
L 6078 -128 
Q 6078 -175 6067 -186 
Q 6056 -197 6009 -197 
L 5216 -184 
L 1181 -184 
z
M 1541 3591 
L 691 3578 
Q 641 3578 628 3594 
Q 619 3606 619 3656 
L 619 4175 
Q 619 4228 631 4241 
Q 644 4250 691 4250 
L 1541 4238 
L 2809 4238 
L 2809 4731 
Q 2809 5131 2763 5319 
Q 3084 5319 3466 5288 
Q 3569 5275 3569 5216 
Q 3569 5194 3531 5088 
Q 3500 5003 3500 4731 
L 3500 4238 
L 4869 4238 
L 5728 4250 
Q 5778 4250 5788 4234 
Q 5797 4222 5797 4175 
L 5797 3656 
Q 5797 3600 5784 3588 
Q 5772 3578 5728 3578 
L 4869 3591 
L 1541 3591 
z
M 2034 3219 
Q 2509 2125 2675 1069 
Q 2681 1038 2681 1025 
Q 2681 984 2597 959 
L 2097 794 
Q 2047 775 2025 775 
Q 1988 775 1975 838 
Q 1819 1953 1375 2988 
Q 1363 3022 1363 3034 
Q 1363 3063 1444 3091 
L 1913 3256 
Q 1959 3275 1981 3275 
Q 2013 3275 2034 3219 
z
" transform="scale(0.015625)"/>
      <path id="YuGothic-Bold-3061" d="M 2016 3994 
Q 2044 4172 2094 4581 
Q 2109 4756 2109 4884 
Q 2109 5050 2081 5203 
Q 2584 5150 2850 5069 
Q 2978 5028 2978 4953 
Q 2978 4909 2934 4850 
Q 2847 4741 2825 4616 
Q 2759 4259 2734 4091 
Q 3400 4184 3938 4328 
Q 3984 4341 4006 4341 
Q 4059 4341 4072 4263 
Q 4116 4006 4116 3791 
Q 4116 3703 4038 3688 
Q 3209 3503 2606 3425 
Q 2478 2659 2313 2016 
Q 3091 2694 4147 2694 
Q 4819 2694 5228 2291 
Q 5575 1953 5575 1484 
Q 5575 656 4844 191 
Q 4325 -147 3213 -322 
Q 2934 -366 2741 -366 
Q 2644 -366 2581 -213 
Q 2444 72 2234 244 
Q 2963 288 3366 372 
Q 3703 444 4072 594 
Q 4800 897 4800 1497 
Q 4800 1781 4594 1950 
Q 4397 2106 4072 2106 
Q 3525 2106 3047 1859 
Q 2641 1647 2388 1313 
L 2209 1069 
Q 2150 972 2103 972 
Q 2097 972 2088 972 
Q 1878 991 1606 1113 
Q 1466 1175 1466 1241 
Q 1466 1294 1491 1369 
Q 1522 1478 1575 1672 
Q 1744 2344 1916 3347 
Q 1134 3291 841 3291 
Q 738 3291 719 3381 
Q 675 3553 628 3938 
Q 1278 3938 2016 3994 
z
" transform="scale(0.015625)"/>
      <path id="YuGothic-Bold-4e0a" d="M 1303 -147 
L 491 -159 
Q 438 -159 428 -147 
Q 419 -134 419 -91 
L 419 494 
Q 419 544 431 553 
Q 444 563 491 563 
L 1303 550 
L 2653 550 
L 2653 4159 
Q 2653 4900 2600 5228 
Q 3075 5216 3350 5184 
Q 3466 5172 3466 5100 
Q 3466 5072 3419 4953 
Q 3375 4831 3375 4341 
L 3375 3328 
L 4628 3328 
L 5416 3341 
Q 5466 3341 5478 3328 
Q 5488 3316 5488 3272 
L 5488 2688 
Q 5488 2638 5472 2628 
Q 5463 2619 5416 2619 
L 4628 2631 
L 3375 2631 
L 3375 550 
L 5122 550 
L 5934 563 
Q 5984 563 5994 550 
Q 6003 538 6003 494 
L 6003 -91 
Q 6003 -138 5992 -148 
Q 5981 -159 5934 -159 
L 5122 -147 
L 1303 -147 
z
" transform="scale(0.015625)"/>
      <path id="YuGothic-Bold-304c" d="M 4613 4613 
L 4953 4850 
Q 4972 4866 4991 4866 
Q 5016 4866 5047 4838 
Q 5375 4584 5656 4153 
Q 5675 4128 5675 4106 
Q 5675 4078 5638 4050 
L 5369 3853 
Q 5341 3831 5319 3831 
Q 5288 3831 5259 3872 
Q 4963 4328 4613 4613 
z
M 5203 5038 
L 5522 5269 
Q 5547 5284 5563 5284 
Q 5584 5284 5619 5256 
Q 5984 4975 6225 4594 
Q 6244 4566 6244 4544 
Q 6244 4509 6206 4481 
L 5950 4281 
Q 5922 4259 5900 4259 
Q 5869 4259 5841 4300 
Q 5572 4728 5203 5038 
z
M 2053 3578 
Q 2150 3925 2244 4384 
Q 2309 4769 2309 5094 
Q 2778 4994 3075 4884 
Q 3178 4853 3178 4756 
Q 3178 4703 3134 4659 
Q 3056 4559 3006 4416 
Q 2959 4272 2884 4009 
Q 2813 3769 2775 3647 
Q 3009 3675 3288 3675 
Q 4203 3675 4203 2441 
Q 4203 1863 4100 1281 
Q 4006 747 3856 434 
Q 3584 -166 2994 -166 
Q 2541 -166 2328 -69 
Q 2213 -22 2213 109 
Q 2175 506 2091 703 
Q 2447 538 2828 538 
Q 2997 538 3088 619 
Q 3166 694 3238 878 
Q 3488 1541 3488 2472 
Q 3488 2828 3400 2950 
Q 3319 3059 3122 3059 
Q 2909 3059 2584 3016 
Q 1956 1188 1297 6 
Q 1263 -72 1203 -72 
Q 1172 -72 1131 -50 
Q 834 94 688 231 
Q 638 281 638 325 
Q 638 363 663 397 
Q 1422 1713 1834 2906 
Q 1616 2872 1209 2797 
Q 1038 2763 856 2694 
Q 813 2678 778 2678 
Q 688 2678 650 2778 
Q 559 3016 453 3438 
Q 806 3438 1297 3481 
Q 1644 3516 2053 3578 
z
M 4263 3628 
Q 4622 3872 4778 3956 
Q 4803 3969 4822 3969 
Q 4856 3969 4900 3925 
Q 5628 3241 5963 2369 
Q 5978 2334 5978 2313 
Q 5978 2275 5938 2241 
Q 5756 2072 5456 1922 
Q 5422 1903 5391 1903 
Q 5328 1903 5309 1972 
Q 4916 3013 4263 3628 
z
" transform="scale(0.015625)"/>
      <path id="YuGothic-Bold-308a" d="M 1769 5119 
Q 2241 5025 2466 4922 
Q 2588 4875 2588 4794 
Q 2588 4744 2544 4691 
Q 2484 4622 2428 4391 
Q 2341 3969 2250 3169 
Q 2225 2747 2225 2625 
Q 2225 2541 2228 2463 
Q 2459 2875 2675 3284 
Q 2747 3050 2875 2869 
Q 2913 2822 2913 2766 
Q 2913 2700 2850 2606 
Q 2550 2034 2472 1788 
Q 2450 1722 2438 1594 
Q 2438 1513 2356 1494 
Q 2238 1463 1844 1416 
Q 1781 1406 1753 1500 
Q 1563 2016 1563 2797 
Q 1563 3209 1716 4391 
Q 1769 4838 1769 5119 
z
M 3816 5106 
Q 4356 5081 4547 5031 
Q 4678 4997 4678 4913 
Q 4678 4891 4675 4856 
Q 4659 4769 4659 4563 
Q 4750 3353 4750 2913 
Q 4750 1444 4263 691 
Q 3888 91 3206 -341 
Q 3144 -384 3078 -384 
Q 3016 -384 2944 -313 
Q 2703 -103 2400 -19 
Q 3159 403 3491 838 
Q 3797 1256 3916 1734 
Q 4028 2188 4028 2881 
Q 4028 3706 3950 4409 
Q 3909 4809 3816 5106 
z
" transform="scale(0.015625)"/>
      <path id="YuGothic-Bold-6642" d="M 2322 263 
Q 2322 213 2311 202 
Q 2300 191 2253 191 
L 1791 191 
Q 1728 191 1728 263 
L 1728 544 
L 1138 544 
L 1138 38 
Q 1138 -31 1075 -31 
L 600 -31 
Q 550 -31 541 -19 
Q 531 -6 531 38 
L 544 2009 
L 544 3403 
L 531 4941 
Q 531 4991 544 5000 
Q 556 5009 603 5009 
L 1150 4997 
L 1703 4997 
L 2253 5009 
Q 2303 5009 2313 4997 
Q 2322 4984 2322 4941 
L 2309 3647 
L 2309 2181 
L 2322 263 
z
M 1138 1125 
L 1728 1125 
L 1728 2509 
L 1138 2509 
L 1138 1125 
z
M 1728 4416 
L 1138 4416 
L 1138 3091 
L 1728 3091 
L 1728 4416 
z
M 3431 2828 
L 2572 2816 
Q 2516 2816 2506 2831 
Q 2497 2844 2497 2891 
L 2497 3334 
Q 2497 3384 2509 3394 
Q 2522 3403 2572 3403 
L 3431 3391 
L 3891 3391 
L 3891 4050 
L 3591 4050 
L 2784 4038 
Q 2728 4038 2716 4050 
Q 2706 4063 2706 4109 
L 2706 4556 
Q 2706 4609 2722 4622 
Q 2734 4631 2784 4631 
L 3591 4619 
L 3891 4619 
Q 3881 5094 3847 5344 
Q 4169 5334 4506 5297 
Q 4609 5288 4609 5234 
Q 4609 5203 4569 5100 
Q 4538 5028 4538 4619 
L 4966 4619 
L 5778 4631 
Q 5831 4631 5841 4619 
Q 5850 4606 5850 4556 
L 5850 4109 
Q 5850 4056 5838 4047 
Q 5825 4038 5778 4038 
L 4966 4050 
L 4538 4050 
L 4538 3391 
L 5216 3391 
L 6075 3403 
Q 6128 3403 6141 3391 
Q 6150 3378 6150 3334 
L 6150 2891 
Q 6150 2838 6138 2825 
Q 6125 2816 6075 2816 
L 5216 2828 
L 3431 2828 
z
M 3456 1625 
L 2603 1613 
Q 2547 1613 2538 1625 
Q 2528 1638 2528 1681 
L 2528 2131 
Q 2528 2181 2541 2191 
Q 2553 2200 2603 2200 
L 3456 2188 
L 4716 2188 
Q 4709 2456 4672 2750 
Q 5072 2728 5316 2694 
Q 5425 2672 5425 2622 
Q 5425 2578 5394 2513 
Q 5363 2450 5363 2188 
L 6003 2200 
Q 6056 2200 6069 2188 
Q 6078 2175 6078 2131 
L 6078 1681 
Q 6078 1634 6067 1623 
Q 6056 1613 6003 1613 
Q 5994 1613 5919 1616 
Q 5669 1622 5363 1625 
L 5363 991 
L 5369 203 
Q 5369 -181 5144 -341 
Q 4938 -481 4313 -481 
Q 4159 -481 4128 -453 
Q 4100 -425 4069 -288 
Q 4006 -22 3878 178 
Q 4175 153 4503 153 
Q 4716 153 4716 353 
L 4716 1625 
L 3456 1625 
z
M 3481 1441 
Q 3794 1119 4069 703 
Q 4094 669 4094 650 
Q 4094 622 4038 581 
L 3647 313 
Q 3591 275 3572 275 
Q 3547 275 3519 319 
Q 3278 728 2956 1106 
Q 2925 1141 2925 1159 
Q 2925 1184 2988 1222 
L 3347 1447 
Q 3394 1475 3419 1475 
Q 3444 1475 3481 1441 
z
" transform="scale(0.015625)"/>
      <path id="YuGothic-Bold-9593" d="M 4409 250 
Q 4656 219 4947 219 
Q 5113 219 5166 278 
Q 5209 331 5209 469 
L 5209 3022 
L 4159 3022 
L 3459 3009 
Q 3406 3009 3397 3025 
Q 3388 3038 3388 3088 
L 3400 3647 
L 3400 4531 
L 3388 5094 
Q 3388 5150 3400 5163 
Q 3413 5172 3459 5172 
L 4159 5159 
L 5100 5159 
L 5813 5172 
Q 5863 5172 5872 5156 
Q 5881 5144 5881 5094 
L 5869 4250 
L 5869 1622 
L 5894 347 
Q 5894 -75 5709 -244 
Q 5597 -344 5397 -381 
Q 5200 -416 4794 -416 
Q 4641 -416 4616 -388 
Q 4591 -363 4563 -216 
Q 4503 63 4409 250 
z
M 4028 3481 
L 5209 3481 
L 5209 3866 
L 4028 3866 
L 4028 3481 
z
M 5209 4678 
L 4028 4678 
L 4028 4300 
L 5209 4300 
L 5209 4678 
z
M 2234 5159 
L 2881 5172 
Q 2925 5172 2934 5156 
Q 2944 5144 2944 5094 
L 2931 4488 
L 2931 3694 
L 2944 3088 
Q 2944 3031 2931 3019 
Q 2922 3009 2881 3009 
L 2234 3022 
L 1197 3022 
L 1197 950 
L 1209 -416 
Q 1209 -466 1197 -475 
Q 1184 -484 1141 -484 
L 594 -484 
Q 547 -484 536 -473 
Q 525 -463 525 -416 
L 538 950 
L 538 3719 
L 525 5094 
Q 525 5150 538 5163 
Q 550 5172 597 5172 
L 1350 5159 
L 2234 5159 
z
M 2303 3481 
L 2303 3866 
L 1197 3866 
L 1197 3481 
L 2303 3481 
z
M 2303 4678 
L 1197 4678 
L 1197 4300 
L 2303 4300 
L 2303 4678 
z
M 2516 -44 
L 2063 -44 
Q 2009 -44 2000 -31 
Q 1991 -19 1991 31 
L 2003 1191 
L 2003 1753 
L 1991 2553 
Q 1991 2606 2003 2616 
Q 2016 2625 2063 2625 
L 2747 2613 
L 3609 2613 
L 4297 2625 
Q 4347 2625 4356 2613 
Q 4366 2600 4366 2553 
L 4353 1863 
L 4353 1228 
L 4366 97 
Q 4366 47 4355 36 
Q 4344 25 4297 25 
L 3834 25 
Q 3784 25 3775 38 
Q 3766 50 3766 97 
L 3766 294 
L 2594 294 
L 2594 31 
Q 2594 -22 2581 -33 
Q 2569 -44 2516 -44 
z
M 2594 781 
L 3766 781 
L 3766 1228 
L 2594 1228 
L 2594 781 
z
M 2594 2119 
L 2594 1688 
L 3766 1688 
L 3766 2119 
L 2594 2119 
z
" transform="scale(0.015625)"/>
     </defs>
     <use xlink:href="#YuGothic-Bold-7acb"/>
     <use xlink:href="#YuGothic-Bold-3061" x="100"/>
     <use xlink:href="#YuGothic-Bold-4e0a" x="200"/>
     <use xlink:href="#YuGothic-Bold-304c" x="300"/>
     <use xlink:href="#YuGothic-Bold-308a" x="400"/>
     <use xlink:href="#YuGothic-Bold-6642" x="500"/>
     <use xlink:href="#YuGothic-Bold-9593" x="600"/>
    </g>
   </g>
   <g id="legend_1">
    <g id="patch_9">
     <path d="M 436.95 184.245 
L 487.55 184.245 
Q 489.55 184.245 489.55 182.245 
L 489.55 154.460625 
Q 489.55 152.460625 487.55 152.460625 
L 436.95 152.460625 
Q 434.95 152.460625 434.95 154.460625 
L 434.95 182.245 
Q 434.95 184.245 436.95 184.245 
z
" style="fill: #ffffff; opacity: 0.8; stroke: #cccccc; stroke-linejoin: miter"/>
    </g>
    <g id="line2d_40">
     <path d="M 438.95 160.602812 
L 448.95 160.602812 
L 458.95 160.602812 
" style="fill: none; stroke: #1f77b4; stroke-width: 1.5; stroke-linecap: square"/>
    </g>
    <g id="text_15">
     <!-- $V_{in}$ -->
     <g transform="translate(466.95 164.102812)scale(0.1 -0.1)">
      <defs>
       <path id="DejaVuSans-Oblique-56" d="M 1319 0 
L 500 4666 
L 1119 4666 
L 1797 653 
L 4063 4666 
L 4750 4666 
L 2053 0 
L 1319 0 
z
" transform="scale(0.015625)"/>
       <path id="DejaVuSans-Oblique-69" d="M 1172 4863 
L 1747 4863 
L 1606 4134 
L 1031 4134 
L 1172 4863 
z
M 909 3500 
L 1484 3500 
L 800 0 
L 225 0 
L 909 3500 
z
" transform="scale(0.015625)"/>
       <path id="DejaVuSans-Oblique-6e" d="M 3566 2113 
L 3156 0 
L 2578 0 
L 2988 2091 
Q 3016 2238 3031 2350 
Q 3047 2463 3047 2528 
Q 3047 2791 2881 2937 
Q 2716 3084 2419 3084 
Q 1956 3084 1622 2776 
Q 1288 2469 1184 1941 
L 800 0 
L 225 0 
L 903 3500 
L 1478 3500 
L 1363 2950 
Q 1603 3253 1940 3418 
Q 2278 3584 2650 3584 
Q 3113 3584 3367 3334 
Q 3622 3084 3622 2631 
Q 3622 2519 3608 2391 
Q 3594 2263 3566 2113 
z
" transform="scale(0.015625)"/>
      </defs>
      <use xlink:href="#DejaVuSans-Oblique-56" transform="translate(0 0.09375)"/>
      <use xlink:href="#DejaVuSans-Oblique-69" transform="translate(68.408203 -16.3125)scale(0.7)"/>
      <use xlink:href="#DejaVuSans-Oblique-6e" transform="translate(87.856445 -16.3125)scale(0.7)"/>
     </g>
    </g>
    <g id="line2d_41">
     <path d="M 438.95 174.945 
L 448.95 174.945 
L 458.95 174.945 
" style="fill: none; stroke: #ff7f0e; stroke-width: 1.5; stroke-linecap: square"/>
    </g>
    <g id="text_16">
     <!-- $V_{out}$ -->
     <g transform="translate(466.95 178.445)scale(0.1 -0.1)">
      <defs>
       <path id="DejaVuSans-Oblique-6f" d="M 1625 -91 
Q 1009 -91 651 289 
Q 294 669 294 1325 
Q 294 1706 417 2101 
Q 541 2497 738 2766 
Q 1047 3184 1428 3384 
Q 1809 3584 2291 3584 
Q 2888 3584 3255 3212 
Q 3622 2841 3622 2241 
Q 3622 1825 3500 1412 
Q 3378 1000 3181 728 
Q 2875 309 2494 109 
Q 2113 -91 1625 -91 
z
M 891 1344 
Q 891 869 1089 633 
Q 1288 397 1691 397 
Q 2269 397 2648 901 
Q 3028 1406 3028 2181 
Q 3028 2634 2825 2865 
Q 2622 3097 2228 3097 
Q 1903 3097 1650 2945 
Q 1397 2794 1197 2484 
Q 1050 2253 970 1956 
Q 891 1659 891 1344 
z
" transform="scale(0.015625)"/>
       <path id="DejaVuSans-Oblique-75" d="M 428 1388 
L 838 3500 
L 1416 3500 
L 1006 1409 
Q 975 1256 961 1147 
Q 947 1038 947 966 
Q 947 700 1109 554 
Q 1272 409 1569 409 
Q 2031 409 2368 721 
Q 2706 1034 2809 1563 
L 3194 3500 
L 3769 3500 
L 3091 0 
L 2516 0 
L 2631 550 
Q 2388 244 2052 76 
Q 1716 -91 1338 -91 
Q 878 -91 622 161 
Q 366 413 366 863 
Q 366 956 381 1097 
Q 397 1238 428 1388 
z
" transform="scale(0.015625)"/>
       <path id="DejaVuSans-Oblique-74" d="M 2706 3500 
L 2619 3053 
L 1472 3053 
L 1100 1153 
Q 1081 1047 1072 975 
Q 1063 903 1063 863 
Q 1063 663 1183 572 
Q 1303 481 1569 481 
L 2150 481 
L 2053 0 
L 1503 0 
Q 991 0 739 200 
Q 488 400 488 806 
Q 488 878 497 964 
Q 506 1050 525 1153 
L 897 3053 
L 409 3053 
L 500 3500 
L 978 3500 
L 1172 4494 
L 1747 4494 
L 1556 3500 
L 2706 3500 
z
" transform="scale(0.015625)"/>
      </defs>
      <use xlink:href="#DejaVuSans-Oblique-56" transform="translate(0 0.09375)"/>
      <use xlink:href="#DejaVuSans-Oblique-6f" transform="translate(68.408203 -16.3125)scale(0.7)"/>
      <use xlink:href="#DejaVuSans-Oblique-75" transform="translate(111.235352 -16.3125)scale(0.7)"/>
      <use xlink:href="#DejaVuSans-Oblique-74" transform="translate(155.600586 -16.3125)scale(0.7)"/>
     </g>
    </g>
   </g>
  </g>
 </g>
 <defs>
  <clipPath id="p2f706b643b">
   <rect x="45.0275" y="12.6" width="449.5225" height="176.645"/>
  </clipPath>
 </defs>
</svg>
