<?xml version="1.0" encoding="utf-8" standalone="no"?>
<!DOCTYPE svg PUBLIC "-//W3C//DTD SVG 1.1//EN"
  "http://www.w3.org/Graphics/SVG/1.1/DTD/svg11.dtd">
<svg xmlns:xlink="http://www.w3.org/1999/xlink" width="504pt" height="180pt" viewBox="0 0 504 180" xmlns="http://www.w3.org/2000/svg" version="1.1">
 <metadata>
  <rdf:RDF xmlns:dc="http://purl.org/dc/elements/1.1/" xmlns:cc="http://creativecommons.org/ns#" xmlns:rdf="http://www.w3.org/1999/02/22-rdf-syntax-ns#">
   <cc:Work>
    <dc:type rdf:resource="http://purl.org/dc/dcmitype/StillImage"/>
    <dc:date>2022-08-18T11:50:00.227468</dc:date>
    <dc:format>image/svg+xml</dc:format>
    <dc:creator>
     <cc:Agent>
      <dc:title>Matplotlib v3.5.3, https://matplotlib.org/</dc:title>
     </cc:Agent>
    </dc:creator>
   </cc:Work>
  </rdf:RDF>
 </metadata>
 <defs>
  <style type="text/css">*{stroke-linejoin: round; stroke-linecap: butt}</style>
 </defs>
 <g id="figure_1">
  <g id="patch_1">
   <path d="M 0 180 
L 504 180 
L 504 0 
L 0 0 
z
" style="fill: #ffffff"/>
  </g>
  <g id="axes_1">
   <g id="patch_2">
    <path d="M 45.38625 148.625 
L 488.525625 148.625 
L 488.525625 9 
L 45.38625 9 
z
" style="fill: #ffffff"/>
   </g>
   <g id="matplotlib.axis_1">
    <g id="xtick_1">
     <g id="line2d_1">
      <path d="M 79.473894 148.625 
L 79.473894 9 
" clip-path="url(#p2eef1ef30b)" style="fill: none; stroke: #b0b0b0; stroke-width: 0.8; stroke-linecap: square"/>
     </g>
     <g id="line2d_2"/>
     <g id="text_1">
      <!-- 0.0 -->
      <g transform="translate(72.623894 159.767187)scale(0.1 -0.1)">
       <defs>
        <path id="YuGothic-Regular-30" d="M 1788 4806 
Q 3150 4806 3150 2456 
Q 3150 56 1772 56 
Q 409 56 409 2444 
Q 409 4806 1788 4806 
z
M 1788 4453 
Q 1269 4453 1047 3938 
Q 838 3456 838 2456 
Q 838 1303 1100 819 
Q 1322 409 1772 409 
Q 2291 409 2516 950 
Q 2722 1444 2722 2450 
Q 2722 3591 2456 4059 
Q 2234 4453 1788 4453 
z
" transform="scale(0.015625)"/>
        <path id="YuGothic-Regular-2e" d="M 1147 794 
L 1147 141 
L 506 141 
L 506 794 
L 1147 794 
z
" transform="scale(0.015625)"/>
       </defs>
       <use xlink:href="#YuGothic-Regular-30"/>
       <use xlink:href="#YuGothic-Regular-2e" x="55.615234"/>
       <use xlink:href="#YuGothic-Regular-30" x="81.396484"/>
      </g>
     </g>
    </g>
    <g id="xtick_2">
     <g id="line2d_3">
      <path d="M 147.649183 148.625 
L 147.649183 9 
" clip-path="url(#p2eef1ef30b)" style="fill: none; stroke: #b0b0b0; stroke-width: 0.8; stroke-linecap: square"/>
     </g>
     <g id="line2d_4"/>
     <g id="text_2">
      <!-- 0.2 -->
      <g transform="translate(140.799183 159.767187)scale(0.1 -0.1)">
       <defs>
        <path id="YuGothic-Regular-32" d="M 459 3597 
Q 588 4228 988 4541 
Q 1325 4806 1819 4806 
Q 2406 4806 2750 4453 
Q 3059 4138 3059 3628 
Q 3059 3219 2838 2875 
Q 2628 2556 2094 2075 
Q 1191 1284 825 494 
L 3066 494 
L 3066 141 
L 422 141 
L 422 456 
Q 819 1406 1806 2309 
Q 2331 2800 2497 3088 
Q 2638 3331 2638 3628 
Q 2638 4038 2378 4263 
Q 2156 4453 1813 4453 
Q 1025 4453 863 3494 
L 459 3597 
z
" transform="scale(0.015625)"/>
       </defs>
       <use xlink:href="#YuGothic-Regular-30"/>
       <use xlink:href="#YuGothic-Regular-2e" x="55.615234"/>
       <use xlink:href="#YuGothic-Regular-32" x="81.396484"/>
      </g>
     </g>
    </g>
    <g id="xtick_3">
     <g id="line2d_5">
      <path d="M 215.824471 148.625 
L 215.824471 9 
" clip-path="url(#p2eef1ef30b)" style="fill: none; stroke: #b0b0b0; stroke-width: 0.8; stroke-linecap: square"/>
     </g>
     <g id="line2d_6"/>
     <g id="text_3">
      <!-- 0.4 -->
      <g transform="translate(208.974471 159.767187)scale(0.1 -0.1)">
       <defs>
        <path id="YuGothic-Regular-34" d="M 2553 4788 
L 2553 1572 
L 3231 1572 
L 3231 1241 
L 2553 1241 
L 2553 141 
L 2188 141 
L 2188 1241 
L 306 1241 
L 306 1553 
L 1997 4788 
L 2553 4788 
z
M 2188 1572 
L 2188 3488 
Q 2188 3678 2200 4459 
L 2138 4459 
Q 1944 3988 1719 3563 
L 697 1572 
L 2188 1572 
z
" transform="scale(0.015625)"/>
       </defs>
       <use xlink:href="#YuGothic-Regular-30"/>
       <use xlink:href="#YuGothic-Regular-2e" x="55.615234"/>
       <use xlink:href="#YuGothic-Regular-34" x="81.396484"/>
      </g>
     </g>
    </g>
    <g id="xtick_4">
     <g id="line2d_7">
      <path d="M 283.99976 148.625 
L 283.99976 9 
" clip-path="url(#p2eef1ef30b)" style="fill: none; stroke: #b0b0b0; stroke-width: 0.8; stroke-linecap: square"/>
     </g>
     <g id="line2d_8"/>
     <g id="text_4">
      <!-- 0.6 -->
      <g transform="translate(277.14976 159.767187)scale(0.1 -0.1)">
       <defs>
        <path id="YuGothic-Regular-36" d="M 3041 4206 
L 2656 4019 
Q 2459 4459 1984 4459 
Q 909 4459 872 2369 
Q 1306 3066 1959 3066 
Q 2516 3066 2847 2622 
Q 3138 2231 3138 1625 
Q 3138 856 2722 422 
Q 2375 56 1850 56 
Q 1184 56 819 653 
Q 475 1209 475 2200 
Q 475 3606 941 4266 
Q 1325 4806 1997 4806 
Q 2716 4806 3041 4206 
z
M 884 1966 
Q 891 1138 1200 731 
Q 1450 403 1850 403 
Q 2284 403 2516 759 
Q 2722 1075 2722 1619 
Q 2722 2166 2469 2459 
Q 2250 2713 1897 2713 
Q 1297 2713 884 1966 
z
" transform="scale(0.015625)"/>
       </defs>
       <use xlink:href="#YuGothic-Regular-30"/>
       <use xlink:href="#YuGothic-Regular-2e" x="55.615234"/>
       <use xlink:href="#YuGothic-Regular-36" x="81.396484"/>
      </g>
     </g>
    </g>
    <g id="xtick_5">
     <g id="line2d_9">
      <path d="M 352.175048 148.625 
L 352.175048 9 
" clip-path="url(#p2eef1ef30b)" style="fill: none; stroke: #b0b0b0; stroke-width: 0.8; stroke-linecap: square"/>
     </g>
     <g id="line2d_10"/>
     <g id="text_5">
      <!-- 0.8 -->
      <g transform="translate(345.325048 159.767187)scale(0.1 -0.1)">
       <defs>
        <path id="YuGothic-Regular-38" d="M 2144 2578 
Q 2753 2309 2988 1978 
Q 3181 1706 3181 1306 
Q 3181 684 2738 344 
Q 2363 56 1775 56 
Q 1103 56 719 425 
Q 372 756 372 1291 
Q 372 1728 650 2028 
Q 891 2288 1409 2528 
Q 891 2775 688 3072 
Q 513 3322 513 3688 
Q 513 4209 906 4528 
Q 1253 4806 1772 4806 
Q 2378 4806 2741 4456 
Q 3053 4153 3053 3706 
Q 3053 3288 2825 3022 
Q 2616 2784 2144 2578 
z
M 1831 2725 
Q 2328 2938 2509 3191 
Q 2656 3391 2656 3700 
Q 2656 4072 2381 4288 
Q 2144 4475 1772 4475 
Q 1353 4475 1116 4231 
Q 909 4019 909 3688 
Q 909 3366 1103 3159 
Q 1288 2966 1722 2778 
L 1831 2725 
z
M 1734 2375 
Q 1178 2125 963 1859 
Q 775 1628 775 1306 
Q 775 856 1078 613 
Q 1341 397 1775 397 
Q 2281 397 2550 672 
Q 2778 906 2778 1300 
Q 2778 1663 2550 1897 
Q 2341 2109 1844 2322 
L 1734 2375 
z
" transform="scale(0.015625)"/>
       </defs>
       <use xlink:href="#YuGothic-Regular-30"/>
       <use xlink:href="#YuGothic-Regular-2e" x="55.615234"/>
       <use xlink:href="#YuGothic-Regular-38" x="81.396484"/>
      </g>
     </g>
    </g>
    <g id="xtick_6">
     <g id="line2d_11">
      <path d="M 420.350337 148.625 
L 420.350337 9 
" clip-path="url(#p2eef1ef30b)" style="fill: none; stroke: #b0b0b0; stroke-width: 0.8; stroke-linecap: square"/>
     </g>
     <g id="line2d_12"/>
     <g id="text_6">
      <!-- 1.0 -->
      <g transform="translate(413.500337 159.767187)scale(0.1 -0.1)">
       <defs>
        <path id="YuGothic-Regular-31" d="M 2063 4794 
L 2063 481 
L 2925 481 
L 2925 141 
L 744 141 
L 744 481 
L 1666 481 
L 1666 4359 
Q 1259 4081 725 3878 
L 653 4250 
Q 1184 4428 1734 4794 
L 2063 4794 
z
" transform="scale(0.015625)"/>
       </defs>
       <use xlink:href="#YuGothic-Regular-31"/>
       <use xlink:href="#YuGothic-Regular-2e" x="55.615234"/>
       <use xlink:href="#YuGothic-Regular-30" x="81.396484"/>
      </g>
     </g>
    </g>
    <g id="xtick_7">
     <g id="line2d_13">
      <path d="M 488.525625 148.625 
L 488.525625 9 
" clip-path="url(#p2eef1ef30b)" style="fill: none; stroke: #b0b0b0; stroke-width: 0.8; stroke-linecap: square"/>
     </g>
     <g id="line2d_14"/>
     <g id="text_7">
      <!-- 1.2 -->
      <g transform="translate(481.675625 159.767187)scale(0.1 -0.1)">
       <use xlink:href="#YuGothic-Regular-31"/>
       <use xlink:href="#YuGothic-Regular-2e" x="55.615234"/>
       <use xlink:href="#YuGothic-Regular-32" x="81.396484"/>
      </g>
     </g>
    </g>
    <g id="text_8">
     <!-- 時間t[ms] -->
     <g transform="translate(244.485625 173.215625)scale(0.1 -0.1)">
      <defs>
       <path id="YuGothic-Regular-6642" d="M 4850 1863 
L 3341 1863 
L 2463 1850 
Q 2419 1850 2419 1894 
L 2419 2094 
Q 2419 2131 2463 2131 
L 3341 2125 
L 4850 2125 
L 4850 2169 
Q 4850 2647 4806 2853 
Q 5006 2844 5131 2816 
Q 5209 2806 5209 2772 
Q 5209 2741 5169 2663 
Q 5138 2581 5138 2181 
L 5138 2125 
L 5944 2131 
Q 5988 2131 5988 2094 
L 5988 1894 
Q 5988 1850 5944 1850 
L 5138 1863 
L 5138 909 
L 5144 84 
Q 5144 -197 4978 -313 
Q 4838 -409 4375 -409 
Q 4344 -409 4269 -409 
Q 4188 -409 4172 -394 
Q 4156 -378 4134 -306 
Q 4094 -172 4025 -84 
Q 4231 -109 4472 -109 
Q 4538 -109 4619 -106 
Q 4850 -106 4850 141 
L 4850 1863 
z
M 972 738 
L 972 194 
Q 972 156 928 156 
L 722 156 
Q 678 156 678 194 
L 691 2163 
L 691 3384 
L 678 4872 
Q 678 4916 722 4916 
L 1222 4903 
L 1631 4903 
L 2131 4916 
Q 2175 4916 2175 4872 
L 2163 3578 
L 2163 2284 
L 2175 406 
Q 2175 359 2131 359 
L 1931 359 
Q 1888 359 1888 406 
L 1888 738 
L 972 738 
z
M 972 2994 
L 1888 2994 
L 1888 4641 
L 972 4641 
L 972 2994 
z
M 972 2738 
L 972 994 
L 1888 994 
L 1888 2738 
L 972 2738 
z
M 3950 3238 
L 3950 4159 
L 3522 4159 
L 2697 4147 
Q 2644 4147 2644 4191 
L 2644 4384 
Q 2644 4428 2697 4428 
L 3522 4416 
L 3950 4416 
L 3950 4447 
Q 3950 5019 3906 5272 
Q 4025 5269 4238 5241 
Q 4300 5231 4300 5191 
Q 4300 5172 4275 5081 
Q 4238 4975 4238 4459 
L 4238 4416 
L 4866 4416 
L 5691 4428 
Q 5734 4428 5734 4384 
L 5734 4191 
Q 5734 4147 5691 4147 
L 4866 4159 
L 4238 4159 
L 4238 3238 
L 5134 3238 
L 6022 3250 
Q 6069 3250 6069 3206 
L 6069 3013 
Q 6069 2969 6022 2969 
L 5134 2981 
L 3309 2981 
L 2428 2969 
Q 2381 2969 2381 3013 
L 2381 3206 
Q 2381 3250 2428 3250 
L 3309 3238 
L 3950 3238 
z
M 3225 1434 
Q 3609 1097 3878 647 
Q 3888 631 3888 616 
Q 3888 594 3847 563 
L 3738 488 
Q 3678 447 3666 447 
Q 3650 447 3634 475 
Q 3378 925 3009 1275 
Q 2988 1291 2988 1303 
Q 2988 1322 3047 1363 
L 3134 1428 
Q 3175 1453 3191 1453 
Q 3203 1453 3225 1434 
z
" transform="scale(0.015625)"/>
       <path id="YuGothic-Regular-9593" d="M 2388 525 
L 2388 159 
Q 2388 116 2344 116 
L 2150 116 
Q 2106 116 2106 159 
L 2119 1281 
L 2119 1813 
L 2106 2534 
Q 2106 2578 2150 2578 
L 2809 2566 
L 3513 2566 
L 4172 2578 
Q 4209 2578 4209 2534 
L 4197 1900 
L 4197 1325 
L 4209 231 
Q 4209 184 4172 184 
L 3972 184 
Q 3928 184 3928 231 
L 3928 525 
L 2388 525 
z
M 2388 1684 
L 3928 1684 
L 3928 2322 
L 2388 2322 
L 2388 1684 
z
M 2388 1441 
L 2388 763 
L 3928 763 
L 3928 1441 
L 2388 1441 
z
M 5416 3141 
L 4213 3141 
L 3525 3128 
Q 3481 3128 3481 3172 
L 3488 3725 
L 3488 4444 
L 3481 4994 
Q 3481 5038 3525 5038 
L 4213 5025 
L 4988 5025 
L 5672 5038 
Q 5716 5038 5716 4994 
L 5703 4078 
L 5703 1100 
L 5722 263 
Q 5722 50 5681 -50 
Q 5647 -128 5563 -194 
Q 5422 -303 4938 -303 
Q 4897 -303 4800 -303 
Q 4725 -303 4709 -288 
Q 4697 -275 4678 -206 
Q 4644 -84 4575 13 
Q 4791 -16 5050 -16 
Q 5294 -16 5359 56 
Q 5416 119 5416 319 
L 5416 3141 
z
M 5416 3378 
L 5416 3981 
L 3769 3981 
L 3769 3378 
L 5416 3378 
z
M 5416 4219 
L 5416 4781 
L 3769 4781 
L 3769 4219 
L 5416 4219 
z
M 1428 5025 
L 2138 5025 
L 2778 5038 
Q 2822 5038 2822 4994 
L 2809 4416 
L 2809 3756 
L 2822 3172 
Q 2822 3128 2778 3128 
L 2138 3141 
L 972 3141 
L 972 953 
L 984 -347 
Q 984 -391 941 -391 
L 716 -391 
Q 672 -391 672 -347 
L 684 953 
L 684 3678 
L 672 4994 
Q 672 5038 716 5038 
L 1428 5025 
z
M 972 3981 
L 972 3378 
L 2528 3378 
L 2528 3981 
L 972 3981 
z
M 972 4219 
L 2528 4219 
L 2528 4781 
L 972 4781 
L 972 4219 
z
" transform="scale(0.015625)"/>
       <path id="YuGothic-Regular-74" d="M 1197 4488 
L 1197 3341 
L 2003 3341 
L 2003 3022 
L 1197 3022 
L 1197 941 
Q 1197 375 1672 375 
Q 1878 375 2088 422 
L 2059 97 
Q 1859 63 1606 63 
Q 800 63 800 863 
L 800 3022 
L 250 3022 
L 250 3341 
L 800 3341 
L 800 4397 
L 1197 4488 
z
" transform="scale(0.015625)"/>
       <path id="YuGothic-Regular-5b" d="M 2200 5459 
L 2200 5222 
L 1209 5222 
L 1209 -356 
L 2200 -356 
L 2200 -588 
L 856 -588 
L 856 5459 
L 2200 5459 
z
" transform="scale(0.015625)"/>
       <path id="YuGothic-Regular-6d" d="M 1019 3341 
L 1019 2747 
Q 1519 3419 2100 3419 
Q 2450 3419 2688 3206 
Q 2894 3025 2931 2753 
Q 3419 3419 4019 3419 
Q 4441 3419 4678 3147 
Q 4891 2906 4891 2516 
L 4891 141 
L 4494 141 
L 4494 2350 
Q 4494 3059 3909 3059 
Q 3644 3059 3369 2853 
Q 3138 2678 2956 2394 
L 2956 141 
L 2559 141 
L 2559 2350 
Q 2559 3059 1997 3059 
Q 1731 3059 1463 2863 
Q 1222 2691 1031 2394 
L 1031 141 
L 641 141 
L 641 3341 
L 1019 3341 
z
" transform="scale(0.015625)"/>
       <path id="YuGothic-Regular-73" d="M 2759 2663 
L 2375 2528 
Q 2194 3106 1594 3106 
Q 1231 3106 1034 2947 
Q 866 2809 866 2594 
Q 866 2325 1034 2197 
Q 1184 2081 1569 1997 
L 1825 1941 
Q 2419 1803 2641 1578 
Q 2844 1375 2844 1003 
Q 2844 563 2503 306 
Q 2181 63 1628 63 
Q 663 63 366 838 
L 750 984 
Q 963 375 1634 375 
Q 2078 375 2291 578 
Q 2453 734 2453 966 
Q 2453 1263 2284 1394 
Q 2125 1516 1691 1613 
L 1434 1672 
Q 869 1800 659 2034 
Q 488 2225 488 2559 
Q 488 2963 803 3197 
Q 1097 3419 1600 3419 
Q 2466 3419 2759 2663 
z
" transform="scale(0.015625)"/>
       <path id="YuGothic-Regular-5d" d="M 1613 5453 
L 1613 -588 
L 269 -588 
L 269 -356 
L 1259 -356 
L 1259 5222 
L 269 5222 
L 269 5453 
L 1613 5453 
z
" transform="scale(0.015625)"/>
      </defs>
      <use xlink:href="#YuGothic-Regular-6642"/>
      <use xlink:href="#YuGothic-Regular-9593" x="100"/>
      <use xlink:href="#YuGothic-Regular-74" x="200"/>
      <use xlink:href="#YuGothic-Regular-5b" x="235.205078"/>
      <use xlink:href="#YuGothic-Regular-6d" x="273.828125"/>
      <use xlink:href="#YuGothic-Regular-73" x="359.912109"/>
      <use xlink:href="#YuGothic-Regular-5d" x="410.791016"/>
     </g>
    </g>
   </g>
   <g id="matplotlib.axis_2">
    <g id="ytick_1">
     <g id="line2d_15">
      <path d="M 45.38625 136.989583 
L 488.525625 136.989583 
" clip-path="url(#p2eef1ef30b)" style="fill: none; stroke: #b0b0b0; stroke-width: 0.8; stroke-linecap: square"/>
     </g>
     <g id="line2d_16"/>
     <g id="text_9">
      <!-- −1.0 -->
      <g transform="translate(18.18625 140.810677)scale(0.1 -0.1)">
       <defs>
        <path id="YuGothic-Regular-2212" d="M 5000 2578 
L 5000 2291 
L 1403 2291 
L 1403 2578 
L 5000 2578 
z
" transform="scale(0.015625)"/>
       </defs>
       <use xlink:href="#YuGothic-Regular-2212"/>
       <use xlink:href="#YuGothic-Regular-31" x="100"/>
       <use xlink:href="#YuGothic-Regular-2e" x="155.615234"/>
       <use xlink:href="#YuGothic-Regular-30" x="181.396484"/>
      </g>
     </g>
    </g>
    <g id="ytick_2">
     <g id="line2d_17">
      <path d="M 45.38625 107.901042 
L 488.525625 107.901042 
" clip-path="url(#p2eef1ef30b)" style="fill: none; stroke: #b0b0b0; stroke-width: 0.8; stroke-linecap: square"/>
     </g>
     <g id="line2d_18"/>
     <g id="text_10">
      <!-- −0.5 -->
      <g transform="translate(18.18625 111.722135)scale(0.1 -0.1)">
       <defs>
        <path id="YuGothic-Regular-35" d="M 2906 4728 
L 2906 4375 
L 1016 4375 
L 959 3159 
Q 953 3022 922 2622 
Q 1066 2856 1325 2988 
Q 1556 3103 1819 3103 
Q 2397 3103 2753 2653 
Q 3072 2247 3072 1625 
Q 3072 850 2622 416 
Q 2253 56 1716 56 
Q 772 56 434 909 
L 825 1075 
Q 1059 403 1716 403 
Q 2172 403 2425 766 
Q 2650 1088 2650 1606 
Q 2650 2188 2381 2494 
Q 2147 2756 1759 2756 
Q 1447 2756 1209 2566 
Q 1003 2397 903 2116 
L 569 2169 
L 678 4728 
L 2906 4728 
z
" transform="scale(0.015625)"/>
       </defs>
       <use xlink:href="#YuGothic-Regular-2212"/>
       <use xlink:href="#YuGothic-Regular-30" x="100"/>
       <use xlink:href="#YuGothic-Regular-2e" x="155.615234"/>
       <use xlink:href="#YuGothic-Regular-35" x="181.396484"/>
      </g>
     </g>
    </g>
    <g id="ytick_3">
     <g id="line2d_19">
      <path d="M 45.38625 78.8125 
L 488.525625 78.8125 
" clip-path="url(#p2eef1ef30b)" style="fill: none; stroke: #b0b0b0; stroke-width: 0.8; stroke-linecap: square"/>
     </g>
     <g id="line2d_20"/>
     <g id="text_11">
      <!-- 0.0 -->
      <g transform="translate(28.18625 82.633594)scale(0.1 -0.1)">
       <use xlink:href="#YuGothic-Regular-30"/>
       <use xlink:href="#YuGothic-Regular-2e" x="55.615234"/>
       <use xlink:href="#YuGothic-Regular-30" x="81.396484"/>
      </g>
     </g>
    </g>
    <g id="ytick_4">
     <g id="line2d_21">
      <path d="M 45.38625 49.723958 
L 488.525625 49.723958 
" clip-path="url(#p2eef1ef30b)" style="fill: none; stroke: #b0b0b0; stroke-width: 0.8; stroke-linecap: square"/>
     </g>
     <g id="line2d_22"/>
     <g id="text_12">
      <!-- 0.5 -->
      <g transform="translate(28.18625 53.545052)scale(0.1 -0.1)">
       <use xlink:href="#YuGothic-Regular-30"/>
       <use xlink:href="#YuGothic-Regular-2e" x="55.615234"/>
       <use xlink:href="#YuGothic-Regular-35" x="81.396484"/>
      </g>
     </g>
    </g>
    <g id="ytick_5">
     <g id="line2d_23">
      <path d="M 45.38625 20.635417 
L 488.525625 20.635417 
" clip-path="url(#p2eef1ef30b)" style="fill: none; stroke: #b0b0b0; stroke-width: 0.8; stroke-linecap: square"/>
     </g>
     <g id="line2d_24"/>
     <g id="text_13">
      <!-- 1.0 -->
      <g transform="translate(28.18625 24.45651)scale(0.1 -0.1)">
       <use xlink:href="#YuGothic-Regular-31"/>
       <use xlink:href="#YuGothic-Regular-2e" x="55.615234"/>
       <use xlink:href="#YuGothic-Regular-30" x="81.396484"/>
      </g>
     </g>
    </g>
    <g id="text_14">
     <!-- 電圧[V] -->
     <g transform="translate(12.594062 95.919531)rotate(-90)scale(0.1 -0.1)">
      <defs>
       <path id="YuGothic-Regular-96fb" d="M 2975 641 
L 1472 641 
L 1472 313 
Q 1472 269 1428 269 
L 1222 269 
Q 1184 269 1184 313 
L 1197 903 
L 1197 1784 
L 1184 2381 
Q 1184 2431 1222 2431 
L 2181 2419 
L 4178 2419 
L 5109 2431 
Q 5153 2431 5153 2381 
L 5141 1822 
L 5141 1228 
L 5153 672 
Q 5153 628 5109 628 
L 4178 641 
L 3256 641 
L 3256 391 
Q 3256 188 3338 100 
Q 3400 31 3541 6 
Q 3769 -31 4441 -31 
Q 5269 -31 5522 141 
Q 5634 216 5681 391 
Q 5728 559 5741 903 
Q 5841 825 5947 781 
Q 6028 747 6028 703 
Q 6028 688 6022 641 
Q 5984 278 5888 103 
Q 5816 -25 5684 -109 
Q 5397 -294 4453 -294 
Q 3700 -294 3353 -231 
Q 2975 -163 2975 300 
L 2975 641 
z
M 2975 1444 
L 1472 1444 
L 1472 872 
L 2975 872 
L 2975 1444 
z
M 3256 1444 
L 3256 872 
L 4856 872 
L 4856 1444 
L 3256 1444 
z
M 2975 1663 
L 2975 2188 
L 1472 2188 
L 1472 1663 
L 2975 1663 
z
M 3256 1663 
L 4856 1663 
L 4856 2188 
L 3256 2188 
L 3256 1663 
z
M 3009 4288 
L 3009 4747 
L 1906 4747 
L 991 4734 
Q 947 4734 947 4781 
L 947 4966 
Q 947 5009 991 5009 
L 1906 4997 
L 4519 4997 
L 5434 5009 
Q 5478 5009 5478 4966 
L 5478 4781 
Q 5478 4734 5434 4734 
L 4519 4747 
L 3297 4747 
L 3297 4288 
L 4947 4288 
L 5831 4300 
Q 5881 4300 5881 4256 
L 5869 3972 
L 5869 3738 
L 5881 3097 
Q 5881 3050 5831 3050 
L 5625 3050 
Q 5581 3050 5581 3097 
L 5581 4050 
L 3297 4050 
L 3297 3347 
L 3309 2713 
Q 3309 2669 3266 2669 
L 3041 2669 
Q 2997 2669 2997 2713 
L 3009 3347 
L 3009 4050 
L 831 4050 
L 831 3097 
Q 831 3050 788 3050 
L 575 3050 
Q 531 3050 531 3097 
L 544 3738 
L 544 3941 
L 531 4256 
Q 531 4300 575 4300 
L 1459 4288 
L 3009 4288 
z
M 1766 3681 
L 2088 3681 
L 2516 3694 
Q 2559 3694 2559 3647 
L 2559 3500 
Q 2559 3456 2516 3456 
L 2088 3469 
L 1766 3469 
L 1338 3456 
Q 1294 3456 1294 3500 
L 1294 3647 
Q 1294 3694 1338 3694 
L 1766 3681 
z
M 1766 3103 
L 2088 3103 
L 2516 3116 
Q 2559 3116 2559 3072 
L 2559 2925 
Q 2559 2881 2516 2881 
L 2088 2894 
L 1766 2894 
L 1338 2881 
Q 1294 2881 1294 2925 
L 1294 3072 
Q 1294 3116 1338 3116 
L 1766 3103 
z
M 4250 3681 
L 4603 3681 
L 5056 3694 
Q 5100 3694 5100 3647 
L 5100 3500 
Q 5100 3456 5056 3456 
L 4603 3469 
L 4250 3469 
L 3803 3456 
Q 3756 3456 3756 3500 
L 3756 3647 
Q 3756 3694 3803 3694 
L 4250 3681 
z
M 4250 3103 
L 4603 3103 
L 5056 3116 
Q 5100 3116 5100 3072 
L 5100 2925 
Q 5100 2881 5056 2881 
L 4603 2894 
L 4250 2894 
L 3803 2881 
Q 3756 2881 3756 2925 
L 3756 3072 
Q 3756 3116 3803 3116 
L 4250 3103 
z
" transform="scale(0.015625)"/>
       <path id="YuGothic-Regular-5727" d="M 3425 269 
L 3425 2297 
L 2759 2297 
L 1875 2284 
Q 1831 2284 1831 2328 
L 1831 2547 
Q 1831 2591 1875 2591 
L 2759 2578 
L 3425 2578 
L 3425 3334 
Q 3425 3906 3381 4159 
Q 3578 4150 3722 4122 
Q 3788 4109 3788 4069 
Q 3788 4028 3763 3959 
Q 3725 3831 3725 3353 
L 3725 2578 
L 4519 2578 
L 5400 2591 
Q 5447 2591 5447 2547 
L 5447 2328 
Q 5447 2284 5400 2284 
L 4519 2297 
L 3725 2297 
L 3725 269 
L 4959 269 
L 5875 281 
Q 5919 281 5919 238 
L 5919 13 
Q 5919 -25 5875 -25 
L 4959 -13 
L 2291 -13 
L 1384 -25 
Q 1338 -25 1338 13 
L 1338 238 
Q 1338 281 1384 281 
L 2291 269 
L 3425 269 
z
M 1325 4519 
L 1325 3481 
Q 1325 2188 1191 1466 
Q 1028 506 616 -216 
Q 578 -281 559 -281 
Q 544 -281 494 -231 
Q 400 -138 275 -97 
Q 741 588 903 1575 
Q 1025 2244 1025 3481 
L 1013 4769 
Q 1013 4813 1056 4813 
L 1972 4800 
L 4878 4800 
L 5778 4813 
Q 5825 4813 5825 4769 
L 5825 4550 
Q 5825 4506 5778 4506 
L 4878 4519 
L 1325 4519 
z
" transform="scale(0.015625)"/>
       <path id="YuGothic-Regular-56" d="M 3891 4806 
L 2338 141 
L 1791 141 
L 263 4806 
L 722 4806 
L 1631 1913 
Q 1722 1631 1856 1175 
Q 2013 653 2053 513 
L 2119 513 
Q 2319 1228 2528 1900 
L 3463 4806 
L 3891 4806 
z
" transform="scale(0.015625)"/>
      </defs>
      <use xlink:href="#YuGothic-Regular-96fb"/>
      <use xlink:href="#YuGothic-Regular-5727" x="100"/>
      <use xlink:href="#YuGothic-Regular-5b" x="200"/>
      <use xlink:href="#YuGothic-Regular-56" x="238.623047"/>
      <use xlink:href="#YuGothic-Regular-5d" x="303.515625"/>
     </g>
    </g>
   </g>
   <g id="line2d_25">
    <path d="M 45.38625 78.8125 
L 79.473894 78.8125 
L 79.586383 20.635417 
L 488.529034 20.635417 
L 488.529034 20.635417 
" clip-path="url(#p2eef1ef30b)" style="fill: none; stroke: #1f77b4; stroke-width: 1.5; stroke-linecap: square"/>
   </g>
   <g id="line2d_26">
    <path d="M 45.38625 78.8125 
L 80.121559 78.701964 
L 488.529034 8.999418 
L 488.529034 8.999418 
" clip-path="url(#p2eef1ef30b)" style="fill: none; stroke: #ff7f0e; stroke-width: 1.5; stroke-linecap: square"/>
   </g>
   <g id="line2d_27">
    <path d="M 45.38625 78.8125 
L 488.529034 78.8125 
L 488.529034 78.8125 
" clip-path="url(#p2eef1ef30b)" style="fill: none; stroke: #2ca02c; stroke-width: 1.5; stroke-linecap: square"/>
   </g>
   <g id="line2d_28">
    <path d="M 45.38625 78.8125 
L 79.484121 78.702839 
L 82.183862 50.945776 
L 83.574638 38.907677 
L 84.67226 31.214936 
L 85.5824 26.297476 
L 86.342555 23.31583 
L 86.969767 21.672754 
L 87.474264 20.904032 
L 87.876499 20.649484 
L 88.217375 20.683929 
L 88.568478 20.959232 
L 88.980938 21.591914 
L 89.482027 22.804803 
L 90.085378 24.897551 
L 90.801218 28.24187 
L 91.650001 33.340851 
L 92.662404 40.863002 
L 93.910012 51.913293 
L 95.62462 69.278617 
L 99.571969 109.861788 
L 100.880935 120.717978 
L 101.930834 127.696604 
L 102.803478 132.117305 
L 103.532954 134.760465 
L 104.132896 136.178933 
L 104.613532 136.810243 
L 104.995313 136.987643 
L 105.332781 136.904671 
L 105.69411 136.566762 
L 106.123614 135.832164 
L 106.645155 134.460567 
L 107.272368 132.131938 
L 108.015479 128.454777 
L 108.89494 122.907949 
L 109.951657 114.729021 
L 111.26744 102.686556 
L 113.189983 82.793744 
L 116.326046 50.433793 
L 117.703187 38.589623 
L 118.793992 31.005691 
L 119.697314 26.172301 
L 120.450651 23.250419 
L 121.074455 21.638675 
L 121.575544 20.89018 
L 121.974369 20.647176 
L 122.311837 20.686959 
L 122.662939 20.96698 
L 123.078809 21.611819 
L 123.583306 22.844536 
L 124.190066 24.966484 
L 124.909315 28.350655 
L 125.761506 33.500898 
L 126.780727 41.112961 
L 128.038561 52.302995 
L 129.777031 69.964412 
L 133.608482 109.396729 
L 134.927674 120.412522 
L 135.9878 127.517456 
L 136.867261 132.014284 
L 137.600145 134.699938 
L 138.203496 136.148245 
L 138.687541 136.798588 
L 139.072731 136.986644 
L 139.410199 136.91049 
L 139.771528 136.579856 
L 140.201032 135.853828 
L 140.719165 134.503033 
L 141.342969 132.204787 
L 142.08267 128.568785 
L 142.958723 123.074432 
L 144.008622 114.987249 
L 145.317588 103.052658 
L 147.212861 83.486336 
L 150.434143 50.242537 
L 151.804467 38.484112 
L 152.891862 30.943285 
L 153.795185 26.125703 
L 154.548522 23.218009 
L 155.168917 21.625202 
L 155.670005 20.883391 
L 156.068831 20.645752 
L 156.406298 20.690082 
L 156.757401 20.97482 
L 157.17327 21.625202 
L 157.677768 22.864535 
L 158.284528 24.994206 
L 159.007186 28.405316 
L 159.862786 33.592748 
L 160.885415 41.252349 
L 162.146658 52.498413 
L 163.898763 70.32587 
L 167.672265 109.178769 
L 168.998274 120.28455 
L 170.0584 127.417256 
L 170.94127 131.954953 
L 171.677563 134.669377 
L 172.284323 136.135811 
L 172.771776 136.795617 
L 173.156967 136.986265 
L 173.494435 136.912384 
L 173.852355 136.588472 
L 174.27845 135.87529 
L 174.796583 134.534652 
L 175.416978 132.262688 
L 176.153271 128.663251 
L 177.025914 123.216451 
L 178.072405 115.187294 
L 179.374553 103.351335 
L 181.245965 84.06906 
L 184.545649 50.019917 
L 185.909155 38.352581 
L 186.993142 30.860342 
L 187.893055 26.079293 
L 188.642984 23.196513 
L 189.263379 21.611819 
L 189.764467 20.876694 
L 190.159884 20.645074 
L 190.497351 20.691678 
L 190.851863 20.982751 
L 191.271141 21.645446 
L 191.779047 22.904798 
L 192.389216 25.063883 
L 193.115283 28.515176 
L 193.974291 33.754171 
L 195.000329 41.476139 
L 196.26839 52.824938 
L 198.040947 70.904892 
L 201.722413 108.835076 
L 203.05524 120.05317 
L 204.122183 127.27617 
L 205.008462 131.865327 
L 205.748164 134.618 
L 206.354924 136.104332 
L 206.845786 136.783504 
L 207.234385 136.98499 
L 207.571852 136.917928 
L 207.929773 136.601224 
L 208.355868 135.896548 
L 208.870592 134.576502 
L 209.487578 132.334588 
L 210.220462 128.775961 
L 211.089697 123.381342 
L 212.129371 115.44346 
L 213.421292 103.748349 
L 215.265434 84.79671 
L 218.663972 49.734511 
L 220.02066 38.16911 
L 221.101238 30.736495 
L 221.997744 26.002358 
L 222.744263 23.153783 
L 223.361249 21.591914 
L 223.858929 20.870089 
L 224.254346 20.643788 
L 224.591813 20.694938 
L 224.946325 20.990773 
L 225.365603 21.659055 
L 225.873509 22.925062 
L 226.483678 25.091903 
L 227.209744 28.551955 
L 228.068753 33.800452 
L 229.094791 41.532235 
L 230.36626 52.923097 
L 232.145635 71.086003 
L 235.799831 108.741092 
L 237.136066 120.001572 
L 238.20301 127.235688 
L 239.089288 131.835284 
L 239.82899 134.597295 
L 240.439159 136.097968 
L 240.930021 136.780418 
L 241.31862 136.984519 
L 241.656088 136.919731 
L 242.014008 136.605429 
L 242.440104 135.90359 
L 242.954827 134.58691 
L 243.571814 132.348905 
L 244.304698 128.794677 
L 245.173933 123.404828 
L 246.213606 115.471851 
L 247.505528 103.78137 
L 249.34626 84.869425 
L 252.755025 49.702857 
L 254.111713 38.142964 
L 255.192291 30.71592 
L 256.088797 25.987033 
L 256.835316 23.143156 
L 257.452302 21.585324 
L 257.949982 20.86682 
L 258.345399 20.643179 
L 258.682866 20.696603 
L 259.037378 20.994819 
L 259.456656 21.665893 
L 259.964562 22.935227 
L 260.57473 25.105944 
L 261.300797 28.570375 
L 262.159806 33.823619 
L 263.189253 41.588389 
L 264.460722 52.988587 
L 266.243506 71.194707 
L 269.880657 108.678376 
L 271.216893 119.94991 
L 272.287245 127.215418 
L 273.173524 131.820232 
L 273.913226 134.58691 
L 274.523395 136.091581 
L 275.014257 136.77731 
L 275.406265 136.984519 
L 275.743732 136.919731 
L 276.101652 136.605429 
L 276.527748 135.90359 
L 277.042471 134.58691 
L 277.659458 132.348905 
L 278.392342 128.794677 
L 279.261577 123.404828 
L 280.30125 115.471851 
L 281.593172 103.78137 
L 283.433905 84.869425 
L 286.842669 49.702857 
L 288.199357 38.142964 
L 289.279936 30.71592 
L 290.176441 25.987033 
L 290.92296 23.143156 
L 291.539947 21.585324 
L 292.037626 20.86682 
L 292.433043 20.643179 
L 292.77051 20.696603 
L 293.125022 20.994819 
L 293.5443 21.665893 
L 294.052206 22.935227 
L 294.662375 25.105944 
L 295.388442 28.570375 
L 296.24745 33.823619 
L 297.276897 41.588389 
L 298.548366 52.988587 
L 300.33115 71.194707 
L 303.968302 108.678376 
L 305.304537 119.94991 
L 306.374889 127.215418 
L 307.261168 131.820232 
L 308.00087 134.58691 
L 308.611039 136.091581 
L 309.101901 136.77731 
L 309.493909 136.984519 
L 309.831376 136.919731 
L 310.189297 136.605429 
L 310.615392 135.90359 
L 311.130116 134.58691 
L 311.747102 132.348905 
L 312.479986 128.794677 
L 313.349221 123.404828 
L 314.388894 115.471851 
L 315.680816 103.78137 
L 317.521549 84.869425 
L 320.930313 49.702857 
L 322.287002 38.142964 
L 323.36758 30.71592 
L 324.264085 25.987033 
L 325.010604 23.143156 
L 325.627591 21.585324 
L 326.12527 20.86682 
L 326.520687 20.643179 
L 326.858155 20.696603 
L 327.212666 20.994819 
L 327.631944 21.665893 
L 328.13985 22.935227 
L 328.750019 25.105944 
L 329.476086 28.570375 
L 330.335094 33.823619 
L 331.364541 41.588389 
L 332.63601 52.988587 
L 334.418794 71.194707 
L 338.055946 108.678376 
L 339.392181 119.94991 
L 340.462534 127.215418 
L 341.348812 131.820232 
L 342.088514 134.58691 
L 342.698683 136.091581 
L 343.189545 136.77731 
L 343.581553 136.984519 
L 343.919021 136.919731 
L 344.276941 136.605429 
L 344.703036 135.90359 
L 345.21776 134.58691 
L 345.834746 132.348905 
L 346.567631 128.794677 
L 347.436866 123.404828 
L 348.476539 115.471851 
L 349.76846 103.78137 
L 351.609193 84.869425 
L 355.017958 49.702857 
L 356.374646 38.142964 
L 357.455224 30.71592 
L 358.351729 25.987033 
L 359.098249 23.143156 
L 359.715235 21.585324 
L 360.212915 20.86682 
L 360.608331 20.643179 
L 360.945799 20.696603 
L 361.30031 20.994819 
L 361.719588 21.665893 
L 362.227494 22.935227 
L 362.837663 25.105944 
L 363.56373 28.570375 
L 364.422739 33.823619 
L 365.452186 41.588389 
L 366.723655 52.988587 
L 368.506438 71.194707 
L 372.14359 108.678376 
L 373.479826 119.94991 
L 374.550178 127.215418 
L 375.436456 131.820232 
L 376.176158 134.58691 
L 376.786327 136.091581 
L 377.277189 136.77731 
L 377.669197 136.984519 
L 378.006665 136.919731 
L 378.364585 136.605429 
L 378.790681 135.90359 
L 379.305404 134.58691 
L 379.92239 132.348905 
L 380.655275 128.794677 
L 381.52451 123.404828 
L 382.564183 115.471851 
L 383.856105 103.78137 
L 385.696837 84.869425 
L 389.105602 49.702857 
L 390.46229 38.142964 
L 391.542868 30.71592 
L 392.439373 25.987033 
L 393.185893 23.143156 
L 393.802879 21.585324 
L 394.300559 20.86682 
L 394.695975 20.643179 
L 395.033443 20.696603 
L 395.387955 20.994819 
L 395.807233 21.665893 
L 396.315139 22.935227 
L 396.925307 25.105944 
L 397.651374 28.570375 
L 398.510383 33.823619 
L 399.53983 41.588389 
L 400.811299 52.988587 
L 402.594083 71.194707 
L 406.231234 108.678376 
L 407.56747 119.94991 
L 408.637822 127.215418 
L 409.524101 131.820232 
L 410.263803 134.58691 
L 410.873971 136.091581 
L 411.364834 136.77731 
L 411.756841 136.984519 
L 412.094309 136.919731 
L 412.452229 136.605429 
L 412.878325 135.90359 
L 413.393048 134.58691 
L 414.010035 132.348905 
L 414.742919 128.794677 
L 415.612154 123.404828 
L 416.651827 115.471851 
L 417.943749 103.78137 
L 419.784482 84.869425 
L 423.193246 49.702857 
L 424.549934 38.142964 
L 425.630513 30.71592 
L 426.527018 25.987033 
L 427.273537 23.143156 
L 427.890523 21.585324 
L 428.388203 20.86682 
L 428.78362 20.643179 
L 429.121087 20.696603 
L 429.475599 20.994819 
L 429.894877 21.665893 
L 430.402783 22.935227 
L 431.012952 25.105944 
L 431.739018 28.570375 
L 432.598027 33.823619 
L 433.627474 41.588389 
L 434.898943 52.988587 
L 436.681727 71.194707 
L 440.318879 108.678376 
L 441.655114 119.94991 
L 442.725466 127.215418 
L 443.611745 131.820232 
L 444.351447 134.58691 
L 444.961616 136.091581 
L 445.452478 136.77731 
L 445.844486 136.984519 
L 446.181953 136.919731 
L 446.539874 136.605429 
L 446.965969 135.90359 
L 447.480693 134.58691 
L 448.097679 132.348905 
L 448.830563 128.794677 
L 449.699798 123.404828 
L 450.739471 115.471851 
L 452.031393 103.78137 
L 453.872126 84.869425 
L 457.28089 49.702857 
L 458.637579 38.142964 
L 459.718157 30.71592 
L 460.614662 25.987033 
L 461.361181 23.143156 
L 461.978168 21.585324 
L 462.475847 20.86682 
L 462.871264 20.643179 
L 463.208732 20.696603 
L 463.563243 20.994819 
L 463.982521 21.665893 
L 464.490427 22.935227 
L 465.100596 25.105944 
L 465.826663 28.570375 
L 466.685671 33.823619 
L 467.715118 41.588389 
L 468.986587 52.988587 
L 470.769371 71.194707 
L 474.406523 108.678376 
L 475.742758 119.94991 
L 476.81311 127.215418 
L 477.699389 131.820232 
L 478.439091 134.58691 
L 479.04926 136.091581 
L 479.540122 136.77731 
L 479.93213 136.984519 
L 480.269598 136.919731 
L 480.627518 136.605429 
L 481.053613 135.90359 
L 481.568337 134.58691 
L 482.185323 132.348905 
L 482.918208 128.794677 
L 483.787442 123.404828 
L 484.827116 115.471851 
L 486.119037 103.78137 
L 487.95977 84.869425 
L 488.529034 78.775946 
L 488.529034 78.775946 
" clip-path="url(#p2eef1ef30b)" style="fill: none; stroke: #d62728; stroke-width: 1.5; stroke-linecap: square"/>
   </g>
   <g id="patch_3">
    <path d="M 45.38625 148.625 
L 45.38625 9 
" style="fill: none; stroke: #000000; stroke-width: 0.8; stroke-linejoin: miter; stroke-linecap: square"/>
   </g>
   <g id="patch_4">
    <path d="M 488.525625 148.625 
L 488.525625 9 
" style="fill: none; stroke: #000000; stroke-width: 0.8; stroke-linejoin: miter; stroke-linecap: square"/>
   </g>
   <g id="patch_5">
    <path d="M 45.38625 148.625 
L 488.525625 148.625 
" style="fill: none; stroke: #000000; stroke-width: 0.8; stroke-linejoin: miter; stroke-linecap: square"/>
   </g>
   <g id="patch_6">
    <path d="M 45.38625 9 
L 488.525625 9 
" style="fill: none; stroke: #000000; stroke-width: 0.8; stroke-linejoin: miter; stroke-linecap: square"/>
   </g>
   <g id="legend_1">
    <g id="patch_7">
     <path d="M 379.525625 143.625 
L 481.525625 143.625 
Q 483.525625 143.625 483.525625 141.625 
L 483.525625 85.6875 
Q 483.525625 83.6875 481.525625 83.6875 
L 379.525625 83.6875 
Q 377.525625 83.6875 377.525625 85.6875 
L 377.525625 141.625 
Q 377.525625 143.625 379.525625 143.625 
z
" style="fill: #ffffff; opacity: 0.8; stroke: #cccccc; stroke-linejoin: miter"/>
    </g>
    <g id="line2d_29">
     <path d="M 381.525625 91.829687 
L 391.525625 91.829687 
L 401.525625 91.829687 
" style="fill: none; stroke: #1f77b4; stroke-width: 1.5; stroke-linecap: square"/>
    </g>
    <g id="text_15">
     <!-- ステップ信号 -->
     <g transform="translate(409.525625 95.329687)scale(0.1 -0.1)">
      <defs>
       <path id="YuGothic-Regular-30b9" d="M 3628 2300 
Q 4713 1503 5475 678 
Q 5516 641 5516 616 
Q 5516 597 5484 559 
Q 5438 506 5309 378 
Q 5288 356 5272 356 
Q 5250 356 5216 391 
Q 4428 1291 3416 2038 
Q 2297 866 1106 225 
Q 1066 203 1041 203 
Q 1009 203 978 238 
Q 878 350 709 425 
Q 2063 1116 3066 2178 
Q 3769 2938 4288 3931 
L 2291 3931 
Q 1731 3931 1394 3897 
Q 1384 3897 1375 3897 
Q 1325 3897 1319 3950 
Q 1291 4103 1291 4263 
Q 1600 4244 2253 4244 
L 4134 4244 
Q 4375 4244 4459 4297 
Q 4478 4306 4503 4306 
Q 4553 4306 4588 4275 
Q 4684 4206 4784 4091 
Q 4813 4059 4813 4019 
Q 4813 3963 4766 3938 
Q 4694 3897 4600 3741 
Q 4153 2941 3628 2300 
z
" transform="scale(0.015625)"/>
       <path id="YuGothic-Regular-30c6" d="M 3469 2816 
Q 3425 1716 3091 1094 
Q 2681 341 1963 -91 
Q 1900 -128 1859 -128 
Q 1831 -128 1809 -109 
Q 1675 3 1509 56 
Q 2016 313 2313 606 
Q 2566 856 2756 1222 
Q 3078 1841 3091 2816 
L 1759 2816 
Q 1331 2816 844 2784 
Q 784 2784 769 2803 
Q 756 2816 747 2869 
Q 744 2891 722 3153 
Q 1225 3128 1759 3128 
L 4491 3128 
Q 5084 3128 5622 3153 
Q 5694 3153 5694 3063 
L 5694 2859 
Q 5694 2797 5616 2797 
Q 5034 2816 4497 2816 
L 3469 2816 
z
M 1503 4566 
Q 1972 4541 2469 4541 
L 3750 4541 
Q 4428 4541 4775 4563 
Q 4784 4563 4794 4563 
Q 4844 4563 4844 4484 
L 4844 4300 
Q 4844 4216 4766 4216 
Q 4422 4228 3750 4228 
L 2469 4228 
Q 1894 4228 1600 4209 
Q 1591 4206 1578 4206 
Q 1528 4206 1522 4278 
L 1503 4566 
z
" transform="scale(0.015625)"/>
       <path id="YuGothic-Regular-30c3" d="M 1369 2988 
Q 1606 3128 1613 3128 
Q 1631 3138 1647 3138 
Q 1672 3138 1706 3097 
Q 1997 2725 2219 2228 
Q 2231 2194 2231 2181 
Q 2231 2159 2194 2138 
Q 2091 2069 1981 2028 
Q 1966 2022 1953 2022 
Q 1922 2022 1900 2069 
Q 1656 2644 1369 2988 
z
M 2609 3297 
Q 2816 3413 2853 3431 
Q 2872 3438 2884 3438 
Q 2919 3438 2944 3400 
Q 3203 3047 3409 2522 
Q 3416 2503 3416 2494 
Q 3416 2466 3378 2447 
Q 3225 2359 3159 2338 
Q 3144 2331 3131 2331 
Q 3109 2331 3091 2375 
Q 2872 2938 2609 3297 
z
M 4600 3316 
Q 4853 3250 5016 3150 
Q 5056 3125 5056 3081 
Q 5056 3044 5025 3016 
Q 4925 2928 4844 2731 
Q 4422 1706 3903 1063 
Q 3294 309 2591 -147 
Q 2556 -169 2528 -169 
Q 2506 -169 2488 -153 
Q 2388 -59 2213 -25 
Q 2697 278 3031 584 
Q 3306 838 3634 1234 
Q 4181 1909 4513 2841 
Q 4581 3047 4600 3316 
z
" transform="scale(0.015625)"/>
       <path id="YuGothic-Regular-30d7" d="M 5663 5422 
Q 5941 5422 6125 5219 
Q 6284 5041 6284 4800 
Q 6284 4525 6081 4341 
Q 5903 4178 5663 4178 
Q 5391 4178 5206 4384 
Q 5044 4563 5044 4800 
Q 5044 5078 5250 5263 
Q 5428 5422 5663 5422 
z
M 5663 5197 
Q 5488 5197 5372 5069 
Q 5269 4956 5269 4800 
Q 5269 4625 5400 4506 
Q 5513 4403 5663 4403 
Q 5844 4403 5959 4534 
Q 6059 4647 6059 4800 
Q 6059 4981 5931 5097 
Q 5819 5197 5663 5197 
z
M 953 4172 
Q 1475 4134 2181 4134 
L 4441 4134 
Q 4631 4134 4734 4184 
Q 4769 4203 4809 4203 
Q 4859 4203 4897 4178 
Q 5031 4075 5125 3963 
Q 5153 3928 5153 3888 
Q 5153 3838 5113 3803 
Q 5025 3725 4972 3591 
Q 4550 2447 3713 1484 
Q 2891 550 1803 -50 
Q 1763 -75 1722 -75 
Q 1669 -75 1631 -38 
Q 1553 50 1381 141 
Q 2106 500 2634 931 
Q 3003 1231 3416 1691 
Q 4284 2675 4666 3822 
L 2175 3822 
Q 1547 3822 1088 3788 
Q 1075 3788 1063 3788 
Q 988 3788 972 3884 
Q 953 4116 953 4172 
z
" transform="scale(0.015625)"/>
       <path id="YuGothic-Regular-4fe1" d="M 1372 3859 
L 1372 634 
L 1384 -384 
Q 1384 -428 1338 -428 
L 1109 -428 
Q 1072 -428 1072 -384 
L 1084 634 
L 1084 2338 
Q 1084 2669 1097 3322 
Q 822 2819 456 2363 
Q 413 2306 391 2306 
Q 372 2306 334 2363 
Q 269 2456 194 2503 
Q 1025 3488 1472 4878 
Q 1544 5109 1556 5319 
Q 1719 5284 1856 5228 
Q 1922 5200 1922 5166 
Q 1922 5125 1875 5081 
Q 1831 5034 1759 4844 
Q 1591 4338 1372 3859 
z
M 2684 -56 
L 2684 -369 
Q 2684 -416 2638 -416 
L 2434 -416 
Q 2391 -416 2391 -369 
L 2403 400 
L 2403 878 
L 2391 1397 
Q 2391 1441 2434 1441 
L 3259 1428 
L 4531 1428 
L 5356 1441 
Q 5397 1441 5397 1397 
L 5384 941 
L 5384 419 
L 5397 -350 
Q 5397 -391 5359 -391 
L 5147 -391 
Q 5103 -391 5103 -350 
L 5103 -56 
L 2684 -56 
z
M 2684 194 
L 5103 194 
L 5103 1172 
L 2684 1172 
L 2684 194 
z
M 3341 2278 
L 4450 2278 
L 5222 2291 
Q 5269 2291 5269 2247 
L 5269 2059 
Q 5269 2016 5222 2016 
L 4450 2028 
L 3341 2028 
L 2559 2016 
Q 2516 2016 2516 2059 
L 2516 2247 
Q 2516 2291 2559 2291 
L 3341 2278 
z
M 3341 3144 
L 4450 3144 
L 5222 3156 
Q 5269 3156 5269 3113 
L 5269 2925 
Q 5269 2881 5222 2881 
L 4450 2894 
L 3341 2894 
L 2559 2881 
Q 2516 2881 2516 2925 
L 2516 3113 
Q 2516 3156 2559 3156 
L 3341 3144 
z
M 3359 4872 
L 4494 4872 
L 5275 4884 
Q 5325 4884 5325 4841 
L 5325 4647 
Q 5325 4609 5275 4609 
L 4494 4622 
L 3359 4622 
L 2581 4609 
Q 2534 4609 2534 4647 
L 2534 4841 
Q 2534 4884 2581 4884 
L 3359 4872 
z
M 2844 3750 
L 1941 3738 
Q 1894 3738 1894 3781 
L 1894 3981 
Q 1894 4025 1941 4025 
L 2844 4013 
L 5088 4013 
L 5991 4025 
Q 6038 4025 6038 3981 
L 6038 3781 
Q 6038 3738 5991 3738 
L 5088 3750 
L 2844 3750 
z
" transform="scale(0.015625)"/>
       <path id="YuGothic-Regular-53f7" d="M 2191 1728 
L 4163 1728 
L 4988 1741 
Q 5047 1741 5047 1694 
Q 5047 1691 5047 1681 
L 4950 1050 
Q 4872 563 4772 184 
Q 4622 -347 4072 -347 
Q 3644 -347 3363 -322 
Q 3281 -316 3266 -300 
Q 3253 -284 3234 -206 
Q 3203 -88 3144 13 
Q 3616 -53 4072 -53 
Q 4384 -53 4481 300 
Q 4588 666 4700 1466 
L 2031 1466 
Q 1916 1288 1728 1056 
Q 1703 1019 1675 1019 
Q 1656 1019 1606 1031 
L 1494 1063 
Q 1400 1091 1400 1109 
Q 1400 1119 1416 1141 
Q 1913 1716 2228 2478 
L 1372 2478 
L 519 2466 
Q 475 2466 475 2509 
L 475 2722 
Q 475 2766 519 2766 
L 1372 2753 
L 5084 2753 
L 5934 2766 
Q 5978 2766 5978 2722 
L 5978 2509 
Q 5978 2466 5934 2466 
L 5084 2478 
L 2556 2478 
Q 2353 2003 2191 1728 
z
M 4019 3341 
L 2391 3341 
L 1513 3328 
Q 1469 3328 1469 3372 
L 1481 3891 
L 1481 4434 
L 1469 4953 
Q 1469 4997 1513 4997 
L 2391 4984 
L 4019 4984 
L 4897 4997 
Q 4941 4997 4941 4953 
L 4928 4434 
L 4928 3891 
L 4941 3372 
Q 4941 3328 4897 3328 
L 4019 3341 
z
M 1763 3603 
L 4647 3603 
L 4647 4722 
L 1763 4722 
L 1763 3603 
z
" transform="scale(0.015625)"/>
      </defs>
      <use xlink:href="#YuGothic-Regular-30b9"/>
      <use xlink:href="#YuGothic-Regular-30c6" x="100"/>
      <use xlink:href="#YuGothic-Regular-30c3" x="200"/>
      <use xlink:href="#YuGothic-Regular-30d7" x="300"/>
      <use xlink:href="#YuGothic-Regular-4fe1" x="400"/>
      <use xlink:href="#YuGothic-Regular-53f7" x="500"/>
     </g>
    </g>
    <g id="line2d_30">
     <path d="M 381.525625 106.064062 
L 391.525625 106.064062 
L 401.525625 106.064062 
" style="fill: none; stroke: #ff7f0e; stroke-width: 1.5; stroke-linecap: square"/>
    </g>
    <g id="text_16">
     <!-- ランプ信号 -->
     <g transform="translate(409.525625 109.564062)scale(0.1 -0.1)">
      <defs>
       <path id="YuGothic-Regular-30e9" d="M 1716 4647 
Q 2153 4609 2753 4609 
L 3688 4609 
Q 4234 4609 4672 4638 
Q 4681 4638 4691 4638 
Q 4734 4638 4734 4572 
Q 4741 4528 4741 4466 
Q 4741 4403 4734 4356 
Q 4734 4284 4666 4284 
Q 4181 4303 3700 4303 
L 2741 4303 
Q 2191 4303 1813 4278 
Q 1744 4278 1734 4353 
Q 1716 4584 1716 4647 
z
M 1172 3322 
Q 1641 3284 2291 3284 
L 4525 3284 
Q 4759 3284 4819 3322 
Q 4856 3344 4897 3344 
Q 4950 3344 4991 3309 
Q 5113 3213 5166 3144 
Q 5197 3097 5197 3056 
Q 5197 3013 5156 2984 
Q 5069 2919 5022 2813 
Q 4194 866 2319 -106 
Q 2275 -128 2244 -128 
Q 2209 -128 2184 -100 
Q 2072 13 1900 78 
Q 3956 1053 4697 2978 
L 2291 2978 
Q 1859 2978 1300 2934 
Q 1291 2931 1278 2931 
Q 1225 2931 1209 2997 
Q 1178 3206 1172 3322 
z
" transform="scale(0.015625)"/>
       <path id="YuGothic-Regular-30f3" d="M 1141 4056 
Q 1225 4166 1338 4281 
Q 1366 4309 1394 4309 
Q 1409 4309 1441 4294 
Q 2059 3928 2563 3463 
Q 2597 3428 2597 3403 
Q 2597 3384 2581 3359 
Q 2503 3244 2409 3150 
Q 2381 3122 2363 3122 
Q 2347 3122 2325 3144 
Q 1734 3703 1141 4056 
z
M 1294 641 
Q 1631 728 1909 878 
Q 2981 1438 3759 2059 
Q 4813 2906 5466 3756 
Q 5481 3603 5563 3444 
Q 5581 3406 5581 3375 
Q 5581 3319 5525 3250 
Q 4856 2472 3950 1759 
Q 3138 1125 2038 519 
Q 1819 394 1709 275 
Q 1672 238 1641 238 
Q 1609 238 1569 275 
Q 1441 406 1294 641 
z
" transform="scale(0.015625)"/>
      </defs>
      <use xlink:href="#YuGothic-Regular-30e9"/>
      <use xlink:href="#YuGothic-Regular-30f3" x="100"/>
      <use xlink:href="#YuGothic-Regular-30d7" x="200"/>
      <use xlink:href="#YuGothic-Regular-4fe1" x="300"/>
      <use xlink:href="#YuGothic-Regular-53f7" x="400"/>
     </g>
    </g>
    <g id="line2d_31">
     <path d="M 381.525625 120.298437 
L 391.525625 120.298437 
L 401.525625 120.298437 
" style="fill: none; stroke: #2ca02c; stroke-width: 1.5; stroke-linecap: square"/>
    </g>
    <g id="text_17">
     <!-- インパルス信号 -->
     <g transform="translate(409.525625 123.798437)scale(0.1 -0.1)">
      <defs>
       <path id="YuGothic-Regular-30a4" d="M 3713 3391 
L 3713 1050 
Q 3713 519 3731 -44 
Q 3731 -109 3675 -109 
Q 3613 -113 3534 -113 
Q 3456 -113 3391 -109 
Q 3341 -109 3341 -44 
Q 3359 500 3359 1031 
L 3359 3078 
Q 2434 2241 1259 1563 
Q 1234 1547 1213 1547 
Q 1178 1547 1144 1581 
Q 1050 1688 903 1747 
Q 2072 2397 2894 3103 
Q 3675 3781 4166 4391 
Q 4450 4744 4531 5019 
Q 4781 4894 4891 4775 
Q 4925 4741 4925 4700 
Q 4925 4647 4872 4622 
Q 4756 4556 4525 4288 
Q 4166 3844 3713 3391 
z
" transform="scale(0.015625)"/>
       <path id="YuGothic-Regular-30d1" d="M 5369 4756 
Q 5647 4756 5831 4553 
Q 5991 4375 5991 4134 
Q 5991 3856 5788 3669 
Q 5609 3506 5369 3506 
Q 5094 3506 4909 3713 
Q 4747 3894 4747 4134 
Q 4747 4413 4953 4597 
Q 5131 4756 5369 4756 
z
M 5369 4531 
Q 5194 4531 5075 4403 
Q 4972 4291 4972 4134 
Q 4972 3956 5103 3834 
Q 5216 3731 5369 3731 
Q 5547 3731 5666 3863 
Q 5766 3978 5766 4134 
Q 5766 4316 5638 4431 
Q 5525 4531 5369 4531 
z
M 441 953 
Q 1441 1756 1931 2944 
Q 2097 3341 2103 3634 
Q 2356 3559 2534 3444 
Q 2584 3409 2584 3366 
Q 2584 3322 2541 3278 
Q 2438 3184 2347 2969 
Q 1816 1734 888 838 
Q 847 797 800 797 
Q 766 797 734 819 
Q 619 909 441 953 
z
M 3725 3425 
Q 3834 3506 3953 3572 
Q 3991 3594 4006 3594 
Q 4028 3594 4063 3559 
Q 4981 2638 5650 1281 
Q 5669 1241 5669 1222 
Q 5669 1194 5631 1166 
Q 5500 1069 5400 1019 
Q 5375 1003 5359 1003 
Q 5334 1003 5316 1050 
Q 4669 2478 3725 3425 
z
" transform="scale(0.015625)"/>
       <path id="YuGothic-Regular-30eb" d="M 3609 1006 
Q 4228 1313 4763 1722 
Q 5406 2216 5881 2772 
Q 5894 2584 5950 2444 
Q 5963 2416 5963 2394 
Q 5963 2353 5919 2309 
Q 5472 1847 4906 1416 
Q 4403 1031 3819 709 
Q 3678 631 3603 556 
Q 3563 519 3516 519 
Q 3481 519 3453 544 
Q 3309 675 3244 769 
Q 3225 794 3225 834 
Q 3225 866 3238 909 
Q 3263 988 3263 1434 
L 3263 3500 
Q 3263 4197 3200 4453 
Q 3472 4441 3641 4391 
Q 3703 4369 3703 4319 
Q 3703 4284 3672 4238 
Q 3609 4141 3609 3506 
L 3609 1006 
z
M 1844 4072 
Q 2172 4034 2313 3988 
Q 2363 3972 2363 3913 
Q 2363 3878 2344 3841 
Q 2281 3738 2272 3431 
Q 2253 2356 1875 1600 
Q 1553 956 959 472 
Q 903 428 869 428 
Q 844 428 819 447 
Q 703 556 538 581 
Q 1184 1013 1547 1734 
Q 1906 2441 1906 3450 
Q 1906 3844 1844 4072 
z
" transform="scale(0.015625)"/>
      </defs>
      <use xlink:href="#YuGothic-Regular-30a4"/>
      <use xlink:href="#YuGothic-Regular-30f3" x="100"/>
      <use xlink:href="#YuGothic-Regular-30d1" x="200"/>
      <use xlink:href="#YuGothic-Regular-30eb" x="300"/>
      <use xlink:href="#YuGothic-Regular-30b9" x="400"/>
      <use xlink:href="#YuGothic-Regular-4fe1" x="500"/>
      <use xlink:href="#YuGothic-Regular-53f7" x="600"/>
     </g>
    </g>
    <g id="line2d_32">
     <path d="M 381.525625 134.532812 
L 391.525625 134.532812 
L 401.525625 134.532812 
" style="fill: none; stroke: #d62728; stroke-width: 1.5; stroke-linecap: square"/>
    </g>
    <g id="text_18">
     <!-- 正弦波信号 -->
     <g transform="translate(409.525625 138.032812)scale(0.1 -0.1)">
      <defs>
       <path id="YuGothic-Regular-6b63" d="M 3475 338 
L 5119 338 
L 5966 350 
Q 6003 350 6003 306 
L 6003 81 
Q 6003 38 5966 38 
L 5119 50 
L 1300 50 
L 459 38 
Q 416 38 416 81 
L 416 306 
Q 416 350 459 350 
L 1300 338 
L 1484 338 
L 1484 2388 
Q 1484 3019 1434 3231 
Q 1631 3222 1784 3194 
Q 1863 3181 1863 3141 
Q 1863 3119 1816 3013 
Q 1784 2934 1784 2388 
L 1784 338 
L 3163 338 
L 3163 4531 
L 1600 4531 
L 716 4519 
Q 672 4519 672 4563 
L 672 4788 
Q 672 4831 716 4831 
L 1600 4819 
L 4825 4819 
L 5709 4831 
Q 5753 4831 5753 4788 
L 5753 4563 
Q 5753 4519 5709 4519 
L 4825 4531 
L 3475 4531 
L 3475 2688 
L 4641 2688 
L 5306 2700 
Q 5350 2700 5350 2656 
L 5350 2438 
Q 5350 2394 5306 2394 
L 4641 2406 
L 3475 2406 
L 3475 338 
z
" transform="scale(0.015625)"/>
       <path id="YuGothic-Regular-5f26" d="M 3866 1369 
Q 3163 2131 2503 2625 
Q 2478 2644 2478 2659 
Q 2478 2675 2516 2713 
L 2594 2803 
Q 2631 2847 2647 2847 
Q 2656 2847 2681 2831 
Q 2913 2656 3125 2484 
Q 3453 2969 3725 3572 
Q 3819 3784 3859 4019 
Q 4006 3978 4153 3897 
Q 4231 3850 4231 3809 
Q 4231 3778 4169 3725 
Q 4103 3669 4006 3475 
Q 3697 2853 3328 2297 
Q 3694 1969 4034 1613 
Q 4372 2103 4684 2638 
Q 4925 3034 5000 3328 
Q 5206 3238 5300 3175 
Q 5366 3131 5366 3097 
Q 5366 3047 5288 3003 
Q 5216 2953 5047 2669 
Q 4263 1372 3341 206 
Q 4050 278 5391 469 
Q 5178 884 4859 1338 
Q 4850 1353 4850 1363 
Q 4850 1384 4916 1422 
L 5013 1472 
Q 5050 1497 5063 1497 
Q 5075 1497 5097 1472 
Q 5609 781 6038 -191 
Q 6047 -213 6047 -225 
Q 6047 -250 5997 -275 
L 5856 -353 
Q 5816 -378 5794 -378 
Q 5772 -378 5763 -347 
Q 5572 106 5513 231 
Q 4225 25 2766 -147 
Q 2609 -163 2547 -200 
Q 2484 -238 2459 -238 
Q 2413 -238 2388 -159 
Q 2353 -38 2325 147 
Q 2409 144 2478 144 
Q 2672 144 2978 166 
Q 3409 706 3866 1369 
z
M 856 2209 
L 1663 2209 
L 2150 2222 
Q 2200 2222 2200 2178 
Q 2188 2097 2178 1978 
Q 2166 1831 2163 1806 
Q 2069 344 1841 -56 
Q 1684 -331 1344 -331 
Q 1088 -331 928 -319 
Q 856 -313 844 -297 
Q 831 -281 819 -203 
Q 800 -88 741 6 
Q 1013 -38 1272 -38 
Q 1503 -38 1588 97 
Q 1772 388 1894 1959 
L 813 1959 
L 756 1691 
Q 744 1631 706 1631 
Q 684 1631 597 1647 
Q 466 1675 466 1709 
Q 466 1722 475 1763 
Q 613 2269 703 3047 
Q 725 3281 725 3394 
Q 725 3434 722 3469 
Q 722 3519 778 3519 
L 1184 3506 
L 1875 3506 
L 1875 4653 
L 1088 4653 
L 550 4641 
Q 506 4641 506 4684 
L 506 4878 
Q 506 4922 550 4922 
L 1088 4909 
L 1594 4909 
L 2125 4922 
Q 2169 4922 2169 4878 
L 2156 4347 
L 2156 3828 
L 2169 3288 
Q 2169 3244 2125 3244 
L 1594 3256 
L 1003 3256 
Q 934 2647 856 2209 
z
M 4041 4341 
L 4041 4628 
Q 4041 5106 3994 5306 
Q 4194 5297 4325 5269 
Q 4397 5259 4397 5225 
Q 4397 5194 4359 5103 
Q 4328 5013 4328 4628 
L 4328 4341 
L 5147 4341 
L 6031 4353 
Q 6075 4353 6075 4309 
L 6075 4109 
Q 6075 4066 6031 4066 
L 5147 4078 
L 3363 4078 
L 2478 4066 
Q 2434 4066 2434 4109 
L 2434 4309 
Q 2434 4353 2478 4353 
L 3363 4341 
L 4041 4341 
z
" transform="scale(0.015625)"/>
       <path id="YuGothic-Regular-6ce2" d="M 4134 2719 
L 4978 2719 
Q 5056 2719 5113 2738 
Q 5153 2756 5172 2756 
Q 5222 2756 5325 2653 
Q 5416 2556 5416 2513 
Q 5416 2484 5366 2444 
Q 5309 2400 5263 2297 
Q 4894 1503 4353 913 
Q 5091 238 6175 -116 
Q 6078 -194 6028 -291 
Q 5988 -369 5956 -369 
Q 5934 -369 5875 -347 
Q 4844 50 4153 709 
Q 3469 53 2531 -347 
Q 2475 -372 2456 -372 
Q 2428 -372 2378 -297 
Q 2316 -203 2231 -150 
Q 3256 256 3950 919 
Q 3631 1278 3397 1669 
Q 3206 2000 3013 2463 
L 2578 2463 
Q 2556 1941 2494 1553 
Q 2359 556 1791 -231 
Q 1747 -291 1725 -291 
Q 1706 -291 1656 -244 
Q 1588 -181 1469 -138 
Q 2091 578 2225 1625 
Q 2322 2366 2322 3319 
L 2309 4288 
Q 2309 4331 2353 4331 
L 3238 4319 
L 3853 4319 
L 3853 4447 
Q 3853 5069 3809 5278 
Q 3966 5272 4134 5247 
Q 4206 5238 4206 5197 
Q 4206 5163 4191 5125 
Q 4169 5078 4166 5069 
Q 4134 4981 4134 4447 
L 4134 4319 
L 5544 4319 
Q 5631 4319 5672 4338 
Q 5709 4356 5728 4356 
Q 5788 4356 5875 4266 
Q 5966 4178 5966 4125 
Q 5966 4091 5922 4056 
Q 5869 4013 5819 3916 
Q 5631 3550 5403 3244 
Q 5356 3184 5334 3184 
Q 5319 3184 5253 3225 
Q 5175 3275 5081 3294 
Q 5391 3647 5563 4056 
L 4134 4056 
L 4134 2719 
z
M 3853 2719 
L 3853 4056 
L 2603 4056 
L 2603 3288 
Q 2603 3141 2591 2719 
L 3853 2719 
z
M 4147 1119 
Q 4684 1694 5013 2463 
L 3303 2463 
Q 3466 2081 3603 1841 
Q 3838 1456 4147 1119 
z
M 525 -178 
Q 681 13 813 275 
Q 1163 963 1394 1819 
Q 1450 1744 1541 1684 
Q 1622 1631 1622 1597 
Q 1622 1581 1606 1516 
Q 1431 900 1016 -19 
Q 906 -259 903 -306 
Q 891 -378 844 -378 
Q 816 -378 759 -347 
Q 625 -259 525 -178 
z
M 1022 5131 
Q 1441 4856 1856 4422 
Q 1875 4403 1875 4391 
Q 1875 4375 1828 4319 
L 1753 4225 
Q 1709 4172 1688 4172 
Q 1675 4172 1656 4194 
Q 1281 4616 838 4922 
Q 813 4938 813 4950 
Q 813 4963 856 5013 
L 934 5100 
Q 972 5144 991 5144 
Q 1003 5144 1022 5131 
z
M 466 3341 
Q 444 3356 444 3369 
Q 444 3384 478 3431 
L 550 3519 
Q 581 3563 606 3563 
Q 619 3563 641 3550 
Q 1128 3275 1547 2869 
Q 1563 2850 1563 2838 
Q 1563 2819 1534 2784 
L 1447 2669 
Q 1397 2609 1375 2609 
Q 1363 2609 1344 2631 
Q 906 3066 466 3341 
z
" transform="scale(0.015625)"/>
      </defs>
      <use xlink:href="#YuGothic-Regular-6b63"/>
      <use xlink:href="#YuGothic-Regular-5f26" x="100"/>
      <use xlink:href="#YuGothic-Regular-6ce2" x="200"/>
      <use xlink:href="#YuGothic-Regular-4fe1" x="300"/>
      <use xlink:href="#YuGothic-Regular-53f7" x="400"/>
     </g>
    </g>
   </g>
  </g>
 </g>
 <defs>
  <clipPath id="p2eef1ef30b">
   <rect x="45.38625" y="9" width="443.139375" height="139.625"/>
  </clipPath>
 </defs>
</svg>
