<?xml version="1.0" encoding="utf-8" standalone="no"?>
<!DOCTYPE svg PUBLIC "-//W3C//DTD SVG 1.1//EN"
  "http://www.w3.org/Graphics/SVG/1.1/DTD/svg11.dtd">
<svg xmlns:xlink="http://www.w3.org/1999/xlink" width="576pt" height="216pt" viewBox="0 0 576 216" xmlns="http://www.w3.org/2000/svg" version="1.1">
 <metadata>
  <rdf:RDF xmlns:dc="http://purl.org/dc/elements/1.1/" xmlns:cc="http://creativecommons.org/ns#" xmlns:rdf="http://www.w3.org/1999/02/22-rdf-syntax-ns#">
   <cc:Work>
    <dc:type rdf:resource="http://purl.org/dc/dcmitype/StillImage"/>
    <dc:date>2022-08-18T11:50:38.097761</dc:date>
    <dc:format>image/svg+xml</dc:format>
    <dc:creator>
     <cc:Agent>
      <dc:title>Matplotlib v3.5.3, https://matplotlib.org/</dc:title>
     </cc:Agent>
    </dc:creator>
   </cc:Work>
  </rdf:RDF>
 </metadata>
 <defs>
  <style type="text/css">*{stroke-linejoin: round; stroke-linecap: butt}</style>
 </defs>
 <g id="figure_1">
  <g id="patch_1">
   <path d="M 0 216 
L 576 216 
L 576 0 
L 0 0 
z
" style="fill: #ffffff"/>
  </g>
  <g id="axes_1">
   <g id="patch_2">
    <path d="M 47.55 178.35 
L 555.615 178.35 
L 555.615 14.76 
L 47.55 14.76 
z
" style="fill: #ffffff"/>
   </g>
   <g id="matplotlib.axis_1">
    <g id="xtick_1">
     <g id="line2d_1">
      <path d="M 71.743571 178.35 
L 71.743571 14.76 
" clip-path="url(#p71c3889fd0)" style="fill: none; stroke: #b0b0b0; stroke-width: 0.8; stroke-linecap: square"/>
     </g>
     <g id="line2d_2"/>
     <g id="text_1">
      <!-- 0.0 -->
      <g transform="translate(64.893571 189.492188)scale(0.1 -0.1)">
       <defs>
        <path id="YuGothic-Regular-30" d="M 1788 4806 
Q 3150 4806 3150 2456 
Q 3150 56 1772 56 
Q 409 56 409 2444 
Q 409 4806 1788 4806 
z
M 1788 4453 
Q 1269 4453 1047 3938 
Q 838 3456 838 2456 
Q 838 1303 1100 819 
Q 1322 409 1772 409 
Q 2291 409 2516 950 
Q 2722 1444 2722 2450 
Q 2722 3591 2456 4059 
Q 2234 4453 1788 4453 
z
" transform="scale(0.015625)"/>
        <path id="YuGothic-Regular-2e" d="M 1147 794 
L 1147 141 
L 506 141 
L 506 794 
L 1147 794 
z
" transform="scale(0.015625)"/>
       </defs>
       <use xlink:href="#YuGothic-Regular-30"/>
       <use xlink:href="#YuGothic-Regular-2e" x="55.615234"/>
       <use xlink:href="#YuGothic-Regular-30" x="81.396484"/>
      </g>
     </g>
    </g>
    <g id="xtick_2">
     <g id="line2d_3">
      <path d="M 132.2275 178.35 
L 132.2275 14.76 
" clip-path="url(#p71c3889fd0)" style="fill: none; stroke: #b0b0b0; stroke-width: 0.8; stroke-linecap: square"/>
     </g>
     <g id="line2d_4"/>
     <g id="text_2">
      <!-- 2.5 -->
      <g transform="translate(125.3775 189.492188)scale(0.1 -0.1)">
       <defs>
        <path id="YuGothic-Regular-32" d="M 459 3597 
Q 588 4228 988 4541 
Q 1325 4806 1819 4806 
Q 2406 4806 2750 4453 
Q 3059 4138 3059 3628 
Q 3059 3219 2838 2875 
Q 2628 2556 2094 2075 
Q 1191 1284 825 494 
L 3066 494 
L 3066 141 
L 422 141 
L 422 456 
Q 819 1406 1806 2309 
Q 2331 2800 2497 3088 
Q 2638 3331 2638 3628 
Q 2638 4038 2378 4263 
Q 2156 4453 1813 4453 
Q 1025 4453 863 3494 
L 459 3597 
z
" transform="scale(0.015625)"/>
        <path id="YuGothic-Regular-35" d="M 2906 4728 
L 2906 4375 
L 1016 4375 
L 959 3159 
Q 953 3022 922 2622 
Q 1066 2856 1325 2988 
Q 1556 3103 1819 3103 
Q 2397 3103 2753 2653 
Q 3072 2247 3072 1625 
Q 3072 850 2622 416 
Q 2253 56 1716 56 
Q 772 56 434 909 
L 825 1075 
Q 1059 403 1716 403 
Q 2172 403 2425 766 
Q 2650 1088 2650 1606 
Q 2650 2188 2381 2494 
Q 2147 2756 1759 2756 
Q 1447 2756 1209 2566 
Q 1003 2397 903 2116 
L 569 2169 
L 678 4728 
L 2906 4728 
z
" transform="scale(0.015625)"/>
       </defs>
       <use xlink:href="#YuGothic-Regular-32"/>
       <use xlink:href="#YuGothic-Regular-2e" x="55.615234"/>
       <use xlink:href="#YuGothic-Regular-35" x="81.396484"/>
      </g>
     </g>
    </g>
    <g id="xtick_3">
     <g id="line2d_5">
      <path d="M 192.711429 178.35 
L 192.711429 14.76 
" clip-path="url(#p71c3889fd0)" style="fill: none; stroke: #b0b0b0; stroke-width: 0.8; stroke-linecap: square"/>
     </g>
     <g id="line2d_6"/>
     <g id="text_3">
      <!-- 5.0 -->
      <g transform="translate(185.861429 189.492188)scale(0.1 -0.1)">
       <use xlink:href="#YuGothic-Regular-35"/>
       <use xlink:href="#YuGothic-Regular-2e" x="55.615234"/>
       <use xlink:href="#YuGothic-Regular-30" x="81.396484"/>
      </g>
     </g>
    </g>
    <g id="xtick_4">
     <g id="line2d_7">
      <path d="M 253.195357 178.35 
L 253.195357 14.76 
" clip-path="url(#p71c3889fd0)" style="fill: none; stroke: #b0b0b0; stroke-width: 0.8; stroke-linecap: square"/>
     </g>
     <g id="line2d_8"/>
     <g id="text_4">
      <!-- 7.5 -->
      <g transform="translate(246.345357 189.492188)scale(0.1 -0.1)">
       <defs>
        <path id="YuGothic-Regular-37" d="M 3091 4728 
L 3091 4406 
Q 2434 3356 2106 2284 
Q 1809 1325 1709 141 
L 1253 141 
Q 1381 1450 1778 2538 
Q 2100 3428 2675 4363 
L 434 4363 
L 434 4728 
L 3091 4728 
z
" transform="scale(0.015625)"/>
       </defs>
       <use xlink:href="#YuGothic-Regular-37"/>
       <use xlink:href="#YuGothic-Regular-2e" x="55.615234"/>
       <use xlink:href="#YuGothic-Regular-35" x="81.396484"/>
      </g>
     </g>
    </g>
    <g id="xtick_5">
     <g id="line2d_9">
      <path d="M 313.679286 178.35 
L 313.679286 14.76 
" clip-path="url(#p71c3889fd0)" style="fill: none; stroke: #b0b0b0; stroke-width: 0.8; stroke-linecap: square"/>
     </g>
     <g id="line2d_10"/>
     <g id="text_5">
      <!-- 10.0 -->
      <g transform="translate(304.048817 189.492188)scale(0.1 -0.1)">
       <defs>
        <path id="YuGothic-Regular-31" d="M 2063 4794 
L 2063 481 
L 2925 481 
L 2925 141 
L 744 141 
L 744 481 
L 1666 481 
L 1666 4359 
Q 1259 4081 725 3878 
L 653 4250 
Q 1184 4428 1734 4794 
L 2063 4794 
z
" transform="scale(0.015625)"/>
       </defs>
       <use xlink:href="#YuGothic-Regular-31"/>
       <use xlink:href="#YuGothic-Regular-30" x="55.615234"/>
       <use xlink:href="#YuGothic-Regular-2e" x="111.230469"/>
       <use xlink:href="#YuGothic-Regular-30" x="137.011719"/>
      </g>
     </g>
    </g>
    <g id="xtick_6">
     <g id="line2d_11">
      <path d="M 374.163214 178.35 
L 374.163214 14.76 
" clip-path="url(#p71c3889fd0)" style="fill: none; stroke: #b0b0b0; stroke-width: 0.8; stroke-linecap: square"/>
     </g>
     <g id="line2d_12"/>
     <g id="text_6">
      <!-- 12.5 -->
      <g transform="translate(364.532746 189.492188)scale(0.1 -0.1)">
       <use xlink:href="#YuGothic-Regular-31"/>
       <use xlink:href="#YuGothic-Regular-32" x="55.615234"/>
       <use xlink:href="#YuGothic-Regular-2e" x="111.230469"/>
       <use xlink:href="#YuGothic-Regular-35" x="137.011719"/>
      </g>
     </g>
    </g>
    <g id="xtick_7">
     <g id="line2d_13">
      <path d="M 434.647143 178.35 
L 434.647143 14.76 
" clip-path="url(#p71c3889fd0)" style="fill: none; stroke: #b0b0b0; stroke-width: 0.8; stroke-linecap: square"/>
     </g>
     <g id="line2d_14"/>
     <g id="text_7">
      <!-- 15.0 -->
      <g transform="translate(425.016674 189.492188)scale(0.1 -0.1)">
       <use xlink:href="#YuGothic-Regular-31"/>
       <use xlink:href="#YuGothic-Regular-35" x="55.615234"/>
       <use xlink:href="#YuGothic-Regular-2e" x="111.230469"/>
       <use xlink:href="#YuGothic-Regular-30" x="137.011719"/>
      </g>
     </g>
    </g>
    <g id="xtick_8">
     <g id="line2d_15">
      <path d="M 495.131071 178.35 
L 495.131071 14.76 
" clip-path="url(#p71c3889fd0)" style="fill: none; stroke: #b0b0b0; stroke-width: 0.8; stroke-linecap: square"/>
     </g>
     <g id="line2d_16"/>
     <g id="text_8">
      <!-- 17.5 -->
      <g transform="translate(485.500603 189.492188)scale(0.1 -0.1)">
       <use xlink:href="#YuGothic-Regular-31"/>
       <use xlink:href="#YuGothic-Regular-37" x="55.615234"/>
       <use xlink:href="#YuGothic-Regular-2e" x="111.230469"/>
       <use xlink:href="#YuGothic-Regular-35" x="137.011719"/>
      </g>
     </g>
    </g>
    <g id="xtick_9">
     <g id="line2d_17">
      <path d="M 555.615 178.35 
L 555.615 14.76 
" clip-path="url(#p71c3889fd0)" style="fill: none; stroke: #b0b0b0; stroke-width: 0.8; stroke-linecap: square"/>
     </g>
     <g id="line2d_18"/>
     <g id="text_9">
      <!-- 20.0 -->
      <g transform="translate(545.984531 189.492188)scale(0.1 -0.1)">
       <use xlink:href="#YuGothic-Regular-32"/>
       <use xlink:href="#YuGothic-Regular-30" x="55.615234"/>
       <use xlink:href="#YuGothic-Regular-2e" x="111.230469"/>
       <use xlink:href="#YuGothic-Regular-30" x="137.011719"/>
      </g>
     </g>
    </g>
    <g id="text_10">
     <!-- 時間t[ms] -->
     <g transform="translate(279.112188 202.940625)scale(0.1 -0.1)">
      <defs>
       <path id="YuGothic-Regular-6642" d="M 4850 1863 
L 3341 1863 
L 2463 1850 
Q 2419 1850 2419 1894 
L 2419 2094 
Q 2419 2131 2463 2131 
L 3341 2125 
L 4850 2125 
L 4850 2169 
Q 4850 2647 4806 2853 
Q 5006 2844 5131 2816 
Q 5209 2806 5209 2772 
Q 5209 2741 5169 2663 
Q 5138 2581 5138 2181 
L 5138 2125 
L 5944 2131 
Q 5988 2131 5988 2094 
L 5988 1894 
Q 5988 1850 5944 1850 
L 5138 1863 
L 5138 909 
L 5144 84 
Q 5144 -197 4978 -313 
Q 4838 -409 4375 -409 
Q 4344 -409 4269 -409 
Q 4188 -409 4172 -394 
Q 4156 -378 4134 -306 
Q 4094 -172 4025 -84 
Q 4231 -109 4472 -109 
Q 4538 -109 4619 -106 
Q 4850 -106 4850 141 
L 4850 1863 
z
M 972 738 
L 972 194 
Q 972 156 928 156 
L 722 156 
Q 678 156 678 194 
L 691 2163 
L 691 3384 
L 678 4872 
Q 678 4916 722 4916 
L 1222 4903 
L 1631 4903 
L 2131 4916 
Q 2175 4916 2175 4872 
L 2163 3578 
L 2163 2284 
L 2175 406 
Q 2175 359 2131 359 
L 1931 359 
Q 1888 359 1888 406 
L 1888 738 
L 972 738 
z
M 972 2994 
L 1888 2994 
L 1888 4641 
L 972 4641 
L 972 2994 
z
M 972 2738 
L 972 994 
L 1888 994 
L 1888 2738 
L 972 2738 
z
M 3950 3238 
L 3950 4159 
L 3522 4159 
L 2697 4147 
Q 2644 4147 2644 4191 
L 2644 4384 
Q 2644 4428 2697 4428 
L 3522 4416 
L 3950 4416 
L 3950 4447 
Q 3950 5019 3906 5272 
Q 4025 5269 4238 5241 
Q 4300 5231 4300 5191 
Q 4300 5172 4275 5081 
Q 4238 4975 4238 4459 
L 4238 4416 
L 4866 4416 
L 5691 4428 
Q 5734 4428 5734 4384 
L 5734 4191 
Q 5734 4147 5691 4147 
L 4866 4159 
L 4238 4159 
L 4238 3238 
L 5134 3238 
L 6022 3250 
Q 6069 3250 6069 3206 
L 6069 3013 
Q 6069 2969 6022 2969 
L 5134 2981 
L 3309 2981 
L 2428 2969 
Q 2381 2969 2381 3013 
L 2381 3206 
Q 2381 3250 2428 3250 
L 3309 3238 
L 3950 3238 
z
M 3225 1434 
Q 3609 1097 3878 647 
Q 3888 631 3888 616 
Q 3888 594 3847 563 
L 3738 488 
Q 3678 447 3666 447 
Q 3650 447 3634 475 
Q 3378 925 3009 1275 
Q 2988 1291 2988 1303 
Q 2988 1322 3047 1363 
L 3134 1428 
Q 3175 1453 3191 1453 
Q 3203 1453 3225 1434 
z
" transform="scale(0.015625)"/>
       <path id="YuGothic-Regular-9593" d="M 2388 525 
L 2388 159 
Q 2388 116 2344 116 
L 2150 116 
Q 2106 116 2106 159 
L 2119 1281 
L 2119 1813 
L 2106 2534 
Q 2106 2578 2150 2578 
L 2809 2566 
L 3513 2566 
L 4172 2578 
Q 4209 2578 4209 2534 
L 4197 1900 
L 4197 1325 
L 4209 231 
Q 4209 184 4172 184 
L 3972 184 
Q 3928 184 3928 231 
L 3928 525 
L 2388 525 
z
M 2388 1684 
L 3928 1684 
L 3928 2322 
L 2388 2322 
L 2388 1684 
z
M 2388 1441 
L 2388 763 
L 3928 763 
L 3928 1441 
L 2388 1441 
z
M 5416 3141 
L 4213 3141 
L 3525 3128 
Q 3481 3128 3481 3172 
L 3488 3725 
L 3488 4444 
L 3481 4994 
Q 3481 5038 3525 5038 
L 4213 5025 
L 4988 5025 
L 5672 5038 
Q 5716 5038 5716 4994 
L 5703 4078 
L 5703 1100 
L 5722 263 
Q 5722 50 5681 -50 
Q 5647 -128 5563 -194 
Q 5422 -303 4938 -303 
Q 4897 -303 4800 -303 
Q 4725 -303 4709 -288 
Q 4697 -275 4678 -206 
Q 4644 -84 4575 13 
Q 4791 -16 5050 -16 
Q 5294 -16 5359 56 
Q 5416 119 5416 319 
L 5416 3141 
z
M 5416 3378 
L 5416 3981 
L 3769 3981 
L 3769 3378 
L 5416 3378 
z
M 5416 4219 
L 5416 4781 
L 3769 4781 
L 3769 4219 
L 5416 4219 
z
M 1428 5025 
L 2138 5025 
L 2778 5038 
Q 2822 5038 2822 4994 
L 2809 4416 
L 2809 3756 
L 2822 3172 
Q 2822 3128 2778 3128 
L 2138 3141 
L 972 3141 
L 972 953 
L 984 -347 
Q 984 -391 941 -391 
L 716 -391 
Q 672 -391 672 -347 
L 684 953 
L 684 3678 
L 672 4994 
Q 672 5038 716 5038 
L 1428 5025 
z
M 972 3981 
L 972 3378 
L 2528 3378 
L 2528 3981 
L 972 3981 
z
M 972 4219 
L 2528 4219 
L 2528 4781 
L 972 4781 
L 972 4219 
z
" transform="scale(0.015625)"/>
       <path id="YuGothic-Regular-74" d="M 1197 4488 
L 1197 3341 
L 2003 3341 
L 2003 3022 
L 1197 3022 
L 1197 941 
Q 1197 375 1672 375 
Q 1878 375 2088 422 
L 2059 97 
Q 1859 63 1606 63 
Q 800 63 800 863 
L 800 3022 
L 250 3022 
L 250 3341 
L 800 3341 
L 800 4397 
L 1197 4488 
z
" transform="scale(0.015625)"/>
       <path id="YuGothic-Regular-5b" d="M 2200 5459 
L 2200 5222 
L 1209 5222 
L 1209 -356 
L 2200 -356 
L 2200 -588 
L 856 -588 
L 856 5459 
L 2200 5459 
z
" transform="scale(0.015625)"/>
       <path id="YuGothic-Regular-6d" d="M 1019 3341 
L 1019 2747 
Q 1519 3419 2100 3419 
Q 2450 3419 2688 3206 
Q 2894 3025 2931 2753 
Q 3419 3419 4019 3419 
Q 4441 3419 4678 3147 
Q 4891 2906 4891 2516 
L 4891 141 
L 4494 141 
L 4494 2350 
Q 4494 3059 3909 3059 
Q 3644 3059 3369 2853 
Q 3138 2678 2956 2394 
L 2956 141 
L 2559 141 
L 2559 2350 
Q 2559 3059 1997 3059 
Q 1731 3059 1463 2863 
Q 1222 2691 1031 2394 
L 1031 141 
L 641 141 
L 641 3341 
L 1019 3341 
z
" transform="scale(0.015625)"/>
       <path id="YuGothic-Regular-73" d="M 2759 2663 
L 2375 2528 
Q 2194 3106 1594 3106 
Q 1231 3106 1034 2947 
Q 866 2809 866 2594 
Q 866 2325 1034 2197 
Q 1184 2081 1569 1997 
L 1825 1941 
Q 2419 1803 2641 1578 
Q 2844 1375 2844 1003 
Q 2844 563 2503 306 
Q 2181 63 1628 63 
Q 663 63 366 838 
L 750 984 
Q 963 375 1634 375 
Q 2078 375 2291 578 
Q 2453 734 2453 966 
Q 2453 1263 2284 1394 
Q 2125 1516 1691 1613 
L 1434 1672 
Q 869 1800 659 2034 
Q 488 2225 488 2559 
Q 488 2963 803 3197 
Q 1097 3419 1600 3419 
Q 2466 3419 2759 2663 
z
" transform="scale(0.015625)"/>
       <path id="YuGothic-Regular-5d" d="M 1613 5453 
L 1613 -588 
L 269 -588 
L 269 -356 
L 1259 -356 
L 1259 5222 
L 269 5222 
L 269 5453 
L 1613 5453 
z
" transform="scale(0.015625)"/>
      </defs>
      <use xlink:href="#YuGothic-Regular-6642"/>
      <use xlink:href="#YuGothic-Regular-9593" x="100"/>
      <use xlink:href="#YuGothic-Regular-74" x="200"/>
      <use xlink:href="#YuGothic-Regular-5b" x="235.205078"/>
      <use xlink:href="#YuGothic-Regular-6d" x="273.828125"/>
      <use xlink:href="#YuGothic-Regular-73" x="359.912109"/>
      <use xlink:href="#YuGothic-Regular-5d" x="410.791016"/>
     </g>
    </g>
   </g>
   <g id="matplotlib.axis_2">
    <g id="ytick_1">
     <g id="line2d_19">
      <path d="M 47.55 170.56 
L 555.615 170.56 
" clip-path="url(#p71c3889fd0)" style="fill: none; stroke: #b0b0b0; stroke-width: 0.8; stroke-linecap: square"/>
     </g>
     <g id="line2d_20"/>
     <g id="text_11">
      <!-- 0.0 -->
      <g transform="translate(30.35 174.381094)scale(0.1 -0.1)">
       <use xlink:href="#YuGothic-Regular-30"/>
       <use xlink:href="#YuGothic-Regular-2e" x="55.615234"/>
       <use xlink:href="#YuGothic-Regular-30" x="81.396484"/>
      </g>
     </g>
    </g>
    <g id="ytick_2">
     <g id="line2d_21">
      <path d="M 47.55 131.61 
L 555.615 131.61 
" clip-path="url(#p71c3889fd0)" style="fill: none; stroke: #b0b0b0; stroke-width: 0.8; stroke-linecap: square"/>
     </g>
     <g id="line2d_22"/>
     <g id="text_12">
      <!-- 0.5 -->
      <g transform="translate(30.35 135.431094)scale(0.1 -0.1)">
       <use xlink:href="#YuGothic-Regular-30"/>
       <use xlink:href="#YuGothic-Regular-2e" x="55.615234"/>
       <use xlink:href="#YuGothic-Regular-35" x="81.396484"/>
      </g>
     </g>
    </g>
    <g id="ytick_3">
     <g id="line2d_23">
      <path d="M 47.55 92.66 
L 555.615 92.66 
" clip-path="url(#p71c3889fd0)" style="fill: none; stroke: #b0b0b0; stroke-width: 0.8; stroke-linecap: square"/>
     </g>
     <g id="line2d_24"/>
     <g id="text_13">
      <!-- 1.0 -->
      <g transform="translate(30.35 96.481094)scale(0.1 -0.1)">
       <use xlink:href="#YuGothic-Regular-31"/>
       <use xlink:href="#YuGothic-Regular-2e" x="55.615234"/>
       <use xlink:href="#YuGothic-Regular-30" x="81.396484"/>
      </g>
     </g>
    </g>
    <g id="ytick_4">
     <g id="line2d_25">
      <path d="M 47.55 53.71 
L 555.615 53.71 
" clip-path="url(#p71c3889fd0)" style="fill: none; stroke: #b0b0b0; stroke-width: 0.8; stroke-linecap: square"/>
     </g>
     <g id="line2d_26"/>
     <g id="text_14">
      <!-- 1.5 -->
      <g transform="translate(30.35 57.531094)scale(0.1 -0.1)">
       <use xlink:href="#YuGothic-Regular-31"/>
       <use xlink:href="#YuGothic-Regular-2e" x="55.615234"/>
       <use xlink:href="#YuGothic-Regular-35" x="81.396484"/>
      </g>
     </g>
    </g>
    <g id="ytick_5">
     <g id="line2d_27">
      <path d="M 47.55 14.76 
L 555.615 14.76 
" clip-path="url(#p71c3889fd0)" style="fill: none; stroke: #b0b0b0; stroke-width: 0.8; stroke-linecap: square"/>
     </g>
     <g id="line2d_28"/>
     <g id="text_15">
      <!-- 2.0 -->
      <g transform="translate(30.35 18.581094)scale(0.1 -0.1)">
       <use xlink:href="#YuGothic-Regular-32"/>
       <use xlink:href="#YuGothic-Regular-2e" x="55.615234"/>
       <use xlink:href="#YuGothic-Regular-30" x="81.396484"/>
      </g>
     </g>
    </g>
    <g id="text_16">
     <!-- 電圧[V] -->
     <g transform="translate(24.757812 113.662031)rotate(-90)scale(0.1 -0.1)">
      <defs>
       <path id="YuGothic-Regular-96fb" d="M 2975 641 
L 1472 641 
L 1472 313 
Q 1472 269 1428 269 
L 1222 269 
Q 1184 269 1184 313 
L 1197 903 
L 1197 1784 
L 1184 2381 
Q 1184 2431 1222 2431 
L 2181 2419 
L 4178 2419 
L 5109 2431 
Q 5153 2431 5153 2381 
L 5141 1822 
L 5141 1228 
L 5153 672 
Q 5153 628 5109 628 
L 4178 641 
L 3256 641 
L 3256 391 
Q 3256 188 3338 100 
Q 3400 31 3541 6 
Q 3769 -31 4441 -31 
Q 5269 -31 5522 141 
Q 5634 216 5681 391 
Q 5728 559 5741 903 
Q 5841 825 5947 781 
Q 6028 747 6028 703 
Q 6028 688 6022 641 
Q 5984 278 5888 103 
Q 5816 -25 5684 -109 
Q 5397 -294 4453 -294 
Q 3700 -294 3353 -231 
Q 2975 -163 2975 300 
L 2975 641 
z
M 2975 1444 
L 1472 1444 
L 1472 872 
L 2975 872 
L 2975 1444 
z
M 3256 1444 
L 3256 872 
L 4856 872 
L 4856 1444 
L 3256 1444 
z
M 2975 1663 
L 2975 2188 
L 1472 2188 
L 1472 1663 
L 2975 1663 
z
M 3256 1663 
L 4856 1663 
L 4856 2188 
L 3256 2188 
L 3256 1663 
z
M 3009 4288 
L 3009 4747 
L 1906 4747 
L 991 4734 
Q 947 4734 947 4781 
L 947 4966 
Q 947 5009 991 5009 
L 1906 4997 
L 4519 4997 
L 5434 5009 
Q 5478 5009 5478 4966 
L 5478 4781 
Q 5478 4734 5434 4734 
L 4519 4747 
L 3297 4747 
L 3297 4288 
L 4947 4288 
L 5831 4300 
Q 5881 4300 5881 4256 
L 5869 3972 
L 5869 3738 
L 5881 3097 
Q 5881 3050 5831 3050 
L 5625 3050 
Q 5581 3050 5581 3097 
L 5581 4050 
L 3297 4050 
L 3297 3347 
L 3309 2713 
Q 3309 2669 3266 2669 
L 3041 2669 
Q 2997 2669 2997 2713 
L 3009 3347 
L 3009 4050 
L 831 4050 
L 831 3097 
Q 831 3050 788 3050 
L 575 3050 
Q 531 3050 531 3097 
L 544 3738 
L 544 3941 
L 531 4256 
Q 531 4300 575 4300 
L 1459 4288 
L 3009 4288 
z
M 1766 3681 
L 2088 3681 
L 2516 3694 
Q 2559 3694 2559 3647 
L 2559 3500 
Q 2559 3456 2516 3456 
L 2088 3469 
L 1766 3469 
L 1338 3456 
Q 1294 3456 1294 3500 
L 1294 3647 
Q 1294 3694 1338 3694 
L 1766 3681 
z
M 1766 3103 
L 2088 3103 
L 2516 3116 
Q 2559 3116 2559 3072 
L 2559 2925 
Q 2559 2881 2516 2881 
L 2088 2894 
L 1766 2894 
L 1338 2881 
Q 1294 2881 1294 2925 
L 1294 3072 
Q 1294 3116 1338 3116 
L 1766 3103 
z
M 4250 3681 
L 4603 3681 
L 5056 3694 
Q 5100 3694 5100 3647 
L 5100 3500 
Q 5100 3456 5056 3456 
L 4603 3469 
L 4250 3469 
L 3803 3456 
Q 3756 3456 3756 3500 
L 3756 3647 
Q 3756 3694 3803 3694 
L 4250 3681 
z
M 4250 3103 
L 4603 3103 
L 5056 3116 
Q 5100 3116 5100 3072 
L 5100 2925 
Q 5100 2881 5056 2881 
L 4603 2894 
L 4250 2894 
L 3803 2881 
Q 3756 2881 3756 2925 
L 3756 3072 
Q 3756 3116 3803 3116 
L 4250 3103 
z
" transform="scale(0.015625)"/>
       <path id="YuGothic-Regular-5727" d="M 3425 269 
L 3425 2297 
L 2759 2297 
L 1875 2284 
Q 1831 2284 1831 2328 
L 1831 2547 
Q 1831 2591 1875 2591 
L 2759 2578 
L 3425 2578 
L 3425 3334 
Q 3425 3906 3381 4159 
Q 3578 4150 3722 4122 
Q 3788 4109 3788 4069 
Q 3788 4028 3763 3959 
Q 3725 3831 3725 3353 
L 3725 2578 
L 4519 2578 
L 5400 2591 
Q 5447 2591 5447 2547 
L 5447 2328 
Q 5447 2284 5400 2284 
L 4519 2297 
L 3725 2297 
L 3725 269 
L 4959 269 
L 5875 281 
Q 5919 281 5919 238 
L 5919 13 
Q 5919 -25 5875 -25 
L 4959 -13 
L 2291 -13 
L 1384 -25 
Q 1338 -25 1338 13 
L 1338 238 
Q 1338 281 1384 281 
L 2291 269 
L 3425 269 
z
M 1325 4519 
L 1325 3481 
Q 1325 2188 1191 1466 
Q 1028 506 616 -216 
Q 578 -281 559 -281 
Q 544 -281 494 -231 
Q 400 -138 275 -97 
Q 741 588 903 1575 
Q 1025 2244 1025 3481 
L 1013 4769 
Q 1013 4813 1056 4813 
L 1972 4800 
L 4878 4800 
L 5778 4813 
Q 5825 4813 5825 4769 
L 5825 4550 
Q 5825 4506 5778 4506 
L 4878 4519 
L 1325 4519 
z
" transform="scale(0.015625)"/>
       <path id="YuGothic-Regular-56" d="M 3891 4806 
L 2338 141 
L 1791 141 
L 263 4806 
L 722 4806 
L 1631 1913 
Q 1722 1631 1856 1175 
Q 2013 653 2053 513 
L 2119 513 
Q 2319 1228 2528 1900 
L 3463 4806 
L 3891 4806 
z
" transform="scale(0.015625)"/>
      </defs>
      <use xlink:href="#YuGothic-Regular-96fb"/>
      <use xlink:href="#YuGothic-Regular-5727" x="100"/>
      <use xlink:href="#YuGothic-Regular-5b" x="200"/>
      <use xlink:href="#YuGothic-Regular-56" x="238.623047"/>
      <use xlink:href="#YuGothic-Regular-5d" x="303.515625"/>
     </g>
    </g>
   </g>
   <g id="patch_3">
    <path d="M 96.179079 92.66 
Q 96.179079 63.789934 96.179079 36.037903 
" clip-path="url(#p71c3889fd0)" style="fill: none; stroke: #000000; stroke-linecap: round"/>
    <path d="M 92.179079 44.037903 
L 96.179079 36.037903 
L 100.179079 44.037903 
" clip-path="url(#p71c3889fd0)" style="fill: none; stroke: #000000; stroke-linecap: round"/>
   </g>
   <g id="line2d_29">
    <path d="M 47.55 170.56 
L 71.743571 170.56 
L 71.985507 92.66 
L 555.856936 92.66 
L 555.856936 92.66 
" clip-path="url(#p71c3889fd0)" style="fill: none; stroke: #1f77b4; stroke-width: 1.5; stroke-linecap: square"/>
   </g>
   <g id="line2d_30">
    <path d="M 47.55 170.56 
L 72.227443 170.469428 
L 72.711314 170.083509 
L 73.195186 169.394453 
L 73.920993 167.80669 
L 74.6468 165.577483 
L 75.614543 161.662237 
L 76.582286 156.750398 
L 77.791964 149.364437 
L 79.243579 138.97106 
L 81.179064 123.223489 
L 87.953264 66.07867 
L 89.404879 56.261249 
L 90.614557 49.314766 
L 91.824236 43.638899 
L 92.791979 40.082784 
L 93.759721 37.441112 
L 94.485529 36.072582 
L 95.211336 35.232817 
L 95.695207 34.965963 
L 96.179079 34.931613 
L 96.66295 35.12713 
L 97.146821 35.548994 
L 97.872629 36.596391 
L 98.598436 38.124787 
L 99.566179 40.871957 
L 100.533921 44.371632 
L 101.7436 49.692198 
L 103.195214 57.247745 
L 105.1307 68.790623 
L 112.388771 113.911287 
L 113.840386 120.962387 
L 115.050064 125.893146 
L 116.259743 129.861393 
L 117.227486 132.295641 
L 117.953293 133.673591 
L 118.6791 134.661415 
L 119.404907 135.257266 
L 119.888779 135.437426 
L 120.37265 135.445406 
L 120.856521 135.283229 
L 121.582329 134.726942 
L 122.308136 133.805644 
L 123.033943 132.534059 
L 124.001686 130.324495 
L 124.969429 127.572665 
L 126.179107 123.456715 
L 127.630721 117.69079 
L 129.566207 108.990517 
L 136.098471 78.62883 
L 137.550086 73.154263 
L 139.0017 68.560925 
L 140.211379 65.501847 
L 141.179121 63.598328 
L 142.146864 62.19879 
L 142.872671 61.48629 
L 143.598479 61.064347 
L 144.324286 60.931535 
L 145.050093 61.083882 
L 145.7759 61.514944 
L 146.501707 62.215904 
L 147.46945 63.550937 
L 148.437193 65.313896 
L 149.646871 68.060995 
L 151.098486 72.040107 
L 152.792036 77.410729 
L 155.453329 86.760281 
L 159.082364 99.429973 
L 160.775914 104.620214 
L 162.227529 108.451464 
L 163.437207 111.119451 
L 164.646886 113.254901 
L 165.614629 114.554637 
L 166.582371 115.477868 
L 167.308179 115.919579 
L 168.033986 116.146102 
L 168.759793 116.159258 
L 169.4856 115.962735 
L 170.211407 115.562025 
L 171.17915 114.722827 
L 172.146893 113.555191 
L 173.356571 111.674135 
L 174.56625 109.381354 
L 176.2598 105.611488 
L 178.437221 100.113709 
L 183.759807 86.376936 
L 185.453357 82.696315 
L 186.904971 80.035995 
L 188.11465 78.228239 
L 189.324329 76.828606 
L 190.292071 76.018137 
L 191.259814 75.489637 
L 192.227557 75.244763 
L 193.1953 75.280656 
L 194.163043 75.590091 
L 195.130786 76.161695 
L 196.098529 76.980227 
L 197.308207 78.321719 
L 198.759821 80.340047 
L 200.453371 83.146812 
L 202.630793 87.231029 
L 207.953379 97.402539 
L 209.646929 100.118842 
L 211.098543 102.078129 
L 212.308221 103.406252 
L 213.5179 104.431008 
L 214.727579 105.136176 
L 215.695321 105.464629 
L 216.663064 105.583127 
L 217.630807 105.494779 
L 218.59855 105.205885 
L 219.808229 104.577212 
L 221.017907 103.674225 
L 222.469521 102.271578 
L 224.163071 100.274395 
L 226.340493 97.309338 
L 232.630821 88.47789 
L 234.324371 86.565316 
L 235.775986 85.21794 
L 237.2276 84.180568 
L 238.437279 83.571757 
L 239.646957 83.204305 
L 240.856636 83.08011 
L 242.066314 83.195035 
L 243.275993 83.539187 
L 244.485671 84.097335 
L 245.937286 85.021065 
L 247.630836 86.394456 
L 249.808257 88.505146 
L 257.792136 96.641459 
L 259.485686 97.90062 
L 260.9373 98.740793 
L 262.388914 99.336888 
L 263.840529 99.676519 
L 265.292143 99.756782 
L 266.743757 99.584019 
L 268.195371 99.173267 
L 269.888921 98.424199 
L 271.582471 97.43047 
L 273.759893 95.886752 
L 278.356671 92.238609 
L 281.017964 90.295884 
L 282.95345 89.123023 
L 284.647 88.320528 
L 286.34055 87.758422 
L 288.0341 87.45368 
L 289.72765 87.41028 
L 291.4212 87.619547 
L 293.11475 88.061089 
L 295.050236 88.810401 
L 297.227657 89.894057 
L 300.856693 92.002769 
L 304.727664 94.193763 
L 307.147021 95.301537 
L 309.082507 95.961558 
L 311.017993 96.385436 
L 312.953479 96.557891 
L 314.888964 96.479987 
L 316.82445 96.1683 
L 319.001871 95.576429 
L 321.663164 94.592186 
L 327.227686 92.181597 
L 330.37285 90.989 
L 332.792207 90.30789 
L 334.969629 89.921444 
L 337.14705 89.769799 
L 339.324471 89.85249 
L 341.501893 90.150721 
L 344.163186 90.756284 
L 347.550286 91.776859 
L 354.08255 93.789814 
L 356.985779 94.411899 
L 359.405136 94.715276 
L 361.824493 94.803158 
L 364.24385 94.679637 
L 366.905143 94.328997 
L 370.292243 93.644451 
L 379.969671 91.522671 
L 382.8729 91.183533 
L 385.776129 91.070643 
L 388.679357 91.183781 
L 392.066457 91.558333 
L 396.663236 92.32259 
L 403.1955 93.391912 
L 406.824536 93.742842 
L 410.211636 93.837079 
L 413.598736 93.70603 
L 417.711643 93.307613 
L 430.2923 91.891923 
L 434.163271 91.786801 
L 438.276179 91.913422 
L 443.356829 92.318735 
L 453.518129 93.186685 
L 458.114907 93.307361 
L 462.711686 93.200731 
L 469.002014 92.80432 
L 477.7117 92.267717 
L 483.034286 92.182216 
L 488.598807 92.325475 
L 506.985921 93.014889 
L 513.518186 92.882556 
L 530.695621 92.39633 
L 538.195629 92.508766 
L 555.373064 92.854818 
L 555.856936 92.853437 
L 555.856936 92.853437 
" clip-path="url(#p71c3889fd0)" style="fill: none; stroke: #ff7f0e; stroke-width: 1.5; stroke-linecap: square"/>
   </g>
   <g id="LineCollection_1">
    <path d="M 47.55 96.555 
L 555.615 96.555 
" clip-path="url(#p71c3889fd0)" style="fill: none; stroke-dasharray: 1.5,2.475; stroke-dashoffset: 0; stroke: #000000; stroke-width: 1.5"/>
    <path d="M 47.55 88.765 
L 555.615 88.765 
" clip-path="url(#p71c3889fd0)" style="fill: none; stroke-dasharray: 1.5,2.475; stroke-dashoffset: 0; stroke: #000000; stroke-width: 1.5"/>
   </g>
   <g id="LineCollection_2">
    <path d="M 296.495556 217 
L 296.495556 88.765 
" clip-path="url(#p71c3889fd0)" style="fill: none; stroke-dasharray: 5.55,2.4; stroke-dashoffset: 0; stroke: #000000; stroke-width: 1.5"/>
   </g>
   <g id="patch_4">
    <path d="M 47.55 178.35 
L 47.55 14.76 
" style="fill: none; stroke: #000000; stroke-width: 0.8; stroke-linejoin: miter; stroke-linecap: square"/>
   </g>
   <g id="patch_5">
    <path d="M 555.615 178.35 
L 555.615 14.76 
" style="fill: none; stroke: #000000; stroke-width: 0.8; stroke-linejoin: miter; stroke-linecap: square"/>
   </g>
   <g id="patch_6">
    <path d="M 47.55 178.35 
L 555.615 178.35 
" style="fill: none; stroke: #000000; stroke-width: 0.8; stroke-linejoin: miter; stroke-linecap: square"/>
   </g>
   <g id="patch_7">
    <path d="M 47.55 14.76 
L 555.615 14.76 
" style="fill: none; stroke: #000000; stroke-width: 0.8; stroke-linejoin: miter; stroke-linecap: square"/>
   </g>
   <g id="legend_1">
    <g id="patch_8">
     <path d="M 498.015 173.35 
L 548.615 173.35 
Q 550.615 173.35 550.615 171.35 
L 550.615 143.565625 
Q 550.615 141.565625 548.615 141.565625 
L 498.015 141.565625 
Q 496.015 141.565625 496.015 143.565625 
L 496.015 171.35 
Q 496.015 173.35 498.015 173.35 
z
" style="fill: #ffffff; opacity: 0.8; stroke: #cccccc; stroke-linejoin: miter"/>
    </g>
    <g id="line2d_31">
     <path d="M 500.015 149.707812 
L 510.015 149.707812 
L 520.015 149.707812 
" style="fill: none; stroke: #1f77b4; stroke-width: 1.5; stroke-linecap: square"/>
    </g>
    <g id="text_17">
     <!-- $V_{in}$ -->
     <g transform="translate(528.015 153.207812)scale(0.1 -0.1)">
      <defs>
       <path id="DejaVuSans-Oblique-56" d="M 1319 0 
L 500 4666 
L 1119 4666 
L 1797 653 
L 4063 4666 
L 4750 4666 
L 2053 0 
L 1319 0 
z
" transform="scale(0.015625)"/>
       <path id="DejaVuSans-Oblique-69" d="M 1172 4863 
L 1747 4863 
L 1606 4134 
L 1031 4134 
L 1172 4863 
z
M 909 3500 
L 1484 3500 
L 800 0 
L 225 0 
L 909 3500 
z
" transform="scale(0.015625)"/>
       <path id="DejaVuSans-Oblique-6e" d="M 3566 2113 
L 3156 0 
L 2578 0 
L 2988 2091 
Q 3016 2238 3031 2350 
Q 3047 2463 3047 2528 
Q 3047 2791 2881 2937 
Q 2716 3084 2419 3084 
Q 1956 3084 1622 2776 
Q 1288 2469 1184 1941 
L 800 0 
L 225 0 
L 903 3500 
L 1478 3500 
L 1363 2950 
Q 1603 3253 1940 3418 
Q 2278 3584 2650 3584 
Q 3113 3584 3367 3334 
Q 3622 3084 3622 2631 
Q 3622 2519 3608 2391 
Q 3594 2263 3566 2113 
z
" transform="scale(0.015625)"/>
      </defs>
      <use xlink:href="#DejaVuSans-Oblique-56" transform="translate(0 0.09375)"/>
      <use xlink:href="#DejaVuSans-Oblique-69" transform="translate(68.408203 -16.3125)scale(0.7)"/>
      <use xlink:href="#DejaVuSans-Oblique-6e" transform="translate(87.856445 -16.3125)scale(0.7)"/>
     </g>
    </g>
    <g id="line2d_32">
     <path d="M 500.015 164.05 
L 510.015 164.05 
L 520.015 164.05 
" style="fill: none; stroke: #ff7f0e; stroke-width: 1.5; stroke-linecap: square"/>
    </g>
    <g id="text_18">
     <!-- $V_{out}$ -->
     <g transform="translate(528.015 167.55)scale(0.1 -0.1)">
      <defs>
       <path id="DejaVuSans-Oblique-6f" d="M 1625 -91 
Q 1009 -91 651 289 
Q 294 669 294 1325 
Q 294 1706 417 2101 
Q 541 2497 738 2766 
Q 1047 3184 1428 3384 
Q 1809 3584 2291 3584 
Q 2888 3584 3255 3212 
Q 3622 2841 3622 2241 
Q 3622 1825 3500 1412 
Q 3378 1000 3181 728 
Q 2875 309 2494 109 
Q 2113 -91 1625 -91 
z
M 891 1344 
Q 891 869 1089 633 
Q 1288 397 1691 397 
Q 2269 397 2648 901 
Q 3028 1406 3028 2181 
Q 3028 2634 2825 2865 
Q 2622 3097 2228 3097 
Q 1903 3097 1650 2945 
Q 1397 2794 1197 2484 
Q 1050 2253 970 1956 
Q 891 1659 891 1344 
z
" transform="scale(0.015625)"/>
       <path id="DejaVuSans-Oblique-75" d="M 428 1388 
L 838 3500 
L 1416 3500 
L 1006 1409 
Q 975 1256 961 1147 
Q 947 1038 947 966 
Q 947 700 1109 554 
Q 1272 409 1569 409 
Q 2031 409 2368 721 
Q 2706 1034 2809 1563 
L 3194 3500 
L 3769 3500 
L 3091 0 
L 2516 0 
L 2631 550 
Q 2388 244 2052 76 
Q 1716 -91 1338 -91 
Q 878 -91 622 161 
Q 366 413 366 863 
Q 366 956 381 1097 
Q 397 1238 428 1388 
z
" transform="scale(0.015625)"/>
       <path id="DejaVuSans-Oblique-74" d="M 2706 3500 
L 2619 3053 
L 1472 3053 
L 1100 1153 
Q 1081 1047 1072 975 
Q 1063 903 1063 863 
Q 1063 663 1183 572 
Q 1303 481 1569 481 
L 2150 481 
L 2053 0 
L 1503 0 
Q 991 0 739 200 
Q 488 400 488 806 
Q 488 878 497 964 
Q 506 1050 525 1153 
L 897 3053 
L 409 3053 
L 500 3500 
L 978 3500 
L 1172 4494 
L 1747 4494 
L 1556 3500 
L 2706 3500 
z
" transform="scale(0.015625)"/>
      </defs>
      <use xlink:href="#DejaVuSans-Oblique-56" transform="translate(0 0.09375)"/>
      <use xlink:href="#DejaVuSans-Oblique-6f" transform="translate(68.408203 -16.3125)scale(0.7)"/>
      <use xlink:href="#DejaVuSans-Oblique-75" transform="translate(111.235352 -16.3125)scale(0.7)"/>
      <use xlink:href="#DejaVuSans-Oblique-74" transform="translate(155.600586 -16.3125)scale(0.7)"/>
     </g>
    </g>
   </g>
  </g>
 </g>
 <defs>
  <clipPath id="p71c3889fd0">
   <rect x="47.55" y="14.76" width="508.065" height="163.59"/>
  </clipPath>
 </defs>
</svg>
