<?xml version="1.0" encoding="utf-8" standalone="no"?>
<!DOCTYPE svg PUBLIC "-//W3C//DTD SVG 1.1//EN"
  "http://www.w3.org/Graphics/SVG/1.1/DTD/svg11.dtd">
<svg xmlns:xlink="http://www.w3.org/1999/xlink" width="310.023443pt" height="235.179pt" viewBox="0 0 310.023443 235.179" xmlns="http://www.w3.org/2000/svg" version="1.1">
 <metadata>
  <rdf:RDF xmlns:dc="http://purl.org/dc/elements/1.1/" xmlns:cc="http://creativecommons.org/ns#" xmlns:rdf="http://www.w3.org/1999/02/22-rdf-syntax-ns#">
   <cc:Work>
    <dc:type rdf:resource="http://purl.org/dc/dcmitype/StillImage"/>
    <dc:date>2022-08-18T11:50:41.754668</dc:date>
    <dc:format>image/svg+xml</dc:format>
    <dc:creator>
     <cc:Agent>
      <dc:title>Matplotlib v3.5.3, https://matplotlib.org/</dc:title>
     </cc:Agent>
    </dc:creator>
   </cc:Work>
  </rdf:RDF>
 </metadata>
 <defs>
  <style type="text/css">*{stroke-linejoin: round; stroke-linecap: butt}</style>
 </defs>
 <g id="figure_1">
  <g id="patch_1">
   <path d="M 0 235.179 
L 310.023443 235.179 
L 310.023443 0 
L 0 0 
L 0 235.179 
z
" style="fill: none"/>
  </g>
  <g id="axes_1">
   <g id="patch_2">
    <path d="M 52.8756 90.585 
C 56.933207 90.585 60.825172 88.972895 63.694334 86.103734 
C 66.563495 83.234572 68.1756 79.342607 68.1756 75.285 
C 68.1756 71.227393 66.563495 67.335428 63.694334 64.466266 
C 60.825172 61.597105 56.933207 59.985 52.8756 59.985 
C 48.817993 59.985 44.926028 61.597105 42.056866 64.466266 
C 39.187705 67.335428 37.5756 71.227393 37.5756 75.285 
C 37.5756 79.342607 39.187705 83.234572 42.056866 86.103734 
C 44.926028 88.972895 48.817993 90.585 52.8756 90.585 
L 52.8756 90.585 
z
" clip-path="url(#p92b29b751f)" style="fill: none; stroke: #000000; stroke-width: 2; stroke-linejoin: miter"/>
   </g>
   <g id="patch_3">
    <path d="M 52.8756 90.585 
C 56.933207 90.585 60.825172 88.972895 63.694334 86.103734 
C 66.563495 83.234572 68.1756 79.342607 68.1756 75.285 
C 68.1756 71.227393 66.563495 67.335428 63.694334 64.466266 
C 60.825172 61.597105 56.933207 59.985 52.8756 59.985 
C 48.817993 59.985 44.926028 61.597105 42.056866 64.466266 
C 39.187705 67.335428 37.5756 71.227393 37.5756 75.285 
C 37.5756 79.342607 39.187705 83.234572 42.056866 86.103734 
C 44.926028 88.972895 48.817993 90.585 52.8756 90.585 
L 52.8756 90.585 
z
" clip-path="url(#p92b29b751f)" style="fill: none; stroke: #000000; stroke-width: 2; stroke-linejoin: miter"/>
   </g>
   <g id="line2d_1">
    <path d="M 163.8006 48.51 
L 163.8006 86.76 
L 230.051543 48.51 
L 163.8006 10.26 
L 163.8006 48.51 
M 230.051543 48.51 
" clip-path="url(#p92b29b751f)" style="fill: none; stroke: #000000; stroke-width: 2; stroke-linecap: round"/>
   </g>
   <g id="line2d_2">
    <path d="M 169.021968 67.635 
L 175.141968 67.635 
" clip-path="url(#p92b29b751f)" style="fill: none; stroke: #000000; stroke-width: 2; stroke-linecap: round"/>
   </g>
   <g id="line2d_3">
    <path d="M 169.021968 29.385 
L 175.141968 29.385 
" clip-path="url(#p92b29b751f)" style="fill: none; stroke: #000000; stroke-width: 2; stroke-linecap: round"/>
   </g>
   <g id="line2d_4">
    <path d="M 172.081968 26.325 
L 172.081968 32.445 
" clip-path="url(#p92b29b751f)" style="fill: none; stroke: #000000; stroke-width: 2; stroke-linecap: round"/>
   </g>
   <g id="line2d_5">
    <path d="M 144.6756 67.635 
L 163.8006 67.635 
" clip-path="url(#p92b29b751f)" style="fill: none; stroke: #000000; stroke-width: 2; stroke-linecap: round"/>
   </g>
   <g id="line2d_6">
    <path d="M 144.6756 29.385 
L 163.8006 29.385 
" clip-path="url(#p92b29b751f)" style="fill: none; stroke: #000000; stroke-width: 2; stroke-linecap: round"/>
   </g>
   <g id="line2d_7">
    <path d="M 230.051543 48.51 
L 249.176543 48.51 
" clip-path="url(#p92b29b751f)" style="fill: none; stroke: #000000; stroke-width: 2; stroke-linecap: round"/>
   </g>
   <g id="line2d_8">
    <path d="M 249.176543 48.51 
L 264.476543 48.51 
L 279.776543 48.51 
" clip-path="url(#p92b29b751f)" style="fill: none; stroke: #000000; stroke-width: 2; stroke-linecap: round"/>
   </g>
   <g id="line2d_9">
    <path d="M 144.6756 67.635 
L 144.6756 90.585 
L 144.6756 113.535 
" clip-path="url(#p92b29b751f)" style="fill: none; stroke: #000000; stroke-width: 2; stroke-linecap: round"/>
   </g>
   <g id="line2d_10">
    <path d="M 144.6756 113.535 
L 144.6756 144.135 
L 152.3256 146.685 
L 137.0256 151.785 
L 152.3256 156.885 
L 137.0256 161.985 
L 152.3256 167.085 
L 137.0256 172.185 
L 144.6756 174.735 
L 144.6756 205.335 
" clip-path="url(#p92b29b751f)" style="fill: none; stroke: #000000; stroke-width: 2; stroke-linecap: round"/>
   </g>
   <g id="line2d_11">
    <path d="M 144.6756 205.335 
L 144.6756 217.575 
L 137.0256 217.575 
L 152.3256 217.575 
M 139.3206 221.247 
L 150.0306 221.247 
M 143.1456 224.919 
L 146.2056 224.919 
" clip-path="url(#p92b29b751f)" style="fill: none; stroke: #000000; stroke-width: 2; stroke-linecap: round"/>
   </g>
   <g id="line2d_12">
    <path d="M 144.6756 113.535 
L 181.626072 113.535 
L 184.176072 105.885 
L 189.276072 121.185 
L 194.376072 105.885 
L 199.476072 121.185 
L 204.576072 105.885 
L 209.676072 121.185 
L 212.226072 113.535 
L 249.176543 113.535 
" clip-path="url(#p92b29b751f)" style="fill: none; stroke: #000000; stroke-width: 2; stroke-linecap: round"/>
   </g>
   <g id="line2d_13">
    <path d="M 249.176543 113.535 
L 249.176543 81.0225 
L 249.176543 48.51 
" clip-path="url(#p92b29b751f)" style="fill: none; stroke: #000000; stroke-width: 2; stroke-linecap: round"/>
   </g>
   <g id="line2d_14">
    <path d="M 144.6756 29.385 
L 98.7756 29.385 
L 52.8756 29.385 
" clip-path="url(#p92b29b751f)" style="fill: none; stroke: #000000; stroke-width: 2; stroke-linecap: round"/>
   </g>
   <g id="line2d_15">
    <path d="M 52.8756 29.385 
L 52.8756 59.985 
L 52.8756 59.985 
M 52.8756 90.585 
L 52.8756 90.585 
L 52.8756 121.185 
" clip-path="url(#p92b29b751f)" style="fill: none; stroke: #000000; stroke-width: 2; stroke-linecap: round"/>
   </g>
   <g id="line2d_16">
    <path d="M 60.5256 75.285 
L 59.8881 76.868973 
L 59.2506 78.345 
L 58.6131 79.612494 
L 57.9756 80.585075 
L 57.3381 81.196466 
L 56.7006 81.405 
L 56.0631 81.196466 
L 55.4256 80.585075 
L 54.7881 79.612494 
L 54.1506 78.345 
L 53.5131 76.868973 
L 52.8756 75.285 
L 52.2381 73.701027 
L 51.6006 72.225 
L 50.9631 70.957506 
L 50.3256 69.984925 
L 49.6881 69.373534 
L 49.0506 69.165 
L 48.4131 69.373534 
L 47.7756 69.984925 
L 47.1381 70.957506 
L 46.5006 72.225 
L 45.8631 73.701027 
L 45.2256 75.285 
" clip-path="url(#p92b29b751f)" style="fill: none; stroke: #000000; stroke-width: 2; stroke-linecap: round"/>
   </g>
   <g id="line2d_17">
    <path d="M 52.8756 121.185 
L 52.8756 163.26 
L 52.8756 205.335 
" clip-path="url(#p92b29b751f)" style="fill: none; stroke: #000000; stroke-width: 2; stroke-linecap: round"/>
   </g>
   <g id="line2d_18">
    <path d="M 52.8756 205.335 
L 52.8756 217.575 
L 45.2256 217.575 
L 60.5256 217.575 
M 47.5206 221.247 
L 58.2306 221.247 
M 51.3456 224.919 
L 54.4056 224.919 
" clip-path="url(#p92b29b751f)" style="fill: none; stroke: #000000; stroke-width: 2; stroke-linecap: round"/>
   </g>
   <g id="line2d_19">
    <path d="M 279.776543 140.31 
L 279.776543 172.8225 
L 279.776543 205.335 
" clip-path="url(#p92b29b751f)" style="fill: none; stroke: #000000; stroke-width: 2; stroke-linecap: round"/>
   </g>
   <g id="line2d_20">
    <path d="M 279.776543 205.335 
L 279.776543 217.575 
L 272.126543 217.575 
L 287.426543 217.575 
M 274.421543 221.247 
L 285.131543 221.247 
M 278.246543 224.919 
L 281.306543 224.919 
" clip-path="url(#p92b29b751f)" style="fill: none; stroke: #000000; stroke-width: 2; stroke-linecap: round"/>
   </g>
   <g id="line2d_21">
    <path d="M 163.8006 48.51 
L 163.8006 86.76 
L 230.051543 48.51 
L 163.8006 10.26 
L 163.8006 48.51 
M 230.051543 48.51 
" clip-path="url(#p92b29b751f)" style="fill: none; stroke: #000000; stroke-width: 2; stroke-linecap: round"/>
   </g>
   <g id="line2d_22">
    <path d="M 169.021968 67.635 
L 175.141968 67.635 
" clip-path="url(#p92b29b751f)" style="fill: none; stroke: #000000; stroke-width: 2; stroke-linecap: round"/>
   </g>
   <g id="line2d_23">
    <path d="M 169.021968 29.385 
L 175.141968 29.385 
" clip-path="url(#p92b29b751f)" style="fill: none; stroke: #000000; stroke-width: 2; stroke-linecap: round"/>
   </g>
   <g id="line2d_24">
    <path d="M 172.081968 26.325 
L 172.081968 32.445 
" clip-path="url(#p92b29b751f)" style="fill: none; stroke: #000000; stroke-width: 2; stroke-linecap: round"/>
   </g>
   <g id="line2d_25">
    <path d="M 144.6756 67.635 
L 163.8006 67.635 
" clip-path="url(#p92b29b751f)" style="fill: none; stroke: #000000; stroke-width: 2; stroke-linecap: round"/>
   </g>
   <g id="line2d_26">
    <path d="M 144.6756 29.385 
L 163.8006 29.385 
" clip-path="url(#p92b29b751f)" style="fill: none; stroke: #000000; stroke-width: 2; stroke-linecap: round"/>
   </g>
   <g id="line2d_27">
    <path d="M 230.051543 48.51 
L 249.176543 48.51 
" clip-path="url(#p92b29b751f)" style="fill: none; stroke: #000000; stroke-width: 2; stroke-linecap: round"/>
   </g>
   <g id="line2d_28">
    <path d="M 249.176543 48.51 
L 264.476543 48.51 
L 279.776543 48.51 
" clip-path="url(#p92b29b751f)" style="fill: none; stroke: #000000; stroke-width: 2; stroke-linecap: round"/>
   </g>
   <g id="line2d_29">
    <path d="M 144.6756 67.635 
L 144.6756 90.585 
L 144.6756 113.535 
" clip-path="url(#p92b29b751f)" style="fill: none; stroke: #000000; stroke-width: 2; stroke-linecap: round"/>
   </g>
   <g id="line2d_30">
    <path d="M 144.6756 113.535 
L 144.6756 144.135 
L 152.3256 146.685 
L 137.0256 151.785 
L 152.3256 156.885 
L 137.0256 161.985 
L 152.3256 167.085 
L 137.0256 172.185 
L 144.6756 174.735 
L 144.6756 205.335 
" clip-path="url(#p92b29b751f)" style="fill: none; stroke: #000000; stroke-width: 2; stroke-linecap: round"/>
   </g>
   <g id="line2d_31">
    <path d="M 144.6756 205.335 
L 144.6756 217.575 
L 137.0256 217.575 
L 152.3256 217.575 
M 139.3206 221.247 
L 150.0306 221.247 
M 143.1456 224.919 
L 146.2056 224.919 
" clip-path="url(#p92b29b751f)" style="fill: none; stroke: #000000; stroke-width: 2; stroke-linecap: round"/>
   </g>
   <g id="line2d_32">
    <path d="M 144.6756 113.535 
L 181.626072 113.535 
L 184.176072 105.885 
L 189.276072 121.185 
L 194.376072 105.885 
L 199.476072 121.185 
L 204.576072 105.885 
L 209.676072 121.185 
L 212.226072 113.535 
L 249.176543 113.535 
" clip-path="url(#p92b29b751f)" style="fill: none; stroke: #000000; stroke-width: 2; stroke-linecap: round"/>
   </g>
   <g id="line2d_33">
    <path d="M 249.176543 113.535 
L 249.176543 81.0225 
L 249.176543 48.51 
" clip-path="url(#p92b29b751f)" style="fill: none; stroke: #000000; stroke-width: 2; stroke-linecap: round"/>
   </g>
   <g id="line2d_34">
    <path d="M 144.6756 29.385 
L 98.7756 29.385 
L 52.8756 29.385 
" clip-path="url(#p92b29b751f)" style="fill: none; stroke: #000000; stroke-width: 2; stroke-linecap: round"/>
   </g>
   <g id="line2d_35">
    <path d="M 52.8756 29.385 
L 52.8756 59.985 
L 52.8756 59.985 
M 52.8756 90.585 
L 52.8756 90.585 
L 52.8756 121.185 
" clip-path="url(#p92b29b751f)" style="fill: none; stroke: #000000; stroke-width: 2; stroke-linecap: round"/>
   </g>
   <g id="line2d_36">
    <path d="M 60.5256 75.285 
L 59.8881 76.868973 
L 59.2506 78.345 
L 58.6131 79.612494 
L 57.9756 80.585075 
L 57.3381 81.196466 
L 56.7006 81.405 
L 56.0631 81.196466 
L 55.4256 80.585075 
L 54.7881 79.612494 
L 54.1506 78.345 
L 53.5131 76.868973 
L 52.8756 75.285 
L 52.2381 73.701027 
L 51.6006 72.225 
L 50.9631 70.957506 
L 50.3256 69.984925 
L 49.6881 69.373534 
L 49.0506 69.165 
L 48.4131 69.373534 
L 47.7756 69.984925 
L 47.1381 70.957506 
L 46.5006 72.225 
L 45.8631 73.701027 
L 45.2256 75.285 
" clip-path="url(#p92b29b751f)" style="fill: none; stroke: #000000; stroke-width: 2; stroke-linecap: round"/>
   </g>
   <g id="line2d_37">
    <path d="M 52.8756 121.185 
L 52.8756 163.26 
L 52.8756 205.335 
" clip-path="url(#p92b29b751f)" style="fill: none; stroke: #000000; stroke-width: 2; stroke-linecap: round"/>
   </g>
   <g id="line2d_38">
    <path d="M 52.8756 205.335 
L 52.8756 217.575 
L 45.2256 217.575 
L 60.5256 217.575 
M 47.5206 221.247 
L 58.2306 221.247 
M 51.3456 224.919 
L 54.4056 224.919 
" clip-path="url(#p92b29b751f)" style="fill: none; stroke: #000000; stroke-width: 2; stroke-linecap: round"/>
   </g>
   <g id="line2d_39">
    <path d="M 279.776543 140.31 
L 279.776543 172.8225 
L 279.776543 205.335 
" clip-path="url(#p92b29b751f)" style="fill: none; stroke: #000000; stroke-width: 2; stroke-linecap: round"/>
   </g>
   <g id="line2d_40">
    <path d="M 279.776543 205.335 
L 279.776543 217.575 
L 272.126543 217.575 
L 287.426543 217.575 
M 274.421543 221.247 
L 285.131543 221.247 
M 278.246543 224.919 
L 281.306543 224.919 
" clip-path="url(#p92b29b751f)" style="fill: none; stroke: #000000; stroke-width: 2; stroke-linecap: round"/>
   </g>
   <g id="patch_4">
    <path d="M 279.776543 50.805 
C 280.385185 50.805 280.968979 50.563184 281.399353 50.13281 
C 281.829728 49.702436 282.071543 49.118641 282.071543 48.51 
C 282.071543 47.901359 281.829728 47.317564 281.399353 46.88719 
C 280.968979 46.456816 280.385185 46.215 279.776543 46.215 
C 279.167902 46.215 278.584108 46.456816 278.153733 46.88719 
C 277.723359 47.317564 277.481543 47.901359 277.481543 48.51 
C 277.481543 49.118641 277.723359 49.702436 278.153733 50.13281 
C 278.584108 50.563184 279.167902 50.805 279.776543 50.805 
z
" clip-path="url(#p92b29b751f)" style="fill: #ffffff; stroke: #000000; stroke-width: 2; stroke-linejoin: miter"/>
   </g>
   <g id="patch_5">
    <path d="M 144.6756 115.83 
C 145.284241 115.83 145.868036 115.588184 146.29841 115.15781 
C 146.728784 114.727436 146.9706 114.143641 146.9706 113.535 
C 146.9706 112.926359 146.728784 112.342564 146.29841 111.91219 
C 145.868036 111.481816 145.284241 111.24 144.6756 111.24 
C 144.066959 111.24 143.483164 111.481816 143.05279 111.91219 
C 142.622416 112.342564 142.3806 112.926359 142.3806 113.535 
C 142.3806 114.143641 142.622416 114.727436 143.05279 115.15781 
C 143.483164 115.588184 144.066959 115.83 144.6756 115.83 
z
" clip-path="url(#p92b29b751f)" style="stroke: #000000; stroke-width: 2; stroke-linejoin: miter"/>
   </g>
   <g id="text_1">
    <g clip-path="url(#p92b29b751f)">
     <!-- $R_1$ -->
     <g transform="translate(119.3406 163.081484)scale(0.125 -0.125)">
      <defs>
       <path id="DejaVuSans-Oblique-52" d="M 1613 4147 
L 1294 2491 
L 2106 2491 
Q 2584 2491 2879 2755 
Q 3175 3019 3175 3444 
Q 3175 3784 2976 3965 
Q 2778 4147 2406 4147 
L 1613 4147 
z
M 2772 2241 
Q 2972 2194 3105 2009 
Q 3238 1825 3413 1275 
L 3809 0 
L 3144 0 
L 2778 1197 
Q 2638 1659 2453 1815 
Q 2269 1972 1888 1972 
L 1191 1972 
L 806 0 
L 172 0 
L 1081 4666 
L 2503 4666 
Q 3150 4666 3495 4373 
Q 3841 4081 3841 3531 
Q 3841 3044 3547 2687 
Q 3253 2331 2772 2241 
z
" transform="scale(0.015625)"/>
       <path id="DejaVuSans-31" d="M 794 531 
L 1825 531 
L 1825 4091 
L 703 3866 
L 703 4441 
L 1819 4666 
L 2450 4666 
L 2450 531 
L 3481 531 
L 3481 0 
L 794 0 
L 794 531 
z
" transform="scale(0.015625)"/>
      </defs>
      <use xlink:href="#DejaVuSans-Oblique-52" transform="translate(0 0.09375)"/>
      <use xlink:href="#DejaVuSans-31" transform="translate(69.482422 -16.3125)scale(0.7)"/>
     </g>
    </g>
   </g>
   <g id="text_2">
    <g clip-path="url(#p92b29b751f)">
     <!-- $R_2$ -->
     <g transform="translate(189.613572 100.7)scale(0.125 -0.125)">
      <defs>
       <path id="DejaVuSans-32" d="M 1228 531 
L 3431 531 
L 3431 0 
L 469 0 
L 469 531 
Q 828 903 1448 1529 
Q 2069 2156 2228 2338 
Q 2531 2678 2651 2914 
Q 2772 3150 2772 3378 
Q 2772 3750 2511 3984 
Q 2250 4219 1831 4219 
Q 1534 4219 1204 4116 
Q 875 4013 500 3803 
L 500 4441 
Q 881 4594 1212 4672 
Q 1544 4750 1819 4750 
Q 2544 4750 2975 4387 
Q 3406 4025 3406 3419 
Q 3406 3131 3298 2873 
Q 3191 2616 2906 2266 
Q 2828 2175 2409 1742 
Q 1991 1309 1228 531 
z
" transform="scale(0.015625)"/>
      </defs>
      <use xlink:href="#DejaVuSans-Oblique-52" transform="translate(0 0.09375)"/>
      <use xlink:href="#DejaVuSans-32" transform="translate(69.482422 -16.3125)scale(0.7)"/>
     </g>
    </g>
   </g>
   <g id="patch_6">
    <path d="M 249.176543 50.805 
C 249.785185 50.805 250.368979 50.563184 250.799353 50.13281 
C 251.229728 49.702436 251.471543 49.118641 251.471543 48.51 
C 251.471543 47.901359 251.229728 47.317564 250.799353 46.88719 
C 250.368979 46.456816 249.785185 46.215 249.176543 46.215 
C 248.567902 46.215 247.984108 46.456816 247.553733 46.88719 
C 247.123359 47.317564 246.881543 47.901359 246.881543 48.51 
C 246.881543 49.118641 247.123359 49.702436 247.553733 50.13281 
C 247.984108 50.563184 248.567902 50.805 249.176543 50.805 
z
" clip-path="url(#p92b29b751f)" style="stroke: #000000; stroke-width: 2; stroke-linejoin: miter"/>
   </g>
   <g id="text_3">
    <g clip-path="url(#p92b29b751f)">
     <!-- $v_{in}$ -->
     <g transform="translate(18.7656 78.931484)scale(0.125 -0.125)">
      <defs>
       <path id="DejaVuSans-Oblique-76" d="M 459 3500 
L 1069 3500 
L 1581 525 
L 3256 3500 
L 3866 3500 
L 1875 0 
L 1100 0 
L 459 3500 
z
" transform="scale(0.015625)"/>
       <path id="DejaVuSans-Oblique-69" d="M 1172 4863 
L 1747 4863 
L 1606 4134 
L 1031 4134 
L 1172 4863 
z
M 909 3500 
L 1484 3500 
L 800 0 
L 225 0 
L 909 3500 
z
" transform="scale(0.015625)"/>
       <path id="DejaVuSans-Oblique-6e" d="M 3566 2113 
L 3156 0 
L 2578 0 
L 2988 2091 
Q 3016 2238 3031 2350 
Q 3047 2463 3047 2528 
Q 3047 2791 2881 2937 
Q 2716 3084 2419 3084 
Q 1956 3084 1622 2776 
Q 1288 2469 1184 1941 
L 800 0 
L 225 0 
L 903 3500 
L 1478 3500 
L 1363 2950 
Q 1603 3253 1940 3418 
Q 2278 3584 2650 3584 
Q 3113 3584 3367 3334 
Q 3622 3084 3622 2631 
Q 3622 2519 3608 2391 
Q 3594 2263 3566 2113 
z
" transform="scale(0.015625)"/>
      </defs>
      <use xlink:href="#DejaVuSans-Oblique-76" transform="translate(0 0.3125)"/>
      <use xlink:href="#DejaVuSans-Oblique-69" transform="translate(59.179688 -16.09375)scale(0.7)"/>
      <use xlink:href="#DejaVuSans-Oblique-6e" transform="translate(78.62793 -16.09375)scale(0.7)"/>
     </g>
    </g>
   </g>
   <g id="patch_7">
    <path d="M 279.776543 142.605 
C 280.385185 142.605 280.968979 142.363184 281.399353 141.93281 
C 281.829728 141.502436 282.071543 140.918641 282.071543 140.31 
C 282.071543 139.701359 281.829728 139.117564 281.399353 138.68719 
C 280.968979 138.256816 280.385185 138.015 279.776543 138.015 
C 279.167902 138.015 278.584108 138.256816 278.153733 138.68719 
C 277.723359 139.117564 277.481543 139.701359 277.481543 140.31 
C 277.481543 140.918641 277.723359 141.502436 278.153733 141.93281 
C 278.584108 142.363184 279.167902 142.605 279.776543 142.605 
z
" clip-path="url(#p92b29b751f)" style="fill: #ffffff; stroke: #000000; stroke-width: 2; stroke-linejoin: miter"/>
   </g>
   <g id="text_4">
    <g clip-path="url(#p92b29b751f)">
     <!-- + -->
     <g transform="translate(275.251153 75.815)scale(0.125 -0.125)">
      <defs>
       <path id="YuGothic-Regular-2b" d="M 519 2081 
L 2163 2081 
L 2163 3725 
L 2456 3725 
L 2456 2081 
L 4113 2081 
L 4113 1794 
L 2456 1794 
L 2456 141 
L 2163 141 
L 2163 1794 
L 519 1794 
L 519 2081 
z
" transform="scale(0.015625)"/>
      </defs>
      <use xlink:href="#YuGothic-Regular-2b"/>
     </g>
    </g>
   </g>
   <g id="text_5">
    <g clip-path="url(#p92b29b751f)">
     <!-- $v_o$ -->
     <g transform="translate(273.214043 99.078984)scale(0.125 -0.125)">
      <defs>
       <path id="DejaVuSans-Oblique-6f" d="M 1625 -91 
Q 1009 -91 651 289 
Q 294 669 294 1325 
Q 294 1706 417 2101 
Q 541 2497 738 2766 
Q 1047 3184 1428 3384 
Q 1809 3584 2291 3584 
Q 2888 3584 3255 3212 
Q 3622 2841 3622 2241 
Q 3622 1825 3500 1412 
Q 3378 1000 3181 728 
Q 2875 309 2494 109 
Q 2113 -91 1625 -91 
z
M 891 1344 
Q 891 869 1089 633 
Q 1288 397 1691 397 
Q 2269 397 2648 901 
Q 3028 1406 3028 2181 
Q 3028 2634 2825 2865 
Q 2622 3097 2228 3097 
Q 1903 3097 1650 2945 
Q 1397 2794 1197 2484 
Q 1050 2253 970 1956 
Q 891 1659 891 1344 
z
" transform="scale(0.015625)"/>
      </defs>
      <use xlink:href="#DejaVuSans-Oblique-76" transform="translate(0 0.3125)"/>
      <use xlink:href="#DejaVuSans-Oblique-6f" transform="translate(59.179688 -16.09375)scale(0.7)"/>
     </g>
    </g>
   </g>
   <g id="text_6">
    <g clip-path="url(#p92b29b751f)">
     <!-- - -->
     <g transform="translate(277.057793 122.8625)scale(0.125 -0.125)">
      <defs>
       <path id="YuGothic-Regular-2d" d="M 2272 2113 
L 2272 1753 
L 513 1753 
L 513 2113 
L 2272 2113 
z
" transform="scale(0.015625)"/>
      </defs>
      <use xlink:href="#YuGothic-Regular-2d"/>
     </g>
    </g>
   </g>
   <g id="patch_8">
    <path d="M 279.776543 50.805 
C 280.385185 50.805 280.968979 50.563184 281.399353 50.13281 
C 281.829728 49.702436 282.071543 49.118641 282.071543 48.51 
C 282.071543 47.901359 281.829728 47.317564 281.399353 46.88719 
C 280.968979 46.456816 280.385185 46.215 279.776543 46.215 
C 279.167902 46.215 278.584108 46.456816 278.153733 46.88719 
C 277.723359 47.317564 277.481543 47.901359 277.481543 48.51 
C 277.481543 49.118641 277.723359 49.702436 278.153733 50.13281 
C 278.584108 50.563184 279.167902 50.805 279.776543 50.805 
z
" clip-path="url(#p92b29b751f)" style="fill: #ffffff; stroke: #000000; stroke-width: 2; stroke-linejoin: miter"/>
   </g>
   <g id="patch_9">
    <path d="M 144.6756 115.83 
C 145.284241 115.83 145.868036 115.588184 146.29841 115.15781 
C 146.728784 114.727436 146.9706 114.143641 146.9706 113.535 
C 146.9706 112.926359 146.728784 112.342564 146.29841 111.91219 
C 145.868036 111.481816 145.284241 111.24 144.6756 111.24 
C 144.066959 111.24 143.483164 111.481816 143.05279 111.91219 
C 142.622416 112.342564 142.3806 112.926359 142.3806 113.535 
C 142.3806 114.143641 142.622416 114.727436 143.05279 115.15781 
C 143.483164 115.588184 144.066959 115.83 144.6756 115.83 
z
" clip-path="url(#p92b29b751f)" style="stroke: #000000; stroke-width: 2; stroke-linejoin: miter"/>
   </g>
   <g id="text_7">
    <g clip-path="url(#p92b29b751f)">
     <!-- $R_1$ -->
     <g transform="translate(119.3406 163.081484)scale(0.125 -0.125)">
      <use xlink:href="#DejaVuSans-Oblique-52" transform="translate(0 0.09375)"/>
      <use xlink:href="#DejaVuSans-31" transform="translate(69.482422 -16.3125)scale(0.7)"/>
     </g>
    </g>
   </g>
   <g id="text_8">
    <g clip-path="url(#p92b29b751f)">
     <!-- $R_2$ -->
     <g transform="translate(189.613572 100.7)scale(0.125 -0.125)">
      <use xlink:href="#DejaVuSans-Oblique-52" transform="translate(0 0.09375)"/>
      <use xlink:href="#DejaVuSans-32" transform="translate(69.482422 -16.3125)scale(0.7)"/>
     </g>
    </g>
   </g>
   <g id="patch_10">
    <path d="M 249.176543 50.805 
C 249.785185 50.805 250.368979 50.563184 250.799353 50.13281 
C 251.229728 49.702436 251.471543 49.118641 251.471543 48.51 
C 251.471543 47.901359 251.229728 47.317564 250.799353 46.88719 
C 250.368979 46.456816 249.785185 46.215 249.176543 46.215 
C 248.567902 46.215 247.984108 46.456816 247.553733 46.88719 
C 247.123359 47.317564 246.881543 47.901359 246.881543 48.51 
C 246.881543 49.118641 247.123359 49.702436 247.553733 50.13281 
C 247.984108 50.563184 248.567902 50.805 249.176543 50.805 
z
" clip-path="url(#p92b29b751f)" style="stroke: #000000; stroke-width: 2; stroke-linejoin: miter"/>
   </g>
   <g id="text_9">
    <g clip-path="url(#p92b29b751f)">
     <!-- $v_{in}$ -->
     <g transform="translate(18.7656 78.931484)scale(0.125 -0.125)">
      <use xlink:href="#DejaVuSans-Oblique-76" transform="translate(0 0.3125)"/>
      <use xlink:href="#DejaVuSans-Oblique-69" transform="translate(59.179688 -16.09375)scale(0.7)"/>
      <use xlink:href="#DejaVuSans-Oblique-6e" transform="translate(78.62793 -16.09375)scale(0.7)"/>
     </g>
    </g>
   </g>
   <g id="patch_11">
    <path d="M 279.776543 142.605 
C 280.385185 142.605 280.968979 142.363184 281.399353 141.93281 
C 281.829728 141.502436 282.071543 140.918641 282.071543 140.31 
C 282.071543 139.701359 281.829728 139.117564 281.399353 138.68719 
C 280.968979 138.256816 280.385185 138.015 279.776543 138.015 
C 279.167902 138.015 278.584108 138.256816 278.153733 138.68719 
C 277.723359 139.117564 277.481543 139.701359 277.481543 140.31 
C 277.481543 140.918641 277.723359 141.502436 278.153733 141.93281 
C 278.584108 142.363184 279.167902 142.605 279.776543 142.605 
z
" clip-path="url(#p92b29b751f)" style="fill: #ffffff; stroke: #000000; stroke-width: 2; stroke-linejoin: miter"/>
   </g>
   <g id="text_10">
    <g clip-path="url(#p92b29b751f)">
     <!-- + -->
     <g transform="translate(275.251153 75.815)scale(0.125 -0.125)">
      <use xlink:href="#YuGothic-Regular-2b"/>
     </g>
    </g>
   </g>
   <g id="text_11">
    <g clip-path="url(#p92b29b751f)">
     <!-- $v_o$ -->
     <g transform="translate(273.214043 99.078984)scale(0.125 -0.125)">
      <use xlink:href="#DejaVuSans-Oblique-76" transform="translate(0 0.3125)"/>
      <use xlink:href="#DejaVuSans-Oblique-6f" transform="translate(59.179688 -16.09375)scale(0.7)"/>
     </g>
    </g>
   </g>
   <g id="text_12">
    <g clip-path="url(#p92b29b751f)">
     <!-- - -->
     <g transform="translate(277.057793 122.8625)scale(0.125 -0.125)">
      <use xlink:href="#YuGothic-Regular-2d"/>
     </g>
    </g>
   </g>
  </g>
 </g>
 <defs>
  <clipPath id="p92b29b751f">
   <rect x="7.2" y="7.2" width="295.623443" height="220.779"/>
  </clipPath>
 </defs>
</svg>
