<?xml version="1.0" encoding="utf-8" standalone="no"?>
<!DOCTYPE svg PUBLIC "-//W3C//DTD SVG 1.1//EN"
  "http://www.w3.org/Graphics/SVG/1.1/DTD/svg11.dtd">
<svg xmlns:xlink="http://www.w3.org/1999/xlink" width="274.7907pt" height="139.554pt" viewBox="0 0 274.7907 139.554" xmlns="http://www.w3.org/2000/svg" version="1.1">
 <metadata>
  <rdf:RDF xmlns:dc="http://purl.org/dc/elements/1.1/" xmlns:cc="http://creativecommons.org/ns#" xmlns:rdf="http://www.w3.org/1999/02/22-rdf-syntax-ns#">
   <cc:Work>
    <dc:type rdf:resource="http://purl.org/dc/dcmitype/StillImage"/>
    <dc:date>2022-08-18T11:51:30.622656</dc:date>
    <dc:format>image/svg+xml</dc:format>
    <dc:creator>
     <cc:Agent>
      <dc:title>Matplotlib v3.5.3, https://matplotlib.org/</dc:title>
     </cc:Agent>
    </dc:creator>
   </cc:Work>
  </rdf:RDF>
 </metadata>
 <defs>
  <style type="text/css">*{stroke-linejoin: round; stroke-linecap: butt}</style>
 </defs>
 <g id="figure_1">
  <g id="patch_1">
   <path d="M 0 139.554 
L 274.7907 139.554 
L 274.7907 0 
L 0 0 
L 0 139.554 
z
" style="fill: none"/>
  </g>
  <g id="axes_1">
   <g id="patch_2">
    <path d="M 54.8034 79.11 
C 58.861007 79.11 62.752972 77.497895 65.622134 74.628734 
C 68.491295 71.759572 70.1034 67.867607 70.1034 63.81 
C 70.1034 59.752393 68.491295 55.860428 65.622134 52.991266 
C 62.752972 50.122105 58.861007 48.51 54.8034 48.51 
C 50.745793 48.51 46.853828 50.122105 43.984666 52.991266 
C 41.115505 55.860428 39.5034 59.752393 39.5034 63.81 
C 39.5034 67.867607 41.115505 71.759572 43.984666 74.628734 
C 46.853828 77.497895 50.745793 79.11 54.8034 79.11 
L 54.8034 79.11 
z
" clip-path="url(#p1a502c5a25)" style="fill: none; stroke: #000000; stroke-width: 2; stroke-linejoin: miter"/>
   </g>
   <g id="line2d_1">
    <path d="M 54.8034 17.91 
L 85.4034 17.91 
L 87.9534 10.26 
L 93.0534 25.56 
L 98.1534 10.26 
L 103.2534 25.56 
L 108.3534 10.26 
L 113.4534 25.56 
L 116.0034 17.91 
L 146.6034 17.91 
" clip-path="url(#p1a502c5a25)" style="fill: none; stroke: #000000; stroke-width: 2; stroke-linecap: round"/>
   </g>
   <g id="line2d_2">
    <path d="M 146.6034 17.91 
L 146.6034 61.056 
M 154.2534 61.056 
L 138.9534 61.056 
M 154.2534 66.564 
L 138.9534 66.564 
M 146.6034 66.564 
L 146.6034 109.71 
" clip-path="url(#p1a502c5a25)" style="fill: none; stroke: #000000; stroke-width: 2; stroke-linecap: round"/>
   </g>
   <g id="line2d_3">
    <path d="M 146.6034 109.71 
L 100.7034 109.71 
L 54.8034 109.71 
" clip-path="url(#p1a502c5a25)" style="fill: none; stroke: #000000; stroke-width: 2; stroke-linecap: round"/>
   </g>
   <g id="line2d_4">
    <path d="M 54.8034 109.71 
L 54.8034 121.95 
L 47.1534 121.95 
L 62.4534 121.95 
M 49.4484 125.622 
L 60.1584 125.622 
M 53.2734 129.294 
L 56.3334 129.294 
" clip-path="url(#p1a502c5a25)" style="fill: none; stroke: #000000; stroke-width: 2; stroke-linecap: round"/>
   </g>
   <g id="line2d_5">
    <path d="M 54.8034 109.71 
L 54.8034 79.11 
L 54.8034 79.11 
M 54.8034 48.51 
L 54.8034 48.51 
L 54.8034 17.91 
" clip-path="url(#p1a502c5a25)" style="fill: none; stroke: #000000; stroke-width: 2; stroke-linecap: round"/>
   </g>
   <g id="line2d_6">
    <path d="M 57.8634 71.46 
L 51.7434 71.46 
" clip-path="url(#p1a502c5a25)" style="fill: none; stroke: #000000; stroke-width: 2; stroke-linecap: round"/>
   </g>
   <g id="line2d_7">
    <path d="M 54.8034 59.22 
L 54.8034 53.1 
" clip-path="url(#p1a502c5a25)" style="fill: none; stroke: #000000; stroke-width: 2; stroke-linecap: round"/>
   </g>
   <g id="line2d_8">
    <path d="M 57.8634 56.16 
L 51.7434 56.16 
" clip-path="url(#p1a502c5a25)" style="fill: none; stroke: #000000; stroke-width: 2; stroke-linecap: round"/>
   </g>
   <g id="line2d_9">
    <path d="M 146.6034 17.91 
L 192.5034 17.91 
L 238.4034 17.91 
" clip-path="url(#p1a502c5a25)" style="fill: none; stroke: #000000; stroke-width: 2; stroke-linecap: round"/>
   </g>
   <g id="line2d_10">
    <path d="M 238.4034 109.71 
L 192.5034 109.71 
L 146.6034 109.71 
" clip-path="url(#p1a502c5a25)" style="fill: none; stroke: #000000; stroke-width: 2; stroke-linecap: round"/>
   </g>
   <g id="text_1">
    <g clip-path="url(#p1a502c5a25)">
     <!-- R -->
     <g transform="translate(96.522736 38.172734)scale(0.125 -0.125)">
      <defs>
       <path id="YuGothic-Regular-52" d="M 722 4806 
L 2250 4806 
Q 3825 4806 3825 3609 
Q 3825 3138 3531 2825 
Q 3269 2541 2800 2438 
L 3941 141 
L 3475 141 
L 2403 2372 
Q 2328 2366 2156 2366 
L 1138 2366 
L 1138 141 
L 722 141 
L 722 4806 
z
M 1138 4453 
L 1138 2713 
L 2181 2713 
Q 3384 2713 3384 3603 
Q 3384 4059 3081 4263 
Q 2797 4453 2219 4453 
L 1138 4453 
z
" transform="scale(0.015625)"/>
      </defs>
      <use xlink:href="#YuGothic-Regular-52"/>
     </g>
    </g>
   </g>
   <g id="text_2">
    <g clip-path="url(#p1a502c5a25)">
     <!-- C -->
     <g transform="translate(127.366056 67.59125)scale(0.125 -0.125)">
      <defs>
       <path id="YuGothic-Regular-43" d="M 4006 3597 
L 3591 3469 
Q 3322 4525 2366 4525 
Q 1669 4525 1266 3922 
Q 894 3372 894 2472 
Q 894 1444 1372 881 
Q 1769 416 2366 416 
Q 3372 416 3634 1491 
L 4044 1338 
Q 3644 50 2359 50 
Q 1469 50 934 769 
Q 447 1422 447 2463 
Q 447 3663 1075 4334 
Q 1594 4891 2359 4891 
Q 3022 4891 3466 4500 
Q 3847 4166 4006 3597 
z
" transform="scale(0.015625)"/>
      </defs>
      <use xlink:href="#YuGothic-Regular-43"/>
     </g>
    </g>
   </g>
   <g id="text_3">
    <g clip-path="url(#p1a502c5a25)">
     <!-- $V_{in}$ -->
     <g transform="translate(19.5684 67.456484)scale(0.125 -0.125)">
      <defs>
       <path id="DejaVuSans-Oblique-56" d="M 1319 0 
L 500 4666 
L 1119 4666 
L 1797 653 
L 4063 4666 
L 4750 4666 
L 2053 0 
L 1319 0 
z
" transform="scale(0.015625)"/>
       <path id="DejaVuSans-Oblique-69" d="M 1172 4863 
L 1747 4863 
L 1606 4134 
L 1031 4134 
L 1172 4863 
z
M 909 3500 
L 1484 3500 
L 800 0 
L 225 0 
L 909 3500 
z
" transform="scale(0.015625)"/>
       <path id="DejaVuSans-Oblique-6e" d="M 3566 2113 
L 3156 0 
L 2578 0 
L 2988 2091 
Q 3016 2238 3031 2350 
Q 3047 2463 3047 2528 
Q 3047 2791 2881 2937 
Q 2716 3084 2419 3084 
Q 1956 3084 1622 2776 
Q 1288 2469 1184 1941 
L 800 0 
L 225 0 
L 903 3500 
L 1478 3500 
L 1363 2950 
Q 1603 3253 1940 3418 
Q 2278 3584 2650 3584 
Q 3113 3584 3367 3334 
Q 3622 3084 3622 2631 
Q 3622 2519 3608 2391 
Q 3594 2263 3566 2113 
z
" transform="scale(0.015625)"/>
      </defs>
      <use xlink:href="#DejaVuSans-Oblique-56" transform="translate(0 0.09375)"/>
      <use xlink:href="#DejaVuSans-Oblique-69" transform="translate(68.408203 -16.3125)scale(0.7)"/>
      <use xlink:href="#DejaVuSans-Oblique-6e" transform="translate(87.856445 -16.3125)scale(0.7)"/>
     </g>
    </g>
   </g>
   <g id="text_4">
    <g clip-path="url(#p1a502c5a25)">
     <!-- + -->
     <g transform="translate(233.878009 44.64125)scale(0.125 -0.125)">
      <defs>
       <path id="YuGothic-Regular-2b" d="M 519 2081 
L 2163 2081 
L 2163 3725 
L 2456 3725 
L 2456 2081 
L 4113 2081 
L 4113 1794 
L 2456 1794 
L 2456 141 
L 2163 141 
L 2163 1794 
L 519 1794 
L 519 2081 
z
" transform="scale(0.015625)"/>
      </defs>
      <use xlink:href="#YuGothic-Regular-2b"/>
     </g>
    </g>
   </g>
   <g id="text_5">
    <g clip-path="url(#p1a502c5a25)">
     <!-- $V_{out}$ -->
     <g transform="translate(226.7784 67.331484)scale(0.125 -0.125)">
      <defs>
       <path id="DejaVuSans-Oblique-6f" d="M 1625 -91 
Q 1009 -91 651 289 
Q 294 669 294 1325 
Q 294 1706 417 2101 
Q 541 2497 738 2766 
Q 1047 3184 1428 3384 
Q 1809 3584 2291 3584 
Q 2888 3584 3255 3212 
Q 3622 2841 3622 2241 
Q 3622 1825 3500 1412 
Q 3378 1000 3181 728 
Q 2875 309 2494 109 
Q 2113 -91 1625 -91 
z
M 891 1344 
Q 891 869 1089 633 
Q 1288 397 1691 397 
Q 2269 397 2648 901 
Q 3028 1406 3028 2181 
Q 3028 2634 2825 2865 
Q 2622 3097 2228 3097 
Q 1903 3097 1650 2945 
Q 1397 2794 1197 2484 
Q 1050 2253 970 1956 
Q 891 1659 891 1344 
z
" transform="scale(0.015625)"/>
       <path id="DejaVuSans-Oblique-75" d="M 428 1388 
L 838 3500 
L 1416 3500 
L 1006 1409 
Q 975 1256 961 1147 
Q 947 1038 947 966 
Q 947 700 1109 554 
Q 1272 409 1569 409 
Q 2031 409 2368 721 
Q 2706 1034 2809 1563 
L 3194 3500 
L 3769 3500 
L 3091 0 
L 2516 0 
L 2631 550 
Q 2388 244 2052 76 
Q 1716 -91 1338 -91 
Q 878 -91 622 161 
Q 366 413 366 863 
Q 366 956 381 1097 
Q 397 1238 428 1388 
z
" transform="scale(0.015625)"/>
       <path id="DejaVuSans-Oblique-74" d="M 2706 3500 
L 2619 3053 
L 1472 3053 
L 1100 1153 
Q 1081 1047 1072 975 
Q 1063 903 1063 863 
Q 1063 663 1183 572 
Q 1303 481 1569 481 
L 2150 481 
L 2053 0 
L 1503 0 
Q 991 0 739 200 
Q 488 400 488 806 
Q 488 878 497 964 
Q 506 1050 525 1153 
L 897 3053 
L 409 3053 
L 500 3500 
L 978 3500 
L 1172 4494 
L 1747 4494 
L 1556 3500 
L 2706 3500 
z
" transform="scale(0.015625)"/>
      </defs>
      <use xlink:href="#DejaVuSans-Oblique-56" transform="translate(0 0.09375)"/>
      <use xlink:href="#DejaVuSans-Oblique-6f" transform="translate(68.408203 -16.3125)scale(0.7)"/>
      <use xlink:href="#DejaVuSans-Oblique-75" transform="translate(111.235352 -16.3125)scale(0.7)"/>
      <use xlink:href="#DejaVuSans-Oblique-74" transform="translate(155.600586 -16.3125)scale(0.7)"/>
     </g>
    </g>
   </g>
   <g id="text_6">
    <g clip-path="url(#p1a502c5a25)">
     <!-- – -->
     <g transform="translate(235.2784 90.54125)scale(0.125 -0.125)">
      <defs>
       <path id="YuGothic-Regular-2013" d="M 3200 2059 
L 3200 1803 
L 0 1803 
L 0 2059 
L 3200 2059 
z
" transform="scale(0.015625)"/>
      </defs>
      <use xlink:href="#YuGothic-Regular-2013"/>
     </g>
    </g>
   </g>
   <g id="patch_3">
    <path d="M 146.6034 20.205 
C 147.212041 20.205 147.795836 19.963184 148.22621 19.53281 
C 148.656584 19.102436 148.8984 18.518641 148.8984 17.91 
C 148.8984 17.301359 148.656584 16.717564 148.22621 16.28719 
C 147.795836 15.856816 147.212041 15.615 146.6034 15.615 
C 145.994759 15.615 145.410964 15.856816 144.98059 16.28719 
C 144.550216 16.717564 144.3084 17.301359 144.3084 17.91 
C 144.3084 18.518641 144.550216 19.102436 144.98059 19.53281 
C 145.410964 19.963184 145.994759 20.205 146.6034 20.205 
z
" clip-path="url(#p1a502c5a25)" style="stroke: #000000; stroke-width: 2; stroke-linejoin: miter"/>
   </g>
   <g id="patch_4">
    <path d="M 146.6034 112.005 
C 147.212041 112.005 147.795836 111.763184 148.22621 111.33281 
C 148.656584 110.902436 148.8984 110.318641 148.8984 109.71 
C 148.8984 109.101359 148.656584 108.517564 148.22621 108.08719 
C 147.795836 107.656816 147.212041 107.415 146.6034 107.415 
C 145.994759 107.415 145.410964 107.656816 144.98059 108.08719 
C 144.550216 108.517564 144.3084 109.101359 144.3084 109.71 
C 144.3084 110.318641 144.550216 110.902436 144.98059 111.33281 
C 145.410964 111.763184 145.994759 112.005 146.6034 112.005 
z
" clip-path="url(#p1a502c5a25)" style="stroke: #000000; stroke-width: 2; stroke-linejoin: miter"/>
   </g>
  </g>
 </g>
 <defs>
  <clipPath id="p1a502c5a25">
   <rect x="7.2" y="7.2" width="260.3907" height="125.154"/>
  </clipPath>
 </defs>
</svg>
