<?xml version="1.0" encoding="utf-8" standalone="no"?>
<!DOCTYPE svg PUBLIC "-//W3C//DTD SVG 1.1//EN"
  "http://www.w3.org/Graphics/SVG/1.1/DTD/svg11.dtd">
<svg xmlns:xlink="http://www.w3.org/1999/xlink" width="363.9489pt" height="141.084pt" viewBox="0 0 363.9489 141.084" xmlns="http://www.w3.org/2000/svg" version="1.1">
 <metadata>
  <rdf:RDF xmlns:dc="http://purl.org/dc/elements/1.1/" xmlns:cc="http://creativecommons.org/ns#" xmlns:rdf="http://www.w3.org/1999/02/22-rdf-syntax-ns#">
   <cc:Work>
    <dc:type rdf:resource="http://purl.org/dc/dcmitype/StillImage"/>
    <dc:date>2022-08-18T11:51:01.875134</dc:date>
    <dc:format>image/svg+xml</dc:format>
    <dc:creator>
     <cc:Agent>
      <dc:title>Matplotlib v3.5.3, https://matplotlib.org/</dc:title>
     </cc:Agent>
    </dc:creator>
   </cc:Work>
  </rdf:RDF>
 </metadata>
 <defs>
  <style type="text/css">*{stroke-linejoin: round; stroke-linecap: butt}</style>
 </defs>
 <g id="figure_1">
  <g id="patch_1">
   <path d="M 0 141.084 
L 363.9489 141.084 
L 363.9489 0 
L 0 0 
L 0 141.084 
z
" style="fill: none"/>
  </g>
  <g id="axes_1">
   <g id="patch_2">
    <path d="M 182.2116 19.44 
C 182.2116 18.425936 181.808335 17.452368 181.091283 16.735317 
C 180.374232 16.018265 179.400664 15.615 178.3866 15.615 
C 177.372536 15.615 176.398968 16.018265 175.681917 16.735317 
C 174.964865 17.452368 174.5616 18.425936 174.5616 19.44 
" clip-path="url(#p4670b42455)" style="fill: none; stroke: #000000; stroke-width: 2; stroke-linejoin: miter"/>
   </g>
   <g id="patch_3">
    <path d="M 189.8616 19.44 
C 189.8616 18.425936 189.458335 17.452368 188.741283 16.735317 
C 188.024232 16.018265 187.050664 15.615 186.0366 15.615 
C 185.022536 15.615 184.048968 16.018265 183.331917 16.735317 
C 182.614865 17.452368 182.2116 18.425936 182.2116 19.44 
" clip-path="url(#p4670b42455)" style="fill: none; stroke: #000000; stroke-width: 2; stroke-linejoin: miter"/>
   </g>
   <g id="patch_4">
    <path d="M 197.5116 19.44 
C 197.5116 18.425936 197.108335 17.452368 196.391283 16.735317 
C 195.674232 16.018265 194.700664 15.615 193.6866 15.615 
C 192.672536 15.615 191.698968 16.018265 190.981917 16.735317 
C 190.264865 17.452368 189.8616 18.425936 189.8616 19.44 
" clip-path="url(#p4670b42455)" style="fill: none; stroke: #000000; stroke-width: 2; stroke-linejoin: miter"/>
   </g>
   <g id="patch_5">
    <path d="M 205.1616 19.44 
C 205.1616 18.425936 204.758335 17.452368 204.041283 16.735317 
C 203.324232 16.018265 202.350664 15.615 201.3366 15.615 
C 200.322536 15.615 199.348968 16.018265 198.631917 16.735317 
C 197.914865 17.452368 197.5116 18.425936 197.5116 19.44 
" clip-path="url(#p4670b42455)" style="fill: none; stroke: #000000; stroke-width: 2; stroke-linejoin: miter"/>
   </g>
   <g id="patch_6">
    <path d="M 52.1616 80.64 
C 56.219207 80.64 60.111172 79.027895 62.980334 76.158734 
C 65.849495 73.289572 67.4616 69.397607 67.4616 65.34 
C 67.4616 61.282393 65.849495 57.390428 62.980334 54.521266 
C 60.111172 51.652105 56.219207 50.04 52.1616 50.04 
C 48.103993 50.04 44.212028 51.652105 41.342866 54.521266 
C 38.473705 57.390428 36.8616 61.282393 36.8616 65.34 
C 36.8616 69.397607 38.473705 73.289572 41.342866 76.158734 
C 44.212028 79.027895 48.103993 80.64 52.1616 80.64 
L 52.1616 80.64 
z
" clip-path="url(#p4670b42455)" style="fill: none; stroke: #000000; stroke-width: 2; stroke-linejoin: miter"/>
   </g>
   <g id="patch_7">
    <path d="M 182.2116 19.44 
C 182.2116 18.425936 181.808335 17.452368 181.091283 16.735317 
C 180.374232 16.018265 179.400664 15.615 178.3866 15.615 
C 177.372536 15.615 176.398968 16.018265 175.681917 16.735317 
C 174.964865 17.452368 174.5616 18.425936 174.5616 19.44 
" clip-path="url(#p4670b42455)" style="fill: none; stroke: #000000; stroke-width: 2; stroke-linejoin: miter"/>
   </g>
   <g id="patch_8">
    <path d="M 189.8616 19.44 
C 189.8616 18.425936 189.458335 17.452368 188.741283 16.735317 
C 188.024232 16.018265 187.050664 15.615 186.0366 15.615 
C 185.022536 15.615 184.048968 16.018265 183.331917 16.735317 
C 182.614865 17.452368 182.2116 18.425936 182.2116 19.44 
" clip-path="url(#p4670b42455)" style="fill: none; stroke: #000000; stroke-width: 2; stroke-linejoin: miter"/>
   </g>
   <g id="patch_9">
    <path d="M 197.5116 19.44 
C 197.5116 18.425936 197.108335 17.452368 196.391283 16.735317 
C 195.674232 16.018265 194.700664 15.615 193.6866 15.615 
C 192.672536 15.615 191.698968 16.018265 190.981917 16.735317 
C 190.264865 17.452368 189.8616 18.425936 189.8616 19.44 
" clip-path="url(#p4670b42455)" style="fill: none; stroke: #000000; stroke-width: 2; stroke-linejoin: miter"/>
   </g>
   <g id="patch_10">
    <path d="M 205.1616 19.44 
C 205.1616 18.425936 204.758335 17.452368 204.041283 16.735317 
C 203.324232 16.018265 202.350664 15.615 201.3366 15.615 
C 200.322536 15.615 199.348968 16.018265 198.631917 16.735317 
C 197.914865 17.452368 197.5116 18.425936 197.5116 19.44 
" clip-path="url(#p4670b42455)" style="fill: none; stroke: #000000; stroke-width: 2; stroke-linejoin: miter"/>
   </g>
   <g id="patch_11">
    <path d="M 52.1616 80.64 
C 56.219207 80.64 60.111172 79.027895 62.980334 76.158734 
C 65.849495 73.289572 67.4616 69.397607 67.4616 65.34 
C 67.4616 61.282393 65.849495 57.390428 62.980334 54.521266 
C 60.111172 51.652105 56.219207 50.04 52.1616 50.04 
C 48.103993 50.04 44.212028 51.652105 41.342866 54.521266 
C 38.473705 57.390428 36.8616 61.282393 36.8616 65.34 
C 36.8616 69.397607 38.473705 73.289572 41.342866 76.158734 
C 44.212028 79.027895 48.103993 80.64 52.1616 80.64 
L 52.1616 80.64 
z
" clip-path="url(#p4670b42455)" style="fill: none; stroke: #000000; stroke-width: 2; stroke-linejoin: miter"/>
   </g>
   <g id="line2d_1">
    <path d="M 52.1616 19.44 
L 82.7616 19.44 
L 85.3116 11.79 
L 90.4116 27.09 
L 95.5116 11.79 
L 100.6116 27.09 
L 105.7116 11.79 
L 110.8116 27.09 
L 113.3616 19.44 
L 143.9616 19.44 
" clip-path="url(#p4670b42455)" style="fill: none; stroke: #000000; stroke-width: 2; stroke-linecap: round"/>
   </g>
   <g id="line2d_2">
    <path d="M 143.9616 19.44 
L 174.5616 19.44 
M 205.1616 19.44 
L 235.7616 19.44 
" clip-path="url(#p4670b42455)" style="fill: none; stroke: #000000; stroke-width: 2; stroke-linecap: round"/>
   </g>
   <g id="line2d_3">
    <path d="M 235.7616 19.44 
L 235.7616 62.586 
M 243.4116 62.586 
L 228.1116 62.586 
M 243.4116 68.094 
L 228.1116 68.094 
M 235.7616 68.094 
L 235.7616 111.24 
" clip-path="url(#p4670b42455)" style="fill: none; stroke: #000000; stroke-width: 2; stroke-linecap: round"/>
   </g>
   <g id="line2d_4">
    <path d="M 235.7616 111.24 
L 143.9616 111.24 
L 52.1616 111.24 
" clip-path="url(#p4670b42455)" style="fill: none; stroke: #000000; stroke-width: 2; stroke-linecap: round"/>
   </g>
   <g id="line2d_5">
    <path d="M 52.1616 111.24 
L 52.1616 123.48 
L 44.5116 123.48 
L 59.8116 123.48 
M 46.8066 127.152 
L 57.5166 127.152 
M 50.6316 130.824 
L 53.6916 130.824 
" clip-path="url(#p4670b42455)" style="fill: none; stroke: #000000; stroke-width: 2; stroke-linecap: round"/>
   </g>
   <g id="line2d_6">
    <path d="M 52.1616 111.24 
L 52.1616 80.64 
L 52.1616 80.64 
M 52.1616 50.04 
L 52.1616 50.04 
L 52.1616 19.44 
" clip-path="url(#p4670b42455)" style="fill: none; stroke: #000000; stroke-width: 2; stroke-linecap: round"/>
   </g>
   <g id="line2d_7">
    <path d="M 55.2216 72.99 
L 49.1016 72.99 
" clip-path="url(#p4670b42455)" style="fill: none; stroke: #000000; stroke-width: 2; stroke-linecap: round"/>
   </g>
   <g id="line2d_8">
    <path d="M 52.1616 60.75 
L 52.1616 54.63 
" clip-path="url(#p4670b42455)" style="fill: none; stroke: #000000; stroke-width: 2; stroke-linecap: round"/>
   </g>
   <g id="line2d_9">
    <path d="M 55.2216 57.69 
L 49.1016 57.69 
" clip-path="url(#p4670b42455)" style="fill: none; stroke: #000000; stroke-width: 2; stroke-linecap: round"/>
   </g>
   <g id="line2d_10">
    <path d="M 235.7616 19.44 
L 281.6616 19.44 
L 327.5616 19.44 
" clip-path="url(#p4670b42455)" style="fill: none; stroke: #000000; stroke-width: 2; stroke-linecap: round"/>
   </g>
   <g id="line2d_11">
    <path d="M 327.5616 111.24 
L 281.6616 111.24 
L 235.7616 111.24 
" clip-path="url(#p4670b42455)" style="fill: none; stroke: #000000; stroke-width: 2; stroke-linecap: round"/>
   </g>
   <g id="line2d_12">
    <path d="M 52.1616 19.44 
L 82.7616 19.44 
L 85.3116 11.79 
L 90.4116 27.09 
L 95.5116 11.79 
L 100.6116 27.09 
L 105.7116 11.79 
L 110.8116 27.09 
L 113.3616 19.44 
L 143.9616 19.44 
" clip-path="url(#p4670b42455)" style="fill: none; stroke: #000000; stroke-width: 2; stroke-linecap: round"/>
   </g>
   <g id="line2d_13">
    <path d="M 143.9616 19.44 
L 174.5616 19.44 
M 205.1616 19.44 
L 235.7616 19.44 
" clip-path="url(#p4670b42455)" style="fill: none; stroke: #000000; stroke-width: 2; stroke-linecap: round"/>
   </g>
   <g id="line2d_14">
    <path d="M 235.7616 19.44 
L 235.7616 62.586 
M 243.4116 62.586 
L 228.1116 62.586 
M 243.4116 68.094 
L 228.1116 68.094 
M 235.7616 68.094 
L 235.7616 111.24 
" clip-path="url(#p4670b42455)" style="fill: none; stroke: #000000; stroke-width: 2; stroke-linecap: round"/>
   </g>
   <g id="line2d_15">
    <path d="M 235.7616 111.24 
L 143.9616 111.24 
L 52.1616 111.24 
" clip-path="url(#p4670b42455)" style="fill: none; stroke: #000000; stroke-width: 2; stroke-linecap: round"/>
   </g>
   <g id="line2d_16">
    <path d="M 52.1616 111.24 
L 52.1616 123.48 
L 44.5116 123.48 
L 59.8116 123.48 
M 46.8066 127.152 
L 57.5166 127.152 
M 50.6316 130.824 
L 53.6916 130.824 
" clip-path="url(#p4670b42455)" style="fill: none; stroke: #000000; stroke-width: 2; stroke-linecap: round"/>
   </g>
   <g id="line2d_17">
    <path d="M 52.1616 111.24 
L 52.1616 80.64 
L 52.1616 80.64 
M 52.1616 50.04 
L 52.1616 50.04 
L 52.1616 19.44 
" clip-path="url(#p4670b42455)" style="fill: none; stroke: #000000; stroke-width: 2; stroke-linecap: round"/>
   </g>
   <g id="line2d_18">
    <path d="M 55.2216 72.99 
L 49.1016 72.99 
" clip-path="url(#p4670b42455)" style="fill: none; stroke: #000000; stroke-width: 2; stroke-linecap: round"/>
   </g>
   <g id="line2d_19">
    <path d="M 52.1616 60.75 
L 52.1616 54.63 
" clip-path="url(#p4670b42455)" style="fill: none; stroke: #000000; stroke-width: 2; stroke-linecap: round"/>
   </g>
   <g id="line2d_20">
    <path d="M 55.2216 57.69 
L 49.1016 57.69 
" clip-path="url(#p4670b42455)" style="fill: none; stroke: #000000; stroke-width: 2; stroke-linecap: round"/>
   </g>
   <g id="line2d_21">
    <path d="M 235.7616 19.44 
L 281.6616 19.44 
L 327.5616 19.44 
" clip-path="url(#p4670b42455)" style="fill: none; stroke: #000000; stroke-width: 2; stroke-linecap: round"/>
   </g>
   <g id="line2d_22">
    <path d="M 327.5616 111.24 
L 281.6616 111.24 
L 235.7616 111.24 
" clip-path="url(#p4670b42455)" style="fill: none; stroke: #000000; stroke-width: 2; stroke-linecap: round"/>
   </g>
   <g id="text_1">
    <g clip-path="url(#p4670b42455)">
     <!-- R -->
     <g transform="translate(93.880936 39.702734)scale(0.125 -0.125)">
      <defs>
       <path id="YuGothic-Regular-52" d="M 722 4806 
L 2250 4806 
Q 3825 4806 3825 3609 
Q 3825 3138 3531 2825 
Q 3269 2541 2800 2438 
L 3941 141 
L 3475 141 
L 2403 2372 
Q 2328 2366 2156 2366 
L 1138 2366 
L 1138 141 
L 722 141 
L 722 4806 
z
M 1138 4453 
L 1138 2713 
L 2181 2713 
Q 3384 2713 3384 3603 
Q 3384 4059 3081 4263 
Q 2797 4453 2219 4453 
L 1138 4453 
z
" transform="scale(0.015625)"/>
      </defs>
      <use xlink:href="#YuGothic-Regular-52"/>
     </g>
    </g>
   </g>
   <g id="text_2">
    <g clip-path="url(#p4670b42455)">
     <!-- L -->
     <g transform="translate(186.129178 32.052734)scale(0.125 -0.125)">
      <defs>
       <path id="YuGothic-Regular-4c" d="M 1144 4806 
L 1144 506 
L 3519 506 
L 3519 141 
L 722 141 
L 722 4806 
L 1144 4806 
z
" transform="scale(0.015625)"/>
      </defs>
      <use xlink:href="#YuGothic-Regular-4c"/>
     </g>
    </g>
   </g>
   <g id="text_3">
    <g clip-path="url(#p4670b42455)">
     <!-- C -->
     <g transform="translate(246.4716 69.12125)scale(0.125 -0.125)">
      <defs>
       <path id="YuGothic-Regular-43" d="M 4006 3597 
L 3591 3469 
Q 3322 4525 2366 4525 
Q 1669 4525 1266 3922 
Q 894 3372 894 2472 
Q 894 1444 1372 881 
Q 1769 416 2366 416 
Q 3372 416 3634 1491 
L 4044 1338 
Q 3644 50 2359 50 
Q 1469 50 934 769 
Q 447 1422 447 2463 
Q 447 3663 1075 4334 
Q 1594 4891 2359 4891 
Q 3022 4891 3466 4500 
Q 3847 4166 4006 3597 
z
" transform="scale(0.015625)"/>
      </defs>
      <use xlink:href="#YuGothic-Regular-43"/>
     </g>
    </g>
   </g>
   <g id="text_4">
    <g clip-path="url(#p4670b42455)">
     <!-- Vin -->
     <g transform="translate(15.160975 69.12125)scale(0.125 -0.125)">
      <defs>
       <path id="YuGothic-Regular-56" d="M 3891 4806 
L 2338 141 
L 1791 141 
L 263 4806 
L 722 4806 
L 1631 1913 
Q 1722 1631 1856 1175 
Q 2013 653 2053 513 
L 2119 513 
Q 2319 1228 2528 1900 
L 3463 4806 
L 3891 4806 
z
" transform="scale(0.015625)"/>
       <path id="YuGothic-Regular-69" d="M 1038 3341 
L 1038 141 
L 641 141 
L 641 3341 
L 1038 3341 
z
M 1131 4628 
L 1131 4031 
L 544 4031 
L 544 4628 
L 1131 4628 
z
" transform="scale(0.015625)"/>
       <path id="YuGothic-Regular-6e" d="M 1025 3341 
L 1025 2747 
Q 1563 3419 2194 3419 
Q 2628 3419 2872 3147 
Q 3091 2906 3091 2516 
L 3091 141 
L 2688 141 
L 2688 2350 
Q 2688 3059 2094 3059 
Q 1538 3059 1038 2394 
L 1038 141 
L 641 141 
L 641 3341 
L 1025 3341 
z
" transform="scale(0.015625)"/>
      </defs>
      <use xlink:href="#YuGothic-Regular-56"/>
      <use xlink:href="#YuGothic-Regular-69" x="64.892578"/>
      <use xlink:href="#YuGothic-Regular-6e" x="91.113281"/>
     </g>
    </g>
   </g>
   <g id="patch_12">
    <path d="M 327.5616 21.735 
C 328.170241 21.735 328.754036 21.493184 329.18441 21.06281 
C 329.614784 20.632436 329.8566 20.048641 329.8566 19.44 
C 329.8566 18.831359 329.614784 18.247564 329.18441 17.81719 
C 328.754036 17.386816 328.170241 17.145 327.5616 17.145 
C 326.952959 17.145 326.369164 17.386816 325.93879 17.81719 
C 325.508416 18.247564 325.2666 18.831359 325.2666 19.44 
C 325.2666 20.048641 325.508416 20.632436 325.93879 21.06281 
C 326.369164 21.493184 326.952959 21.735 327.5616 21.735 
z
" clip-path="url(#p4670b42455)" style="fill: #ffffff; stroke: #000000; stroke-width: 2; stroke-linejoin: miter"/>
   </g>
   <g id="patch_13">
    <path d="M 327.5616 113.535 
C 328.170241 113.535 328.754036 113.293184 329.18441 112.86281 
C 329.614784 112.432436 329.8566 111.848641 329.8566 111.24 
C 329.8566 110.631359 329.614784 110.047564 329.18441 109.61719 
C 328.754036 109.186816 328.170241 108.945 327.5616 108.945 
C 326.952959 108.945 326.369164 109.186816 325.93879 109.61719 
C 325.508416 110.047564 325.2666 110.631359 325.2666 111.24 
C 325.2666 111.848641 325.508416 112.432436 325.93879 112.86281 
C 326.369164 113.293184 326.952959 113.535 327.5616 113.535 
z
" clip-path="url(#p4670b42455)" style="fill: #ffffff; stroke: #000000; stroke-width: 2; stroke-linejoin: miter"/>
   </g>
   <g id="text_5">
    <g clip-path="url(#p4670b42455)">
     <!-- + -->
     <g transform="translate(323.036209 46.745)scale(0.125 -0.125)">
      <defs>
       <path id="YuGothic-Regular-2b" d="M 519 2081 
L 2163 2081 
L 2163 3725 
L 2456 3725 
L 2456 2081 
L 4113 2081 
L 4113 1794 
L 2456 1794 
L 2456 141 
L 2163 141 
L 2163 1794 
L 519 1794 
L 519 2081 
z
" transform="scale(0.015625)"/>
      </defs>
      <use xlink:href="#YuGothic-Regular-2b"/>
     </g>
    </g>
   </g>
   <g id="text_6">
    <g clip-path="url(#p4670b42455)">
     <!-- $V_{out}$ -->
     <g transform="translate(315.9366 70.008984)scale(0.125 -0.125)">
      <defs>
       <path id="DejaVuSans-Oblique-56" d="M 1319 0 
L 500 4666 
L 1119 4666 
L 1797 653 
L 4063 4666 
L 4750 4666 
L 2053 0 
L 1319 0 
z
" transform="scale(0.015625)"/>
       <path id="DejaVuSans-Oblique-6f" d="M 1625 -91 
Q 1009 -91 651 289 
Q 294 669 294 1325 
Q 294 1706 417 2101 
Q 541 2497 738 2766 
Q 1047 3184 1428 3384 
Q 1809 3584 2291 3584 
Q 2888 3584 3255 3212 
Q 3622 2841 3622 2241 
Q 3622 1825 3500 1412 
Q 3378 1000 3181 728 
Q 2875 309 2494 109 
Q 2113 -91 1625 -91 
z
M 891 1344 
Q 891 869 1089 633 
Q 1288 397 1691 397 
Q 2269 397 2648 901 
Q 3028 1406 3028 2181 
Q 3028 2634 2825 2865 
Q 2622 3097 2228 3097 
Q 1903 3097 1650 2945 
Q 1397 2794 1197 2484 
Q 1050 2253 970 1956 
Q 891 1659 891 1344 
z
" transform="scale(0.015625)"/>
       <path id="DejaVuSans-Oblique-75" d="M 428 1388 
L 838 3500 
L 1416 3500 
L 1006 1409 
Q 975 1256 961 1147 
Q 947 1038 947 966 
Q 947 700 1109 554 
Q 1272 409 1569 409 
Q 2031 409 2368 721 
Q 2706 1034 2809 1563 
L 3194 3500 
L 3769 3500 
L 3091 0 
L 2516 0 
L 2631 550 
Q 2388 244 2052 76 
Q 1716 -91 1338 -91 
Q 878 -91 622 161 
Q 366 413 366 863 
Q 366 956 381 1097 
Q 397 1238 428 1388 
z
" transform="scale(0.015625)"/>
       <path id="DejaVuSans-Oblique-74" d="M 2706 3500 
L 2619 3053 
L 1472 3053 
L 1100 1153 
Q 1081 1047 1072 975 
Q 1063 903 1063 863 
Q 1063 663 1183 572 
Q 1303 481 1569 481 
L 2150 481 
L 2053 0 
L 1503 0 
Q 991 0 739 200 
Q 488 400 488 806 
Q 488 878 497 964 
Q 506 1050 525 1153 
L 897 3053 
L 409 3053 
L 500 3500 
L 978 3500 
L 1172 4494 
L 1747 4494 
L 1556 3500 
L 2706 3500 
z
" transform="scale(0.015625)"/>
      </defs>
      <use xlink:href="#DejaVuSans-Oblique-56" transform="translate(0 0.09375)"/>
      <use xlink:href="#DejaVuSans-Oblique-6f" transform="translate(68.408203 -16.3125)scale(0.7)"/>
      <use xlink:href="#DejaVuSans-Oblique-75" transform="translate(111.235352 -16.3125)scale(0.7)"/>
      <use xlink:href="#DejaVuSans-Oblique-74" transform="translate(155.600586 -16.3125)scale(0.7)"/>
     </g>
    </g>
   </g>
   <g id="text_7">
    <g clip-path="url(#p4670b42455)">
     <!-- – -->
     <g transform="translate(324.4366 93.7925)scale(0.125 -0.125)">
      <defs>
       <path id="YuGothic-Regular-2013" d="M 3200 2059 
L 3200 1803 
L 0 1803 
L 0 2059 
L 3200 2059 
z
" transform="scale(0.015625)"/>
      </defs>
      <use xlink:href="#YuGothic-Regular-2013"/>
     </g>
    </g>
   </g>
   <g id="text_8">
    <g clip-path="url(#p4670b42455)">
     <!-- R -->
     <g transform="translate(93.880936 39.702734)scale(0.125 -0.125)">
      <use xlink:href="#YuGothic-Regular-52"/>
     </g>
    </g>
   </g>
   <g id="text_9">
    <g clip-path="url(#p4670b42455)">
     <!-- L -->
     <g transform="translate(186.129178 32.052734)scale(0.125 -0.125)">
      <use xlink:href="#YuGothic-Regular-4c"/>
     </g>
    </g>
   </g>
   <g id="text_10">
    <g clip-path="url(#p4670b42455)">
     <!-- C -->
     <g transform="translate(246.4716 69.12125)scale(0.125 -0.125)">
      <use xlink:href="#YuGothic-Regular-43"/>
     </g>
    </g>
   </g>
   <g id="text_11">
    <g clip-path="url(#p4670b42455)">
     <!-- Vin -->
     <g transform="translate(15.160975 69.12125)scale(0.125 -0.125)">
      <use xlink:href="#YuGothic-Regular-56"/>
      <use xlink:href="#YuGothic-Regular-69" x="64.892578"/>
      <use xlink:href="#YuGothic-Regular-6e" x="91.113281"/>
     </g>
    </g>
   </g>
   <g id="patch_14">
    <path d="M 327.5616 21.735 
C 328.170241 21.735 328.754036 21.493184 329.18441 21.06281 
C 329.614784 20.632436 329.8566 20.048641 329.8566 19.44 
C 329.8566 18.831359 329.614784 18.247564 329.18441 17.81719 
C 328.754036 17.386816 328.170241 17.145 327.5616 17.145 
C 326.952959 17.145 326.369164 17.386816 325.93879 17.81719 
C 325.508416 18.247564 325.2666 18.831359 325.2666 19.44 
C 325.2666 20.048641 325.508416 20.632436 325.93879 21.06281 
C 326.369164 21.493184 326.952959 21.735 327.5616 21.735 
z
" clip-path="url(#p4670b42455)" style="fill: #ffffff; stroke: #000000; stroke-width: 2; stroke-linejoin: miter"/>
   </g>
   <g id="patch_15">
    <path d="M 327.5616 113.535 
C 328.170241 113.535 328.754036 113.293184 329.18441 112.86281 
C 329.614784 112.432436 329.8566 111.848641 329.8566 111.24 
C 329.8566 110.631359 329.614784 110.047564 329.18441 109.61719 
C 328.754036 109.186816 328.170241 108.945 327.5616 108.945 
C 326.952959 108.945 326.369164 109.186816 325.93879 109.61719 
C 325.508416 110.047564 325.2666 110.631359 325.2666 111.24 
C 325.2666 111.848641 325.508416 112.432436 325.93879 112.86281 
C 326.369164 113.293184 326.952959 113.535 327.5616 113.535 
z
" clip-path="url(#p4670b42455)" style="fill: #ffffff; stroke: #000000; stroke-width: 2; stroke-linejoin: miter"/>
   </g>
   <g id="text_12">
    <g clip-path="url(#p4670b42455)">
     <!-- + -->
     <g transform="translate(323.036209 46.745)scale(0.125 -0.125)">
      <use xlink:href="#YuGothic-Regular-2b"/>
     </g>
    </g>
   </g>
   <g id="text_13">
    <g clip-path="url(#p4670b42455)">
     <!-- $V_{out}$ -->
     <g transform="translate(315.9366 70.008984)scale(0.125 -0.125)">
      <use xlink:href="#DejaVuSans-Oblique-56" transform="translate(0 0.09375)"/>
      <use xlink:href="#DejaVuSans-Oblique-6f" transform="translate(68.408203 -16.3125)scale(0.7)"/>
      <use xlink:href="#DejaVuSans-Oblique-75" transform="translate(111.235352 -16.3125)scale(0.7)"/>
      <use xlink:href="#DejaVuSans-Oblique-74" transform="translate(155.600586 -16.3125)scale(0.7)"/>
     </g>
    </g>
   </g>
   <g id="text_14">
    <g clip-path="url(#p4670b42455)">
     <!-- – -->
     <g transform="translate(324.4366 93.7925)scale(0.125 -0.125)">
      <use xlink:href="#YuGothic-Regular-2013"/>
     </g>
    </g>
   </g>
   <g id="patch_16">
    <path d="M 235.7616 21.735 
C 236.370241 21.735 236.954036 21.493184 237.38441 21.06281 
C 237.814784 20.632436 238.0566 20.048641 238.0566 19.44 
C 238.0566 18.831359 237.814784 18.247564 237.38441 17.81719 
C 236.954036 17.386816 236.370241 17.145 235.7616 17.145 
C 235.152959 17.145 234.569164 17.386816 234.13879 17.81719 
C 233.708416 18.247564 233.4666 18.831359 233.4666 19.44 
C 233.4666 20.048641 233.708416 20.632436 234.13879 21.06281 
C 234.569164 21.493184 235.152959 21.735 235.7616 21.735 
z
" clip-path="url(#p4670b42455)" style="stroke: #000000; stroke-width: 2; stroke-linejoin: miter"/>
   </g>
   <g id="patch_17">
    <path d="M 235.7616 113.535 
C 236.370241 113.535 236.954036 113.293184 237.38441 112.86281 
C 237.814784 112.432436 238.0566 111.848641 238.0566 111.24 
C 238.0566 110.631359 237.814784 110.047564 237.38441 109.61719 
C 236.954036 109.186816 236.370241 108.945 235.7616 108.945 
C 235.152959 108.945 234.569164 109.186816 234.13879 109.61719 
C 233.708416 110.047564 233.4666 110.631359 233.4666 111.24 
C 233.4666 111.848641 233.708416 112.432436 234.13879 112.86281 
C 234.569164 113.293184 235.152959 113.535 235.7616 113.535 
z
" clip-path="url(#p4670b42455)" style="stroke: #000000; stroke-width: 2; stroke-linejoin: miter"/>
   </g>
   <g id="patch_18">
    <path d="M 235.7616 21.735 
C 236.370241 21.735 236.954036 21.493184 237.38441 21.06281 
C 237.814784 20.632436 238.0566 20.048641 238.0566 19.44 
C 238.0566 18.831359 237.814784 18.247564 237.38441 17.81719 
C 236.954036 17.386816 236.370241 17.145 235.7616 17.145 
C 235.152959 17.145 234.569164 17.386816 234.13879 17.81719 
C 233.708416 18.247564 233.4666 18.831359 233.4666 19.44 
C 233.4666 20.048641 233.708416 20.632436 234.13879 21.06281 
C 234.569164 21.493184 235.152959 21.735 235.7616 21.735 
z
" clip-path="url(#p4670b42455)" style="stroke: #000000; stroke-width: 2; stroke-linejoin: miter"/>
   </g>
   <g id="patch_19">
    <path d="M 235.7616 113.535 
C 236.370241 113.535 236.954036 113.293184 237.38441 112.86281 
C 237.814784 112.432436 238.0566 111.848641 238.0566 111.24 
C 238.0566 110.631359 237.814784 110.047564 237.38441 109.61719 
C 236.954036 109.186816 236.370241 108.945 235.7616 108.945 
C 235.152959 108.945 234.569164 109.186816 234.13879 109.61719 
C 233.708416 110.047564 233.4666 110.631359 233.4666 111.24 
C 233.4666 111.848641 233.708416 112.432436 234.13879 112.86281 
C 234.569164 113.293184 235.152959 113.535 235.7616 113.535 
z
" clip-path="url(#p4670b42455)" style="stroke: #000000; stroke-width: 2; stroke-linejoin: miter"/>
   </g>
  </g>
 </g>
 <defs>
  <clipPath id="p4670b42455">
   <rect x="7.2" y="7.2" width="349.5489" height="126.684"/>
  </clipPath>
 </defs>
</svg>
