<?xml version="1.0" encoding="utf-8" standalone="no"?>
<!DOCTYPE svg PUBLIC "-//W3C//DTD SVG 1.1//EN"
  "http://www.w3.org/Graphics/SVG/1.1/DTD/svg11.dtd">
<svg xmlns:xlink="http://www.w3.org/1999/xlink" width="648pt" height="259.2pt" viewBox="0 0 648 259.2" xmlns="http://www.w3.org/2000/svg" version="1.1">
 <metadata>
  <rdf:RDF xmlns:dc="http://purl.org/dc/elements/1.1/" xmlns:cc="http://creativecommons.org/ns#" xmlns:rdf="http://www.w3.org/1999/02/22-rdf-syntax-ns#">
   <cc:Work>
    <dc:type rdf:resource="http://purl.org/dc/dcmitype/StillImage"/>
    <dc:date>2022-08-18T11:51:27.471463</dc:date>
    <dc:format>image/svg+xml</dc:format>
    <dc:creator>
     <cc:Agent>
      <dc:title>Matplotlib v3.5.3, https://matplotlib.org/</dc:title>
     </cc:Agent>
    </dc:creator>
   </cc:Work>
  </rdf:RDF>
 </metadata>
 <defs>
  <style type="text/css">*{stroke-linejoin: round; stroke-linecap: butt}</style>
 </defs>
 <g id="figure_1">
  <g id="patch_1">
   <path d="M 0 259.2 
L 648 259.2 
L 648 0 
L 0 0 
z
" style="fill: #ffffff"/>
  </g>
  <g id="axes_1">
   <g id="patch_2">
    <path d="M 47.055 221.55 
L 637.2 221.55 
L 637.2 14.76 
L 47.055 14.76 
z
" style="fill: #ffffff"/>
   </g>
   <g id="matplotlib.axis_1">
    <g id="xtick_1">
     <g id="line2d_1">
      <path d="M 100.704545 221.55 
L 100.704545 14.76 
" clip-path="url(#p4c6562d2a8)" style="fill: none; stroke: #b0b0b0; stroke-width: 0.8; stroke-linecap: square"/>
     </g>
     <g id="line2d_2"/>
     <g id="text_1">
      <!-- 0.00 -->
      <g transform="translate(91.074077 232.692187)scale(0.1 -0.1)">
       <defs>
        <path id="YuGothic-Regular-30" d="M 1788 4806 
Q 3150 4806 3150 2456 
Q 3150 56 1772 56 
Q 409 56 409 2444 
Q 409 4806 1788 4806 
z
M 1788 4453 
Q 1269 4453 1047 3938 
Q 838 3456 838 2456 
Q 838 1303 1100 819 
Q 1322 409 1772 409 
Q 2291 409 2516 950 
Q 2722 1444 2722 2450 
Q 2722 3591 2456 4059 
Q 2234 4453 1788 4453 
z
" transform="scale(0.015625)"/>
        <path id="YuGothic-Regular-2e" d="M 1147 794 
L 1147 141 
L 506 141 
L 506 794 
L 1147 794 
z
" transform="scale(0.015625)"/>
       </defs>
       <use xlink:href="#YuGothic-Regular-30"/>
       <use xlink:href="#YuGothic-Regular-2e" x="55.615234"/>
       <use xlink:href="#YuGothic-Regular-30" x="81.396484"/>
       <use xlink:href="#YuGothic-Regular-30" x="137.011719"/>
      </g>
     </g>
    </g>
    <g id="xtick_2">
     <g id="line2d_3">
      <path d="M 208.003636 221.55 
L 208.003636 14.76 
" clip-path="url(#p4c6562d2a8)" style="fill: none; stroke: #b0b0b0; stroke-width: 0.8; stroke-linecap: square"/>
     </g>
     <g id="line2d_4"/>
     <g id="text_2">
      <!-- 0.02 -->
      <g transform="translate(198.373168 232.692187)scale(0.1 -0.1)">
       <defs>
        <path id="YuGothic-Regular-32" d="M 459 3597 
Q 588 4228 988 4541 
Q 1325 4806 1819 4806 
Q 2406 4806 2750 4453 
Q 3059 4138 3059 3628 
Q 3059 3219 2838 2875 
Q 2628 2556 2094 2075 
Q 1191 1284 825 494 
L 3066 494 
L 3066 141 
L 422 141 
L 422 456 
Q 819 1406 1806 2309 
Q 2331 2800 2497 3088 
Q 2638 3331 2638 3628 
Q 2638 4038 2378 4263 
Q 2156 4453 1813 4453 
Q 1025 4453 863 3494 
L 459 3597 
z
" transform="scale(0.015625)"/>
       </defs>
       <use xlink:href="#YuGothic-Regular-30"/>
       <use xlink:href="#YuGothic-Regular-2e" x="55.615234"/>
       <use xlink:href="#YuGothic-Regular-30" x="81.396484"/>
       <use xlink:href="#YuGothic-Regular-32" x="137.011719"/>
      </g>
     </g>
    </g>
    <g id="xtick_3">
     <g id="line2d_5">
      <path d="M 315.302727 221.55 
L 315.302727 14.76 
" clip-path="url(#p4c6562d2a8)" style="fill: none; stroke: #b0b0b0; stroke-width: 0.8; stroke-linecap: square"/>
     </g>
     <g id="line2d_6"/>
     <g id="text_3">
      <!-- 0.04 -->
      <g transform="translate(305.672259 232.692187)scale(0.1 -0.1)">
       <defs>
        <path id="YuGothic-Regular-34" d="M 2553 4788 
L 2553 1572 
L 3231 1572 
L 3231 1241 
L 2553 1241 
L 2553 141 
L 2188 141 
L 2188 1241 
L 306 1241 
L 306 1553 
L 1997 4788 
L 2553 4788 
z
M 2188 1572 
L 2188 3488 
Q 2188 3678 2200 4459 
L 2138 4459 
Q 1944 3988 1719 3563 
L 697 1572 
L 2188 1572 
z
" transform="scale(0.015625)"/>
       </defs>
       <use xlink:href="#YuGothic-Regular-30"/>
       <use xlink:href="#YuGothic-Regular-2e" x="55.615234"/>
       <use xlink:href="#YuGothic-Regular-30" x="81.396484"/>
       <use xlink:href="#YuGothic-Regular-34" x="137.011719"/>
      </g>
     </g>
    </g>
    <g id="xtick_4">
     <g id="line2d_7">
      <path d="M 422.601818 221.55 
L 422.601818 14.76 
" clip-path="url(#p4c6562d2a8)" style="fill: none; stroke: #b0b0b0; stroke-width: 0.8; stroke-linecap: square"/>
     </g>
     <g id="line2d_8"/>
     <g id="text_4">
      <!-- 0.06 -->
      <g transform="translate(412.971349 232.692187)scale(0.1 -0.1)">
       <defs>
        <path id="YuGothic-Regular-36" d="M 3041 4206 
L 2656 4019 
Q 2459 4459 1984 4459 
Q 909 4459 872 2369 
Q 1306 3066 1959 3066 
Q 2516 3066 2847 2622 
Q 3138 2231 3138 1625 
Q 3138 856 2722 422 
Q 2375 56 1850 56 
Q 1184 56 819 653 
Q 475 1209 475 2200 
Q 475 3606 941 4266 
Q 1325 4806 1997 4806 
Q 2716 4806 3041 4206 
z
M 884 1966 
Q 891 1138 1200 731 
Q 1450 403 1850 403 
Q 2284 403 2516 759 
Q 2722 1075 2722 1619 
Q 2722 2166 2469 2459 
Q 2250 2713 1897 2713 
Q 1297 2713 884 1966 
z
" transform="scale(0.015625)"/>
       </defs>
       <use xlink:href="#YuGothic-Regular-30"/>
       <use xlink:href="#YuGothic-Regular-2e" x="55.615234"/>
       <use xlink:href="#YuGothic-Regular-30" x="81.396484"/>
       <use xlink:href="#YuGothic-Regular-36" x="137.011719"/>
      </g>
     </g>
    </g>
    <g id="xtick_5">
     <g id="line2d_9">
      <path d="M 529.900909 221.55 
L 529.900909 14.76 
" clip-path="url(#p4c6562d2a8)" style="fill: none; stroke: #b0b0b0; stroke-width: 0.8; stroke-linecap: square"/>
     </g>
     <g id="line2d_10"/>
     <g id="text_5">
      <!-- 0.08 -->
      <g transform="translate(520.27044 232.692187)scale(0.1 -0.1)">
       <defs>
        <path id="YuGothic-Regular-38" d="M 2144 2578 
Q 2753 2309 2988 1978 
Q 3181 1706 3181 1306 
Q 3181 684 2738 344 
Q 2363 56 1775 56 
Q 1103 56 719 425 
Q 372 756 372 1291 
Q 372 1728 650 2028 
Q 891 2288 1409 2528 
Q 891 2775 688 3072 
Q 513 3322 513 3688 
Q 513 4209 906 4528 
Q 1253 4806 1772 4806 
Q 2378 4806 2741 4456 
Q 3053 4153 3053 3706 
Q 3053 3288 2825 3022 
Q 2616 2784 2144 2578 
z
M 1831 2725 
Q 2328 2938 2509 3191 
Q 2656 3391 2656 3700 
Q 2656 4072 2381 4288 
Q 2144 4475 1772 4475 
Q 1353 4475 1116 4231 
Q 909 4019 909 3688 
Q 909 3366 1103 3159 
Q 1288 2966 1722 2778 
L 1831 2725 
z
M 1734 2375 
Q 1178 2125 963 1859 
Q 775 1628 775 1306 
Q 775 856 1078 613 
Q 1341 397 1775 397 
Q 2281 397 2550 672 
Q 2778 906 2778 1300 
Q 2778 1663 2550 1897 
Q 2341 2109 1844 2322 
L 1734 2375 
z
" transform="scale(0.015625)"/>
       </defs>
       <use xlink:href="#YuGothic-Regular-30"/>
       <use xlink:href="#YuGothic-Regular-2e" x="55.615234"/>
       <use xlink:href="#YuGothic-Regular-30" x="81.396484"/>
       <use xlink:href="#YuGothic-Regular-38" x="137.011719"/>
      </g>
     </g>
    </g>
    <g id="xtick_6">
     <g id="line2d_11">
      <path d="M 637.2 221.55 
L 637.2 14.76 
" clip-path="url(#p4c6562d2a8)" style="fill: none; stroke: #b0b0b0; stroke-width: 0.8; stroke-linecap: square"/>
     </g>
     <g id="line2d_12"/>
     <g id="text_6">
      <!-- 0.10 -->
      <g transform="translate(627.569531 232.692187)scale(0.1 -0.1)">
       <defs>
        <path id="YuGothic-Regular-31" d="M 2063 4794 
L 2063 481 
L 2925 481 
L 2925 141 
L 744 141 
L 744 481 
L 1666 481 
L 1666 4359 
Q 1259 4081 725 3878 
L 653 4250 
Q 1184 4428 1734 4794 
L 2063 4794 
z
" transform="scale(0.015625)"/>
       </defs>
       <use xlink:href="#YuGothic-Regular-30"/>
       <use xlink:href="#YuGothic-Regular-2e" x="55.615234"/>
       <use xlink:href="#YuGothic-Regular-31" x="81.396484"/>
       <use xlink:href="#YuGothic-Regular-30" x="137.011719"/>
      </g>
     </g>
    </g>
    <g id="text_7">
     <!-- 時間[s] -->
     <g transform="translate(325.72125 246.140625)scale(0.1 -0.1)">
      <defs>
       <path id="YuGothic-Regular-6642" d="M 4850 1863 
L 3341 1863 
L 2463 1850 
Q 2419 1850 2419 1894 
L 2419 2094 
Q 2419 2131 2463 2131 
L 3341 2125 
L 4850 2125 
L 4850 2169 
Q 4850 2647 4806 2853 
Q 5006 2844 5131 2816 
Q 5209 2806 5209 2772 
Q 5209 2741 5169 2663 
Q 5138 2581 5138 2181 
L 5138 2125 
L 5944 2131 
Q 5988 2131 5988 2094 
L 5988 1894 
Q 5988 1850 5944 1850 
L 5138 1863 
L 5138 909 
L 5144 84 
Q 5144 -197 4978 -313 
Q 4838 -409 4375 -409 
Q 4344 -409 4269 -409 
Q 4188 -409 4172 -394 
Q 4156 -378 4134 -306 
Q 4094 -172 4025 -84 
Q 4231 -109 4472 -109 
Q 4538 -109 4619 -106 
Q 4850 -106 4850 141 
L 4850 1863 
z
M 972 738 
L 972 194 
Q 972 156 928 156 
L 722 156 
Q 678 156 678 194 
L 691 2163 
L 691 3384 
L 678 4872 
Q 678 4916 722 4916 
L 1222 4903 
L 1631 4903 
L 2131 4916 
Q 2175 4916 2175 4872 
L 2163 3578 
L 2163 2284 
L 2175 406 
Q 2175 359 2131 359 
L 1931 359 
Q 1888 359 1888 406 
L 1888 738 
L 972 738 
z
M 972 2994 
L 1888 2994 
L 1888 4641 
L 972 4641 
L 972 2994 
z
M 972 2738 
L 972 994 
L 1888 994 
L 1888 2738 
L 972 2738 
z
M 3950 3238 
L 3950 4159 
L 3522 4159 
L 2697 4147 
Q 2644 4147 2644 4191 
L 2644 4384 
Q 2644 4428 2697 4428 
L 3522 4416 
L 3950 4416 
L 3950 4447 
Q 3950 5019 3906 5272 
Q 4025 5269 4238 5241 
Q 4300 5231 4300 5191 
Q 4300 5172 4275 5081 
Q 4238 4975 4238 4459 
L 4238 4416 
L 4866 4416 
L 5691 4428 
Q 5734 4428 5734 4384 
L 5734 4191 
Q 5734 4147 5691 4147 
L 4866 4159 
L 4238 4159 
L 4238 3238 
L 5134 3238 
L 6022 3250 
Q 6069 3250 6069 3206 
L 6069 3013 
Q 6069 2969 6022 2969 
L 5134 2981 
L 3309 2981 
L 2428 2969 
Q 2381 2969 2381 3013 
L 2381 3206 
Q 2381 3250 2428 3250 
L 3309 3238 
L 3950 3238 
z
M 3225 1434 
Q 3609 1097 3878 647 
Q 3888 631 3888 616 
Q 3888 594 3847 563 
L 3738 488 
Q 3678 447 3666 447 
Q 3650 447 3634 475 
Q 3378 925 3009 1275 
Q 2988 1291 2988 1303 
Q 2988 1322 3047 1363 
L 3134 1428 
Q 3175 1453 3191 1453 
Q 3203 1453 3225 1434 
z
" transform="scale(0.015625)"/>
       <path id="YuGothic-Regular-9593" d="M 2388 525 
L 2388 159 
Q 2388 116 2344 116 
L 2150 116 
Q 2106 116 2106 159 
L 2119 1281 
L 2119 1813 
L 2106 2534 
Q 2106 2578 2150 2578 
L 2809 2566 
L 3513 2566 
L 4172 2578 
Q 4209 2578 4209 2534 
L 4197 1900 
L 4197 1325 
L 4209 231 
Q 4209 184 4172 184 
L 3972 184 
Q 3928 184 3928 231 
L 3928 525 
L 2388 525 
z
M 2388 1684 
L 3928 1684 
L 3928 2322 
L 2388 2322 
L 2388 1684 
z
M 2388 1441 
L 2388 763 
L 3928 763 
L 3928 1441 
L 2388 1441 
z
M 5416 3141 
L 4213 3141 
L 3525 3128 
Q 3481 3128 3481 3172 
L 3488 3725 
L 3488 4444 
L 3481 4994 
Q 3481 5038 3525 5038 
L 4213 5025 
L 4988 5025 
L 5672 5038 
Q 5716 5038 5716 4994 
L 5703 4078 
L 5703 1100 
L 5722 263 
Q 5722 50 5681 -50 
Q 5647 -128 5563 -194 
Q 5422 -303 4938 -303 
Q 4897 -303 4800 -303 
Q 4725 -303 4709 -288 
Q 4697 -275 4678 -206 
Q 4644 -84 4575 13 
Q 4791 -16 5050 -16 
Q 5294 -16 5359 56 
Q 5416 119 5416 319 
L 5416 3141 
z
M 5416 3378 
L 5416 3981 
L 3769 3981 
L 3769 3378 
L 5416 3378 
z
M 5416 4219 
L 5416 4781 
L 3769 4781 
L 3769 4219 
L 5416 4219 
z
M 1428 5025 
L 2138 5025 
L 2778 5038 
Q 2822 5038 2822 4994 
L 2809 4416 
L 2809 3756 
L 2822 3172 
Q 2822 3128 2778 3128 
L 2138 3141 
L 972 3141 
L 972 953 
L 984 -347 
Q 984 -391 941 -391 
L 716 -391 
Q 672 -391 672 -347 
L 684 953 
L 684 3678 
L 672 4994 
Q 672 5038 716 5038 
L 1428 5025 
z
M 972 3981 
L 972 3378 
L 2528 3378 
L 2528 3981 
L 972 3981 
z
M 972 4219 
L 2528 4219 
L 2528 4781 
L 972 4781 
L 972 4219 
z
" transform="scale(0.015625)"/>
       <path id="YuGothic-Regular-5b" d="M 2200 5459 
L 2200 5222 
L 1209 5222 
L 1209 -356 
L 2200 -356 
L 2200 -588 
L 856 -588 
L 856 5459 
L 2200 5459 
z
" transform="scale(0.015625)"/>
       <path id="YuGothic-Regular-73" d="M 2759 2663 
L 2375 2528 
Q 2194 3106 1594 3106 
Q 1231 3106 1034 2947 
Q 866 2809 866 2594 
Q 866 2325 1034 2197 
Q 1184 2081 1569 1997 
L 1825 1941 
Q 2419 1803 2641 1578 
Q 2844 1375 2844 1003 
Q 2844 563 2503 306 
Q 2181 63 1628 63 
Q 663 63 366 838 
L 750 984 
Q 963 375 1634 375 
Q 2078 375 2291 578 
Q 2453 734 2453 966 
Q 2453 1263 2284 1394 
Q 2125 1516 1691 1613 
L 1434 1672 
Q 869 1800 659 2034 
Q 488 2225 488 2559 
Q 488 2963 803 3197 
Q 1097 3419 1600 3419 
Q 2466 3419 2759 2663 
z
" transform="scale(0.015625)"/>
       <path id="YuGothic-Regular-5d" d="M 1613 5453 
L 1613 -588 
L 269 -588 
L 269 -356 
L 1259 -356 
L 1259 5222 
L 269 5222 
L 269 5453 
L 1613 5453 
z
" transform="scale(0.015625)"/>
      </defs>
      <use xlink:href="#YuGothic-Regular-6642"/>
      <use xlink:href="#YuGothic-Regular-9593" x="100"/>
      <use xlink:href="#YuGothic-Regular-5b" x="200"/>
      <use xlink:href="#YuGothic-Regular-73" x="238.623047"/>
      <use xlink:href="#YuGothic-Regular-5d" x="289.501953"/>
     </g>
    </g>
   </g>
   <g id="matplotlib.axis_2">
    <g id="ytick_1">
     <g id="line2d_13">
      <path d="M 47.055 221.55 
L 637.2 221.55 
" clip-path="url(#p4c6562d2a8)" style="fill: none; stroke: #b0b0b0; stroke-width: 0.8; stroke-linecap: square"/>
     </g>
     <g id="line2d_14"/>
     <g id="text_8">
      <!-- −1.0 -->
      <g transform="translate(19.855 225.371094)scale(0.1 -0.1)">
       <defs>
        <path id="YuGothic-Regular-2212" d="M 5000 2578 
L 5000 2291 
L 1403 2291 
L 1403 2578 
L 5000 2578 
z
" transform="scale(0.015625)"/>
       </defs>
       <use xlink:href="#YuGothic-Regular-2212"/>
       <use xlink:href="#YuGothic-Regular-31" x="100"/>
       <use xlink:href="#YuGothic-Regular-2e" x="155.615234"/>
       <use xlink:href="#YuGothic-Regular-30" x="181.396484"/>
      </g>
     </g>
    </g>
    <g id="ytick_2">
     <g id="line2d_15">
      <path d="M 47.055 187.085 
L 637.2 187.085 
" clip-path="url(#p4c6562d2a8)" style="fill: none; stroke: #b0b0b0; stroke-width: 0.8; stroke-linecap: square"/>
     </g>
     <g id="line2d_16"/>
     <g id="text_9">
      <!-- −0.5 -->
      <g transform="translate(19.855 190.906094)scale(0.1 -0.1)">
       <defs>
        <path id="YuGothic-Regular-35" d="M 2906 4728 
L 2906 4375 
L 1016 4375 
L 959 3159 
Q 953 3022 922 2622 
Q 1066 2856 1325 2988 
Q 1556 3103 1819 3103 
Q 2397 3103 2753 2653 
Q 3072 2247 3072 1625 
Q 3072 850 2622 416 
Q 2253 56 1716 56 
Q 772 56 434 909 
L 825 1075 
Q 1059 403 1716 403 
Q 2172 403 2425 766 
Q 2650 1088 2650 1606 
Q 2650 2188 2381 2494 
Q 2147 2756 1759 2756 
Q 1447 2756 1209 2566 
Q 1003 2397 903 2116 
L 569 2169 
L 678 4728 
L 2906 4728 
z
" transform="scale(0.015625)"/>
       </defs>
       <use xlink:href="#YuGothic-Regular-2212"/>
       <use xlink:href="#YuGothic-Regular-30" x="100"/>
       <use xlink:href="#YuGothic-Regular-2e" x="155.615234"/>
       <use xlink:href="#YuGothic-Regular-35" x="181.396484"/>
      </g>
     </g>
    </g>
    <g id="ytick_3">
     <g id="line2d_17">
      <path d="M 47.055 152.62 
L 637.2 152.62 
" clip-path="url(#p4c6562d2a8)" style="fill: none; stroke: #b0b0b0; stroke-width: 0.8; stroke-linecap: square"/>
     </g>
     <g id="line2d_18"/>
     <g id="text_10">
      <!-- 0.0 -->
      <g transform="translate(29.855 156.441094)scale(0.1 -0.1)">
       <use xlink:href="#YuGothic-Regular-30"/>
       <use xlink:href="#YuGothic-Regular-2e" x="55.615234"/>
       <use xlink:href="#YuGothic-Regular-30" x="81.396484"/>
      </g>
     </g>
    </g>
    <g id="ytick_4">
     <g id="line2d_19">
      <path d="M 47.055 118.155 
L 637.2 118.155 
" clip-path="url(#p4c6562d2a8)" style="fill: none; stroke: #b0b0b0; stroke-width: 0.8; stroke-linecap: square"/>
     </g>
     <g id="line2d_20"/>
     <g id="text_11">
      <!-- 0.5 -->
      <g transform="translate(29.855 121.976094)scale(0.1 -0.1)">
       <use xlink:href="#YuGothic-Regular-30"/>
       <use xlink:href="#YuGothic-Regular-2e" x="55.615234"/>
       <use xlink:href="#YuGothic-Regular-35" x="81.396484"/>
      </g>
     </g>
    </g>
    <g id="ytick_5">
     <g id="line2d_21">
      <path d="M 47.055 83.69 
L 637.2 83.69 
" clip-path="url(#p4c6562d2a8)" style="fill: none; stroke: #b0b0b0; stroke-width: 0.8; stroke-linecap: square"/>
     </g>
     <g id="line2d_22"/>
     <g id="text_12">
      <!-- 1.0 -->
      <g transform="translate(29.855 87.511094)scale(0.1 -0.1)">
       <use xlink:href="#YuGothic-Regular-31"/>
       <use xlink:href="#YuGothic-Regular-2e" x="55.615234"/>
       <use xlink:href="#YuGothic-Regular-30" x="81.396484"/>
      </g>
     </g>
    </g>
    <g id="ytick_6">
     <g id="line2d_23">
      <path d="M 47.055 49.225 
L 637.2 49.225 
" clip-path="url(#p4c6562d2a8)" style="fill: none; stroke: #b0b0b0; stroke-width: 0.8; stroke-linecap: square"/>
     </g>
     <g id="line2d_24"/>
     <g id="text_13">
      <!-- 1.5 -->
      <g transform="translate(29.855 53.046094)scale(0.1 -0.1)">
       <use xlink:href="#YuGothic-Regular-31"/>
       <use xlink:href="#YuGothic-Regular-2e" x="55.615234"/>
       <use xlink:href="#YuGothic-Regular-35" x="81.396484"/>
      </g>
     </g>
    </g>
    <g id="ytick_7">
     <g id="line2d_25">
      <path d="M 47.055 14.76 
L 637.2 14.76 
" clip-path="url(#p4c6562d2a8)" style="fill: none; stroke: #b0b0b0; stroke-width: 0.8; stroke-linecap: square"/>
     </g>
     <g id="line2d_26"/>
     <g id="text_14">
      <!-- 2.0 -->
      <g transform="translate(29.855 18.581094)scale(0.1 -0.1)">
       <use xlink:href="#YuGothic-Regular-32"/>
       <use xlink:href="#YuGothic-Regular-2e" x="55.615234"/>
       <use xlink:href="#YuGothic-Regular-30" x="81.396484"/>
      </g>
     </g>
    </g>
    <g id="text_15">
     <!-- 電圧[V] -->
     <g transform="translate(14.262812 135.262031)rotate(-90)scale(0.1 -0.1)">
      <defs>
       <path id="YuGothic-Regular-96fb" d="M 2975 641 
L 1472 641 
L 1472 313 
Q 1472 269 1428 269 
L 1222 269 
Q 1184 269 1184 313 
L 1197 903 
L 1197 1784 
L 1184 2381 
Q 1184 2431 1222 2431 
L 2181 2419 
L 4178 2419 
L 5109 2431 
Q 5153 2431 5153 2381 
L 5141 1822 
L 5141 1228 
L 5153 672 
Q 5153 628 5109 628 
L 4178 641 
L 3256 641 
L 3256 391 
Q 3256 188 3338 100 
Q 3400 31 3541 6 
Q 3769 -31 4441 -31 
Q 5269 -31 5522 141 
Q 5634 216 5681 391 
Q 5728 559 5741 903 
Q 5841 825 5947 781 
Q 6028 747 6028 703 
Q 6028 688 6022 641 
Q 5984 278 5888 103 
Q 5816 -25 5684 -109 
Q 5397 -294 4453 -294 
Q 3700 -294 3353 -231 
Q 2975 -163 2975 300 
L 2975 641 
z
M 2975 1444 
L 1472 1444 
L 1472 872 
L 2975 872 
L 2975 1444 
z
M 3256 1444 
L 3256 872 
L 4856 872 
L 4856 1444 
L 3256 1444 
z
M 2975 1663 
L 2975 2188 
L 1472 2188 
L 1472 1663 
L 2975 1663 
z
M 3256 1663 
L 4856 1663 
L 4856 2188 
L 3256 2188 
L 3256 1663 
z
M 3009 4288 
L 3009 4747 
L 1906 4747 
L 991 4734 
Q 947 4734 947 4781 
L 947 4966 
Q 947 5009 991 5009 
L 1906 4997 
L 4519 4997 
L 5434 5009 
Q 5478 5009 5478 4966 
L 5478 4781 
Q 5478 4734 5434 4734 
L 4519 4747 
L 3297 4747 
L 3297 4288 
L 4947 4288 
L 5831 4300 
Q 5881 4300 5881 4256 
L 5869 3972 
L 5869 3738 
L 5881 3097 
Q 5881 3050 5831 3050 
L 5625 3050 
Q 5581 3050 5581 3097 
L 5581 4050 
L 3297 4050 
L 3297 3347 
L 3309 2713 
Q 3309 2669 3266 2669 
L 3041 2669 
Q 2997 2669 2997 2713 
L 3009 3347 
L 3009 4050 
L 831 4050 
L 831 3097 
Q 831 3050 788 3050 
L 575 3050 
Q 531 3050 531 3097 
L 544 3738 
L 544 3941 
L 531 4256 
Q 531 4300 575 4300 
L 1459 4288 
L 3009 4288 
z
M 1766 3681 
L 2088 3681 
L 2516 3694 
Q 2559 3694 2559 3647 
L 2559 3500 
Q 2559 3456 2516 3456 
L 2088 3469 
L 1766 3469 
L 1338 3456 
Q 1294 3456 1294 3500 
L 1294 3647 
Q 1294 3694 1338 3694 
L 1766 3681 
z
M 1766 3103 
L 2088 3103 
L 2516 3116 
Q 2559 3116 2559 3072 
L 2559 2925 
Q 2559 2881 2516 2881 
L 2088 2894 
L 1766 2894 
L 1338 2881 
Q 1294 2881 1294 2925 
L 1294 3072 
Q 1294 3116 1338 3116 
L 1766 3103 
z
M 4250 3681 
L 4603 3681 
L 5056 3694 
Q 5100 3694 5100 3647 
L 5100 3500 
Q 5100 3456 5056 3456 
L 4603 3469 
L 4250 3469 
L 3803 3456 
Q 3756 3456 3756 3500 
L 3756 3647 
Q 3756 3694 3803 3694 
L 4250 3681 
z
M 4250 3103 
L 4603 3103 
L 5056 3116 
Q 5100 3116 5100 3072 
L 5100 2925 
Q 5100 2881 5056 2881 
L 4603 2894 
L 4250 2894 
L 3803 2881 
Q 3756 2881 3756 2925 
L 3756 3072 
Q 3756 3116 3803 3116 
L 4250 3103 
z
" transform="scale(0.015625)"/>
       <path id="YuGothic-Regular-5727" d="M 3425 269 
L 3425 2297 
L 2759 2297 
L 1875 2284 
Q 1831 2284 1831 2328 
L 1831 2547 
Q 1831 2591 1875 2591 
L 2759 2578 
L 3425 2578 
L 3425 3334 
Q 3425 3906 3381 4159 
Q 3578 4150 3722 4122 
Q 3788 4109 3788 4069 
Q 3788 4028 3763 3959 
Q 3725 3831 3725 3353 
L 3725 2578 
L 4519 2578 
L 5400 2591 
Q 5447 2591 5447 2547 
L 5447 2328 
Q 5447 2284 5400 2284 
L 4519 2297 
L 3725 2297 
L 3725 269 
L 4959 269 
L 5875 281 
Q 5919 281 5919 238 
L 5919 13 
Q 5919 -25 5875 -25 
L 4959 -13 
L 2291 -13 
L 1384 -25 
Q 1338 -25 1338 13 
L 1338 238 
Q 1338 281 1384 281 
L 2291 269 
L 3425 269 
z
M 1325 4519 
L 1325 3481 
Q 1325 2188 1191 1466 
Q 1028 506 616 -216 
Q 578 -281 559 -281 
Q 544 -281 494 -231 
Q 400 -138 275 -97 
Q 741 588 903 1575 
Q 1025 2244 1025 3481 
L 1013 4769 
Q 1013 4813 1056 4813 
L 1972 4800 
L 4878 4800 
L 5778 4813 
Q 5825 4813 5825 4769 
L 5825 4550 
Q 5825 4506 5778 4506 
L 4878 4519 
L 1325 4519 
z
" transform="scale(0.015625)"/>
       <path id="YuGothic-Regular-56" d="M 3891 4806 
L 2338 141 
L 1791 141 
L 263 4806 
L 722 4806 
L 1631 1913 
Q 1722 1631 1856 1175 
Q 2013 653 2053 513 
L 2119 513 
Q 2319 1228 2528 1900 
L 3463 4806 
L 3891 4806 
z
" transform="scale(0.015625)"/>
      </defs>
      <use xlink:href="#YuGothic-Regular-96fb"/>
      <use xlink:href="#YuGothic-Regular-5727" x="100"/>
      <use xlink:href="#YuGothic-Regular-5b" x="200"/>
      <use xlink:href="#YuGothic-Regular-56" x="238.623047"/>
      <use xlink:href="#YuGothic-Regular-5d" x="303.515625"/>
     </g>
    </g>
   </g>
   <g id="line2d_27">
    <path d="M 47.055 152.62 
L 100.704545 152.62 
L 100.865494 83.69 
L 637.25365 83.69 
L 637.25365 83.69 
" clip-path="url(#p4c6562d2a8)" style="fill: none; stroke: #1f77b4; stroke-width: 1.5; stroke-linecap: square"/>
   </g>
   <g id="line2d_28">
    <path d="M 47.055 152.62 
L 100.704545 152.62 
L 100.758195 83.804756 
L 100.865494 84.261998 
L 102.796878 91.991891 
L 104.781911 99.026634 
L 106.766944 105.245128 
L 108.751977 110.742084 
L 110.73701 115.601222 
L 112.775693 120.005446 
L 114.814376 123.885688 
L 116.906708 127.388532 
L 118.99904 130.464363 
L 121.145022 133.229978 
L 123.344654 135.706841 
L 125.597935 137.916406 
L 127.958515 139.922244 
L 130.426394 141.72731 
L 133.001572 143.337862 
L 135.737699 144.788986 
L 138.688424 146.100755 
L 141.853747 147.264672 
L 145.340967 148.307899 
L 149.203735 149.227981 
L 153.549348 150.030602 
L 158.538755 150.720814 
L 164.386556 151.299392 
L 171.468296 151.769481 
L 180.48142 152.134176 
L 192.767165 152.393552 
L 211.866404 152.55088 
L 252.586409 152.614494 
L 594.012116 152.62 
L 637.25365 152.62 
L 637.25365 152.62 
" clip-path="url(#p4c6562d2a8)" style="fill: none; stroke: #ff7f0e; stroke-width: 1.5; stroke-linecap: square"/>
   </g>
   <g id="patch_3">
    <path d="M 47.055 221.55 
L 47.055 14.76 
" style="fill: none; stroke: #000000; stroke-width: 0.8; stroke-linejoin: miter; stroke-linecap: square"/>
   </g>
   <g id="patch_4">
    <path d="M 637.2 221.55 
L 637.2 14.76 
" style="fill: none; stroke: #000000; stroke-width: 0.8; stroke-linejoin: miter; stroke-linecap: square"/>
   </g>
   <g id="patch_5">
    <path d="M 47.055 221.55 
L 637.2 221.55 
" style="fill: none; stroke: #000000; stroke-width: 0.8; stroke-linejoin: miter; stroke-linecap: square"/>
   </g>
   <g id="patch_6">
    <path d="M 47.055 14.76 
L 637.2 14.76 
" style="fill: none; stroke: #000000; stroke-width: 0.8; stroke-linejoin: miter; stroke-linecap: square"/>
   </g>
   <g id="legend_1">
    <g id="patch_7">
     <path d="M 578.2 216.55 
L 630.2 216.55 
Q 632.2 216.55 632.2 214.55 
L 632.2 187.08125 
Q 632.2 185.08125 630.2 185.08125 
L 578.2 185.08125 
Q 576.2 185.08125 576.2 187.08125 
L 576.2 214.55 
Q 576.2 216.55 578.2 216.55 
z
" style="fill: #ffffff; opacity: 0.8; stroke: #cccccc; stroke-linejoin: miter"/>
    </g>
    <g id="line2d_29">
     <path d="M 580.2 193.223437 
L 590.2 193.223437 
L 600.2 193.223437 
" style="fill: none; stroke: #1f77b4; stroke-width: 1.5; stroke-linecap: square"/>
    </g>
    <g id="text_16">
     <!-- 入力 -->
     <g transform="translate(608.2 196.723437)scale(0.1 -0.1)">
      <defs>
       <path id="YuGothic-Regular-5165" d="M 428 -56 
Q 1766 622 2475 1953 
Q 3081 3088 3122 4513 
L 2188 4513 
L 1606 4500 
Q 1559 4500 1559 4544 
L 1559 4763 
Q 1559 4806 1606 4806 
L 2188 4794 
L 2778 4794 
L 3366 4806 
Q 3416 4806 3416 4756 
L 3416 4666 
Q 3416 4406 3481 3956 
Q 3831 1334 6041 -31 
Q 5941 -81 5863 -209 
Q 5816 -281 5791 -281 
Q 5772 -281 5716 -241 
Q 4616 506 4016 1513 
Q 3475 2419 3288 3616 
Q 3153 2309 2397 1238 
Q 1756 334 788 -244 
Q 725 -278 706 -278 
Q 684 -278 625 -213 
Q 541 -103 428 -56 
z
" transform="scale(0.015625)"/>
       <path id="YuGothic-Regular-529b" d="M 2816 3516 
L 1688 3516 
L 788 3503 
Q 741 3503 741 3547 
L 741 3772 
Q 741 3816 788 3816 
L 1688 3803 
L 2834 3803 
Q 2841 4047 2841 4553 
Q 2841 5000 2797 5288 
Q 3019 5275 3159 5250 
Q 3244 5241 3244 5191 
Q 3244 5169 3200 5066 
Q 3159 4959 3159 4553 
Q 3159 4059 3147 3803 
L 4484 3803 
L 5394 3816 
Q 5444 3816 5444 3766 
Q 5431 3578 5431 3216 
Q 5406 1384 5206 456 
Q 5109 9 4931 -141 
Q 4772 -275 4447 -275 
Q 3978 -275 3647 -225 
Q 3566 -213 3553 -197 
Q 3538 -181 3525 -103 
Q 3494 50 3441 128 
Q 3956 31 4447 31 
Q 4647 31 4750 144 
Q 4856 259 4906 538 
Q 5125 1647 5125 3516 
L 3134 3516 
Q 3078 2494 2797 1794 
Q 2509 1075 1975 556 
Q 1525 116 813 -266 
Q 753 -303 731 -303 
Q 703 -303 653 -241 
Q 553 -125 447 -78 
Q 2025 628 2516 1916 
Q 2759 2563 2816 3516 
z
" transform="scale(0.015625)"/>
      </defs>
      <use xlink:href="#YuGothic-Regular-5165"/>
      <use xlink:href="#YuGothic-Regular-529b" x="100"/>
     </g>
    </g>
    <g id="line2d_30">
     <path d="M 580.2 207.457812 
L 590.2 207.457812 
L 600.2 207.457812 
" style="fill: none; stroke: #ff7f0e; stroke-width: 1.5; stroke-linecap: square"/>
    </g>
    <g id="text_17">
     <!-- 出力 -->
     <g transform="translate(608.2 210.957812)scale(0.1 -0.1)">
      <defs>
       <path id="YuGothic-Regular-51fa" d="M 2988 325 
L 2988 2572 
L 1375 2572 
L 1375 2231 
Q 1375 2188 1331 2188 
L 1113 2188 
Q 1069 2188 1069 2231 
L 1081 2791 
L 1081 3634 
Q 1081 4175 1034 4428 
Q 1238 4419 1375 4391 
Q 1438 4378 1438 4338 
Q 1438 4313 1413 4234 
Q 1375 4131 1375 3641 
L 1375 2847 
L 2988 2847 
L 2988 4453 
Q 2988 5025 2944 5272 
Q 3103 5266 3288 5241 
Q 3359 5228 3359 5191 
Q 3359 5175 3334 5075 
Q 3288 4909 3288 4466 
L 3288 2847 
L 5022 2847 
L 5022 3678 
Q 5022 4219 4978 4472 
Q 5169 4463 5316 4434 
Q 5388 4422 5388 4381 
Q 5388 4359 5363 4281 
Q 5316 4103 5316 3678 
L 5316 2828 
L 5328 2247 
Q 5328 2200 5284 2200 
L 5069 2200 
Q 5022 2200 5022 2247 
L 5022 2572 
L 3288 2572 
L 3288 325 
L 5197 325 
L 5197 966 
Q 5197 1500 5150 1753 
Q 5356 1744 5491 1713 
Q 5563 1703 5563 1669 
Q 5563 1650 5538 1559 
Q 5491 1397 5491 966 
L 5491 216 
L 5503 -322 
Q 5503 -366 5466 -366 
L 5241 -366 
Q 5197 -366 5197 -322 
L 5197 50 
L 1194 50 
L 1194 -341 
Q 1194 -384 1150 -384 
L 931 -384 
Q 888 -384 888 -341 
L 900 178 
L 900 922 
Q 900 1459 856 1706 
Q 1063 1697 1194 1669 
Q 1266 1656 1266 1619 
Q 1266 1603 1241 1516 
Q 1194 1391 1194 934 
L 1194 325 
L 2988 325 
z
" transform="scale(0.015625)"/>
      </defs>
      <use xlink:href="#YuGothic-Regular-51fa"/>
      <use xlink:href="#YuGothic-Regular-529b" x="100"/>
     </g>
    </g>
   </g>
  </g>
 </g>
 <defs>
  <clipPath id="p4c6562d2a8">
   <rect x="47.055" y="14.76" width="590.145" height="206.79"/>
  </clipPath>
 </defs>
</svg>
