<?xml version="1.0" encoding="utf-8" standalone="no"?>
<!DOCTYPE svg PUBLIC "-//W3C//DTD SVG 1.1//EN"
  "http://www.w3.org/Graphics/SVG/1.1/DTD/svg11.dtd">
<svg xmlns:xlink="http://www.w3.org/1999/xlink" width="288pt" height="288pt" viewBox="0 0 288 288" xmlns="http://www.w3.org/2000/svg" version="1.1">
 <metadata>
  <rdf:RDF xmlns:dc="http://purl.org/dc/elements/1.1/" xmlns:cc="http://creativecommons.org/ns#" xmlns:rdf="http://www.w3.org/1999/02/22-rdf-syntax-ns#">
   <cc:Work>
    <dc:type rdf:resource="http://purl.org/dc/dcmitype/StillImage"/>
    <dc:date>2022-08-18T11:51:50.810087</dc:date>
    <dc:format>image/svg+xml</dc:format>
    <dc:creator>
     <cc:Agent>
      <dc:title>Matplotlib v3.5.3, https://matplotlib.org/</dc:title>
     </cc:Agent>
    </dc:creator>
   </cc:Work>
  </rdf:RDF>
 </metadata>
 <defs>
  <style type="text/css">*{stroke-linejoin: round; stroke-linecap: butt}</style>
 </defs>
 <g id="figure_1">
  <g id="patch_1">
   <path d="M 0 288 
L 288 288 
L 288 0 
L 0 0 
z
" style="fill: #ffffff"/>
  </g>
  <g id="axes_1">
   <g id="patch_2">
    <path d="M 41.385 250.35 
L 264.915 250.35 
L 264.915 10.8 
L 41.385 10.8 
z
" style="fill: #ffffff"/>
   </g>
   <g id="matplotlib.axis_1">
    <g id="xtick_1">
     <g id="line2d_1">
      <path d="M 41.385 250.35 
L 41.385 10.8 
" clip-path="url(#p291e36b446)" style="fill: none; stroke: #b0b0b0; stroke-width: 0.8; stroke-linecap: square"/>
     </g>
     <g id="line2d_2"/>
     <g id="text_1">
      <!-- 0.00 -->
      <g transform="translate(31.754531 261.492188)scale(0.1 -0.1)">
       <defs>
        <path id="YuGothic-Regular-30" d="M 1788 4806 
Q 3150 4806 3150 2456 
Q 3150 56 1772 56 
Q 409 56 409 2444 
Q 409 4806 1788 4806 
z
M 1788 4453 
Q 1269 4453 1047 3938 
Q 838 3456 838 2456 
Q 838 1303 1100 819 
Q 1322 409 1772 409 
Q 2291 409 2516 950 
Q 2722 1444 2722 2450 
Q 2722 3591 2456 4059 
Q 2234 4453 1788 4453 
z
" transform="scale(0.015625)"/>
        <path id="YuGothic-Regular-2e" d="M 1147 794 
L 1147 141 
L 506 141 
L 506 794 
L 1147 794 
z
" transform="scale(0.015625)"/>
       </defs>
       <use xlink:href="#YuGothic-Regular-30"/>
       <use xlink:href="#YuGothic-Regular-2e" x="55.615234"/>
       <use xlink:href="#YuGothic-Regular-30" x="81.396484"/>
       <use xlink:href="#YuGothic-Regular-30" x="137.011719"/>
      </g>
     </g>
    </g>
    <g id="xtick_2">
     <g id="line2d_3">
      <path d="M 97.2675 250.35 
L 97.2675 10.8 
" clip-path="url(#p291e36b446)" style="fill: none; stroke: #b0b0b0; stroke-width: 0.8; stroke-linecap: square"/>
     </g>
     <g id="line2d_4"/>
     <g id="text_2">
      <!-- 0.01 -->
      <g transform="translate(87.637031 261.492188)scale(0.1 -0.1)">
       <defs>
        <path id="YuGothic-Regular-31" d="M 2063 4794 
L 2063 481 
L 2925 481 
L 2925 141 
L 744 141 
L 744 481 
L 1666 481 
L 1666 4359 
Q 1259 4081 725 3878 
L 653 4250 
Q 1184 4428 1734 4794 
L 2063 4794 
z
" transform="scale(0.015625)"/>
       </defs>
       <use xlink:href="#YuGothic-Regular-30"/>
       <use xlink:href="#YuGothic-Regular-2e" x="55.615234"/>
       <use xlink:href="#YuGothic-Regular-30" x="81.396484"/>
       <use xlink:href="#YuGothic-Regular-31" x="137.011719"/>
      </g>
     </g>
    </g>
    <g id="xtick_3">
     <g id="line2d_5">
      <path d="M 153.15 250.35 
L 153.15 10.8 
" clip-path="url(#p291e36b446)" style="fill: none; stroke: #b0b0b0; stroke-width: 0.8; stroke-linecap: square"/>
     </g>
     <g id="line2d_6"/>
     <g id="text_3">
      <!-- 0.02 -->
      <g transform="translate(143.519531 261.492188)scale(0.1 -0.1)">
       <defs>
        <path id="YuGothic-Regular-32" d="M 459 3597 
Q 588 4228 988 4541 
Q 1325 4806 1819 4806 
Q 2406 4806 2750 4453 
Q 3059 4138 3059 3628 
Q 3059 3219 2838 2875 
Q 2628 2556 2094 2075 
Q 1191 1284 825 494 
L 3066 494 
L 3066 141 
L 422 141 
L 422 456 
Q 819 1406 1806 2309 
Q 2331 2800 2497 3088 
Q 2638 3331 2638 3628 
Q 2638 4038 2378 4263 
Q 2156 4453 1813 4453 
Q 1025 4453 863 3494 
L 459 3597 
z
" transform="scale(0.015625)"/>
       </defs>
       <use xlink:href="#YuGothic-Regular-30"/>
       <use xlink:href="#YuGothic-Regular-2e" x="55.615234"/>
       <use xlink:href="#YuGothic-Regular-30" x="81.396484"/>
       <use xlink:href="#YuGothic-Regular-32" x="137.011719"/>
      </g>
     </g>
    </g>
    <g id="xtick_4">
     <g id="line2d_7">
      <path d="M 209.0325 250.35 
L 209.0325 10.8 
" clip-path="url(#p291e36b446)" style="fill: none; stroke: #b0b0b0; stroke-width: 0.8; stroke-linecap: square"/>
     </g>
     <g id="line2d_8"/>
     <g id="text_4">
      <!-- 0.03 -->
      <g transform="translate(199.402031 261.492188)scale(0.1 -0.1)">
       <defs>
        <path id="YuGothic-Regular-33" d="M 463 3922 
Q 641 4378 1013 4606 
Q 1331 4806 1756 4806 
Q 2331 4806 2688 4456 
Q 3003 4150 3003 3694 
Q 3003 3241 2738 2950 
Q 2509 2703 2125 2613 
L 2125 2572 
Q 2625 2459 2884 2116 
Q 3113 1813 3113 1388 
Q 3113 750 2688 378 
Q 2322 56 1769 56 
Q 759 56 372 928 
L 756 1094 
Q 922 700 1191 541 
Q 1419 403 1769 403 
Q 2216 403 2469 703 
Q 2691 966 2691 1375 
Q 2691 1888 2369 2147 
Q 2078 2381 1563 2381 
L 1203 2381 
L 1203 2747 
L 1525 2747 
Q 2072 2747 2350 3025 
Q 2588 3263 2588 3659 
Q 2588 4059 2319 4278 
Q 2094 4459 1747 4459 
Q 1409 4459 1169 4266 
Q 947 4088 847 3769 
L 463 3922 
z
" transform="scale(0.015625)"/>
       </defs>
       <use xlink:href="#YuGothic-Regular-30"/>
       <use xlink:href="#YuGothic-Regular-2e" x="55.615234"/>
       <use xlink:href="#YuGothic-Regular-30" x="81.396484"/>
       <use xlink:href="#YuGothic-Regular-33" x="137.011719"/>
      </g>
     </g>
    </g>
    <g id="xtick_5">
     <g id="line2d_9">
      <path d="M 264.915 250.35 
L 264.915 10.8 
" clip-path="url(#p291e36b446)" style="fill: none; stroke: #b0b0b0; stroke-width: 0.8; stroke-linecap: square"/>
     </g>
     <g id="line2d_10"/>
     <g id="text_5">
      <!-- 0.04 -->
      <g transform="translate(255.284531 261.492188)scale(0.1 -0.1)">
       <defs>
        <path id="YuGothic-Regular-34" d="M 2553 4788 
L 2553 1572 
L 3231 1572 
L 3231 1241 
L 2553 1241 
L 2553 141 
L 2188 141 
L 2188 1241 
L 306 1241 
L 306 1553 
L 1997 4788 
L 2553 4788 
z
M 2188 1572 
L 2188 3488 
Q 2188 3678 2200 4459 
L 2138 4459 
Q 1944 3988 1719 3563 
L 697 1572 
L 2188 1572 
z
" transform="scale(0.015625)"/>
       </defs>
       <use xlink:href="#YuGothic-Regular-30"/>
       <use xlink:href="#YuGothic-Regular-2e" x="55.615234"/>
       <use xlink:href="#YuGothic-Regular-30" x="81.396484"/>
       <use xlink:href="#YuGothic-Regular-34" x="137.011719"/>
      </g>
     </g>
    </g>
    <g id="text_6">
     <!-- 時間[s] -->
     <g transform="translate(136.74375 274.940625)scale(0.1 -0.1)">
      <defs>
       <path id="YuGothic-Regular-6642" d="M 4850 1863 
L 3341 1863 
L 2463 1850 
Q 2419 1850 2419 1894 
L 2419 2094 
Q 2419 2131 2463 2131 
L 3341 2125 
L 4850 2125 
L 4850 2169 
Q 4850 2647 4806 2853 
Q 5006 2844 5131 2816 
Q 5209 2806 5209 2772 
Q 5209 2741 5169 2663 
Q 5138 2581 5138 2181 
L 5138 2125 
L 5944 2131 
Q 5988 2131 5988 2094 
L 5988 1894 
Q 5988 1850 5944 1850 
L 5138 1863 
L 5138 909 
L 5144 84 
Q 5144 -197 4978 -313 
Q 4838 -409 4375 -409 
Q 4344 -409 4269 -409 
Q 4188 -409 4172 -394 
Q 4156 -378 4134 -306 
Q 4094 -172 4025 -84 
Q 4231 -109 4472 -109 
Q 4538 -109 4619 -106 
Q 4850 -106 4850 141 
L 4850 1863 
z
M 972 738 
L 972 194 
Q 972 156 928 156 
L 722 156 
Q 678 156 678 194 
L 691 2163 
L 691 3384 
L 678 4872 
Q 678 4916 722 4916 
L 1222 4903 
L 1631 4903 
L 2131 4916 
Q 2175 4916 2175 4872 
L 2163 3578 
L 2163 2284 
L 2175 406 
Q 2175 359 2131 359 
L 1931 359 
Q 1888 359 1888 406 
L 1888 738 
L 972 738 
z
M 972 2994 
L 1888 2994 
L 1888 4641 
L 972 4641 
L 972 2994 
z
M 972 2738 
L 972 994 
L 1888 994 
L 1888 2738 
L 972 2738 
z
M 3950 3238 
L 3950 4159 
L 3522 4159 
L 2697 4147 
Q 2644 4147 2644 4191 
L 2644 4384 
Q 2644 4428 2697 4428 
L 3522 4416 
L 3950 4416 
L 3950 4447 
Q 3950 5019 3906 5272 
Q 4025 5269 4238 5241 
Q 4300 5231 4300 5191 
Q 4300 5172 4275 5081 
Q 4238 4975 4238 4459 
L 4238 4416 
L 4866 4416 
L 5691 4428 
Q 5734 4428 5734 4384 
L 5734 4191 
Q 5734 4147 5691 4147 
L 4866 4159 
L 4238 4159 
L 4238 3238 
L 5134 3238 
L 6022 3250 
Q 6069 3250 6069 3206 
L 6069 3013 
Q 6069 2969 6022 2969 
L 5134 2981 
L 3309 2981 
L 2428 2969 
Q 2381 2969 2381 3013 
L 2381 3206 
Q 2381 3250 2428 3250 
L 3309 3238 
L 3950 3238 
z
M 3225 1434 
Q 3609 1097 3878 647 
Q 3888 631 3888 616 
Q 3888 594 3847 563 
L 3738 488 
Q 3678 447 3666 447 
Q 3650 447 3634 475 
Q 3378 925 3009 1275 
Q 2988 1291 2988 1303 
Q 2988 1322 3047 1363 
L 3134 1428 
Q 3175 1453 3191 1453 
Q 3203 1453 3225 1434 
z
" transform="scale(0.015625)"/>
       <path id="YuGothic-Regular-9593" d="M 2388 525 
L 2388 159 
Q 2388 116 2344 116 
L 2150 116 
Q 2106 116 2106 159 
L 2119 1281 
L 2119 1813 
L 2106 2534 
Q 2106 2578 2150 2578 
L 2809 2566 
L 3513 2566 
L 4172 2578 
Q 4209 2578 4209 2534 
L 4197 1900 
L 4197 1325 
L 4209 231 
Q 4209 184 4172 184 
L 3972 184 
Q 3928 184 3928 231 
L 3928 525 
L 2388 525 
z
M 2388 1684 
L 3928 1684 
L 3928 2322 
L 2388 2322 
L 2388 1684 
z
M 2388 1441 
L 2388 763 
L 3928 763 
L 3928 1441 
L 2388 1441 
z
M 5416 3141 
L 4213 3141 
L 3525 3128 
Q 3481 3128 3481 3172 
L 3488 3725 
L 3488 4444 
L 3481 4994 
Q 3481 5038 3525 5038 
L 4213 5025 
L 4988 5025 
L 5672 5038 
Q 5716 5038 5716 4994 
L 5703 4078 
L 5703 1100 
L 5722 263 
Q 5722 50 5681 -50 
Q 5647 -128 5563 -194 
Q 5422 -303 4938 -303 
Q 4897 -303 4800 -303 
Q 4725 -303 4709 -288 
Q 4697 -275 4678 -206 
Q 4644 -84 4575 13 
Q 4791 -16 5050 -16 
Q 5294 -16 5359 56 
Q 5416 119 5416 319 
L 5416 3141 
z
M 5416 3378 
L 5416 3981 
L 3769 3981 
L 3769 3378 
L 5416 3378 
z
M 5416 4219 
L 5416 4781 
L 3769 4781 
L 3769 4219 
L 5416 4219 
z
M 1428 5025 
L 2138 5025 
L 2778 5038 
Q 2822 5038 2822 4994 
L 2809 4416 
L 2809 3756 
L 2822 3172 
Q 2822 3128 2778 3128 
L 2138 3141 
L 972 3141 
L 972 953 
L 984 -347 
Q 984 -391 941 -391 
L 716 -391 
Q 672 -391 672 -347 
L 684 953 
L 684 3678 
L 672 4994 
Q 672 5038 716 5038 
L 1428 5025 
z
M 972 3981 
L 972 3378 
L 2528 3378 
L 2528 3981 
L 972 3981 
z
M 972 4219 
L 2528 4219 
L 2528 4781 
L 972 4781 
L 972 4219 
z
" transform="scale(0.015625)"/>
       <path id="YuGothic-Regular-5b" d="M 2200 5459 
L 2200 5222 
L 1209 5222 
L 1209 -356 
L 2200 -356 
L 2200 -588 
L 856 -588 
L 856 5459 
L 2200 5459 
z
" transform="scale(0.015625)"/>
       <path id="YuGothic-Regular-73" d="M 2759 2663 
L 2375 2528 
Q 2194 3106 1594 3106 
Q 1231 3106 1034 2947 
Q 866 2809 866 2594 
Q 866 2325 1034 2197 
Q 1184 2081 1569 1997 
L 1825 1941 
Q 2419 1803 2641 1578 
Q 2844 1375 2844 1003 
Q 2844 563 2503 306 
Q 2181 63 1628 63 
Q 663 63 366 838 
L 750 984 
Q 963 375 1634 375 
Q 2078 375 2291 578 
Q 2453 734 2453 966 
Q 2453 1263 2284 1394 
Q 2125 1516 1691 1613 
L 1434 1672 
Q 869 1800 659 2034 
Q 488 2225 488 2559 
Q 488 2963 803 3197 
Q 1097 3419 1600 3419 
Q 2466 3419 2759 2663 
z
" transform="scale(0.015625)"/>
       <path id="YuGothic-Regular-5d" d="M 1613 5453 
L 1613 -588 
L 269 -588 
L 269 -356 
L 1259 -356 
L 1259 5222 
L 269 5222 
L 269 5453 
L 1613 5453 
z
" transform="scale(0.015625)"/>
      </defs>
      <use xlink:href="#YuGothic-Regular-6642"/>
      <use xlink:href="#YuGothic-Regular-9593" x="100"/>
      <use xlink:href="#YuGothic-Regular-5b" x="200"/>
      <use xlink:href="#YuGothic-Regular-73" x="238.623047"/>
      <use xlink:href="#YuGothic-Regular-5d" x="289.501953"/>
     </g>
    </g>
   </g>
   <g id="matplotlib.axis_2">
    <g id="ytick_1">
     <g id="line2d_11">
      <path d="M 41.385 230.3875 
L 264.915 230.3875 
" clip-path="url(#p291e36b446)" style="fill: none; stroke: #b0b0b0; stroke-width: 0.8; stroke-linecap: square"/>
     </g>
     <g id="line2d_12"/>
     <g id="text_7">
      <!-- 0.0 -->
      <g transform="translate(24.185 234.208594)scale(0.1 -0.1)">
       <use xlink:href="#YuGothic-Regular-30"/>
       <use xlink:href="#YuGothic-Regular-2e" x="55.615234"/>
       <use xlink:href="#YuGothic-Regular-30" x="81.396484"/>
      </g>
     </g>
    </g>
    <g id="ytick_2">
     <g id="line2d_13">
      <path d="M 41.385 190.4625 
L 264.915 190.4625 
" clip-path="url(#p291e36b446)" style="fill: none; stroke: #b0b0b0; stroke-width: 0.8; stroke-linecap: square"/>
     </g>
     <g id="line2d_14"/>
     <g id="text_8">
      <!-- 0.2 -->
      <g transform="translate(24.185 194.283594)scale(0.1 -0.1)">
       <use xlink:href="#YuGothic-Regular-30"/>
       <use xlink:href="#YuGothic-Regular-2e" x="55.615234"/>
       <use xlink:href="#YuGothic-Regular-32" x="81.396484"/>
      </g>
     </g>
    </g>
    <g id="ytick_3">
     <g id="line2d_15">
      <path d="M 41.385 150.5375 
L 264.915 150.5375 
" clip-path="url(#p291e36b446)" style="fill: none; stroke: #b0b0b0; stroke-width: 0.8; stroke-linecap: square"/>
     </g>
     <g id="line2d_16"/>
     <g id="text_9">
      <!-- 0.4 -->
      <g transform="translate(24.185 154.358594)scale(0.1 -0.1)">
       <use xlink:href="#YuGothic-Regular-30"/>
       <use xlink:href="#YuGothic-Regular-2e" x="55.615234"/>
       <use xlink:href="#YuGothic-Regular-34" x="81.396484"/>
      </g>
     </g>
    </g>
    <g id="ytick_4">
     <g id="line2d_17">
      <path d="M 41.385 110.6125 
L 264.915 110.6125 
" clip-path="url(#p291e36b446)" style="fill: none; stroke: #b0b0b0; stroke-width: 0.8; stroke-linecap: square"/>
     </g>
     <g id="line2d_18"/>
     <g id="text_10">
      <!-- 0.6 -->
      <g transform="translate(24.185 114.433594)scale(0.1 -0.1)">
       <defs>
        <path id="YuGothic-Regular-36" d="M 3041 4206 
L 2656 4019 
Q 2459 4459 1984 4459 
Q 909 4459 872 2369 
Q 1306 3066 1959 3066 
Q 2516 3066 2847 2622 
Q 3138 2231 3138 1625 
Q 3138 856 2722 422 
Q 2375 56 1850 56 
Q 1184 56 819 653 
Q 475 1209 475 2200 
Q 475 3606 941 4266 
Q 1325 4806 1997 4806 
Q 2716 4806 3041 4206 
z
M 884 1966 
Q 891 1138 1200 731 
Q 1450 403 1850 403 
Q 2284 403 2516 759 
Q 2722 1075 2722 1619 
Q 2722 2166 2469 2459 
Q 2250 2713 1897 2713 
Q 1297 2713 884 1966 
z
" transform="scale(0.015625)"/>
       </defs>
       <use xlink:href="#YuGothic-Regular-30"/>
       <use xlink:href="#YuGothic-Regular-2e" x="55.615234"/>
       <use xlink:href="#YuGothic-Regular-36" x="81.396484"/>
      </g>
     </g>
    </g>
    <g id="ytick_5">
     <g id="line2d_19">
      <path d="M 41.385 70.6875 
L 264.915 70.6875 
" clip-path="url(#p291e36b446)" style="fill: none; stroke: #b0b0b0; stroke-width: 0.8; stroke-linecap: square"/>
     </g>
     <g id="line2d_20"/>
     <g id="text_11">
      <!-- 0.8 -->
      <g transform="translate(24.185 74.508594)scale(0.1 -0.1)">
       <defs>
        <path id="YuGothic-Regular-38" d="M 2144 2578 
Q 2753 2309 2988 1978 
Q 3181 1706 3181 1306 
Q 3181 684 2738 344 
Q 2363 56 1775 56 
Q 1103 56 719 425 
Q 372 756 372 1291 
Q 372 1728 650 2028 
Q 891 2288 1409 2528 
Q 891 2775 688 3072 
Q 513 3322 513 3688 
Q 513 4209 906 4528 
Q 1253 4806 1772 4806 
Q 2378 4806 2741 4456 
Q 3053 4153 3053 3706 
Q 3053 3288 2825 3022 
Q 2616 2784 2144 2578 
z
M 1831 2725 
Q 2328 2938 2509 3191 
Q 2656 3391 2656 3700 
Q 2656 4072 2381 4288 
Q 2144 4475 1772 4475 
Q 1353 4475 1116 4231 
Q 909 4019 909 3688 
Q 909 3366 1103 3159 
Q 1288 2966 1722 2778 
L 1831 2725 
z
M 1734 2375 
Q 1178 2125 963 1859 
Q 775 1628 775 1306 
Q 775 856 1078 613 
Q 1341 397 1775 397 
Q 2281 397 2550 672 
Q 2778 906 2778 1300 
Q 2778 1663 2550 1897 
Q 2341 2109 1844 2322 
L 1734 2375 
z
" transform="scale(0.015625)"/>
       </defs>
       <use xlink:href="#YuGothic-Regular-30"/>
       <use xlink:href="#YuGothic-Regular-2e" x="55.615234"/>
       <use xlink:href="#YuGothic-Regular-38" x="81.396484"/>
      </g>
     </g>
    </g>
    <g id="ytick_6">
     <g id="line2d_21">
      <path d="M 41.385 30.7625 
L 264.915 30.7625 
" clip-path="url(#p291e36b446)" style="fill: none; stroke: #b0b0b0; stroke-width: 0.8; stroke-linecap: square"/>
     </g>
     <g id="line2d_22"/>
     <g id="text_12">
      <!-- 1.0 -->
      <g transform="translate(24.185 34.583594)scale(0.1 -0.1)">
       <use xlink:href="#YuGothic-Regular-31"/>
       <use xlink:href="#YuGothic-Regular-2e" x="55.615234"/>
       <use xlink:href="#YuGothic-Regular-30" x="81.396484"/>
      </g>
     </g>
    </g>
    <g id="text_13">
     <!-- 出力 -->
     <g transform="translate(18.592813 140.575)rotate(-90)scale(0.1 -0.1)">
      <defs>
       <path id="YuGothic-Regular-51fa" d="M 2988 325 
L 2988 2572 
L 1375 2572 
L 1375 2231 
Q 1375 2188 1331 2188 
L 1113 2188 
Q 1069 2188 1069 2231 
L 1081 2791 
L 1081 3634 
Q 1081 4175 1034 4428 
Q 1238 4419 1375 4391 
Q 1438 4378 1438 4338 
Q 1438 4313 1413 4234 
Q 1375 4131 1375 3641 
L 1375 2847 
L 2988 2847 
L 2988 4453 
Q 2988 5025 2944 5272 
Q 3103 5266 3288 5241 
Q 3359 5228 3359 5191 
Q 3359 5175 3334 5075 
Q 3288 4909 3288 4466 
L 3288 2847 
L 5022 2847 
L 5022 3678 
Q 5022 4219 4978 4472 
Q 5169 4463 5316 4434 
Q 5388 4422 5388 4381 
Q 5388 4359 5363 4281 
Q 5316 4103 5316 3678 
L 5316 2828 
L 5328 2247 
Q 5328 2200 5284 2200 
L 5069 2200 
Q 5022 2200 5022 2247 
L 5022 2572 
L 3288 2572 
L 3288 325 
L 5197 325 
L 5197 966 
Q 5197 1500 5150 1753 
Q 5356 1744 5491 1713 
Q 5563 1703 5563 1669 
Q 5563 1650 5538 1559 
Q 5491 1397 5491 966 
L 5491 216 
L 5503 -322 
Q 5503 -366 5466 -366 
L 5241 -366 
Q 5197 -366 5197 -322 
L 5197 50 
L 1194 50 
L 1194 -341 
Q 1194 -384 1150 -384 
L 931 -384 
Q 888 -384 888 -341 
L 900 178 
L 900 922 
Q 900 1459 856 1706 
Q 1063 1697 1194 1669 
Q 1266 1656 1266 1619 
Q 1266 1603 1241 1516 
Q 1194 1391 1194 934 
L 1194 325 
L 2988 325 
z
" transform="scale(0.015625)"/>
       <path id="YuGothic-Regular-529b" d="M 2816 3516 
L 1688 3516 
L 788 3503 
Q 741 3503 741 3547 
L 741 3772 
Q 741 3816 788 3816 
L 1688 3803 
L 2834 3803 
Q 2841 4047 2841 4553 
Q 2841 5000 2797 5288 
Q 3019 5275 3159 5250 
Q 3244 5241 3244 5191 
Q 3244 5169 3200 5066 
Q 3159 4959 3159 4553 
Q 3159 4059 3147 3803 
L 4484 3803 
L 5394 3816 
Q 5444 3816 5444 3766 
Q 5431 3578 5431 3216 
Q 5406 1384 5206 456 
Q 5109 9 4931 -141 
Q 4772 -275 4447 -275 
Q 3978 -275 3647 -225 
Q 3566 -213 3553 -197 
Q 3538 -181 3525 -103 
Q 3494 50 3441 128 
Q 3956 31 4447 31 
Q 4647 31 4750 144 
Q 4856 259 4906 538 
Q 5125 1647 5125 3516 
L 3134 3516 
Q 3078 2494 2797 1794 
Q 2509 1075 1975 556 
Q 1525 116 813 -266 
Q 753 -303 731 -303 
Q 703 -303 653 -241 
Q 553 -125 447 -78 
Q 2025 628 2516 1916 
Q 2759 2563 2816 3516 
z
" transform="scale(0.015625)"/>
      </defs>
      <use xlink:href="#YuGothic-Regular-51fa"/>
      <use xlink:href="#YuGothic-Regular-529b" x="100"/>
     </g>
    </g>
   </g>
   <g id="line2d_23">
    <path d="M 41.385 230.3875 
L 46.083829 220.114746 
L 50.782658 210.370631 
L 55.481486 201.127951 
L 60.180315 192.360901 
L 64.879144 184.045006 
L 69.801727 175.791727 
L 74.724309 167.982834 
L 79.646892 160.594399 
L 84.569474 153.603785 
L 89.492057 146.98957 
L 94.638393 140.455177 
L 99.78473 134.288153 
L 104.931066 128.467846 
L 110.077402 122.974761 
L 115.447492 117.571834 
L 120.817583 112.485476 
L 126.187673 107.69714 
L 131.781517 103.007382 
L 137.37536 98.6035 
L 143.192958 94.308001 
L 149.010556 90.28448 
L 155.051907 86.37563 
L 161.317012 82.592919 
L 167.582117 79.067501 
L 174.070976 75.668759 
L 180.783589 72.404259 
L 187.719955 69.280051 
L 194.880075 66.30072 
L 202.263949 63.469452 
L 209.871577 60.788114 
L 217.926712 58.18825 
L 226.205601 55.750561 
L 234.931997 53.415274 
L 244.105901 51.195167 
L 253.727312 49.100144 
L 263.796231 47.137331 
L 264.915 46.932642 
L 264.915 46.932642 
" clip-path="url(#p291e36b446)" style="fill: none; stroke: #1f77b4; stroke-width: 1.5; stroke-linecap: square"/>
   </g>
   <g id="line2d_24">
    <path d="M 41.385 230.3875 
L 41.832508 151.459422 
L 42.280015 103.738064 
L 42.727523 74.884859 
L 43.17503 57.439684 
L 43.622538 46.892013 
L 44.070045 40.514698 
L 44.517553 36.658857 
L 44.96506 34.327545 
L 45.412568 32.917991 
L 45.860075 32.06575 
L 46.531336 31.375202 
L 47.202598 31.050552 
L 48.321366 30.844379 
L 50.558904 30.769116 
L 68.459204 30.7625 
L 264.915 30.7625 
L 264.915 30.7625 
" clip-path="url(#p291e36b446)" style="fill: none; stroke: #ff7f0e; stroke-width: 1.5; stroke-linecap: square"/>
   </g>
   <g id="line2d_25">
    <path d="M 41.385 230.3875 
L 41.832508 230.172727 
L 42.280015 229.647813 
L 43.17503 228.116715 
L 44.96506 224.412492 
L 51.006411 211.728968 
L 55.70524 202.416425 
L 60.404069 193.58307 
L 65.102898 185.204282 
L 70.02548 176.888583 
L 74.948063 169.020631 
L 79.870646 161.576318 
L 84.793228 154.532834 
L 89.715811 147.868595 
L 94.638393 141.563184 
L 99.78473 135.333867 
L 104.931066 129.454768 
L 110.077402 123.906198 
L 115.447492 118.448696 
L 120.817583 113.310961 
L 126.187673 108.474258 
L 131.781517 103.737128 
L 137.37536 99.288763 
L 143.192958 94.949874 
L 149.010556 90.885712 
L 155.051907 86.937379 
L 161.317012 83.116458 
L 167.582117 79.55543 
L 174.070976 76.122358 
L 180.783589 72.824883 
L 187.719955 69.669117 
L 194.880075 66.659692 
L 202.263949 63.799825 
L 209.871577 61.091403 
L 217.926712 58.465278 
L 226.205601 56.002965 
L 234.931997 53.64409 
L 244.105901 51.401558 
L 253.727312 49.285372 
L 263.796231 47.302733 
L 264.915 47.095977 
L 264.915 47.095977 
" clip-path="url(#p291e36b446)" style="fill: none; stroke: #2ca02c; stroke-width: 1.5; stroke-linecap: square"/>
   </g>
   <g id="patch_3">
    <path d="M 41.385 250.35 
L 41.385 10.8 
" style="fill: none; stroke: #000000; stroke-width: 0.8; stroke-linejoin: miter; stroke-linecap: square"/>
   </g>
   <g id="patch_4">
    <path d="M 264.915 250.35 
L 264.915 10.8 
" style="fill: none; stroke: #000000; stroke-width: 0.8; stroke-linejoin: miter; stroke-linecap: square"/>
   </g>
   <g id="patch_5">
    <path d="M 41.385 250.35 
L 264.915 250.35 
" style="fill: none; stroke: #000000; stroke-width: 0.8; stroke-linejoin: miter; stroke-linecap: square"/>
   </g>
   <g id="patch_6">
    <path d="M 41.385 10.8 
L 264.915 10.8 
" style="fill: none; stroke: #000000; stroke-width: 0.8; stroke-linejoin: miter; stroke-linecap: square"/>
   </g>
   <g id="legend_1">
    <g id="patch_7">
     <path d="M 174.915 245.35 
L 257.915 245.35 
Q 259.915 245.35 259.915 243.35 
L 259.915 201.323437 
Q 259.915 199.323437 257.915 199.323437 
L 174.915 199.323437 
Q 172.915 199.323437 172.915 201.323437 
L 172.915 243.35 
Q 172.915 245.35 174.915 245.35 
z
" style="fill: #ffffff; opacity: 0.8; stroke: #cccccc; stroke-linejoin: miter"/>
    </g>
    <g id="line2d_26">
     <path d="M 176.915 207.465625 
L 186.915 207.465625 
L 196.915 207.465625 
" style="fill: none; stroke: #1f77b4; stroke-width: 1.5; stroke-linecap: square"/>
    </g>
    <g id="text_14">
     <!-- $G_1(s)$ -->
     <g transform="translate(204.915 210.965625)scale(0.1 -0.1)">
      <defs>
       <path id="DejaVuSans-Oblique-47" d="M 3494 697 
L 3738 1919 
L 2700 1919 
L 2797 2438 
L 4453 2438 
L 4050 384 
Q 3634 156 3143 32 
Q 2653 -91 2156 -91 
Q 1278 -91 783 396 
Q 288 884 288 1753 
Q 288 2475 589 3126 
Q 891 3778 1422 4213 
Q 1756 4484 2153 4617 
Q 2550 4750 3034 4750 
Q 3472 4750 3873 4639 
Q 4275 4528 4641 4306 
L 4513 3634 
Q 4231 3928 3853 4083 
Q 3475 4238 3047 4238 
Q 2550 4238 2172 4048 
Q 1794 3859 1497 3463 
Q 1244 3125 1098 2667 
Q 953 2209 953 1734 
Q 953 1081 1287 751 
Q 1622 422 2284 422 
Q 2616 422 2925 492 
Q 3234 563 3494 697 
z
" transform="scale(0.015625)"/>
       <path id="DejaVuSans-31" d="M 794 531 
L 1825 531 
L 1825 4091 
L 703 3866 
L 703 4441 
L 1819 4666 
L 2450 4666 
L 2450 531 
L 3481 531 
L 3481 0 
L 794 0 
L 794 531 
z
" transform="scale(0.015625)"/>
       <path id="DejaVuSans-28" d="M 1984 4856 
Q 1566 4138 1362 3434 
Q 1159 2731 1159 2009 
Q 1159 1288 1364 580 
Q 1569 -128 1984 -844 
L 1484 -844 
Q 1016 -109 783 600 
Q 550 1309 550 2009 
Q 550 2706 781 3412 
Q 1013 4119 1484 4856 
L 1984 4856 
z
" transform="scale(0.015625)"/>
       <path id="DejaVuSans-Oblique-73" d="M 3200 3397 
L 3091 2853 
Q 2863 2978 2609 3040 
Q 2356 3103 2088 3103 
Q 1634 3103 1373 2948 
Q 1113 2794 1113 2528 
Q 1113 2219 1719 2053 
Q 1766 2041 1788 2034 
L 1972 1978 
Q 2547 1819 2739 1644 
Q 2931 1469 2931 1166 
Q 2931 609 2489 259 
Q 2047 -91 1331 -91 
Q 1053 -91 747 -37 
Q 441 16 72 128 
L 184 722 
Q 500 559 806 475 
Q 1113 391 1394 391 
Q 1816 391 2080 572 
Q 2344 753 2344 1031 
Q 2344 1331 1650 1516 
L 1591 1531 
L 1394 1581 
Q 956 1697 753 1886 
Q 550 2075 550 2369 
Q 550 2928 970 3256 
Q 1391 3584 2113 3584 
Q 2397 3584 2667 3537 
Q 2938 3491 3200 3397 
z
" transform="scale(0.015625)"/>
       <path id="DejaVuSans-29" d="M 513 4856 
L 1013 4856 
Q 1481 4119 1714 3412 
Q 1947 2706 1947 2009 
Q 1947 1309 1714 600 
Q 1481 -109 1013 -844 
L 513 -844 
Q 928 -128 1133 580 
Q 1338 1288 1338 2009 
Q 1338 2731 1133 3434 
Q 928 4138 513 4856 
z
" transform="scale(0.015625)"/>
      </defs>
      <use xlink:href="#DejaVuSans-Oblique-47" transform="translate(0 0.125)"/>
      <use xlink:href="#DejaVuSans-31" transform="translate(77.490234 -16.28125)scale(0.7)"/>
      <use xlink:href="#DejaVuSans-28" transform="translate(124.760742 0.125)"/>
      <use xlink:href="#DejaVuSans-Oblique-73" transform="translate(163.774414 0.125)"/>
      <use xlink:href="#DejaVuSans-29" transform="translate(215.874023 0.125)"/>
     </g>
    </g>
    <g id="line2d_27">
     <path d="M 176.915 221.807812 
L 186.915 221.807812 
L 196.915 221.807812 
" style="fill: none; stroke: #ff7f0e; stroke-width: 1.5; stroke-linecap: square"/>
    </g>
    <g id="text_15">
     <!-- $G_2(s)$ -->
     <g transform="translate(204.915 225.307812)scale(0.1 -0.1)">
      <defs>
       <path id="DejaVuSans-32" d="M 1228 531 
L 3431 531 
L 3431 0 
L 469 0 
L 469 531 
Q 828 903 1448 1529 
Q 2069 2156 2228 2338 
Q 2531 2678 2651 2914 
Q 2772 3150 2772 3378 
Q 2772 3750 2511 3984 
Q 2250 4219 1831 4219 
Q 1534 4219 1204 4116 
Q 875 4013 500 3803 
L 500 4441 
Q 881 4594 1212 4672 
Q 1544 4750 1819 4750 
Q 2544 4750 2975 4387 
Q 3406 4025 3406 3419 
Q 3406 3131 3298 2873 
Q 3191 2616 2906 2266 
Q 2828 2175 2409 1742 
Q 1991 1309 1228 531 
z
" transform="scale(0.015625)"/>
      </defs>
      <use xlink:href="#DejaVuSans-Oblique-47" transform="translate(0 0.125)"/>
      <use xlink:href="#DejaVuSans-32" transform="translate(77.490234 -16.28125)scale(0.7)"/>
      <use xlink:href="#DejaVuSans-28" transform="translate(124.760742 0.125)"/>
      <use xlink:href="#DejaVuSans-Oblique-73" transform="translate(163.774414 0.125)"/>
      <use xlink:href="#DejaVuSans-29" transform="translate(215.874023 0.125)"/>
     </g>
    </g>
    <g id="line2d_28">
     <path d="M 176.915 236.15 
L 186.915 236.15 
L 196.915 236.15 
" style="fill: none; stroke: #2ca02c; stroke-width: 1.5; stroke-linecap: square"/>
    </g>
    <g id="text_16">
     <!-- $G_1(s)G_2(s)$ -->
     <g transform="translate(204.915 239.65)scale(0.1 -0.1)">
      <use xlink:href="#DejaVuSans-Oblique-47" transform="translate(0 0.125)"/>
      <use xlink:href="#DejaVuSans-31" transform="translate(77.490234 -16.28125)scale(0.7)"/>
      <use xlink:href="#DejaVuSans-28" transform="translate(124.760742 0.125)"/>
      <use xlink:href="#DejaVuSans-Oblique-73" transform="translate(163.774414 0.125)"/>
      <use xlink:href="#DejaVuSans-29" transform="translate(215.874023 0.125)"/>
      <use xlink:href="#DejaVuSans-Oblique-47" transform="translate(254.887695 0.125)"/>
      <use xlink:href="#DejaVuSans-32" transform="translate(332.37793 -16.28125)scale(0.7)"/>
      <use xlink:href="#DejaVuSans-28" transform="translate(379.648438 0.125)"/>
      <use xlink:href="#DejaVuSans-Oblique-73" transform="translate(418.662109 0.125)"/>
      <use xlink:href="#DejaVuSans-29" transform="translate(470.761719 0.125)"/>
     </g>
    </g>
   </g>
  </g>
 </g>
 <defs>
  <clipPath id="p291e36b446">
   <rect x="41.385" y="10.8" width="223.53" height="239.55"/>
  </clipPath>
 </defs>
</svg>
