<?xml version="1.0" encoding="utf-8" standalone="no"?>
<!DOCTYPE svg PUBLIC "-//W3C//DTD SVG 1.1//EN"
  "http://www.w3.org/Graphics/SVG/1.1/DTD/svg11.dtd">
<svg xmlns:xlink="http://www.w3.org/1999/xlink" width="648pt" height="259.2pt" viewBox="0 0 648 259.2" xmlns="http://www.w3.org/2000/svg" version="1.1">
 <metadata>
  <rdf:RDF xmlns:dc="http://purl.org/dc/elements/1.1/" xmlns:cc="http://creativecommons.org/ns#" xmlns:rdf="http://www.w3.org/1999/02/22-rdf-syntax-ns#">
   <cc:Work>
    <dc:type rdf:resource="http://purl.org/dc/dcmitype/StillImage"/>
    <dc:date>2022-08-18T11:50:57.960378</dc:date>
    <dc:format>image/svg+xml</dc:format>
    <dc:creator>
     <cc:Agent>
      <dc:title>Matplotlib v3.5.3, https://matplotlib.org/</dc:title>
     </cc:Agent>
    </dc:creator>
   </cc:Work>
  </rdf:RDF>
 </metadata>
 <defs>
  <style type="text/css">*{stroke-linejoin: round; stroke-linecap: butt}</style>
 </defs>
 <g id="figure_1">
  <g id="patch_1">
   <path d="M 0 259.2 
L 648 259.2 
L 648 0 
L 0 0 
z
" style="fill: #ffffff"/>
  </g>
  <g id="axes_1">
   <g id="patch_2">
    <path d="M 47.055 221.55 
L 637.2 221.55 
L 637.2 14.76 
L 47.055 14.76 
z
" style="fill: #ffffff"/>
   </g>
   <g id="matplotlib.axis_1">
    <g id="xtick_1">
     <g id="line2d_1">
      <path d="M 73.879773 221.55 
L 73.879773 14.76 
" clip-path="url(#p7d5bd38447)" style="fill: none; stroke: #b0b0b0; stroke-width: 0.8; stroke-linecap: square"/>
     </g>
     <g id="line2d_2"/>
     <g id="text_1">
      <!-- 0.000 -->
      <g transform="translate(61.468835 232.692187)scale(0.1 -0.1)">
       <defs>
        <path id="YuGothic-Regular-30" d="M 1788 4806 
Q 3150 4806 3150 2456 
Q 3150 56 1772 56 
Q 409 56 409 2444 
Q 409 4806 1788 4806 
z
M 1788 4453 
Q 1269 4453 1047 3938 
Q 838 3456 838 2456 
Q 838 1303 1100 819 
Q 1322 409 1772 409 
Q 2291 409 2516 950 
Q 2722 1444 2722 2450 
Q 2722 3591 2456 4059 
Q 2234 4453 1788 4453 
z
" transform="scale(0.015625)"/>
        <path id="YuGothic-Regular-2e" d="M 1147 794 
L 1147 141 
L 506 141 
L 506 794 
L 1147 794 
z
" transform="scale(0.015625)"/>
       </defs>
       <use xlink:href="#YuGothic-Regular-30"/>
       <use xlink:href="#YuGothic-Regular-2e" x="55.615234"/>
       <use xlink:href="#YuGothic-Regular-30" x="81.396484"/>
       <use xlink:href="#YuGothic-Regular-30" x="137.011719"/>
       <use xlink:href="#YuGothic-Regular-30" x="192.626953"/>
      </g>
     </g>
    </g>
    <g id="xtick_2">
     <g id="line2d_3">
      <path d="M 163.298662 221.55 
L 163.298662 14.76 
" clip-path="url(#p7d5bd38447)" style="fill: none; stroke: #b0b0b0; stroke-width: 0.8; stroke-linecap: square"/>
     </g>
     <g id="line2d_4"/>
     <g id="text_2">
      <!-- 0.005 -->
      <g transform="translate(150.887725 232.692187)scale(0.1 -0.1)">
       <defs>
        <path id="YuGothic-Regular-35" d="M 2906 4728 
L 2906 4375 
L 1016 4375 
L 959 3159 
Q 953 3022 922 2622 
Q 1066 2856 1325 2988 
Q 1556 3103 1819 3103 
Q 2397 3103 2753 2653 
Q 3072 2247 3072 1625 
Q 3072 850 2622 416 
Q 2253 56 1716 56 
Q 772 56 434 909 
L 825 1075 
Q 1059 403 1716 403 
Q 2172 403 2425 766 
Q 2650 1088 2650 1606 
Q 2650 2188 2381 2494 
Q 2147 2756 1759 2756 
Q 1447 2756 1209 2566 
Q 1003 2397 903 2116 
L 569 2169 
L 678 4728 
L 2906 4728 
z
" transform="scale(0.015625)"/>
       </defs>
       <use xlink:href="#YuGothic-Regular-30"/>
       <use xlink:href="#YuGothic-Regular-2e" x="55.615234"/>
       <use xlink:href="#YuGothic-Regular-30" x="81.396484"/>
       <use xlink:href="#YuGothic-Regular-30" x="137.011719"/>
       <use xlink:href="#YuGothic-Regular-35" x="192.626953"/>
      </g>
     </g>
    </g>
    <g id="xtick_3">
     <g id="line2d_5">
      <path d="M 252.717552 221.55 
L 252.717552 14.76 
" clip-path="url(#p7d5bd38447)" style="fill: none; stroke: #b0b0b0; stroke-width: 0.8; stroke-linecap: square"/>
     </g>
     <g id="line2d_6"/>
     <g id="text_3">
      <!-- 0.010 -->
      <g transform="translate(240.306615 232.692187)scale(0.1 -0.1)">
       <defs>
        <path id="YuGothic-Regular-31" d="M 2063 4794 
L 2063 481 
L 2925 481 
L 2925 141 
L 744 141 
L 744 481 
L 1666 481 
L 1666 4359 
Q 1259 4081 725 3878 
L 653 4250 
Q 1184 4428 1734 4794 
L 2063 4794 
z
" transform="scale(0.015625)"/>
       </defs>
       <use xlink:href="#YuGothic-Regular-30"/>
       <use xlink:href="#YuGothic-Regular-2e" x="55.615234"/>
       <use xlink:href="#YuGothic-Regular-30" x="81.396484"/>
       <use xlink:href="#YuGothic-Regular-31" x="137.011719"/>
       <use xlink:href="#YuGothic-Regular-30" x="192.626953"/>
      </g>
     </g>
    </g>
    <g id="xtick_4">
     <g id="line2d_7">
      <path d="M 342.136442 221.55 
L 342.136442 14.76 
" clip-path="url(#p7d5bd38447)" style="fill: none; stroke: #b0b0b0; stroke-width: 0.8; stroke-linecap: square"/>
     </g>
     <g id="line2d_8"/>
     <g id="text_4">
      <!-- 0.015 -->
      <g transform="translate(329.725504 232.692187)scale(0.1 -0.1)">
       <use xlink:href="#YuGothic-Regular-30"/>
       <use xlink:href="#YuGothic-Regular-2e" x="55.615234"/>
       <use xlink:href="#YuGothic-Regular-30" x="81.396484"/>
       <use xlink:href="#YuGothic-Regular-31" x="137.011719"/>
       <use xlink:href="#YuGothic-Regular-35" x="192.626953"/>
      </g>
     </g>
    </g>
    <g id="xtick_5">
     <g id="line2d_9">
      <path d="M 431.555332 221.55 
L 431.555332 14.76 
" clip-path="url(#p7d5bd38447)" style="fill: none; stroke: #b0b0b0; stroke-width: 0.8; stroke-linecap: square"/>
     </g>
     <g id="line2d_10"/>
     <g id="text_5">
      <!-- 0.020 -->
      <g transform="translate(419.144394 232.692187)scale(0.1 -0.1)">
       <defs>
        <path id="YuGothic-Regular-32" d="M 459 3597 
Q 588 4228 988 4541 
Q 1325 4806 1819 4806 
Q 2406 4806 2750 4453 
Q 3059 4138 3059 3628 
Q 3059 3219 2838 2875 
Q 2628 2556 2094 2075 
Q 1191 1284 825 494 
L 3066 494 
L 3066 141 
L 422 141 
L 422 456 
Q 819 1406 1806 2309 
Q 2331 2800 2497 3088 
Q 2638 3331 2638 3628 
Q 2638 4038 2378 4263 
Q 2156 4453 1813 4453 
Q 1025 4453 863 3494 
L 459 3597 
z
" transform="scale(0.015625)"/>
       </defs>
       <use xlink:href="#YuGothic-Regular-30"/>
       <use xlink:href="#YuGothic-Regular-2e" x="55.615234"/>
       <use xlink:href="#YuGothic-Regular-30" x="81.396484"/>
       <use xlink:href="#YuGothic-Regular-32" x="137.011719"/>
       <use xlink:href="#YuGothic-Regular-30" x="192.626953"/>
      </g>
     </g>
    </g>
    <g id="xtick_6">
     <g id="line2d_11">
      <path d="M 520.974221 221.55 
L 520.974221 14.76 
" clip-path="url(#p7d5bd38447)" style="fill: none; stroke: #b0b0b0; stroke-width: 0.8; stroke-linecap: square"/>
     </g>
     <g id="line2d_12"/>
     <g id="text_6">
      <!-- 0.025 -->
      <g transform="translate(508.563284 232.692187)scale(0.1 -0.1)">
       <use xlink:href="#YuGothic-Regular-30"/>
       <use xlink:href="#YuGothic-Regular-2e" x="55.615234"/>
       <use xlink:href="#YuGothic-Regular-30" x="81.396484"/>
       <use xlink:href="#YuGothic-Regular-32" x="137.011719"/>
       <use xlink:href="#YuGothic-Regular-35" x="192.626953"/>
      </g>
     </g>
    </g>
    <g id="xtick_7">
     <g id="line2d_13">
      <path d="M 610.393111 221.55 
L 610.393111 14.76 
" clip-path="url(#p7d5bd38447)" style="fill: none; stroke: #b0b0b0; stroke-width: 0.8; stroke-linecap: square"/>
     </g>
     <g id="line2d_14"/>
     <g id="text_7">
      <!-- 0.030 -->
      <g transform="translate(597.982174 232.692187)scale(0.1 -0.1)">
       <defs>
        <path id="YuGothic-Regular-33" d="M 463 3922 
Q 641 4378 1013 4606 
Q 1331 4806 1756 4806 
Q 2331 4806 2688 4456 
Q 3003 4150 3003 3694 
Q 3003 3241 2738 2950 
Q 2509 2703 2125 2613 
L 2125 2572 
Q 2625 2459 2884 2116 
Q 3113 1813 3113 1388 
Q 3113 750 2688 378 
Q 2322 56 1769 56 
Q 759 56 372 928 
L 756 1094 
Q 922 700 1191 541 
Q 1419 403 1769 403 
Q 2216 403 2469 703 
Q 2691 966 2691 1375 
Q 2691 1888 2369 2147 
Q 2078 2381 1563 2381 
L 1203 2381 
L 1203 2747 
L 1525 2747 
Q 2072 2747 2350 3025 
Q 2588 3263 2588 3659 
Q 2588 4059 2319 4278 
Q 2094 4459 1747 4459 
Q 1409 4459 1169 4266 
Q 947 4088 847 3769 
L 463 3922 
z
" transform="scale(0.015625)"/>
       </defs>
       <use xlink:href="#YuGothic-Regular-30"/>
       <use xlink:href="#YuGothic-Regular-2e" x="55.615234"/>
       <use xlink:href="#YuGothic-Regular-30" x="81.396484"/>
       <use xlink:href="#YuGothic-Regular-33" x="137.011719"/>
       <use xlink:href="#YuGothic-Regular-30" x="192.626953"/>
      </g>
     </g>
    </g>
    <g id="text_8">
     <!-- 時間[s] -->
     <g transform="translate(325.72125 246.140625)scale(0.1 -0.1)">
      <defs>
       <path id="YuGothic-Regular-6642" d="M 4850 1863 
L 3341 1863 
L 2463 1850 
Q 2419 1850 2419 1894 
L 2419 2094 
Q 2419 2131 2463 2131 
L 3341 2125 
L 4850 2125 
L 4850 2169 
Q 4850 2647 4806 2853 
Q 5006 2844 5131 2816 
Q 5209 2806 5209 2772 
Q 5209 2741 5169 2663 
Q 5138 2581 5138 2181 
L 5138 2125 
L 5944 2131 
Q 5988 2131 5988 2094 
L 5988 1894 
Q 5988 1850 5944 1850 
L 5138 1863 
L 5138 909 
L 5144 84 
Q 5144 -197 4978 -313 
Q 4838 -409 4375 -409 
Q 4344 -409 4269 -409 
Q 4188 -409 4172 -394 
Q 4156 -378 4134 -306 
Q 4094 -172 4025 -84 
Q 4231 -109 4472 -109 
Q 4538 -109 4619 -106 
Q 4850 -106 4850 141 
L 4850 1863 
z
M 972 738 
L 972 194 
Q 972 156 928 156 
L 722 156 
Q 678 156 678 194 
L 691 2163 
L 691 3384 
L 678 4872 
Q 678 4916 722 4916 
L 1222 4903 
L 1631 4903 
L 2131 4916 
Q 2175 4916 2175 4872 
L 2163 3578 
L 2163 2284 
L 2175 406 
Q 2175 359 2131 359 
L 1931 359 
Q 1888 359 1888 406 
L 1888 738 
L 972 738 
z
M 972 2994 
L 1888 2994 
L 1888 4641 
L 972 4641 
L 972 2994 
z
M 972 2738 
L 972 994 
L 1888 994 
L 1888 2738 
L 972 2738 
z
M 3950 3238 
L 3950 4159 
L 3522 4159 
L 2697 4147 
Q 2644 4147 2644 4191 
L 2644 4384 
Q 2644 4428 2697 4428 
L 3522 4416 
L 3950 4416 
L 3950 4447 
Q 3950 5019 3906 5272 
Q 4025 5269 4238 5241 
Q 4300 5231 4300 5191 
Q 4300 5172 4275 5081 
Q 4238 4975 4238 4459 
L 4238 4416 
L 4866 4416 
L 5691 4428 
Q 5734 4428 5734 4384 
L 5734 4191 
Q 5734 4147 5691 4147 
L 4866 4159 
L 4238 4159 
L 4238 3238 
L 5134 3238 
L 6022 3250 
Q 6069 3250 6069 3206 
L 6069 3013 
Q 6069 2969 6022 2969 
L 5134 2981 
L 3309 2981 
L 2428 2969 
Q 2381 2969 2381 3013 
L 2381 3206 
Q 2381 3250 2428 3250 
L 3309 3238 
L 3950 3238 
z
M 3225 1434 
Q 3609 1097 3878 647 
Q 3888 631 3888 616 
Q 3888 594 3847 563 
L 3738 488 
Q 3678 447 3666 447 
Q 3650 447 3634 475 
Q 3378 925 3009 1275 
Q 2988 1291 2988 1303 
Q 2988 1322 3047 1363 
L 3134 1428 
Q 3175 1453 3191 1453 
Q 3203 1453 3225 1434 
z
" transform="scale(0.015625)"/>
       <path id="YuGothic-Regular-9593" d="M 2388 525 
L 2388 159 
Q 2388 116 2344 116 
L 2150 116 
Q 2106 116 2106 159 
L 2119 1281 
L 2119 1813 
L 2106 2534 
Q 2106 2578 2150 2578 
L 2809 2566 
L 3513 2566 
L 4172 2578 
Q 4209 2578 4209 2534 
L 4197 1900 
L 4197 1325 
L 4209 231 
Q 4209 184 4172 184 
L 3972 184 
Q 3928 184 3928 231 
L 3928 525 
L 2388 525 
z
M 2388 1684 
L 3928 1684 
L 3928 2322 
L 2388 2322 
L 2388 1684 
z
M 2388 1441 
L 2388 763 
L 3928 763 
L 3928 1441 
L 2388 1441 
z
M 5416 3141 
L 4213 3141 
L 3525 3128 
Q 3481 3128 3481 3172 
L 3488 3725 
L 3488 4444 
L 3481 4994 
Q 3481 5038 3525 5038 
L 4213 5025 
L 4988 5025 
L 5672 5038 
Q 5716 5038 5716 4994 
L 5703 4078 
L 5703 1100 
L 5722 263 
Q 5722 50 5681 -50 
Q 5647 -128 5563 -194 
Q 5422 -303 4938 -303 
Q 4897 -303 4800 -303 
Q 4725 -303 4709 -288 
Q 4697 -275 4678 -206 
Q 4644 -84 4575 13 
Q 4791 -16 5050 -16 
Q 5294 -16 5359 56 
Q 5416 119 5416 319 
L 5416 3141 
z
M 5416 3378 
L 5416 3981 
L 3769 3981 
L 3769 3378 
L 5416 3378 
z
M 5416 4219 
L 5416 4781 
L 3769 4781 
L 3769 4219 
L 5416 4219 
z
M 1428 5025 
L 2138 5025 
L 2778 5038 
Q 2822 5038 2822 4994 
L 2809 4416 
L 2809 3756 
L 2822 3172 
Q 2822 3128 2778 3128 
L 2138 3141 
L 972 3141 
L 972 953 
L 984 -347 
Q 984 -391 941 -391 
L 716 -391 
Q 672 -391 672 -347 
L 684 953 
L 684 3678 
L 672 4994 
Q 672 5038 716 5038 
L 1428 5025 
z
M 972 3981 
L 972 3378 
L 2528 3378 
L 2528 3981 
L 972 3981 
z
M 972 4219 
L 2528 4219 
L 2528 4781 
L 972 4781 
L 972 4219 
z
" transform="scale(0.015625)"/>
       <path id="YuGothic-Regular-5b" d="M 2200 5459 
L 2200 5222 
L 1209 5222 
L 1209 -356 
L 2200 -356 
L 2200 -588 
L 856 -588 
L 856 5459 
L 2200 5459 
z
" transform="scale(0.015625)"/>
       <path id="YuGothic-Regular-73" d="M 2759 2663 
L 2375 2528 
Q 2194 3106 1594 3106 
Q 1231 3106 1034 2947 
Q 866 2809 866 2594 
Q 866 2325 1034 2197 
Q 1184 2081 1569 1997 
L 1825 1941 
Q 2419 1803 2641 1578 
Q 2844 1375 2844 1003 
Q 2844 563 2503 306 
Q 2181 63 1628 63 
Q 663 63 366 838 
L 750 984 
Q 963 375 1634 375 
Q 2078 375 2291 578 
Q 2453 734 2453 966 
Q 2453 1263 2284 1394 
Q 2125 1516 1691 1613 
L 1434 1672 
Q 869 1800 659 2034 
Q 488 2225 488 2559 
Q 488 2963 803 3197 
Q 1097 3419 1600 3419 
Q 2466 3419 2759 2663 
z
" transform="scale(0.015625)"/>
       <path id="YuGothic-Regular-5d" d="M 1613 5453 
L 1613 -588 
L 269 -588 
L 269 -356 
L 1259 -356 
L 1259 5222 
L 269 5222 
L 269 5453 
L 1613 5453 
z
" transform="scale(0.015625)"/>
      </defs>
      <use xlink:href="#YuGothic-Regular-6642"/>
      <use xlink:href="#YuGothic-Regular-9593" x="100"/>
      <use xlink:href="#YuGothic-Regular-5b" x="200"/>
      <use xlink:href="#YuGothic-Regular-73" x="238.623047"/>
      <use xlink:href="#YuGothic-Regular-5d" x="289.501953"/>
     </g>
    </g>
   </g>
   <g id="matplotlib.axis_2">
    <g id="ytick_1">
     <g id="line2d_15">
      <path d="M 47.055 221.55 
L 637.2 221.55 
" clip-path="url(#p7d5bd38447)" style="fill: none; stroke: #b0b0b0; stroke-width: 0.8; stroke-linecap: square"/>
     </g>
     <g id="line2d_16"/>
     <g id="text_9">
      <!-- 0.00 -->
      <g transform="translate(24.294062 225.371094)scale(0.1 -0.1)">
       <use xlink:href="#YuGothic-Regular-30"/>
       <use xlink:href="#YuGothic-Regular-2e" x="55.615234"/>
       <use xlink:href="#YuGothic-Regular-30" x="81.396484"/>
       <use xlink:href="#YuGothic-Regular-30" x="137.011719"/>
      </g>
     </g>
    </g>
    <g id="ytick_2">
     <g id="line2d_17">
      <path d="M 47.055 195.70125 
L 637.2 195.70125 
" clip-path="url(#p7d5bd38447)" style="fill: none; stroke: #b0b0b0; stroke-width: 0.8; stroke-linecap: square"/>
     </g>
     <g id="line2d_18"/>
     <g id="text_10">
      <!-- 0.25 -->
      <g transform="translate(24.294062 199.522344)scale(0.1 -0.1)">
       <use xlink:href="#YuGothic-Regular-30"/>
       <use xlink:href="#YuGothic-Regular-2e" x="55.615234"/>
       <use xlink:href="#YuGothic-Regular-32" x="81.396484"/>
       <use xlink:href="#YuGothic-Regular-35" x="137.011719"/>
      </g>
     </g>
    </g>
    <g id="ytick_3">
     <g id="line2d_19">
      <path d="M 47.055 169.8525 
L 637.2 169.8525 
" clip-path="url(#p7d5bd38447)" style="fill: none; stroke: #b0b0b0; stroke-width: 0.8; stroke-linecap: square"/>
     </g>
     <g id="line2d_20"/>
     <g id="text_11">
      <!-- 0.50 -->
      <g transform="translate(24.294062 173.673594)scale(0.1 -0.1)">
       <use xlink:href="#YuGothic-Regular-30"/>
       <use xlink:href="#YuGothic-Regular-2e" x="55.615234"/>
       <use xlink:href="#YuGothic-Regular-35" x="81.396484"/>
       <use xlink:href="#YuGothic-Regular-30" x="137.011719"/>
      </g>
     </g>
    </g>
    <g id="ytick_4">
     <g id="line2d_21">
      <path d="M 47.055 144.00375 
L 637.2 144.00375 
" clip-path="url(#p7d5bd38447)" style="fill: none; stroke: #b0b0b0; stroke-width: 0.8; stroke-linecap: square"/>
     </g>
     <g id="line2d_22"/>
     <g id="text_12">
      <!-- 0.75 -->
      <g transform="translate(24.294062 147.824844)scale(0.1 -0.1)">
       <defs>
        <path id="YuGothic-Regular-37" d="M 3091 4728 
L 3091 4406 
Q 2434 3356 2106 2284 
Q 1809 1325 1709 141 
L 1253 141 
Q 1381 1450 1778 2538 
Q 2100 3428 2675 4363 
L 434 4363 
L 434 4728 
L 3091 4728 
z
" transform="scale(0.015625)"/>
       </defs>
       <use xlink:href="#YuGothic-Regular-30"/>
       <use xlink:href="#YuGothic-Regular-2e" x="55.615234"/>
       <use xlink:href="#YuGothic-Regular-37" x="81.396484"/>
       <use xlink:href="#YuGothic-Regular-35" x="137.011719"/>
      </g>
     </g>
    </g>
    <g id="ytick_5">
     <g id="line2d_23">
      <path d="M 47.055 118.155 
L 637.2 118.155 
" clip-path="url(#p7d5bd38447)" style="fill: none; stroke: #b0b0b0; stroke-width: 0.8; stroke-linecap: square"/>
     </g>
     <g id="line2d_24"/>
     <g id="text_13">
      <!-- 1.00 -->
      <g transform="translate(24.294062 121.976094)scale(0.1 -0.1)">
       <use xlink:href="#YuGothic-Regular-31"/>
       <use xlink:href="#YuGothic-Regular-2e" x="55.615234"/>
       <use xlink:href="#YuGothic-Regular-30" x="81.396484"/>
       <use xlink:href="#YuGothic-Regular-30" x="137.011719"/>
      </g>
     </g>
    </g>
    <g id="ytick_6">
     <g id="line2d_25">
      <path d="M 47.055 92.30625 
L 637.2 92.30625 
" clip-path="url(#p7d5bd38447)" style="fill: none; stroke: #b0b0b0; stroke-width: 0.8; stroke-linecap: square"/>
     </g>
     <g id="line2d_26"/>
     <g id="text_14">
      <!-- 1.25 -->
      <g transform="translate(24.294062 96.127344)scale(0.1 -0.1)">
       <use xlink:href="#YuGothic-Regular-31"/>
       <use xlink:href="#YuGothic-Regular-2e" x="55.615234"/>
       <use xlink:href="#YuGothic-Regular-32" x="81.396484"/>
       <use xlink:href="#YuGothic-Regular-35" x="137.011719"/>
      </g>
     </g>
    </g>
    <g id="ytick_7">
     <g id="line2d_27">
      <path d="M 47.055 66.4575 
L 637.2 66.4575 
" clip-path="url(#p7d5bd38447)" style="fill: none; stroke: #b0b0b0; stroke-width: 0.8; stroke-linecap: square"/>
     </g>
     <g id="line2d_28"/>
     <g id="text_15">
      <!-- 1.50 -->
      <g transform="translate(24.294062 70.278594)scale(0.1 -0.1)">
       <use xlink:href="#YuGothic-Regular-31"/>
       <use xlink:href="#YuGothic-Regular-2e" x="55.615234"/>
       <use xlink:href="#YuGothic-Regular-35" x="81.396484"/>
       <use xlink:href="#YuGothic-Regular-30" x="137.011719"/>
      </g>
     </g>
    </g>
    <g id="ytick_8">
     <g id="line2d_29">
      <path d="M 47.055 40.60875 
L 637.2 40.60875 
" clip-path="url(#p7d5bd38447)" style="fill: none; stroke: #b0b0b0; stroke-width: 0.8; stroke-linecap: square"/>
     </g>
     <g id="line2d_30"/>
     <g id="text_16">
      <!-- 1.75 -->
      <g transform="translate(24.294062 44.429844)scale(0.1 -0.1)">
       <use xlink:href="#YuGothic-Regular-31"/>
       <use xlink:href="#YuGothic-Regular-2e" x="55.615234"/>
       <use xlink:href="#YuGothic-Regular-37" x="81.396484"/>
       <use xlink:href="#YuGothic-Regular-35" x="137.011719"/>
      </g>
     </g>
    </g>
    <g id="ytick_9">
     <g id="line2d_31">
      <path d="M 47.055 14.76 
L 637.2 14.76 
" clip-path="url(#p7d5bd38447)" style="fill: none; stroke: #b0b0b0; stroke-width: 0.8; stroke-linecap: square"/>
     </g>
     <g id="line2d_32"/>
     <g id="text_17">
      <!-- 2.00 -->
      <g transform="translate(24.294062 18.581094)scale(0.1 -0.1)">
       <use xlink:href="#YuGothic-Regular-32"/>
       <use xlink:href="#YuGothic-Regular-2e" x="55.615234"/>
       <use xlink:href="#YuGothic-Regular-30" x="81.396484"/>
       <use xlink:href="#YuGothic-Regular-30" x="137.011719"/>
      </g>
     </g>
    </g>
    <g id="text_18">
     <!-- 出力 -->
     <g transform="translate(18.701875 128.155)rotate(-90)scale(0.1 -0.1)">
      <defs>
       <path id="YuGothic-Regular-51fa" d="M 2988 325 
L 2988 2572 
L 1375 2572 
L 1375 2231 
Q 1375 2188 1331 2188 
L 1113 2188 
Q 1069 2188 1069 2231 
L 1081 2791 
L 1081 3634 
Q 1081 4175 1034 4428 
Q 1238 4419 1375 4391 
Q 1438 4378 1438 4338 
Q 1438 4313 1413 4234 
Q 1375 4131 1375 3641 
L 1375 2847 
L 2988 2847 
L 2988 4453 
Q 2988 5025 2944 5272 
Q 3103 5266 3288 5241 
Q 3359 5228 3359 5191 
Q 3359 5175 3334 5075 
Q 3288 4909 3288 4466 
L 3288 2847 
L 5022 2847 
L 5022 3678 
Q 5022 4219 4978 4472 
Q 5169 4463 5316 4434 
Q 5388 4422 5388 4381 
Q 5388 4359 5363 4281 
Q 5316 4103 5316 3678 
L 5316 2828 
L 5328 2247 
Q 5328 2200 5284 2200 
L 5069 2200 
Q 5022 2200 5022 2247 
L 5022 2572 
L 3288 2572 
L 3288 325 
L 5197 325 
L 5197 966 
Q 5197 1500 5150 1753 
Q 5356 1744 5491 1713 
Q 5563 1703 5563 1669 
Q 5563 1650 5538 1559 
Q 5491 1397 5491 966 
L 5491 216 
L 5503 -322 
Q 5503 -366 5466 -366 
L 5241 -366 
Q 5197 -366 5197 -322 
L 5197 50 
L 1194 50 
L 1194 -341 
Q 1194 -384 1150 -384 
L 931 -384 
Q 888 -384 888 -341 
L 900 178 
L 900 922 
Q 900 1459 856 1706 
Q 1063 1697 1194 1669 
Q 1266 1656 1266 1619 
Q 1266 1603 1241 1516 
Q 1194 1391 1194 934 
L 1194 325 
L 2988 325 
z
" transform="scale(0.015625)"/>
       <path id="YuGothic-Regular-529b" d="M 2816 3516 
L 1688 3516 
L 788 3503 
Q 741 3503 741 3547 
L 741 3772 
Q 741 3816 788 3816 
L 1688 3803 
L 2834 3803 
Q 2841 4047 2841 4553 
Q 2841 5000 2797 5288 
Q 3019 5275 3159 5250 
Q 3244 5241 3244 5191 
Q 3244 5169 3200 5066 
Q 3159 4959 3159 4553 
Q 3159 4059 3147 3803 
L 4484 3803 
L 5394 3816 
Q 5444 3816 5444 3766 
Q 5431 3578 5431 3216 
Q 5406 1384 5206 456 
Q 5109 9 4931 -141 
Q 4772 -275 4447 -275 
Q 3978 -275 3647 -225 
Q 3566 -213 3553 -197 
Q 3538 -181 3525 -103 
Q 3494 50 3441 128 
Q 3956 31 4447 31 
Q 4647 31 4750 144 
Q 4856 259 4906 538 
Q 5125 1647 5125 3516 
L 3134 3516 
Q 3078 2494 2797 1794 
Q 2509 1075 1975 556 
Q 1525 116 813 -266 
Q 753 -303 731 -303 
Q 703 -303 653 -241 
Q 553 -125 447 -78 
Q 2025 628 2516 1916 
Q 2759 2563 2816 3516 
z
" transform="scale(0.015625)"/>
      </defs>
      <use xlink:href="#YuGothic-Regular-51fa"/>
      <use xlink:href="#YuGothic-Regular-529b" x="100"/>
     </g>
    </g>
   </g>
   <g id="line2d_33">
    <path d="M 73.879773 221.55 
L 74.72031 221.439316 
L 75.614499 221.093918 
L 76.598107 220.469987 
L 77.706901 219.494605 
L 78.976649 218.06955 
L 80.461003 216.051072 
L 82.213613 213.270716 
L 84.341783 209.454108 
L 87.095885 204.027775 
L 91.513178 194.761289 
L 98.326897 180.530959 
L 102.189793 172.999841 
L 105.623479 166.783382 
L 108.842559 161.40751 
L 111.936452 156.666251 
L 114.958811 152.435256 
L 117.945402 148.632253 
L 120.914109 145.207766 
L 123.9007 142.1002 
L 126.905174 139.292791 
L 129.9633 136.738717 
L 133.075078 134.427792 
L 136.276274 132.325843 
L 139.602657 130.408183 
L 143.07211 128.66624 
L 146.702517 127.092821 
L 150.547529 125.669298 
L 154.660798 124.38509 
L 159.095975 123.235257 
L 163.942478 122.211409 
L 169.307612 121.309419 
L 175.334445 120.526745 
L 182.237583 119.860503 
L 190.338935 119.308797 
L 200.21078 118.868171 
L 212.872495 118.537174 
L 230.595319 118.312892 
L 260.067785 118.190513 
L 340.723623 118.155545 
L 610.375227 118.155 
L 610.375227 118.155 
" clip-path="url(#p7d5bd38447)" style="fill: none; stroke: #1f77b4; stroke-width: 1.5; stroke-linecap: square"/>
   </g>
   <g id="line2d_34">
    <path d="M 73.879773 221.55 
L 74.72031 221.438285 
L 75.596615 221.094549 
L 76.562339 220.466134 
L 77.617482 219.504153 
L 78.815695 218.095106 
L 80.156979 216.161317 
L 81.694984 213.540093 
L 83.483361 210.035126 
L 85.611531 205.352042 
L 88.25833 198.960471 
L 92.031807 189.209775 
L 100.84851 166.263683 
L 104.35373 157.865898 
L 107.42974 151.057375 
L 110.273261 145.290935 
L 112.955828 140.342935 
L 115.531092 136.051749 
L 118.016937 132.334554 
L 120.431247 129.115752 
L 122.809789 126.309054 
L 125.152564 123.882327 
L 127.495339 121.772561 
L 129.838114 119.959679 
L 132.198773 118.411583 
L 134.613083 117.094091 
L 137.081044 115.999824 
L 139.656308 115.102277 
L 142.356758 114.398097 
L 145.236047 113.879234 
L 148.365708 113.545186 
L 151.835161 113.403977 
L 155.787476 113.471511 
L 160.562444 113.784969 
L 167.018488 114.449009 
L 190.303167 117.02499 
L 198.780078 117.632091 
L 207.721967 118.045399 
L 218.023023 118.291042 
L 231.435856 118.373654 
L 257.832313 118.258647 
L 300.055912 118.146894 
L 532.70598 118.155001 
L 610.375227 118.155 
L 610.375227 118.155 
" clip-path="url(#p7d5bd38447)" style="fill: none; stroke: #ff7f0e; stroke-width: 1.5; stroke-linecap: square"/>
   </g>
   <g id="line2d_35">
    <path d="M 73.879773 221.55 
L 74.72031 221.436533 
L 75.578732 221.08963 
L 76.490804 220.47107 
L 77.474412 219.523038 
L 78.547439 218.166871 
L 79.727768 216.301975 
L 81.033284 213.805412 
L 82.48187 210.532827 
L 84.09141 206.321634 
L 85.879788 200.997516 
L 87.900655 194.260254 
L 90.24343 185.642504 
L 93.069066 174.352296 
L 96.896195 158.062185 
L 105.766549 120.014827 
L 108.878326 107.824146 
L 111.507242 98.38807 
L 113.850016 90.778022 
L 115.978186 84.596023 
L 117.927518 79.591364 
L 119.733779 75.543849 
L 121.414855 72.30299 
L 122.988627 69.737369 
L 124.455097 67.757909 
L 125.832148 66.26066 
L 127.11978 65.175768 
L 128.35376 64.418967 
L 129.53409 63.950442 
L 130.678651 63.730281 
L 131.823213 63.735705 
L 132.985659 63.96622 
L 134.183872 64.434008 
L 135.45362 65.175618 
L 136.794904 66.222084 
L 138.24349 67.640179 
L 139.835146 69.521274 
L 141.569872 71.926309 
L 143.50132 74.996275 
L 145.683141 78.897306 
L 148.204754 83.87877 
L 151.298647 90.508349 
L 155.94843 101.066719 
L 162.458125 115.773147 
L 165.802391 122.764139 
L 168.592261 128.099709 
L 171.078106 132.387235 
L 173.331462 135.843935 
L 175.423864 138.657274 
L 177.373196 140.9164 
L 179.215225 142.719804 
L 180.967835 144.131321 
L 182.64891 145.204546 
L 184.276334 145.982467 
L 185.86799 146.497623 
L 187.441763 146.77255 
L 189.015535 146.820348 
L 190.607191 146.645329 
L 192.252499 146.238082 
L 193.969342 145.580374 
L 195.793487 144.637591 
L 197.742819 143.374147 
L 199.870988 141.722851 
L 202.231647 139.601728 
L 204.932098 136.866483 
L 208.204829 133.220261 
L 213.015565 127.487299 
L 220.204844 118.948817 
L 223.781599 115.062745 
L 226.786074 112.116417 
L 229.486525 109.770484 
L 231.990254 107.883096 
L 234.350912 106.37647 
L 236.604268 105.196709 
L 238.786089 104.30055 
L 240.932143 103.656822 
L 243.060312 103.249323 
L 245.188482 103.066658 
L 247.352419 103.103271 
L 249.587891 103.364759 
L 251.930666 103.866411 
L 254.416511 104.631047 
L 257.099078 105.693606 
L 260.085669 107.121582 
L 263.590889 109.054422 
L 268.204904 111.872539 
L 279.632638 118.953496 
L 283.513418 121.031874 
L 286.929219 122.6133 
L 290.094648 123.836235 
L 293.099123 124.761352 
L 296.032062 125.432952 
L 298.929234 125.868891 
L 301.84429 126.08252 
L 304.830881 126.076507 
L 307.924775 125.846086 
L 311.21539 125.375058 
L 314.810029 124.631384 
L 318.923298 123.546486 
L 324.163245 121.920061 
L 339.722132 116.944742 
L 344.336147 115.792694 
L 348.538834 114.970015 
L 352.562684 114.40793 
L 356.532883 114.077806 
L 360.556733 113.96718 
L 364.741537 114.076099 
L 369.248249 114.41893 
L 374.36301 115.037475 
L 380.854821 116.060661 
L 399.436066 119.119992 
L 405.337713 119.783235 
L 410.863801 120.181061 
L 416.336237 120.351513 
L 422.041162 120.304178 
L 428.336252 120.024035 
L 436.079927 119.444485 
L 461.743149 117.344677 
L 469.361638 117.059356 
L 476.980128 116.998805 
L 485.367619 117.160949 
L 496.40191 117.615288 
L 518.595679 118.568076 
L 529.075573 118.75435 
L 539.913142 118.719032 
L 554.094978 118.430346 
L 579.954921 117.885853 
L 594.38713 117.842417 
L 610.375227 117.99592 
L 610.375227 117.99592 
" clip-path="url(#p7d5bd38447)" style="fill: none; stroke: #2ca02c; stroke-width: 1.5; stroke-linecap: square"/>
   </g>
   <g id="line2d_36">
    <path d="M 73.879773 221.55 
L 74.702427 221.440627 
L 75.542964 221.10319 
L 76.437153 220.494638 
L 77.384993 219.570339 
L 78.422252 218.232577 
L 79.54893 216.398328 
L 80.782911 213.942445 
L 82.124194 210.7564 
L 83.590664 206.677913 
L 85.200204 201.517885 
L 86.970698 195.064251 
L 88.92003 187.090292 
L 91.101851 177.199732 
L 93.60558 164.777921 
L 96.610054 148.690193 
L 100.812742 124.849929 
L 108.216626 82.778437 
L 111.31052 66.582471 
L 113.8679 54.337601 
L 116.085489 44.765999 
L 118.070588 37.149826 
L 119.858966 31.139731 
L 121.48639 26.424719 
L 122.952859 22.825245 
L 124.294143 20.093459 
L 125.51024 18.092838 
L 126.619034 16.67164 
L 127.638409 15.709022 
L 128.568366 15.121038 
L 129.444671 14.821858 
L 130.285208 14.767958 
L 131.107862 14.936312 
L 131.966283 15.344794 
L 132.860472 16.022113 
L 133.826196 17.040282 
L 134.881339 18.489581 
L 136.025901 20.453681 
L 137.277766 23.059644 
L 138.654816 26.463617 
L 140.157054 30.795968 
L 141.802361 36.246531 
L 143.608623 43.026155 
L 145.611606 51.436335 
L 147.864962 61.891455 
L 150.475994 75.110077 
L 153.67719 92.535701 
L 158.702532 121.319532 
L 164.210735 152.500472 
L 167.340396 168.955606 
L 169.91566 181.352901 
L 172.151133 191.06225 
L 174.136232 198.734807 
L 175.92461 204.800202 
L 177.552033 209.568766 
L 179.036387 213.259366 
L 180.395554 216.064965 
L 181.629535 218.122963 
L 182.756213 219.58671 
L 183.775588 220.564397 
L 184.723428 221.175082 
L 185.599734 221.482316 
L 186.440271 221.543954 
L 187.262925 221.38317 
L 188.121346 220.982565 
L 189.015535 220.313408 
L 189.981259 219.303983 
L 191.036402 217.864122 
L 192.180964 215.910087 
L 193.432828 213.314878 
L 194.791995 209.96996 
L 196.294233 205.657131 
L 197.93954 200.226788 
L 199.745802 193.467765 
L 201.748785 185.07823 
L 204.002141 174.643259 
L 206.595289 161.537386 
L 209.778601 144.234076 
L 214.69664 116.085339 
L 220.365798 83.964893 
L 223.513343 67.407774 
L 226.088607 55.005608 
L 228.324079 45.291213 
L 230.309178 37.613604 
L 232.11544 31.486823 
L 233.742864 26.721562 
L 235.227217 23.034117 
L 236.586384 20.231507 
L 237.820365 18.176291 
L 238.947043 16.71513 
L 239.966418 15.73981 
L 240.914259 15.131343 
L 241.790564 14.826169 
L 242.631101 14.76651 
L 243.453755 14.92923 
L 244.312177 15.33185 
L 245.206365 16.003095 
L 246.172089 17.014756 
L 247.227232 18.457032 
L 248.371794 20.413641 
L 249.623659 23.011602 
L 251.000709 26.407043 
L 252.502947 30.730473 
L 254.148254 36.171796 
L 255.954516 42.942008 
L 257.957499 51.342756 
L 260.210855 61.788673 
L 262.804003 74.904741 
L 265.987315 92.216757 
L 270.923238 120.473512 
L 276.556628 152.384852 
L 279.704173 168.938917 
L 282.279437 181.337736 
L 284.514909 191.048663 
L 286.500009 198.7228 
L 288.288386 204.789745 
L 289.91581 209.559812 
L 291.400164 213.251847 
L 292.759331 216.058806 
L 293.993312 218.11807 
L 295.11999 219.582992 
L 296.139365 220.561756 
L 297.087205 221.17345 
L 297.96351 221.481621 
L 298.804048 221.544159 
L 299.626702 221.384256 
L 300.485123 220.984568 
L 301.379312 220.316361 
L 302.345036 219.307953 
L 303.400179 217.86919 
L 304.544741 215.916327 
L 305.796605 213.32237 
L 307.155772 209.978769 
L 308.65801 205.667337 
L 310.303317 200.23844 
L 312.109579 193.480891 
L 314.112562 185.092834 
L 316.365918 174.659306 
L 318.959066 161.554777 
L 322.124494 144.352651 
L 327.006766 116.414628 
L 332.729575 83.982976 
L 335.87712 67.424469 
L 338.452384 55.02078 
L 340.687856 45.304808 
L 342.672955 37.625619 
L 344.479217 31.497273 
L 346.106641 26.730509 
L 347.590994 23.041629 
L 348.950161 20.237659 
L 350.184142 18.181177 
L 351.31082 16.71884 
L 352.330195 15.742443 
L 353.278036 15.132967 
L 354.154341 14.826856 
L 354.994878 14.766297 
L 355.817532 14.928136 
L 356.675953 15.32984 
L 357.570142 16.000134 
L 358.535866 17.010778 
L 359.591009 18.451956 
L 360.735571 20.407394 
L 361.987435 23.004103 
L 363.346603 26.350599 
L 364.84884 30.665101 
L 366.494147 36.097177 
L 368.300409 42.857967 
L 370.303392 51.249272 
L 372.556748 61.685971 
L 375.149896 74.793454 
L 378.333208 92.09814 
L 383.251247 120.247614 
L 388.920405 152.366772 
L 392.06795 168.922227 
L 394.643214 181.322569 
L 396.878686 191.035074 
L 398.863786 198.71079 
L 400.652163 204.779286 
L 402.279587 209.550855 
L 403.763941 213.244324 
L 405.123108 216.052643 
L 406.357088 218.113172 
L 407.483766 219.579271 
L 408.503142 220.559111 
L 409.450982 221.171815 
L 410.327287 221.480922 
L 411.167825 221.544361 
L 411.990479 221.385339 
L 412.8489 220.986567 
L 413.743089 220.31931 
L 414.708813 219.31192 
L 415.763956 217.874255 
L 416.908517 215.922563 
L 418.160382 213.329858 
L 419.519549 209.987575 
L 421.021786 205.677539 
L 422.667094 200.250089 
L 424.473356 193.494015 
L 426.476339 185.107435 
L 428.729695 174.675351 
L 431.322842 161.572167 
L 434.488271 144.371185 
L 439.370543 116.433785 
L 445.093352 84.001059 
L 448.240896 67.441164 
L 450.81616 55.035955 
L 453.051633 45.318405 
L 455.036732 37.637638 
L 456.842994 31.507726 
L 458.470417 26.739459 
L 459.954771 23.049144 
L 461.313938 20.243814 
L 462.547919 18.186067 
L 463.674597 16.722554 
L 464.693972 15.74508 
L 465.641812 15.134595 
L 466.518117 14.827547 
L 467.358655 14.766087 
L 468.181309 14.927046 
L 469.03973 15.327833 
L 469.933919 15.997177 
L 470.899643 17.006804 
L 471.954786 18.446883 
L 473.099348 20.40115 
L 474.351212 22.996607 
L 475.710379 26.341787 
L 477.212617 30.654892 
L 478.857924 36.085522 
L 480.664186 42.844837 
L 482.667169 51.234665 
L 484.920525 61.669922 
L 487.513673 74.776061 
L 490.696985 92.079599 
L 495.615024 120.228458 
L 501.284182 152.348691 
L 504.431727 168.905535 
L 507.006991 181.307399 
L 509.242463 191.021482 
L 511.227562 198.698778 
L 513.033824 204.825248 
L 514.661248 209.590211 
L 516.145601 213.277371 
L 517.504768 216.079712 
L 518.738749 218.134677 
L 519.865427 219.595605 
L 520.884802 220.570711 
L 521.832643 221.178978 
L 522.708948 221.483967 
L 523.549485 221.543447 
L 524.372139 221.380553 
L 525.23056 220.977751 
L 526.124749 220.306318 
L 527.090473 219.294455 
L 528.145616 217.851962 
L 529.290178 215.89512 
L 530.542043 213.296912 
L 531.919093 209.901205 
L 533.421331 205.577499 
L 535.066638 200.135889 
L 536.8729 193.365386 
L 538.875883 184.964345 
L 541.129239 174.518143 
L 543.722387 161.401809 
L 546.905699 144.089566 
L 551.841622 115.832691 
L 557.475012 83.921564 
L 560.622557 67.367775 
L 563.197821 54.969258 
L 565.433293 45.258643 
L 567.418393 37.58482 
L 569.20677 31.518182 
L 570.834194 26.748413 
L 572.318548 23.056663 
L 573.677715 20.249973 
L 574.911696 18.19096 
L 576.038374 16.726271 
L 577.057749 15.74772 
L 578.005589 15.136226 
L 578.881894 14.828241 
L 579.722432 14.765881 
L 580.545086 14.925959 
L 581.403507 15.325829 
L 582.297696 15.994224 
L 583.26342 17.002833 
L 584.318563 18.441814 
L 585.463125 20.39491 
L 586.714989 22.989115 
L 588.074156 26.332977 
L 589.576394 30.644686 
L 591.221701 36.073869 
L 593.027963 42.831711 
L 595.030946 51.220061 
L 597.284302 61.653875 
L 599.87745 74.75867 
L 603.042878 91.961023 
L 607.92515 119.899169 
L 610.375227 134.001663 
L 610.375227 134.001663 
" clip-path="url(#p7d5bd38447)" style="fill: none; stroke: #d62728; stroke-width: 1.5; stroke-linecap: square"/>
   </g>
   <g id="patch_3">
    <path d="M 47.055 221.55 
L 47.055 14.76 
" style="fill: none; stroke: #000000; stroke-width: 0.8; stroke-linejoin: miter; stroke-linecap: square"/>
   </g>
   <g id="patch_4">
    <path d="M 637.2 221.55 
L 637.2 14.76 
" style="fill: none; stroke: #000000; stroke-width: 0.8; stroke-linejoin: miter; stroke-linecap: square"/>
   </g>
   <g id="patch_5">
    <path d="M 47.055 221.55 
L 637.2 221.55 
" style="fill: none; stroke: #000000; stroke-width: 0.8; stroke-linejoin: miter; stroke-linecap: square"/>
   </g>
   <g id="patch_6">
    <path d="M 47.055 14.76 
L 637.2 14.76 
" style="fill: none; stroke: #000000; stroke-width: 0.8; stroke-linejoin: miter; stroke-linecap: square"/>
   </g>
   <g id="legend_1">
    <g id="patch_7">
     <path d="M 564.5 216.55 
L 630.2 216.55 
Q 632.2 216.55 632.2 214.55 
L 632.2 156.58125 
Q 632.2 154.58125 630.2 154.58125 
L 564.5 154.58125 
Q 562.5 154.58125 562.5 156.58125 
L 562.5 214.55 
Q 562.5 216.55 564.5 216.55 
z
" style="fill: #ffffff; opacity: 0.8; stroke: #cccccc; stroke-linejoin: miter"/>
    </g>
    <g id="line2d_37">
     <path d="M 566.5 162.723437 
L 576.5 162.723437 
L 586.5 162.723437 
" style="fill: none; stroke: #1f77b4; stroke-width: 1.5; stroke-linecap: square"/>
    </g>
    <g id="text_19">
     <!-- $\zeta=1.0$ -->
     <g transform="translate(594.5 166.223437)scale(0.1 -0.1)">
      <defs>
       <path id="DejaVuSans-Oblique-3b6" d="M 1966 397 
Q 2378 394 2578 159 
Q 2794 -88 2722 -463 
Q 2650 -822 2372 -1072 
Q 2069 -1344 1559 -1344 
Q 1606 -1109 1650 -872 
Q 1863 -888 2022 -750 
Q 2144 -641 2166 -525 
Q 2197 -359 2125 -222 
Q 2050 -91 1872 -91 
Q -22 -91 316 1669 
Q 616 3206 2609 4284 
L 947 4284 
L 1059 4863 
L 3778 4863 
L 3666 4284 
Q 1181 3147 894 1669 
Q 647 397 1966 397 
z
" transform="scale(0.015625)"/>
       <path id="DejaVuSans-3d" d="M 678 2906 
L 4684 2906 
L 4684 2381 
L 678 2381 
L 678 2906 
z
M 678 1631 
L 4684 1631 
L 4684 1100 
L 678 1100 
L 678 1631 
z
" transform="scale(0.015625)"/>
       <path id="DejaVuSans-31" d="M 794 531 
L 1825 531 
L 1825 4091 
L 703 3866 
L 703 4441 
L 1819 4666 
L 2450 4666 
L 2450 531 
L 3481 531 
L 3481 0 
L 794 0 
L 794 531 
z
" transform="scale(0.015625)"/>
       <path id="DejaVuSans-2e" d="M 684 794 
L 1344 794 
L 1344 0 
L 684 0 
L 684 794 
z
" transform="scale(0.015625)"/>
       <path id="DejaVuSans-30" d="M 2034 4250 
Q 1547 4250 1301 3770 
Q 1056 3291 1056 2328 
Q 1056 1369 1301 889 
Q 1547 409 2034 409 
Q 2525 409 2770 889 
Q 3016 1369 3016 2328 
Q 3016 3291 2770 3770 
Q 2525 4250 2034 4250 
z
M 2034 4750 
Q 2819 4750 3233 4129 
Q 3647 3509 3647 2328 
Q 3647 1150 3233 529 
Q 2819 -91 2034 -91 
Q 1250 -91 836 529 
Q 422 1150 422 2328 
Q 422 3509 836 4129 
Q 1250 4750 2034 4750 
z
" transform="scale(0.015625)"/>
      </defs>
      <use xlink:href="#DejaVuSans-Oblique-3b6" transform="translate(0 0.015625)"/>
      <use xlink:href="#DejaVuSans-3d" transform="translate(73.876953 0.015625)"/>
      <use xlink:href="#DejaVuSans-31" transform="translate(177.148438 0.015625)"/>
      <use xlink:href="#DejaVuSans-2e" transform="translate(240.771484 0.015625)"/>
      <use xlink:href="#DejaVuSans-30" transform="translate(272.558594 0.015625)"/>
     </g>
    </g>
    <g id="line2d_38">
     <path d="M 566.5 177.465625 
L 576.5 177.465625 
L 586.5 177.465625 
" style="fill: none; stroke: #ff7f0e; stroke-width: 1.5; stroke-linecap: square"/>
    </g>
    <g id="text_20">
     <!-- $\zeta=0.7$ -->
     <g transform="translate(594.5 180.965625)scale(0.1 -0.1)">
      <defs>
       <path id="DejaVuSans-37" d="M 525 4666 
L 3525 4666 
L 3525 4397 
L 1831 0 
L 1172 0 
L 2766 4134 
L 525 4134 
L 525 4666 
z
" transform="scale(0.015625)"/>
      </defs>
      <use xlink:href="#DejaVuSans-Oblique-3b6" transform="translate(0 0.015625)"/>
      <use xlink:href="#DejaVuSans-3d" transform="translate(73.876953 0.015625)"/>
      <use xlink:href="#DejaVuSans-30" transform="translate(177.148438 0.015625)"/>
      <use xlink:href="#DejaVuSans-2e" transform="translate(240.771484 0.015625)"/>
      <use xlink:href="#DejaVuSans-37" transform="translate(264.808594 0.015625)"/>
     </g>
    </g>
    <g id="line2d_39">
     <path d="M 566.5 192.207812 
L 576.5 192.207812 
L 586.5 192.207812 
" style="fill: none; stroke: #2ca02c; stroke-width: 1.5; stroke-linecap: square"/>
    </g>
    <g id="text_21">
     <!-- $\zeta=0.2$ -->
     <g transform="translate(594.5 195.707812)scale(0.1 -0.1)">
      <defs>
       <path id="DejaVuSans-32" d="M 1228 531 
L 3431 531 
L 3431 0 
L 469 0 
L 469 531 
Q 828 903 1448 1529 
Q 2069 2156 2228 2338 
Q 2531 2678 2651 2914 
Q 2772 3150 2772 3378 
Q 2772 3750 2511 3984 
Q 2250 4219 1831 4219 
Q 1534 4219 1204 4116 
Q 875 4013 500 3803 
L 500 4441 
Q 881 4594 1212 4672 
Q 1544 4750 1819 4750 
Q 2544 4750 2975 4387 
Q 3406 4025 3406 3419 
Q 3406 3131 3298 2873 
Q 3191 2616 2906 2266 
Q 2828 2175 2409 1742 
Q 1991 1309 1228 531 
z
" transform="scale(0.015625)"/>
      </defs>
      <use xlink:href="#DejaVuSans-Oblique-3b6" transform="translate(0 0.015625)"/>
      <use xlink:href="#DejaVuSans-3d" transform="translate(73.876953 0.015625)"/>
      <use xlink:href="#DejaVuSans-30" transform="translate(177.148438 0.015625)"/>
      <use xlink:href="#DejaVuSans-2e" transform="translate(240.771484 0.015625)"/>
      <use xlink:href="#DejaVuSans-32" transform="translate(267.058594 0.015625)"/>
     </g>
    </g>
    <g id="line2d_40">
     <path d="M 566.5 206.95 
L 576.5 206.95 
L 586.5 206.95 
" style="fill: none; stroke: #d62728; stroke-width: 1.5; stroke-linecap: square"/>
    </g>
    <g id="text_22">
     <!-- $\zeta=0.0$ -->
     <g transform="translate(594.5 210.45)scale(0.1 -0.1)">
      <use xlink:href="#DejaVuSans-Oblique-3b6" transform="translate(0 0.015625)"/>
      <use xlink:href="#DejaVuSans-3d" transform="translate(73.876953 0.015625)"/>
      <use xlink:href="#DejaVuSans-30" transform="translate(177.148438 0.015625)"/>
      <use xlink:href="#DejaVuSans-2e" transform="translate(240.771484 0.015625)"/>
      <use xlink:href="#DejaVuSans-30" transform="translate(272.558594 0.015625)"/>
     </g>
    </g>
   </g>
  </g>
 </g>
 <defs>
  <clipPath id="p7d5bd38447">
   <rect x="47.055" y="14.76" width="590.145" height="206.79"/>
  </clipPath>
 </defs>
</svg>
